%TF.GenerationSoftware,KiCad,Pcbnew,7.0.9*%
%TF.CreationDate,2023-12-21T19:45:13+01:00*%
%TF.ProjectId,pcb_puissance,7063625f-7075-4697-9373-616e63652e6b,1.1*%
%TF.SameCoordinates,Original*%
%TF.FileFunction,Profile,NP*%
%FSLAX46Y46*%
G04 Gerber Fmt 4.6, Leading zero omitted, Abs format (unit mm)*
G04 Created by KiCad (PCBNEW 7.0.9) date 2023-12-21 19:45:13*
%MOMM*%
%LPD*%
G01*
G04 APERTURE LIST*
%TA.AperFunction,Profile*%
%ADD10C,0.100000*%
%TD*%
%TA.AperFunction,Profile*%
%ADD11C,0.050000*%
%TD*%
G04 APERTURE END LIST*
D10*
X140600000Y-96000000D02*
G75*
G03*
X140600000Y-96000000I-1600000J0D01*
G01*
X111100000Y-139500000D02*
G75*
G03*
X111100000Y-139500000I-1600000J0D01*
G01*
X61600000Y-139500000D02*
G75*
G03*
X61600000Y-139500000I-1600000J0D01*
G01*
X140600000Y-32000000D02*
G75*
G03*
X140600000Y-32000000I-1600000J0D01*
G01*
X30100000Y-96000000D02*
G75*
G03*
X30100000Y-96000000I-1600000J0D01*
G01*
X30100000Y-32000000D02*
G75*
G03*
X30100000Y-32000000I-1600000J0D01*
G01*
X147000000Y-32000000D02*
X147000000Y-96000000D01*
X140000000Y-103000000D01*
X116000000Y-103000000D01*
X114500000Y-104500000D01*
X114500000Y-143000000D01*
X113000000Y-144500000D01*
X56500000Y-144500000D01*
X55000000Y-143000000D01*
X55000000Y-104500000D01*
X53500000Y-103000000D01*
X27500000Y-103000000D01*
X20500000Y-96000000D01*
X20500000Y-32000000D01*
X27500000Y-25000000D01*
X69500000Y-25000000D01*
X98500000Y-25000000D01*
X140000000Y-25000000D01*
X147000000Y-32000000D01*
D11*
%TO.C,TRANSFO2*%
X41360000Y-94540000D02*
G75*
G03*
X41360000Y-94540000I-1600000J0D01*
G01*
X69360000Y-87540000D02*
G75*
G03*
X69360000Y-87540000I-1600000J0D01*
G01*
X69360000Y-44540000D02*
G75*
G03*
X69360000Y-44540000I-1600000J0D01*
G01*
X41360000Y-37540000D02*
G75*
G03*
X41360000Y-37540000I-1600000J0D01*
G01*
%TO.C,TRANSFO1*%
X129480000Y-37540000D02*
G75*
G03*
X129480000Y-37540000I-1600000J0D01*
G01*
X101480000Y-44540000D02*
G75*
G03*
X101480000Y-44540000I-1600000J0D01*
G01*
X101480000Y-87540000D02*
G75*
G03*
X101480000Y-87540000I-1600000J0D01*
G01*
X129480000Y-94540000D02*
G75*
G03*
X129480000Y-94540000I-1600000J0D01*
G01*
%TD*%
M02*
