M48
; DRILL file {KiCad 7.0.9} date Thu Dec 21 19:45:18 2023
; FORMAT={-:-/ absolute / inch / decimal}
; #@! TF.CreationDate,2023-12-21T19:45:18+01:00
; #@! TF.GenerationSoftware,Kicad,Pcbnew,7.0.9
; #@! TF.FileFunction,Plated,1,2,PTH
FMAT,2
INCH
; #@! TA.AperFunction,Plated,PTH,ViaDrill
T1C0.0157
; #@! TA.AperFunction,Plated,PTH,ComponentDrill
T2C0.0315
; #@! TA.AperFunction,Plated,PTH,ComponentDrill
T3C0.0394
; #@! TA.AperFunction,Plated,PTH,ComponentDrill
T4C0.0512
; #@! TA.AperFunction,Plated,PTH,ComponentDrill
T5C0.0551
; #@! TA.AperFunction,Plated,PTH,ComponentDrill
T6C0.0591
; #@! TA.AperFunction,Plated,PTH,ViaDrill
T7C0.0669
; #@! TA.AperFunction,Plated,PTH,ComponentDrill
T8C0.0669
%
G90
G05
T1
X2.2638Y-4.2323
X2.4803Y-1.7717
X2.6378Y-5.6594
X2.6575Y-3.7402
X2.7559Y-4.7244
X2.7953Y-2.2441
X2.7953Y-5.0787
X2.815Y-5.6594
X2.8543Y-3.3465
X2.9528Y-3.7402
X2.9528Y-4.2323
X2.9921Y-4.7244
X2.9921Y-5.0787
X2.9921Y-5.6594
X3.1693Y-5.6594
X3.3071Y-2.2441
X3.3465Y-3.7402
X3.3465Y-5.6594
X3.4252Y-5.1181
X3.5138Y-5.6594
X3.7008Y-5.6594
X3.7402Y-3.3465
X3.7795Y-2.2441
X3.7795Y-3.8976
X3.878Y-5.6594
X3.8976Y-4.5276
X4.0453Y-5.6594
X4.1732Y-1.7717
X4.3307Y-4.2323
X4.3307Y-5.1181
X4.7244Y-3.7402
T2
X2.874Y-3.6689
X2.874Y-3.9689
T3
X1.9587Y-3.8081
X1.9587Y-3.9081
X2.1555Y-3.8075
X2.1555Y-3.9075
X3.0709Y-3.378
X3.5433Y-3.378
X3.9764Y-3.877
X3.9764Y-3.977
T4
X3.0709Y-3.8583
X3.3091Y-3.3012
X3.5453Y-3.8602
T5
X2.4378Y-1.2992
X2.4378Y-4.964
X2.4654Y-4.4848
X2.6378Y-1.2992
X2.6378Y-4.964
X2.6654Y-4.4848
X3.2325Y-4.964
X3.2604Y-4.4848
X3.4325Y-4.964
X3.4604Y-4.4848
X3.9691Y-1.2992
X4.0297Y-4.964
X4.0478Y-4.4848
X4.1691Y-1.2992
X4.2297Y-4.964
X4.2478Y-4.4848
T6
X3.1161Y-1.2992
X3.498Y-1.2992
T7
X2.7181Y-2.1079
T8
X3.1402Y-2.1079
X3.1402Y-2.4366
X3.1402Y-2.7634
X3.1402Y-3.0921
X3.4598Y-2.1079
X3.4598Y-2.4366
X3.4598Y-2.7634
X3.4598Y-3.0921
T0
M30
