%TF.GenerationSoftware,KiCad,Pcbnew,7.0.9*%
%TF.CreationDate,2024-01-01T14:49:48+01:00*%
%TF.ProjectId,pcb_puissance,7063625f-7075-4697-9373-616e63652e6b,1.1*%
%TF.SameCoordinates,Original*%
%TF.FileFunction,Drillmap*%
%TF.FilePolarity,Positive*%
%FSLAX45Y45*%
G04 Gerber Fmt 4.5, Leading zero omitted, Abs format (unit mm)*
G04 Created by KiCad (PCBNEW 7.0.9) date 2024-01-01 14:49:48*
%MOMM*%
%LPD*%
G01*
G04 APERTURE LIST*
%ADD10C,0.100000*%
%ADD11C,0.200000*%
G04 APERTURE END LIST*
D10*
X14700000Y-3200000D02*
X14700000Y-9600000D01*
X14000000Y-10300000D01*
X11600000Y-10300000D01*
X11450000Y-10450000D01*
X11450000Y-14400000D01*
X11300000Y-14550000D01*
X5650000Y-14550000D01*
X5500000Y-14400000D01*
X5500000Y-10450000D01*
X5350000Y-10300000D01*
X2750000Y-10300000D01*
X2050000Y-9600000D01*
X2050000Y-3200000D01*
X2750000Y-2500000D01*
X6950000Y-2500000D01*
X9850000Y-2500000D01*
X14000000Y-2500000D01*
X14700000Y-3200000D01*
D11*
X2305777Y-14866484D02*
X2305777Y-14666484D01*
X2305777Y-14666484D02*
X2353396Y-14666484D01*
X2353396Y-14666484D02*
X2381967Y-14676008D01*
X2381967Y-14676008D02*
X2401015Y-14695055D01*
X2401015Y-14695055D02*
X2410539Y-14714103D01*
X2410539Y-14714103D02*
X2420063Y-14752198D01*
X2420063Y-14752198D02*
X2420063Y-14780769D01*
X2420063Y-14780769D02*
X2410539Y-14818865D01*
X2410539Y-14818865D02*
X2401015Y-14837912D01*
X2401015Y-14837912D02*
X2381967Y-14856960D01*
X2381967Y-14856960D02*
X2353396Y-14866484D01*
X2353396Y-14866484D02*
X2305777Y-14866484D01*
X2505777Y-14866484D02*
X2505777Y-14733150D01*
X2505777Y-14771246D02*
X2515301Y-14752198D01*
X2515301Y-14752198D02*
X2524824Y-14742674D01*
X2524824Y-14742674D02*
X2543872Y-14733150D01*
X2543872Y-14733150D02*
X2562920Y-14733150D01*
X2629586Y-14866484D02*
X2629586Y-14733150D01*
X2629586Y-14666484D02*
X2620063Y-14676008D01*
X2620063Y-14676008D02*
X2629586Y-14685531D01*
X2629586Y-14685531D02*
X2639110Y-14676008D01*
X2639110Y-14676008D02*
X2629586Y-14666484D01*
X2629586Y-14666484D02*
X2629586Y-14685531D01*
X2753396Y-14866484D02*
X2734348Y-14856960D01*
X2734348Y-14856960D02*
X2724824Y-14837912D01*
X2724824Y-14837912D02*
X2724824Y-14666484D01*
X2858158Y-14866484D02*
X2839110Y-14856960D01*
X2839110Y-14856960D02*
X2829586Y-14837912D01*
X2829586Y-14837912D02*
X2829586Y-14666484D01*
X3086729Y-14866484D02*
X3086729Y-14666484D01*
X3086729Y-14666484D02*
X3153396Y-14809341D01*
X3153396Y-14809341D02*
X3220062Y-14666484D01*
X3220062Y-14666484D02*
X3220062Y-14866484D01*
X3401015Y-14866484D02*
X3401015Y-14761722D01*
X3401015Y-14761722D02*
X3391491Y-14742674D01*
X3391491Y-14742674D02*
X3372443Y-14733150D01*
X3372443Y-14733150D02*
X3334348Y-14733150D01*
X3334348Y-14733150D02*
X3315301Y-14742674D01*
X3401015Y-14856960D02*
X3381967Y-14866484D01*
X3381967Y-14866484D02*
X3334348Y-14866484D01*
X3334348Y-14866484D02*
X3315301Y-14856960D01*
X3315301Y-14856960D02*
X3305777Y-14837912D01*
X3305777Y-14837912D02*
X3305777Y-14818865D01*
X3305777Y-14818865D02*
X3315301Y-14799817D01*
X3315301Y-14799817D02*
X3334348Y-14790293D01*
X3334348Y-14790293D02*
X3381967Y-14790293D01*
X3381967Y-14790293D02*
X3401015Y-14780769D01*
X3496253Y-14733150D02*
X3496253Y-14933150D01*
X3496253Y-14742674D02*
X3515301Y-14733150D01*
X3515301Y-14733150D02*
X3553396Y-14733150D01*
X3553396Y-14733150D02*
X3572443Y-14742674D01*
X3572443Y-14742674D02*
X3581967Y-14752198D01*
X3581967Y-14752198D02*
X3591491Y-14771246D01*
X3591491Y-14771246D02*
X3591491Y-14828388D01*
X3591491Y-14828388D02*
X3581967Y-14847436D01*
X3581967Y-14847436D02*
X3572443Y-14856960D01*
X3572443Y-14856960D02*
X3553396Y-14866484D01*
X3553396Y-14866484D02*
X3515301Y-14866484D01*
X3515301Y-14866484D02*
X3496253Y-14856960D01*
X3677205Y-14847436D02*
X3686729Y-14856960D01*
X3686729Y-14856960D02*
X3677205Y-14866484D01*
X3677205Y-14866484D02*
X3667682Y-14856960D01*
X3667682Y-14856960D02*
X3677205Y-14847436D01*
X3677205Y-14847436D02*
X3677205Y-14866484D01*
X3677205Y-14742674D02*
X3686729Y-14752198D01*
X3686729Y-14752198D02*
X3677205Y-14761722D01*
X3677205Y-14761722D02*
X3667682Y-14752198D01*
X3667682Y-14752198D02*
X3677205Y-14742674D01*
X3677205Y-14742674D02*
X3677205Y-14761722D01*
M02*
