%TF.GenerationSoftware,KiCad,Pcbnew,7.0.9*%
%TF.CreationDate,2023-12-22T16:48:57+01:00*%
%TF.ProjectId,pcb_puissance,7063625f-7075-4697-9373-616e63652e6b,1.1*%
%TF.SameCoordinates,Original*%
%TF.FileFunction,Soldermask,Bot*%
%TF.FilePolarity,Negative*%
%FSLAX46Y46*%
G04 Gerber Fmt 4.6, Leading zero omitted, Abs format (unit mm)*
G04 Created by KiCad (PCBNEW 7.0.9) date 2023-12-22 16:48:57*
%MOMM*%
%LPD*%
G01*
G04 APERTURE LIST*
%ADD10C,7.500000*%
%ADD11C,3.500000*%
%ADD12R,2.100000X2.100000*%
%ADD13C,2.100000*%
%ADD14R,1.700000X1.700000*%
%ADD15O,1.700000X1.700000*%
%ADD16R,1.600000X1.600000*%
%ADD17O,1.600000X1.600000*%
%ADD18C,3.000000*%
%ADD19C,2.500000*%
G04 APERTURE END LIST*
D10*
%TO.C,TRANSFO2*%
X39700000Y-37550000D03*
X67700000Y-44550000D03*
X67700000Y-87550000D03*
X39700000Y-94550000D03*
D11*
X79700000Y-53550000D03*
X79700000Y-61900000D03*
X79700000Y-70200000D03*
X79700000Y-78550000D03*
%TD*%
%TO.C,TRANSFO1*%
X87900000Y-53550000D03*
X87900000Y-61900000D03*
X87900000Y-70200000D03*
X87900000Y-78550000D03*
D10*
X127900000Y-37550000D03*
X99900000Y-44550000D03*
X99900000Y-87550000D03*
X127900000Y-94550000D03*
%TD*%
%TO.C,Fix6*%
X109500000Y-140500000D03*
%TD*%
%TO.C,Fix5*%
X60000000Y-140500000D03*
%TD*%
%TO.C,Fix4*%
X139000000Y-96000000D03*
%TD*%
%TO.C,Fix3*%
X28500000Y-96000000D03*
%TD*%
%TO.C,Fix2*%
X139000000Y-32000000D03*
%TD*%
%TO.C,Fix1*%
X28500000Y-32000000D03*
%TD*%
D12*
%TO.C,J1*%
X100815000Y-33000000D03*
D13*
X105895000Y-33000000D03*
%TD*%
D12*
%TO.C,J5*%
X62620000Y-114415000D03*
D13*
X67700000Y-114415000D03*
%TD*%
D14*
%TO.C,J10*%
X54750000Y-96710000D03*
D15*
X54750000Y-99250000D03*
%TD*%
D12*
%TO.C,J6*%
X67000000Y-126085000D03*
D13*
X61920000Y-126085000D03*
%TD*%
D12*
%TO.C,J3*%
X107435000Y-126085000D03*
D13*
X102355000Y-126085000D03*
%TD*%
D12*
%TO.C,J2*%
X61920000Y-33000000D03*
D13*
X67000000Y-33000000D03*
%TD*%
D12*
%TO.C,J4*%
X102815000Y-114415000D03*
D13*
X107895000Y-114415000D03*
%TD*%
D14*
%TO.C,J9*%
X101000000Y-98475000D03*
D15*
X101000000Y-101015000D03*
%TD*%
D11*
%TO.C,F1*%
X88850000Y-33000000D03*
X79150000Y-33000000D03*
%TD*%
D12*
%TO.C,J7*%
X87185000Y-126085000D03*
D13*
X82105000Y-126085000D03*
%TD*%
D12*
%TO.C,J8*%
X82815000Y-114415000D03*
D13*
X87895000Y-114415000D03*
%TD*%
D16*
%TO.C,D9*%
X73000000Y-100810000D03*
D17*
X73000000Y-93190000D03*
%TD*%
D18*
%TO.C,K1*%
X84000000Y-83100000D03*
D19*
X77950000Y-85050000D03*
D18*
X77950000Y-97250000D03*
X90000000Y-97300000D03*
D19*
X89950000Y-85050000D03*
%TD*%
D14*
%TO.C,J11*%
X49750000Y-96725000D03*
D15*
X49750000Y-99265000D03*
%TD*%
M02*
