%TF.GenerationSoftware,KiCad,Pcbnew,7.0.9*%
%TF.CreationDate,2023-12-22T13:28:02+01:00*%
%TF.ProjectId,pcb_puissance,7063625f-7075-4697-9373-616e63652e6b,1.1*%
%TF.SameCoordinates,Original*%
%TF.FileFunction,Soldermask,Top*%
%TF.FilePolarity,Negative*%
%FSLAX46Y46*%
G04 Gerber Fmt 4.6, Leading zero omitted, Abs format (unit mm)*
G04 Created by KiCad (PCBNEW 7.0.9) date 2023-12-22 13:28:02*
%MOMM*%
%LPD*%
G01*
G04 APERTURE LIST*
G04 Aperture macros list*
%AMRoundRect*
0 Rectangle with rounded corners*
0 $1 Rounding radius*
0 $2 $3 $4 $5 $6 $7 $8 $9 X,Y pos of 4 corners*
0 Add a 4 corners polygon primitive as box body*
4,1,4,$2,$3,$4,$5,$6,$7,$8,$9,$2,$3,0*
0 Add four circle primitives for the rounded corners*
1,1,$1+$1,$2,$3*
1,1,$1+$1,$4,$5*
1,1,$1+$1,$6,$7*
1,1,$1+$1,$8,$9*
0 Add four rect primitives between the rounded corners*
20,1,$1+$1,$2,$3,$4,$5,0*
20,1,$1+$1,$4,$5,$6,$7,0*
20,1,$1+$1,$6,$7,$8,$9,0*
20,1,$1+$1,$8,$9,$2,$3,0*%
G04 Aperture macros list end*
%ADD10C,3.850000*%
%ADD11C,3.800000*%
%ADD12C,3.500000*%
%ADD13O,1.700000X1.700000*%
%ADD14R,1.700000X1.700000*%
%ADD15R,2.100000X2.100000*%
%ADD16C,2.100000*%
%ADD17C,3.000000*%
%ADD18C,2.500000*%
%ADD19RoundRect,0.250000X0.450000X-0.262500X0.450000X0.262500X-0.450000X0.262500X-0.450000X-0.262500X0*%
%ADD20RoundRect,0.250000X0.625000X-0.375000X0.625000X0.375000X-0.625000X0.375000X-0.625000X-0.375000X0*%
%ADD21R,1.600000X1.600000*%
%ADD22O,1.600000X1.600000*%
G04 APERTURE END LIST*
D10*
X140925000Y-32000000D02*
G75*
G03*
X140925000Y-32000000I-1925000J0D01*
G01*
X30425000Y-32000000D02*
G75*
G03*
X30425000Y-32000000I-1925000J0D01*
G01*
X30425000Y-96000000D02*
G75*
G03*
X30425000Y-96000000I-1925000J0D01*
G01*
X140925000Y-96000000D02*
G75*
G03*
X140925000Y-96000000I-1925000J0D01*
G01*
X111425000Y-140500000D02*
G75*
G03*
X111425000Y-140500000I-1925000J0D01*
G01*
X61925000Y-140500000D02*
G75*
G03*
X61925000Y-140500000I-1925000J0D01*
G01*
%TO.C,TRANSFO2*%
D11*
X41660000Y-94540000D02*
G75*
G03*
X41660000Y-94540000I-1900000J0D01*
G01*
X69660000Y-87540000D02*
G75*
G03*
X69660000Y-87540000I-1900000J0D01*
G01*
X69660000Y-44540000D02*
G75*
G03*
X69660000Y-44540000I-1900000J0D01*
G01*
X41660000Y-37540000D02*
G75*
G03*
X41660000Y-37540000I-1900000J0D01*
G01*
%TO.C,TRANSFO1*%
X129780000Y-37540000D02*
G75*
G03*
X129780000Y-37540000I-1900000J0D01*
G01*
X101780000Y-44540000D02*
G75*
G03*
X101780000Y-44540000I-1900000J0D01*
G01*
X101780000Y-87540000D02*
G75*
G03*
X101780000Y-87540000I-1900000J0D01*
G01*
X129780000Y-94540000D02*
G75*
G03*
X129780000Y-94540000I-1900000J0D01*
G01*
%TD*%
D12*
%TO.C,TRANSFO2*%
X79760000Y-78540000D03*
X79760000Y-70190000D03*
X79760000Y-61890000D03*
X79760000Y-53540000D03*
%TD*%
%TO.C,TRANSFO1*%
X87880000Y-53540000D03*
X87880000Y-61890000D03*
X87880000Y-70190000D03*
X87880000Y-78540000D03*
%TD*%
D13*
%TO.C,J11*%
X49750000Y-99265000D03*
D14*
X49750000Y-96725000D03*
%TD*%
%TO.C,J10*%
X54750000Y-96710000D03*
D13*
X54750000Y-99250000D03*
%TD*%
D14*
%TO.C,J9*%
X101000000Y-98475000D03*
D13*
X101000000Y-101015000D03*
%TD*%
D15*
%TO.C,J3*%
X107435000Y-126085000D03*
D16*
X102355000Y-126085000D03*
%TD*%
D17*
%TO.C,K1*%
X84000000Y-83100000D03*
D18*
X77950000Y-85050000D03*
D17*
X77950000Y-97250000D03*
X90000000Y-97300000D03*
D18*
X89950000Y-85050000D03*
%TD*%
D19*
%TO.C,R8*%
X78084000Y-136312500D03*
X78084000Y-134487500D03*
%TD*%
%TO.C,R4*%
X91500000Y-136312500D03*
X91500000Y-134487500D03*
%TD*%
D16*
%TO.C,J1*%
X105895000Y-33000000D03*
D15*
X100815000Y-33000000D03*
%TD*%
%TO.C,J5*%
X62620000Y-114415000D03*
D16*
X67700000Y-114415000D03*
%TD*%
%TO.C,J6*%
X61920000Y-126085000D03*
D15*
X67000000Y-126085000D03*
%TD*%
D19*
%TO.C,R5*%
X69084000Y-136312500D03*
X69084000Y-134487500D03*
%TD*%
%TO.C,R2*%
X82584000Y-136312500D03*
X82584000Y-134487500D03*
%TD*%
D20*
%TO.C,D2*%
X82584000Y-143900000D03*
X82584000Y-141100000D03*
%TD*%
D15*
%TO.C,J2*%
X61920000Y-33000000D03*
D16*
X67000000Y-33000000D03*
%TD*%
D20*
%TO.C,D5*%
X69084000Y-143900000D03*
X69084000Y-141100000D03*
%TD*%
%TO.C,D4*%
X91500000Y-143900000D03*
X91500000Y-141100000D03*
%TD*%
D19*
%TO.C,R7*%
X96084000Y-136312500D03*
X96084000Y-134487500D03*
%TD*%
D16*
%TO.C,J4*%
X107895000Y-114415000D03*
D15*
X102815000Y-114415000D03*
%TD*%
D20*
%TO.C,D1*%
X73584000Y-143900000D03*
X73584000Y-141100000D03*
%TD*%
D19*
%TO.C,R1*%
X73584000Y-136312500D03*
X73584000Y-134487500D03*
%TD*%
D20*
%TO.C,D8*%
X78084000Y-143900000D03*
X78084000Y-141100000D03*
%TD*%
D12*
%TO.C,F1*%
X88850000Y-33000000D03*
X79150000Y-33000000D03*
%TD*%
D15*
%TO.C,J7*%
X87185000Y-126085000D03*
D16*
X82105000Y-126085000D03*
%TD*%
D20*
%TO.C,D7*%
X96072000Y-143900000D03*
X96072000Y-141100000D03*
%TD*%
D19*
%TO.C,R3*%
X100742000Y-136320500D03*
X100742000Y-134495500D03*
%TD*%
D20*
%TO.C,D6*%
X87084000Y-143900000D03*
X87084000Y-141100000D03*
%TD*%
D15*
%TO.C,J8*%
X82815000Y-114415000D03*
D16*
X87895000Y-114415000D03*
%TD*%
D19*
%TO.C,R6*%
X87084000Y-136312500D03*
X87084000Y-134487500D03*
%TD*%
D20*
%TO.C,D3*%
X100750000Y-143908000D03*
X100750000Y-141108000D03*
%TD*%
D21*
%TO.C,D9*%
X73000000Y-100810000D03*
D22*
X73000000Y-93190000D03*
%TD*%
M02*
