%TF.GenerationSoftware,KiCad,Pcbnew,7.0.9*%
%TF.CreationDate,2023-12-24T18:11:20+01:00*%
%TF.ProjectId,pcb_puissance,7063625f-7075-4697-9373-616e63652e6b,1.1*%
%TF.SameCoordinates,Original*%
%TF.FileFunction,Copper,L2,Bot*%
%TF.FilePolarity,Positive*%
%FSLAX46Y46*%
G04 Gerber Fmt 4.6, Leading zero omitted, Abs format (unit mm)*
G04 Created by KiCad (PCBNEW 7.0.9) date 2023-12-24 18:11:20*
%MOMM*%
%LPD*%
G01*
G04 APERTURE LIST*
%TA.AperFunction,ComponentPad*%
%ADD10C,7.500000*%
%TD*%
%TA.AperFunction,ComponentPad*%
%ADD11C,3.500000*%
%TD*%
%TA.AperFunction,ComponentPad*%
%ADD12R,2.100000X2.100000*%
%TD*%
%TA.AperFunction,ComponentPad*%
%ADD13C,2.100000*%
%TD*%
%TA.AperFunction,ComponentPad*%
%ADD14R,1.700000X1.700000*%
%TD*%
%TA.AperFunction,ComponentPad*%
%ADD15O,1.700000X1.700000*%
%TD*%
%TA.AperFunction,ComponentPad*%
%ADD16R,1.600000X1.600000*%
%TD*%
%TA.AperFunction,ComponentPad*%
%ADD17O,1.600000X1.600000*%
%TD*%
%TA.AperFunction,ComponentPad*%
%ADD18C,3.000000*%
%TD*%
%TA.AperFunction,ComponentPad*%
%ADD19C,2.500000*%
%TD*%
%TA.AperFunction,ViaPad*%
%ADD20C,0.800000*%
%TD*%
%TA.AperFunction,ViaPad*%
%ADD21C,3.500000*%
%TD*%
%TA.AperFunction,Conductor*%
%ADD22C,5.000000*%
%TD*%
G04 APERTURE END LIST*
D10*
%TO.P,Fix4,1,1*%
%TO.N,GND*%
X139000000Y-96000000D03*
%TD*%
D11*
%TO.P,TRANSFO1,1,Primaire_+*%
%TO.N,+12V*%
X87900000Y-53550000D03*
%TO.P,TRANSFO1,2,Primaire_GND*%
%TO.N,GND*%
X87900000Y-61900000D03*
%TO.P,TRANSFO1,3,Secondaire_GND*%
X87900000Y-70200000D03*
%TO.P,TRANSFO1,4,Secondaire_+*%
%TO.N,TRANSFO1*%
X87900000Y-78550000D03*
D10*
%TO.P,TRANSFO1,5,Fix*%
%TO.N,GND*%
X127900000Y-37550000D03*
X99900000Y-44550000D03*
X99900000Y-87550000D03*
X127900000Y-94550000D03*
%TD*%
D12*
%TO.P,J1,1,1*%
%TO.N,BATTERY*%
X100815000Y-33000000D03*
D13*
%TO.P,J1,2,2*%
%TO.N,GND*%
X105895000Y-33000000D03*
%TD*%
D10*
%TO.P,Fix2,1,1*%
%TO.N,GND*%
X139000000Y-32000000D03*
%TD*%
D12*
%TO.P,J5,1,1*%
%TO.N,+5V*%
X62620000Y-114415000D03*
D13*
%TO.P,J5,2,2*%
%TO.N,BUTTON_NO*%
X67700000Y-114415000D03*
%TD*%
D14*
%TO.P,J10,1,Pin_1*%
%TO.N,+5V*%
X54750000Y-96710000D03*
D15*
%TO.P,J10,2,Pin_2*%
%TO.N,GND*%
X54750000Y-99250000D03*
%TD*%
D12*
%TO.P,J6,1,1*%
%TO.N,+5V*%
X67000000Y-126085000D03*
D13*
%TO.P,J6,2,2*%
%TO.N,GND*%
X61920000Y-126085000D03*
%TD*%
D12*
%TO.P,J3,1,1*%
%TO.N,BUTTON_NC*%
X107435000Y-126085000D03*
D13*
%TO.P,J3,2,2*%
%TO.N,GND*%
X102355000Y-126085000D03*
%TD*%
D12*
%TO.P,J2,1,1*%
%TO.N,+12V*%
X61920000Y-33000000D03*
D13*
%TO.P,J2,2,2*%
%TO.N,GND*%
X67000000Y-33000000D03*
%TD*%
D11*
%TO.P,TRANSFO2,1,Primaire_+*%
%TO.N,+12V*%
X79700000Y-78550000D03*
%TO.P,TRANSFO2,2,Primaire_GND*%
%TO.N,GND*%
X79700000Y-70200000D03*
%TO.P,TRANSFO2,3,Secondaire_GND*%
X79700000Y-61900000D03*
%TO.P,TRANSFO2,4,Secondaire_+*%
%TO.N,+5V*%
X79700000Y-53550000D03*
D10*
%TO.P,TRANSFO2,5,Fix*%
%TO.N,GND*%
X39700000Y-94550000D03*
X67700000Y-87550000D03*
X67700000Y-44550000D03*
X39700000Y-37550000D03*
%TD*%
D12*
%TO.P,J4,1,1*%
%TO.N,+12V*%
X102815000Y-114415000D03*
D13*
%TO.P,J4,2,2*%
%TO.N,BUTTON_NC*%
X107895000Y-114415000D03*
%TD*%
D10*
%TO.P,Fix5,1,1*%
%TO.N,GND*%
X60000000Y-140500000D03*
%TD*%
%TO.P,Fix3,1,1*%
%TO.N,GND*%
X28500000Y-96000000D03*
%TD*%
%TO.P,Fix6,1,1*%
%TO.N,GND*%
X109500000Y-140500000D03*
%TD*%
D14*
%TO.P,J9,1,Pin_1*%
%TO.N,+12V*%
X101000000Y-98475000D03*
D15*
%TO.P,J9,2,Pin_2*%
%TO.N,GND*%
X101000000Y-101015000D03*
%TD*%
D11*
%TO.P,F1,1*%
%TO.N,BATTERY*%
X88850000Y-33000000D03*
%TO.P,F1,2*%
%TO.N,+12V*%
X79150000Y-33000000D03*
%TD*%
D12*
%TO.P,J7,1,1*%
%TO.N,RELAY_NO*%
X87185000Y-126085000D03*
D13*
%TO.P,J7,2,2*%
%TO.N,GND*%
X82105000Y-126085000D03*
%TD*%
D10*
%TO.P,Fix1,1,1*%
%TO.N,GND*%
X28500000Y-32000000D03*
%TD*%
D12*
%TO.P,J8,1,1*%
%TO.N,RELAY_NC*%
X82815000Y-114415000D03*
D13*
%TO.P,J8,2,2*%
%TO.N,GND*%
X87895000Y-114415000D03*
%TD*%
D16*
%TO.P,D9,1,K*%
%TO.N,GND*%
X73000000Y-100810000D03*
D17*
%TO.P,D9,2,A*%
%TO.N,BUTTON_NO*%
X73000000Y-93190000D03*
%TD*%
D18*
%TO.P,K1,1*%
%TO.N,TRANSFO1*%
X84000000Y-83100000D03*
D19*
%TO.P,K1,2*%
%TO.N,BUTTON_NO*%
X77950000Y-85050000D03*
D18*
%TO.P,K1,3*%
%TO.N,RELAY_NC*%
X77950000Y-97250000D03*
%TO.P,K1,4*%
%TO.N,RELAY_NO*%
X90000000Y-97300000D03*
D19*
%TO.P,K1,5*%
%TO.N,GND*%
X89950000Y-85050000D03*
%TD*%
D14*
%TO.P,J11,1,Pin_1*%
%TO.N,GND*%
X49750000Y-96725000D03*
D15*
%TO.P,J11,2,Pin_2*%
X49750000Y-99265000D03*
%TD*%
D20*
%TO.N,GND*%
X93000000Y-60000000D03*
X100000000Y-55000000D03*
X105000000Y-60000000D03*
X110000000Y-60000000D03*
X135000000Y-65000000D03*
X145000000Y-55000000D03*
X76250000Y-101500000D03*
X96250000Y-99000000D03*
X50000000Y-70000000D03*
X45000000Y-30000000D03*
X50000000Y-40000000D03*
X55000000Y-35000000D03*
X40000000Y-85000000D03*
X45000000Y-65000000D03*
X145000000Y-45000000D03*
X75000000Y-80000000D03*
X130000000Y-55000000D03*
X70000000Y-40000000D03*
X110000000Y-35000000D03*
X112500000Y-112500000D03*
X73000000Y-42750000D03*
X55000000Y-55000000D03*
X70000000Y-60000000D03*
X120000000Y-55000000D03*
X125000000Y-45000000D03*
X55000000Y-75000000D03*
X71750000Y-130000000D03*
X85000000Y-95000000D03*
X94250000Y-135000000D03*
X45000000Y-95000000D03*
X76000000Y-120000000D03*
X25000000Y-75000000D03*
X60000000Y-55000000D03*
X110000000Y-30000000D03*
X135000000Y-45000000D03*
X102750000Y-140000000D03*
X110000000Y-50000000D03*
X71500000Y-140000000D03*
X69750000Y-107500000D03*
X115000000Y-85000000D03*
X130000000Y-60000000D03*
X40000000Y-75000000D03*
X75250000Y-113750000D03*
X84000000Y-57000000D03*
X40000000Y-45000000D03*
X120000000Y-30000000D03*
X75000000Y-85000000D03*
X135000000Y-50000000D03*
X115000000Y-80000000D03*
X35000000Y-85000000D03*
X120000000Y-65000000D03*
X94250000Y-130000000D03*
X85000000Y-89000000D03*
X120000000Y-50000000D03*
X35000000Y-70000000D03*
X125000000Y-80000000D03*
X140000000Y-65000000D03*
X115000000Y-100000000D03*
X55000000Y-85000000D03*
X120000000Y-100000000D03*
X135000000Y-55000000D03*
X70000000Y-70000000D03*
X110000000Y-107500000D03*
X67250000Y-130000000D03*
X30000000Y-85000000D03*
X65250000Y-40000000D03*
X70000000Y-35000000D03*
X35000000Y-50000000D03*
X98500000Y-135000000D03*
X35000000Y-90000000D03*
X60000000Y-40000000D03*
X112500000Y-90000000D03*
X95000000Y-90000000D03*
X50000000Y-75000000D03*
X115000000Y-75000000D03*
X98700000Y-122100000D03*
X66500000Y-107500000D03*
X99000000Y-107500000D03*
X100000000Y-75000000D03*
X71750000Y-135000000D03*
X25000000Y-65000000D03*
X105000000Y-50000000D03*
X102500000Y-122500000D03*
X120000000Y-35000000D03*
X140000000Y-75000000D03*
X76250000Y-135000000D03*
X100000000Y-50000000D03*
X95000000Y-70000000D03*
X85000000Y-135000000D03*
X130000000Y-75000000D03*
X115000000Y-70000000D03*
X79000000Y-49000000D03*
X96100000Y-121700000D03*
X140000000Y-90000000D03*
X25000000Y-90000000D03*
X45000000Y-60000000D03*
X35000000Y-60000000D03*
X88500000Y-26250000D03*
X50000000Y-65000000D03*
X30000000Y-50000000D03*
X94000000Y-140000000D03*
X30000000Y-60000000D03*
X130000000Y-90000000D03*
X57500000Y-120000000D03*
X35000000Y-55000000D03*
X87500000Y-101500000D03*
X83500000Y-120250000D03*
X67250000Y-135000000D03*
X112500000Y-118500000D03*
X50000000Y-30000000D03*
X66500000Y-101000000D03*
X112500000Y-80000000D03*
X67500000Y-95000000D03*
X120000000Y-95000000D03*
X125000000Y-70000000D03*
X98500000Y-140000000D03*
X50000000Y-50000000D03*
X140000000Y-55000000D03*
X145000000Y-60000000D03*
X60000000Y-45000000D03*
X112500000Y-70000000D03*
X95000000Y-75000000D03*
X130000000Y-80000000D03*
X45000000Y-75000000D03*
X115000000Y-95000000D03*
X110000000Y-40000000D03*
X120000000Y-60000000D03*
X50000000Y-45000000D03*
X80750000Y-130000000D03*
X112500000Y-75000000D03*
X100000000Y-70000000D03*
X98500000Y-130000000D03*
X106000000Y-136250000D03*
X135000000Y-80000000D03*
X110000000Y-55000000D03*
X89750000Y-135000000D03*
X145000000Y-70000000D03*
X62750000Y-130000000D03*
X115000000Y-60000000D03*
X30000000Y-75000000D03*
X81000000Y-89000000D03*
X140000000Y-80000000D03*
X76250000Y-130000000D03*
X81000000Y-95000000D03*
X71500000Y-124750000D03*
X57500000Y-107500000D03*
X87000000Y-130000000D03*
X30000000Y-80000000D03*
X95000000Y-85000000D03*
X45000000Y-80000000D03*
X135000000Y-85000000D03*
X112500000Y-125000000D03*
X25000000Y-50000000D03*
X40000000Y-65000000D03*
X125000000Y-55000000D03*
X120000000Y-70000000D03*
X67000000Y-140000000D03*
X25000000Y-45000000D03*
X65000000Y-50000000D03*
X115000000Y-30000000D03*
X50000000Y-85000000D03*
X115000000Y-55000000D03*
X55000000Y-50000000D03*
X45000000Y-90000000D03*
X115000000Y-65000000D03*
X55000000Y-30000000D03*
X25000000Y-55000000D03*
X50000000Y-90000000D03*
X145000000Y-85000000D03*
X110000000Y-130000000D03*
X140000000Y-60000000D03*
X115000000Y-40000000D03*
X25000000Y-70000000D03*
X50000000Y-60000000D03*
X25000000Y-80000000D03*
X125000000Y-65000000D03*
X40000000Y-55000000D03*
X112500000Y-105000000D03*
X95000000Y-80000000D03*
X45000000Y-45000000D03*
X100000000Y-40000000D03*
X99000000Y-115000000D03*
X109250000Y-26250000D03*
X50000000Y-80000000D03*
X145000000Y-50000000D03*
X115000000Y-35000000D03*
X45000000Y-70000000D03*
X130000000Y-70000000D03*
X40000000Y-70000000D03*
X84000000Y-30000000D03*
X40000000Y-90000000D03*
X55000000Y-65000000D03*
X70000000Y-65000000D03*
X78000000Y-26500000D03*
X55000000Y-60000000D03*
X72000000Y-32000000D03*
X97750000Y-26250000D03*
X110000000Y-45000000D03*
X135000000Y-75000000D03*
X125000000Y-90000000D03*
X96300000Y-115000000D03*
X57500000Y-130000000D03*
X102500000Y-95000000D03*
X145000000Y-80000000D03*
X80750000Y-135000000D03*
X60000000Y-50000000D03*
X89250000Y-140000000D03*
X35000000Y-45000000D03*
X120000000Y-90000000D03*
X30000000Y-55000000D03*
X30000000Y-65000000D03*
X45000000Y-50000000D03*
X115000000Y-90000000D03*
X70000000Y-120000000D03*
X35000000Y-75000000D03*
X125000000Y-75000000D03*
X130000000Y-50000000D03*
X75000000Y-95000000D03*
X75000000Y-107500000D03*
X112500000Y-135000000D03*
X120000000Y-45000000D03*
X88000000Y-107500000D03*
X55000000Y-80000000D03*
X125000000Y-60000000D03*
X76250000Y-124750000D03*
X112500000Y-100000000D03*
X70000000Y-50000000D03*
X55000000Y-40000000D03*
X80500000Y-140000000D03*
X85000000Y-140000000D03*
X35000000Y-80000000D03*
X30000000Y-45000000D03*
X140000000Y-45000000D03*
X30000000Y-90000000D03*
X145000000Y-65000000D03*
X70000000Y-80000000D03*
X25000000Y-85000000D03*
X140000000Y-85000000D03*
X40000000Y-80000000D03*
X58500000Y-26250000D03*
X55000000Y-90000000D03*
X105000000Y-45000000D03*
X135000000Y-70000000D03*
X120000000Y-80000000D03*
X140000000Y-70000000D03*
X40000000Y-50000000D03*
X120000000Y-85000000D03*
X55000000Y-70000000D03*
X30000000Y-70000000D03*
X130000000Y-45000000D03*
X50000000Y-35000000D03*
X45000000Y-55000000D03*
X45000000Y-40000000D03*
X70000000Y-75000000D03*
X125000000Y-50000000D03*
X65250000Y-35000000D03*
X85000000Y-37000000D03*
X130000000Y-85000000D03*
X105000000Y-30000000D03*
X57500000Y-135000000D03*
X57500000Y-125000000D03*
X100000000Y-95000000D03*
X25000000Y-60000000D03*
X115000000Y-50000000D03*
X115000000Y-45000000D03*
X140000000Y-50000000D03*
X92000000Y-40000000D03*
X125000000Y-85000000D03*
X100000000Y-80000000D03*
X62750000Y-135000000D03*
X57500000Y-114000000D03*
X145000000Y-75000000D03*
X130000000Y-65000000D03*
X135000000Y-90000000D03*
X35000000Y-65000000D03*
X112500000Y-85000000D03*
X120000000Y-40000000D03*
X95000000Y-65000000D03*
X105000000Y-40000000D03*
X66500000Y-116000000D03*
X50000000Y-55000000D03*
X112500000Y-65000000D03*
X40000000Y-60000000D03*
X76000000Y-140000000D03*
X112500000Y-95000000D03*
X96400000Y-107500000D03*
X55000000Y-45000000D03*
X45000000Y-100000000D03*
X120000000Y-75000000D03*
X105000000Y-132500000D03*
X105000000Y-55000000D03*
X104500000Y-118500000D03*
X70250000Y-113750000D03*
X145000000Y-90000000D03*
X45000000Y-35000000D03*
X45000000Y-85000000D03*
X135000000Y-60000000D03*
D21*
%TO.N,+5V*%
X69040000Y-53540000D03*
%TD*%
D22*
%TO.N,+5V*%
X79720000Y-53500000D02*
X79760000Y-53540000D01*
X69040000Y-53540000D02*
X79760000Y-53540000D01*
%TD*%
%TA.AperFunction,Conductor*%
%TO.N,GND*%
G36*
X139911917Y-25270185D02*
G01*
X139932559Y-25286819D01*
X146713181Y-32067441D01*
X146746666Y-32128764D01*
X146749500Y-32155122D01*
X146749500Y-95844878D01*
X146729815Y-95911917D01*
X146713181Y-95932559D01*
X139932559Y-102713181D01*
X139871236Y-102746666D01*
X139844878Y-102749500D01*
X116036886Y-102749500D01*
X116012694Y-102747117D01*
X116000001Y-102744592D01*
X115999998Y-102744592D01*
X115902264Y-102764032D01*
X115902258Y-102764034D01*
X115872463Y-102783942D01*
X115819400Y-102819397D01*
X115819394Y-102819403D01*
X115812201Y-102830169D01*
X115796783Y-102848955D01*
X114348955Y-104296783D01*
X114330169Y-104312201D01*
X114319403Y-104319394D01*
X114319397Y-104319400D01*
X114283942Y-104372463D01*
X114264034Y-104402258D01*
X114264032Y-104402264D01*
X114244592Y-104499997D01*
X114244592Y-104499998D01*
X114244592Y-104500000D01*
X114247116Y-104512691D01*
X114247117Y-104512692D01*
X114249500Y-104536885D01*
X114249500Y-143844878D01*
X114229815Y-143911917D01*
X114213181Y-143932559D01*
X112932559Y-145213181D01*
X112871236Y-145246666D01*
X112844878Y-145249500D01*
X56655122Y-145249500D01*
X56588083Y-145229815D01*
X56567441Y-145213181D01*
X55286819Y-143932559D01*
X55253334Y-143871236D01*
X55250500Y-143844878D01*
X55250500Y-140500000D01*
X55745181Y-140500000D01*
X55764447Y-140904450D01*
X55822071Y-141305231D01*
X55917531Y-141698722D01*
X55917534Y-141698733D01*
X56049956Y-142081340D01*
X56049966Y-142081365D01*
X56218168Y-142449675D01*
X56420621Y-142800335D01*
X56420627Y-142800343D01*
X56655480Y-143130147D01*
X56655492Y-143130162D01*
X56724505Y-143209806D01*
X56724506Y-143209807D01*
X58621542Y-141312771D01*
X58701570Y-141443365D01*
X58865130Y-141634870D01*
X59056635Y-141798430D01*
X59187227Y-141878457D01*
X57290052Y-143775632D01*
X57290052Y-143775633D01*
X57531968Y-143965876D01*
X57872594Y-144184782D01*
X58232485Y-144370319D01*
X58608383Y-144520806D01*
X58608395Y-144520810D01*
X58996882Y-144634880D01*
X58996899Y-144634884D01*
X59394460Y-144711508D01*
X59394472Y-144711510D01*
X59797554Y-144750000D01*
X60202446Y-144750000D01*
X60605527Y-144711510D01*
X60605539Y-144711508D01*
X61003100Y-144634884D01*
X61003117Y-144634880D01*
X61391604Y-144520810D01*
X61391616Y-144520806D01*
X61767507Y-144370322D01*
X61767511Y-144370320D01*
X62127406Y-144184782D01*
X62468031Y-143965877D01*
X62709946Y-143775633D01*
X62709946Y-143775632D01*
X60812772Y-141878457D01*
X60943365Y-141798430D01*
X61134870Y-141634870D01*
X61298430Y-141443365D01*
X61378457Y-141312772D01*
X63275492Y-143209806D01*
X63344516Y-143130151D01*
X63344519Y-143130147D01*
X63579372Y-142800343D01*
X63579378Y-142800335D01*
X63781831Y-142449675D01*
X63950033Y-142081365D01*
X63950043Y-142081340D01*
X64082465Y-141698733D01*
X64082468Y-141698722D01*
X64177928Y-141305231D01*
X64235552Y-140904450D01*
X64254818Y-140500000D01*
X105245181Y-140500000D01*
X105264447Y-140904450D01*
X105322071Y-141305231D01*
X105417531Y-141698722D01*
X105417534Y-141698733D01*
X105549956Y-142081340D01*
X105549966Y-142081365D01*
X105718168Y-142449675D01*
X105920621Y-142800335D01*
X105920627Y-142800343D01*
X106155480Y-143130147D01*
X106155492Y-143130162D01*
X106224505Y-143209806D01*
X106224506Y-143209807D01*
X108121542Y-141312771D01*
X108201570Y-141443365D01*
X108365130Y-141634870D01*
X108556635Y-141798430D01*
X108687227Y-141878457D01*
X106790052Y-143775632D01*
X106790052Y-143775633D01*
X107031968Y-143965876D01*
X107372594Y-144184782D01*
X107732485Y-144370319D01*
X108108383Y-144520806D01*
X108108395Y-144520810D01*
X108496882Y-144634880D01*
X108496899Y-144634884D01*
X108894460Y-144711508D01*
X108894472Y-144711510D01*
X109297554Y-144750000D01*
X109702446Y-144750000D01*
X110105527Y-144711510D01*
X110105539Y-144711508D01*
X110503100Y-144634884D01*
X110503117Y-144634880D01*
X110891604Y-144520810D01*
X110891616Y-144520806D01*
X111267507Y-144370322D01*
X111267511Y-144370320D01*
X111627406Y-144184782D01*
X111968031Y-143965877D01*
X112209946Y-143775633D01*
X112209946Y-143775632D01*
X110312772Y-141878457D01*
X110443365Y-141798430D01*
X110634870Y-141634870D01*
X110798430Y-141443365D01*
X110878457Y-141312772D01*
X112775492Y-143209806D01*
X112844516Y-143130151D01*
X112844519Y-143130147D01*
X113079372Y-142800343D01*
X113079378Y-142800335D01*
X113281831Y-142449675D01*
X113450033Y-142081365D01*
X113450043Y-142081340D01*
X113582465Y-141698733D01*
X113582468Y-141698722D01*
X113677928Y-141305231D01*
X113735552Y-140904450D01*
X113754818Y-140500000D01*
X113735552Y-140095549D01*
X113677928Y-139694768D01*
X113582468Y-139301277D01*
X113582465Y-139301266D01*
X113450043Y-138918659D01*
X113450033Y-138918634D01*
X113281831Y-138550324D01*
X113079378Y-138199664D01*
X113079372Y-138199656D01*
X112844519Y-137869852D01*
X112844507Y-137869837D01*
X112775493Y-137790192D01*
X112775493Y-137790191D01*
X110878457Y-139687227D01*
X110798430Y-139556635D01*
X110634870Y-139365130D01*
X110443365Y-139201570D01*
X110312770Y-139121541D01*
X112209946Y-137224366D01*
X112209946Y-137224365D01*
X111968031Y-137034122D01*
X111627406Y-136815217D01*
X111267511Y-136629679D01*
X111267507Y-136629677D01*
X110891616Y-136479193D01*
X110891604Y-136479189D01*
X110503117Y-136365119D01*
X110503100Y-136365115D01*
X110105539Y-136288491D01*
X110105527Y-136288489D01*
X109702446Y-136250000D01*
X109297554Y-136250000D01*
X108894472Y-136288489D01*
X108894460Y-136288491D01*
X108496899Y-136365115D01*
X108496882Y-136365119D01*
X108108395Y-136479189D01*
X108108383Y-136479193D01*
X107732485Y-136629680D01*
X107372594Y-136815217D01*
X107031957Y-137034130D01*
X106790052Y-137224365D01*
X106790052Y-137224366D01*
X108687228Y-139121542D01*
X108556635Y-139201570D01*
X108365130Y-139365130D01*
X108201570Y-139556635D01*
X108121542Y-139687228D01*
X106224506Y-137790192D01*
X106155487Y-137869843D01*
X106155476Y-137869856D01*
X105920627Y-138199656D01*
X105920621Y-138199664D01*
X105718168Y-138550324D01*
X105549966Y-138918634D01*
X105549956Y-138918659D01*
X105417534Y-139301266D01*
X105417531Y-139301277D01*
X105322071Y-139694768D01*
X105264447Y-140095549D01*
X105245181Y-140500000D01*
X64254818Y-140500000D01*
X64235552Y-140095549D01*
X64177928Y-139694768D01*
X64082468Y-139301277D01*
X64082465Y-139301266D01*
X63950043Y-138918659D01*
X63950033Y-138918634D01*
X63781831Y-138550324D01*
X63579378Y-138199664D01*
X63579372Y-138199656D01*
X63344519Y-137869852D01*
X63344507Y-137869837D01*
X63275493Y-137790192D01*
X63275493Y-137790191D01*
X61378457Y-139687227D01*
X61298430Y-139556635D01*
X61134870Y-139365130D01*
X60943365Y-139201570D01*
X60812770Y-139121541D01*
X62709946Y-137224366D01*
X62709946Y-137224365D01*
X62468031Y-137034122D01*
X62127406Y-136815217D01*
X61767511Y-136629679D01*
X61767507Y-136629677D01*
X61391616Y-136479193D01*
X61391604Y-136479189D01*
X61003117Y-136365119D01*
X61003100Y-136365115D01*
X60605539Y-136288491D01*
X60605527Y-136288489D01*
X60202446Y-136250000D01*
X59797554Y-136250000D01*
X59394472Y-136288489D01*
X59394460Y-136288491D01*
X58996899Y-136365115D01*
X58996882Y-136365119D01*
X58608395Y-136479189D01*
X58608383Y-136479193D01*
X58232485Y-136629680D01*
X57872594Y-136815217D01*
X57531957Y-137034130D01*
X57290052Y-137224365D01*
X57290052Y-137224366D01*
X59187228Y-139121542D01*
X59056635Y-139201570D01*
X58865130Y-139365130D01*
X58701570Y-139556635D01*
X58621542Y-139687228D01*
X56724506Y-137790192D01*
X56655487Y-137869843D01*
X56655476Y-137869856D01*
X56420627Y-138199656D01*
X56420621Y-138199664D01*
X56218168Y-138550324D01*
X56049966Y-138918634D01*
X56049956Y-138918659D01*
X55917534Y-139301266D01*
X55917531Y-139301277D01*
X55822071Y-139694768D01*
X55764447Y-140095549D01*
X55745181Y-140500000D01*
X55250500Y-140500000D01*
X55250500Y-126085000D01*
X60365207Y-126085000D01*
X60384348Y-126328219D01*
X60441303Y-126565457D01*
X60534665Y-126790853D01*
X60534668Y-126790859D01*
X60577902Y-126861412D01*
X61229752Y-126209562D01*
X61260682Y-126335046D01*
X61339680Y-126485566D01*
X61452405Y-126612806D01*
X61592305Y-126709371D01*
X61751249Y-126769651D01*
X61795643Y-126775041D01*
X61143586Y-127427096D01*
X61214141Y-127470331D01*
X61214146Y-127470334D01*
X61439542Y-127563696D01*
X61676780Y-127620651D01*
X61676779Y-127620651D01*
X61920000Y-127639792D01*
X62163219Y-127620651D01*
X62400457Y-127563696D01*
X62625861Y-127470331D01*
X62696412Y-127427097D01*
X62696412Y-127427096D01*
X62452186Y-127182870D01*
X65449500Y-127182870D01*
X65449501Y-127182876D01*
X65455908Y-127242483D01*
X65506202Y-127377328D01*
X65506206Y-127377335D01*
X65592452Y-127492544D01*
X65592455Y-127492547D01*
X65707664Y-127578793D01*
X65707671Y-127578797D01*
X65842517Y-127629091D01*
X65842516Y-127629091D01*
X65849444Y-127629835D01*
X65902127Y-127635500D01*
X68097872Y-127635499D01*
X68157483Y-127629091D01*
X68292331Y-127578796D01*
X68407546Y-127492546D01*
X68493796Y-127377331D01*
X68544091Y-127242483D01*
X68550500Y-127182873D01*
X68550499Y-126085000D01*
X80550207Y-126085000D01*
X80569348Y-126328219D01*
X80626303Y-126565457D01*
X80719665Y-126790853D01*
X80719668Y-126790859D01*
X80762902Y-126861412D01*
X81414752Y-126209562D01*
X81445682Y-126335046D01*
X81524680Y-126485566D01*
X81637405Y-126612806D01*
X81777305Y-126709371D01*
X81936249Y-126769651D01*
X81980643Y-126775041D01*
X81328586Y-127427096D01*
X81399141Y-127470331D01*
X81399146Y-127470334D01*
X81624542Y-127563696D01*
X81861780Y-127620651D01*
X81861779Y-127620651D01*
X82105000Y-127639792D01*
X82348219Y-127620651D01*
X82585457Y-127563696D01*
X82810861Y-127470331D01*
X82881412Y-127427097D01*
X82881412Y-127427096D01*
X82637186Y-127182870D01*
X85634500Y-127182870D01*
X85634501Y-127182876D01*
X85640908Y-127242483D01*
X85691202Y-127377328D01*
X85691206Y-127377335D01*
X85777452Y-127492544D01*
X85777455Y-127492547D01*
X85892664Y-127578793D01*
X85892671Y-127578797D01*
X86027517Y-127629091D01*
X86027516Y-127629091D01*
X86034444Y-127629835D01*
X86087127Y-127635500D01*
X88282872Y-127635499D01*
X88342483Y-127629091D01*
X88477331Y-127578796D01*
X88592546Y-127492546D01*
X88678796Y-127377331D01*
X88729091Y-127242483D01*
X88735500Y-127182873D01*
X88735499Y-126085000D01*
X100800207Y-126085000D01*
X100819348Y-126328219D01*
X100876303Y-126565457D01*
X100969665Y-126790853D01*
X100969668Y-126790859D01*
X101012902Y-126861412D01*
X101664752Y-126209562D01*
X101695682Y-126335046D01*
X101774680Y-126485566D01*
X101887405Y-126612806D01*
X102027305Y-126709371D01*
X102186249Y-126769651D01*
X102230643Y-126775041D01*
X101578586Y-127427096D01*
X101649141Y-127470331D01*
X101649146Y-127470334D01*
X101874542Y-127563696D01*
X102111780Y-127620651D01*
X102111779Y-127620651D01*
X102355000Y-127639792D01*
X102598219Y-127620651D01*
X102835457Y-127563696D01*
X103060861Y-127470331D01*
X103131412Y-127427097D01*
X103131412Y-127427096D01*
X102887186Y-127182870D01*
X105884500Y-127182870D01*
X105884501Y-127182876D01*
X105890908Y-127242483D01*
X105941202Y-127377328D01*
X105941206Y-127377335D01*
X106027452Y-127492544D01*
X106027455Y-127492547D01*
X106142664Y-127578793D01*
X106142671Y-127578797D01*
X106277517Y-127629091D01*
X106277516Y-127629091D01*
X106284444Y-127629835D01*
X106337127Y-127635500D01*
X108532872Y-127635499D01*
X108592483Y-127629091D01*
X108727331Y-127578796D01*
X108842546Y-127492546D01*
X108928796Y-127377331D01*
X108979091Y-127242483D01*
X108985500Y-127182873D01*
X108985499Y-124987128D01*
X108979091Y-124927517D01*
X108928796Y-124792669D01*
X108928795Y-124792668D01*
X108928793Y-124792664D01*
X108842547Y-124677455D01*
X108842544Y-124677452D01*
X108727335Y-124591206D01*
X108727328Y-124591202D01*
X108592482Y-124540908D01*
X108592483Y-124540908D01*
X108532883Y-124534501D01*
X108532881Y-124534500D01*
X108532873Y-124534500D01*
X108532864Y-124534500D01*
X106337129Y-124534500D01*
X106337123Y-124534501D01*
X106277516Y-124540908D01*
X106142671Y-124591202D01*
X106142664Y-124591206D01*
X106027455Y-124677452D01*
X106027452Y-124677455D01*
X105941206Y-124792664D01*
X105941202Y-124792671D01*
X105890908Y-124927517D01*
X105884501Y-124987116D01*
X105884501Y-124987123D01*
X105884500Y-124987135D01*
X105884500Y-127182870D01*
X102887186Y-127182870D01*
X102479356Y-126775041D01*
X102523751Y-126769651D01*
X102682695Y-126709371D01*
X102822595Y-126612806D01*
X102935320Y-126485566D01*
X103014318Y-126335046D01*
X103045247Y-126209563D01*
X103697096Y-126861412D01*
X103697097Y-126861412D01*
X103740331Y-126790861D01*
X103833696Y-126565457D01*
X103890651Y-126328219D01*
X103909792Y-126085000D01*
X103890651Y-125841780D01*
X103833696Y-125604542D01*
X103740334Y-125379146D01*
X103740331Y-125379141D01*
X103697096Y-125308586D01*
X103045247Y-125960436D01*
X103014318Y-125834954D01*
X102935320Y-125684434D01*
X102822595Y-125557194D01*
X102682695Y-125460629D01*
X102523751Y-125400349D01*
X102479357Y-125394958D01*
X103131412Y-124742902D01*
X103060859Y-124699668D01*
X103060853Y-124699665D01*
X102835457Y-124606303D01*
X102598219Y-124549348D01*
X102598220Y-124549348D01*
X102355000Y-124530207D01*
X102111780Y-124549348D01*
X101874542Y-124606303D01*
X101649136Y-124699670D01*
X101578586Y-124742901D01*
X102230643Y-125394958D01*
X102186249Y-125400349D01*
X102027305Y-125460629D01*
X101887405Y-125557194D01*
X101774680Y-125684434D01*
X101695682Y-125834954D01*
X101664752Y-125960437D01*
X101012901Y-125308586D01*
X100969670Y-125379136D01*
X100876303Y-125604542D01*
X100819348Y-125841780D01*
X100800207Y-126085000D01*
X88735499Y-126085000D01*
X88735499Y-124987128D01*
X88729091Y-124927517D01*
X88678796Y-124792669D01*
X88678795Y-124792668D01*
X88678793Y-124792664D01*
X88592547Y-124677455D01*
X88592544Y-124677452D01*
X88477335Y-124591206D01*
X88477328Y-124591202D01*
X88342482Y-124540908D01*
X88342483Y-124540908D01*
X88282883Y-124534501D01*
X88282881Y-124534500D01*
X88282873Y-124534500D01*
X88282864Y-124534500D01*
X86087129Y-124534500D01*
X86087123Y-124534501D01*
X86027516Y-124540908D01*
X85892671Y-124591202D01*
X85892664Y-124591206D01*
X85777455Y-124677452D01*
X85777452Y-124677455D01*
X85691206Y-124792664D01*
X85691202Y-124792671D01*
X85640908Y-124927517D01*
X85634501Y-124987116D01*
X85634501Y-124987123D01*
X85634500Y-124987135D01*
X85634500Y-127182870D01*
X82637186Y-127182870D01*
X82229356Y-126775041D01*
X82273751Y-126769651D01*
X82432695Y-126709371D01*
X82572595Y-126612806D01*
X82685320Y-126485566D01*
X82764318Y-126335046D01*
X82795247Y-126209563D01*
X83447096Y-126861412D01*
X83447097Y-126861412D01*
X83490331Y-126790861D01*
X83583696Y-126565457D01*
X83640651Y-126328219D01*
X83659792Y-126085000D01*
X83640651Y-125841780D01*
X83583696Y-125604542D01*
X83490334Y-125379146D01*
X83490331Y-125379141D01*
X83447096Y-125308586D01*
X82795247Y-125960436D01*
X82764318Y-125834954D01*
X82685320Y-125684434D01*
X82572595Y-125557194D01*
X82432695Y-125460629D01*
X82273751Y-125400349D01*
X82229357Y-125394958D01*
X82881412Y-124742902D01*
X82810859Y-124699668D01*
X82810853Y-124699665D01*
X82585457Y-124606303D01*
X82348219Y-124549348D01*
X82348220Y-124549348D01*
X82105000Y-124530207D01*
X81861780Y-124549348D01*
X81624542Y-124606303D01*
X81399136Y-124699670D01*
X81328586Y-124742901D01*
X81980643Y-125394958D01*
X81936249Y-125400349D01*
X81777305Y-125460629D01*
X81637405Y-125557194D01*
X81524680Y-125684434D01*
X81445682Y-125834954D01*
X81414752Y-125960437D01*
X80762901Y-125308586D01*
X80719670Y-125379136D01*
X80626303Y-125604542D01*
X80569348Y-125841780D01*
X80550207Y-126085000D01*
X68550499Y-126085000D01*
X68550499Y-124987128D01*
X68544091Y-124927517D01*
X68493796Y-124792669D01*
X68493795Y-124792668D01*
X68493793Y-124792664D01*
X68407547Y-124677455D01*
X68407544Y-124677452D01*
X68292335Y-124591206D01*
X68292328Y-124591202D01*
X68157482Y-124540908D01*
X68157483Y-124540908D01*
X68097883Y-124534501D01*
X68097881Y-124534500D01*
X68097873Y-124534500D01*
X68097864Y-124534500D01*
X65902129Y-124534500D01*
X65902123Y-124534501D01*
X65842516Y-124540908D01*
X65707671Y-124591202D01*
X65707664Y-124591206D01*
X65592455Y-124677452D01*
X65592452Y-124677455D01*
X65506206Y-124792664D01*
X65506202Y-124792671D01*
X65455908Y-124927517D01*
X65449501Y-124987116D01*
X65449501Y-124987123D01*
X65449500Y-124987135D01*
X65449500Y-127182870D01*
X62452186Y-127182870D01*
X62044356Y-126775041D01*
X62088751Y-126769651D01*
X62247695Y-126709371D01*
X62387595Y-126612806D01*
X62500320Y-126485566D01*
X62579318Y-126335046D01*
X62610247Y-126209563D01*
X63262096Y-126861412D01*
X63262097Y-126861412D01*
X63305331Y-126790861D01*
X63398696Y-126565457D01*
X63455651Y-126328219D01*
X63474792Y-126085000D01*
X63455651Y-125841780D01*
X63398696Y-125604542D01*
X63305334Y-125379146D01*
X63305331Y-125379141D01*
X63262096Y-125308586D01*
X62610247Y-125960436D01*
X62579318Y-125834954D01*
X62500320Y-125684434D01*
X62387595Y-125557194D01*
X62247695Y-125460629D01*
X62088751Y-125400349D01*
X62044357Y-125394958D01*
X62696412Y-124742902D01*
X62625859Y-124699668D01*
X62625853Y-124699665D01*
X62400457Y-124606303D01*
X62163219Y-124549348D01*
X62163220Y-124549348D01*
X61920000Y-124530207D01*
X61676780Y-124549348D01*
X61439542Y-124606303D01*
X61214136Y-124699670D01*
X61143586Y-124742901D01*
X61795643Y-125394958D01*
X61751249Y-125400349D01*
X61592305Y-125460629D01*
X61452405Y-125557194D01*
X61339680Y-125684434D01*
X61260682Y-125834954D01*
X61229752Y-125960437D01*
X60577901Y-125308586D01*
X60534670Y-125379136D01*
X60441303Y-125604542D01*
X60384348Y-125841780D01*
X60365207Y-126085000D01*
X55250500Y-126085000D01*
X55250500Y-115512870D01*
X61069500Y-115512870D01*
X61069501Y-115512876D01*
X61075908Y-115572483D01*
X61126202Y-115707328D01*
X61126206Y-115707335D01*
X61212452Y-115822544D01*
X61212455Y-115822547D01*
X61327664Y-115908793D01*
X61327671Y-115908797D01*
X61462517Y-115959091D01*
X61462516Y-115959091D01*
X61469444Y-115959835D01*
X61522127Y-115965500D01*
X63717872Y-115965499D01*
X63777483Y-115959091D01*
X63912331Y-115908796D01*
X64027546Y-115822546D01*
X64113796Y-115707331D01*
X64164091Y-115572483D01*
X64170500Y-115512873D01*
X64170499Y-114415000D01*
X66144706Y-114415000D01*
X66163853Y-114658297D01*
X66163853Y-114658300D01*
X66163854Y-114658302D01*
X66201610Y-114815566D01*
X66220830Y-114895619D01*
X66314222Y-115121089D01*
X66441737Y-115329173D01*
X66441738Y-115329176D01*
X66441741Y-115329179D01*
X66600241Y-115514759D01*
X66743897Y-115637453D01*
X66785823Y-115673261D01*
X66785826Y-115673262D01*
X66993910Y-115800777D01*
X67219381Y-115894169D01*
X67219378Y-115894169D01*
X67219384Y-115894170D01*
X67219388Y-115894172D01*
X67456698Y-115951146D01*
X67700000Y-115970294D01*
X67943302Y-115951146D01*
X68180612Y-115894172D01*
X68406089Y-115800777D01*
X68614179Y-115673259D01*
X68799759Y-115514759D01*
X68801372Y-115512870D01*
X81264500Y-115512870D01*
X81264501Y-115512876D01*
X81270908Y-115572483D01*
X81321202Y-115707328D01*
X81321206Y-115707335D01*
X81407452Y-115822544D01*
X81407455Y-115822547D01*
X81522664Y-115908793D01*
X81522671Y-115908797D01*
X81657517Y-115959091D01*
X81657516Y-115959091D01*
X81664444Y-115959835D01*
X81717127Y-115965500D01*
X83912872Y-115965499D01*
X83972483Y-115959091D01*
X84107331Y-115908796D01*
X84222546Y-115822546D01*
X84308796Y-115707331D01*
X84359091Y-115572483D01*
X84365500Y-115512873D01*
X84365499Y-114415000D01*
X86340207Y-114415000D01*
X86359348Y-114658219D01*
X86416303Y-114895457D01*
X86509665Y-115120853D01*
X86509668Y-115120859D01*
X86552902Y-115191412D01*
X87204752Y-114539562D01*
X87235682Y-114665046D01*
X87314680Y-114815566D01*
X87427405Y-114942806D01*
X87567305Y-115039371D01*
X87726249Y-115099651D01*
X87770643Y-115105041D01*
X87118586Y-115757096D01*
X87189141Y-115800331D01*
X87189146Y-115800334D01*
X87414542Y-115893696D01*
X87651780Y-115950651D01*
X87651779Y-115950651D01*
X87895000Y-115969792D01*
X88138219Y-115950651D01*
X88375457Y-115893696D01*
X88600861Y-115800331D01*
X88671412Y-115757097D01*
X88671412Y-115757096D01*
X88427186Y-115512870D01*
X101264500Y-115512870D01*
X101264501Y-115512876D01*
X101270908Y-115572483D01*
X101321202Y-115707328D01*
X101321206Y-115707335D01*
X101407452Y-115822544D01*
X101407455Y-115822547D01*
X101522664Y-115908793D01*
X101522671Y-115908797D01*
X101657517Y-115959091D01*
X101657516Y-115959091D01*
X101664444Y-115959835D01*
X101717127Y-115965500D01*
X103912872Y-115965499D01*
X103972483Y-115959091D01*
X104107331Y-115908796D01*
X104222546Y-115822546D01*
X104308796Y-115707331D01*
X104359091Y-115572483D01*
X104365500Y-115512873D01*
X104365499Y-114415000D01*
X106339706Y-114415000D01*
X106358853Y-114658297D01*
X106358853Y-114658300D01*
X106358854Y-114658302D01*
X106396610Y-114815566D01*
X106415830Y-114895619D01*
X106509222Y-115121089D01*
X106636737Y-115329173D01*
X106636738Y-115329176D01*
X106636741Y-115329179D01*
X106795241Y-115514759D01*
X106938897Y-115637453D01*
X106980823Y-115673261D01*
X106980826Y-115673262D01*
X107188910Y-115800777D01*
X107414381Y-115894169D01*
X107414378Y-115894169D01*
X107414384Y-115894170D01*
X107414388Y-115894172D01*
X107651698Y-115951146D01*
X107895000Y-115970294D01*
X108138302Y-115951146D01*
X108375612Y-115894172D01*
X108601089Y-115800777D01*
X108809179Y-115673259D01*
X108994759Y-115514759D01*
X109153259Y-115329179D01*
X109280777Y-115121089D01*
X109374172Y-114895612D01*
X109431146Y-114658302D01*
X109450294Y-114415000D01*
X109431146Y-114171698D01*
X109374172Y-113934388D01*
X109338934Y-113849315D01*
X109280777Y-113708910D01*
X109153262Y-113500826D01*
X109153261Y-113500823D01*
X109117453Y-113458897D01*
X108994759Y-113315241D01*
X108872063Y-113210449D01*
X108809176Y-113156738D01*
X108809173Y-113156737D01*
X108601089Y-113029222D01*
X108375618Y-112935830D01*
X108375621Y-112935830D01*
X108269992Y-112910470D01*
X108138302Y-112878854D01*
X108138300Y-112878853D01*
X108138297Y-112878853D01*
X107895000Y-112859706D01*
X107651702Y-112878853D01*
X107651698Y-112878854D01*
X107475301Y-112921204D01*
X107414380Y-112935830D01*
X107188910Y-113029222D01*
X106980826Y-113156737D01*
X106980823Y-113156738D01*
X106795241Y-113315241D01*
X106636738Y-113500823D01*
X106636737Y-113500826D01*
X106509222Y-113708910D01*
X106415830Y-113934380D01*
X106358853Y-114171702D01*
X106339706Y-114415000D01*
X104365499Y-114415000D01*
X104365499Y-113317128D01*
X104359091Y-113257517D01*
X104308796Y-113122669D01*
X104308795Y-113122668D01*
X104308793Y-113122664D01*
X104222547Y-113007455D01*
X104222544Y-113007452D01*
X104107335Y-112921206D01*
X104107328Y-112921202D01*
X103972482Y-112870908D01*
X103972483Y-112870908D01*
X103912883Y-112864501D01*
X103912881Y-112864500D01*
X103912873Y-112864500D01*
X103912864Y-112864500D01*
X101717129Y-112864500D01*
X101717123Y-112864501D01*
X101657516Y-112870908D01*
X101522671Y-112921202D01*
X101522664Y-112921206D01*
X101407455Y-113007452D01*
X101407452Y-113007455D01*
X101321206Y-113122664D01*
X101321202Y-113122671D01*
X101270908Y-113257517D01*
X101264703Y-113315241D01*
X101264501Y-113317123D01*
X101264500Y-113317135D01*
X101264500Y-115512870D01*
X88427186Y-115512870D01*
X88019356Y-115105041D01*
X88063751Y-115099651D01*
X88222695Y-115039371D01*
X88362595Y-114942806D01*
X88475320Y-114815566D01*
X88554318Y-114665046D01*
X88585247Y-114539562D01*
X89237096Y-115191412D01*
X89237097Y-115191412D01*
X89280331Y-115120861D01*
X89373696Y-114895457D01*
X89430651Y-114658219D01*
X89449792Y-114415000D01*
X89430651Y-114171780D01*
X89373696Y-113934542D01*
X89280334Y-113709146D01*
X89280331Y-113709141D01*
X89237096Y-113638586D01*
X88585247Y-114290436D01*
X88554318Y-114164954D01*
X88475320Y-114014434D01*
X88362595Y-113887194D01*
X88222695Y-113790629D01*
X88063751Y-113730349D01*
X88019357Y-113724958D01*
X88671412Y-113072902D01*
X88600859Y-113029668D01*
X88600853Y-113029665D01*
X88375457Y-112936303D01*
X88138219Y-112879348D01*
X88138220Y-112879348D01*
X87895000Y-112860207D01*
X87651780Y-112879348D01*
X87414542Y-112936303D01*
X87189136Y-113029670D01*
X87118586Y-113072901D01*
X87770643Y-113724958D01*
X87726249Y-113730349D01*
X87567305Y-113790629D01*
X87427405Y-113887194D01*
X87314680Y-114014434D01*
X87235682Y-114164954D01*
X87204752Y-114290436D01*
X86552901Y-113638586D01*
X86509670Y-113709136D01*
X86416303Y-113934542D01*
X86359348Y-114171780D01*
X86340207Y-114415000D01*
X84365499Y-114415000D01*
X84365499Y-113317128D01*
X84359091Y-113257517D01*
X84308796Y-113122669D01*
X84308795Y-113122668D01*
X84308793Y-113122664D01*
X84222547Y-113007455D01*
X84222544Y-113007452D01*
X84107335Y-112921206D01*
X84107328Y-112921202D01*
X83972482Y-112870908D01*
X83972483Y-112870908D01*
X83912883Y-112864501D01*
X83912881Y-112864500D01*
X83912873Y-112864500D01*
X83912864Y-112864500D01*
X81717129Y-112864500D01*
X81717123Y-112864501D01*
X81657516Y-112870908D01*
X81522671Y-112921202D01*
X81522664Y-112921206D01*
X81407455Y-113007452D01*
X81407452Y-113007455D01*
X81321206Y-113122664D01*
X81321202Y-113122671D01*
X81270908Y-113257517D01*
X81264703Y-113315241D01*
X81264501Y-113317123D01*
X81264500Y-113317135D01*
X81264500Y-115512870D01*
X68801372Y-115512870D01*
X68958259Y-115329179D01*
X69085777Y-115121089D01*
X69179172Y-114895612D01*
X69236146Y-114658302D01*
X69255294Y-114415000D01*
X69236146Y-114171698D01*
X69179172Y-113934388D01*
X69143934Y-113849315D01*
X69085777Y-113708910D01*
X68958262Y-113500826D01*
X68958261Y-113500823D01*
X68922453Y-113458897D01*
X68799759Y-113315241D01*
X68677063Y-113210449D01*
X68614176Y-113156738D01*
X68614173Y-113156737D01*
X68406089Y-113029222D01*
X68180618Y-112935830D01*
X68180621Y-112935830D01*
X68074992Y-112910470D01*
X67943302Y-112878854D01*
X67943300Y-112878853D01*
X67943297Y-112878853D01*
X67700000Y-112859706D01*
X67456702Y-112878853D01*
X67456698Y-112878854D01*
X67280301Y-112921204D01*
X67219380Y-112935830D01*
X66993910Y-113029222D01*
X66785826Y-113156737D01*
X66785823Y-113156738D01*
X66600241Y-113315241D01*
X66441738Y-113500823D01*
X66441737Y-113500826D01*
X66314222Y-113708910D01*
X66220830Y-113934380D01*
X66163853Y-114171702D01*
X66144706Y-114415000D01*
X64170499Y-114415000D01*
X64170499Y-113317128D01*
X64164091Y-113257517D01*
X64113796Y-113122669D01*
X64113795Y-113122668D01*
X64113793Y-113122664D01*
X64027547Y-113007455D01*
X64027544Y-113007452D01*
X63912335Y-112921206D01*
X63912328Y-112921202D01*
X63777482Y-112870908D01*
X63777483Y-112870908D01*
X63717883Y-112864501D01*
X63717881Y-112864500D01*
X63717873Y-112864500D01*
X63717864Y-112864500D01*
X61522129Y-112864500D01*
X61522123Y-112864501D01*
X61462516Y-112870908D01*
X61327671Y-112921202D01*
X61327664Y-112921206D01*
X61212455Y-113007452D01*
X61212452Y-113007455D01*
X61126206Y-113122664D01*
X61126202Y-113122671D01*
X61075908Y-113257517D01*
X61069703Y-113315241D01*
X61069501Y-113317123D01*
X61069500Y-113317135D01*
X61069500Y-115512870D01*
X55250500Y-115512870D01*
X55250500Y-104536885D01*
X55252883Y-104512691D01*
X55255408Y-104499998D01*
X55255408Y-104499997D01*
X55235967Y-104402263D01*
X55235966Y-104402259D01*
X55235965Y-104402258D01*
X55216057Y-104372463D01*
X55180601Y-104319399D01*
X55180598Y-104319397D01*
X55180598Y-104319396D01*
X55169832Y-104312203D01*
X55151042Y-104296782D01*
X53703217Y-102848957D01*
X53687794Y-102830165D01*
X53680603Y-102819403D01*
X53680601Y-102819399D01*
X53680598Y-102819397D01*
X53627536Y-102783942D01*
X53597741Y-102764034D01*
X53597740Y-102764033D01*
X53597739Y-102764033D01*
X53500002Y-102744592D01*
X53499999Y-102744592D01*
X53487306Y-102747117D01*
X53463114Y-102749500D01*
X27655122Y-102749500D01*
X27588083Y-102729815D01*
X27567441Y-102713181D01*
X26064260Y-101210000D01*
X71700000Y-101210000D01*
X71700000Y-101657844D01*
X71706401Y-101717372D01*
X71706403Y-101717379D01*
X71756645Y-101852086D01*
X71756649Y-101852093D01*
X71842809Y-101967187D01*
X71842812Y-101967190D01*
X71957906Y-102053350D01*
X71957913Y-102053354D01*
X72092620Y-102103596D01*
X72092627Y-102103598D01*
X72152155Y-102109999D01*
X72152172Y-102110000D01*
X72600000Y-102110000D01*
X72600000Y-101210000D01*
X71700000Y-101210000D01*
X26064260Y-101210000D01*
X25664260Y-100810000D01*
X72595014Y-100810000D01*
X72614835Y-100935148D01*
X72672359Y-101048045D01*
X72761955Y-101137641D01*
X72874852Y-101195165D01*
X72968519Y-101210000D01*
X73031481Y-101210000D01*
X73400000Y-101210000D01*
X73400000Y-102110000D01*
X73847828Y-102110000D01*
X73847844Y-102109999D01*
X73907372Y-102103598D01*
X73907379Y-102103596D01*
X74042086Y-102053354D01*
X74042093Y-102053350D01*
X74157187Y-101967190D01*
X74157190Y-101967187D01*
X74243350Y-101852093D01*
X74243354Y-101852086D01*
X74293596Y-101717379D01*
X74293598Y-101717372D01*
X74299999Y-101657844D01*
X74300000Y-101657827D01*
X74300000Y-101415000D01*
X99709557Y-101415000D01*
X99726565Y-101478481D01*
X99726570Y-101478492D01*
X99826399Y-101692578D01*
X99961894Y-101886082D01*
X100128917Y-102053105D01*
X100322421Y-102188600D01*
X100536507Y-102288429D01*
X100536518Y-102288434D01*
X100599999Y-102305443D01*
X100600000Y-102305442D01*
X100600000Y-101415000D01*
X99709557Y-101415000D01*
X74300000Y-101415000D01*
X74300000Y-101210000D01*
X73400000Y-101210000D01*
X73031481Y-101210000D01*
X73125148Y-101195165D01*
X73238045Y-101137641D01*
X73327641Y-101048045D01*
X73385165Y-100935148D01*
X73404986Y-100810000D01*
X73385165Y-100684852D01*
X73327641Y-100571955D01*
X73238045Y-100482359D01*
X73125148Y-100424835D01*
X73031481Y-100410000D01*
X72968519Y-100410000D01*
X72874852Y-100424835D01*
X72761955Y-100482359D01*
X72672359Y-100571955D01*
X72614835Y-100684852D01*
X72595014Y-100810000D01*
X25664260Y-100810000D01*
X20854260Y-96000000D01*
X24245181Y-96000000D01*
X24264447Y-96404450D01*
X24322071Y-96805231D01*
X24417531Y-97198722D01*
X24417534Y-97198733D01*
X24549956Y-97581340D01*
X24549966Y-97581365D01*
X24718168Y-97949675D01*
X24920621Y-98300335D01*
X24920627Y-98300343D01*
X25155480Y-98630147D01*
X25155492Y-98630162D01*
X25224505Y-98709806D01*
X25224506Y-98709807D01*
X27121542Y-96812771D01*
X27201570Y-96943365D01*
X27365130Y-97134870D01*
X27556635Y-97298430D01*
X27687227Y-97378457D01*
X25790052Y-99275632D01*
X25790052Y-99275633D01*
X26031968Y-99465876D01*
X26372594Y-99684782D01*
X26732485Y-99870319D01*
X27108383Y-100020806D01*
X27108395Y-100020810D01*
X27496882Y-100134880D01*
X27496899Y-100134884D01*
X27894460Y-100211508D01*
X27894472Y-100211510D01*
X28297554Y-100250000D01*
X28702446Y-100250000D01*
X29105527Y-100211510D01*
X29105539Y-100211508D01*
X29503100Y-100134884D01*
X29503117Y-100134880D01*
X29891604Y-100020810D01*
X29891616Y-100020806D01*
X30267507Y-99870322D01*
X30267511Y-99870320D01*
X30627406Y-99684782D01*
X30658188Y-99665000D01*
X48459557Y-99665000D01*
X48476565Y-99728481D01*
X48476570Y-99728492D01*
X48576399Y-99942578D01*
X48711894Y-100136082D01*
X48878917Y-100303105D01*
X49072421Y-100438600D01*
X49286507Y-100538429D01*
X49286518Y-100538434D01*
X49349999Y-100555443D01*
X49350000Y-100555442D01*
X49350000Y-99665000D01*
X48459557Y-99665000D01*
X30658188Y-99665000D01*
X30968031Y-99465877D01*
X31132053Y-99336889D01*
X49250000Y-99336889D01*
X49290507Y-99474844D01*
X49368239Y-99595798D01*
X49476900Y-99689952D01*
X49607685Y-99749680D01*
X49714237Y-99765000D01*
X49785763Y-99765000D01*
X49892315Y-99749680D01*
X50023100Y-99689952D01*
X50051897Y-99665000D01*
X50150000Y-99665000D01*
X50150000Y-100555443D01*
X50213481Y-100538434D01*
X50213492Y-100538429D01*
X50427578Y-100438600D01*
X50621082Y-100303105D01*
X50788105Y-100136082D01*
X50923600Y-99942578D01*
X51023429Y-99728492D01*
X51023434Y-99728481D01*
X51040443Y-99665000D01*
X50150000Y-99665000D01*
X50051897Y-99665000D01*
X50069208Y-99650000D01*
X53459557Y-99650000D01*
X53476565Y-99713481D01*
X53476570Y-99713492D01*
X53576399Y-99927578D01*
X53711894Y-100121082D01*
X53878917Y-100288105D01*
X54072421Y-100423600D01*
X54286507Y-100523429D01*
X54286518Y-100523434D01*
X54349999Y-100540443D01*
X54350000Y-100540442D01*
X54350000Y-99650000D01*
X53459557Y-99650000D01*
X50069208Y-99650000D01*
X50131761Y-99595798D01*
X50209493Y-99474844D01*
X50250000Y-99336889D01*
X50250000Y-99193111D01*
X50209493Y-99055156D01*
X50131761Y-98934202D01*
X50023100Y-98840048D01*
X49892315Y-98780320D01*
X49785763Y-98765000D01*
X49714237Y-98765000D01*
X49607685Y-98780320D01*
X49476900Y-98840048D01*
X49368239Y-98934202D01*
X49290507Y-99055156D01*
X49250000Y-99193111D01*
X49250000Y-99336889D01*
X31132053Y-99336889D01*
X31209946Y-99275633D01*
X31209946Y-99275632D01*
X29312772Y-97378457D01*
X29443365Y-97298430D01*
X29634870Y-97134870D01*
X29798430Y-96943365D01*
X29878457Y-96812772D01*
X31775492Y-98709806D01*
X31844516Y-98630151D01*
X31844519Y-98630147D01*
X32079372Y-98300343D01*
X32079378Y-98300335D01*
X32281831Y-97949675D01*
X32450033Y-97581365D01*
X32450043Y-97581340D01*
X32582465Y-97198733D01*
X32582468Y-97198722D01*
X32677928Y-96805231D01*
X32735552Y-96404450D01*
X32754818Y-96000000D01*
X32735552Y-95595549D01*
X32677928Y-95194768D01*
X32582468Y-94801277D01*
X32582465Y-94801266D01*
X32495501Y-94550000D01*
X35445181Y-94550000D01*
X35464447Y-94954450D01*
X35522071Y-95355231D01*
X35617531Y-95748722D01*
X35617534Y-95748733D01*
X35749956Y-96131340D01*
X35749966Y-96131365D01*
X35918168Y-96499675D01*
X36120621Y-96850335D01*
X36120627Y-96850343D01*
X36355480Y-97180147D01*
X36355492Y-97180162D01*
X36424505Y-97259806D01*
X36424506Y-97259807D01*
X38321542Y-95362771D01*
X38401570Y-95493365D01*
X38565130Y-95684870D01*
X38756635Y-95848430D01*
X38887227Y-95928457D01*
X36990052Y-97825632D01*
X36990052Y-97825633D01*
X37231968Y-98015876D01*
X37572594Y-98234782D01*
X37932485Y-98420319D01*
X38308383Y-98570806D01*
X38308395Y-98570810D01*
X38696882Y-98684880D01*
X38696899Y-98684884D01*
X39094460Y-98761508D01*
X39094472Y-98761510D01*
X39497554Y-98800000D01*
X39902446Y-98800000D01*
X40305527Y-98761510D01*
X40305539Y-98761508D01*
X40703100Y-98684884D01*
X40703117Y-98684880D01*
X41091604Y-98570810D01*
X41091616Y-98570806D01*
X41467507Y-98420322D01*
X41467511Y-98420320D01*
X41827406Y-98234782D01*
X42168031Y-98015877D01*
X42409946Y-97825633D01*
X42409946Y-97825632D01*
X40512772Y-95928457D01*
X40643365Y-95848430D01*
X40834870Y-95684870D01*
X40998430Y-95493365D01*
X41078457Y-95362772D01*
X42975492Y-97259806D01*
X43044516Y-97180151D01*
X43044519Y-97180147D01*
X43083789Y-97125000D01*
X48400000Y-97125000D01*
X48400000Y-97622844D01*
X48406401Y-97682372D01*
X48406403Y-97682379D01*
X48456645Y-97817086D01*
X48456649Y-97817093D01*
X48542809Y-97932187D01*
X48542812Y-97932190D01*
X48657906Y-98018350D01*
X48657913Y-98018354D01*
X48789986Y-98067614D01*
X48845920Y-98109485D01*
X48870337Y-98174949D01*
X48855486Y-98243222D01*
X48834335Y-98271477D01*
X48711886Y-98393926D01*
X48576400Y-98587420D01*
X48576399Y-98587422D01*
X48476570Y-98801507D01*
X48476565Y-98801518D01*
X48459556Y-98864999D01*
X48459557Y-98865000D01*
X49350000Y-98865000D01*
X49350000Y-97125000D01*
X48400000Y-97125000D01*
X43083789Y-97125000D01*
X43279372Y-96850343D01*
X43279378Y-96850335D01*
X43310235Y-96796889D01*
X49250000Y-96796889D01*
X49290507Y-96934844D01*
X49368239Y-97055798D01*
X49476900Y-97149952D01*
X49607685Y-97209680D01*
X49714237Y-97225000D01*
X49785763Y-97225000D01*
X49892315Y-97209680D01*
X50023100Y-97149952D01*
X50051897Y-97125000D01*
X50150000Y-97125000D01*
X50150000Y-98865000D01*
X51040443Y-98865000D01*
X51040443Y-98864999D01*
X51023434Y-98801518D01*
X51023429Y-98801507D01*
X50923600Y-98587422D01*
X50923599Y-98587420D01*
X50788113Y-98393926D01*
X50788108Y-98393920D01*
X50665665Y-98271477D01*
X50632180Y-98210154D01*
X50637164Y-98140462D01*
X50679036Y-98084529D01*
X50710013Y-98067614D01*
X50842086Y-98018354D01*
X50842093Y-98018350D01*
X50957187Y-97932190D01*
X50957190Y-97932187D01*
X51043350Y-97817093D01*
X51043354Y-97817086D01*
X51093596Y-97682379D01*
X51093598Y-97682372D01*
X51099999Y-97622844D01*
X51100000Y-97622827D01*
X51100000Y-97607870D01*
X53399500Y-97607870D01*
X53399501Y-97607876D01*
X53405908Y-97667483D01*
X53456202Y-97802328D01*
X53456206Y-97802335D01*
X53542452Y-97917544D01*
X53542455Y-97917547D01*
X53657664Y-98003793D01*
X53657671Y-98003797D01*
X53657674Y-98003798D01*
X53789598Y-98053002D01*
X53845531Y-98094873D01*
X53869949Y-98160337D01*
X53855098Y-98228610D01*
X53833947Y-98256865D01*
X53711886Y-98378926D01*
X53576400Y-98572420D01*
X53576399Y-98572422D01*
X53476570Y-98786507D01*
X53476565Y-98786518D01*
X53459556Y-98849999D01*
X53459557Y-98850000D01*
X54448103Y-98850000D01*
X54368239Y-98919202D01*
X54290507Y-99040156D01*
X54250000Y-99178111D01*
X54250000Y-99321889D01*
X54290507Y-99459844D01*
X54368239Y-99580798D01*
X54476900Y-99674952D01*
X54607685Y-99734680D01*
X54714237Y-99750000D01*
X54785763Y-99750000D01*
X54892315Y-99734680D01*
X55023100Y-99674952D01*
X55051897Y-99650000D01*
X55150000Y-99650000D01*
X55150000Y-100540443D01*
X55213481Y-100523434D01*
X55213492Y-100523429D01*
X55427578Y-100423600D01*
X55447001Y-100410000D01*
X71700000Y-100410000D01*
X72600000Y-100410000D01*
X72600000Y-99510000D01*
X73400000Y-99510000D01*
X73400000Y-100410000D01*
X74300000Y-100410000D01*
X74300000Y-99962172D01*
X74299999Y-99962155D01*
X74293598Y-99902627D01*
X74293596Y-99902620D01*
X74243354Y-99767913D01*
X74243350Y-99767906D01*
X74157190Y-99652812D01*
X74157187Y-99652809D01*
X74042093Y-99566649D01*
X74042086Y-99566645D01*
X73907379Y-99516403D01*
X73907372Y-99516401D01*
X73847844Y-99510000D01*
X73400000Y-99510000D01*
X72600000Y-99510000D01*
X72152155Y-99510000D01*
X72092627Y-99516401D01*
X72092620Y-99516403D01*
X71957913Y-99566645D01*
X71957906Y-99566649D01*
X71842812Y-99652809D01*
X71842809Y-99652812D01*
X71756649Y-99767906D01*
X71756645Y-99767913D01*
X71706403Y-99902620D01*
X71706401Y-99902627D01*
X71700000Y-99962155D01*
X71700000Y-100410000D01*
X55447001Y-100410000D01*
X55621082Y-100288105D01*
X55788105Y-100121082D01*
X55923600Y-99927578D01*
X56023429Y-99713492D01*
X56023434Y-99713481D01*
X56040443Y-99650000D01*
X55150000Y-99650000D01*
X55051897Y-99650000D01*
X55131761Y-99580798D01*
X55209493Y-99459844D01*
X55235031Y-99372870D01*
X99649500Y-99372870D01*
X99649501Y-99372876D01*
X99655908Y-99432483D01*
X99706202Y-99567328D01*
X99706206Y-99567335D01*
X99792452Y-99682544D01*
X99792455Y-99682547D01*
X99907664Y-99768793D01*
X99907671Y-99768797D01*
X99907674Y-99768798D01*
X100039598Y-99818002D01*
X100095531Y-99859873D01*
X100119949Y-99925337D01*
X100105098Y-99993610D01*
X100083947Y-100021865D01*
X99961886Y-100143926D01*
X99826400Y-100337420D01*
X99826399Y-100337422D01*
X99726570Y-100551507D01*
X99726565Y-100551518D01*
X99709556Y-100614999D01*
X99709557Y-100615000D01*
X100698103Y-100615000D01*
X100618239Y-100684202D01*
X100540507Y-100805156D01*
X100500000Y-100943111D01*
X100500000Y-101086889D01*
X100540507Y-101224844D01*
X100618239Y-101345798D01*
X100726900Y-101439952D01*
X100857685Y-101499680D01*
X100964237Y-101515000D01*
X101035763Y-101515000D01*
X101142315Y-101499680D01*
X101273100Y-101439952D01*
X101301897Y-101415000D01*
X101400000Y-101415000D01*
X101400000Y-102305443D01*
X101463481Y-102288434D01*
X101463492Y-102288429D01*
X101677578Y-102188600D01*
X101871082Y-102053105D01*
X102038105Y-101886082D01*
X102173600Y-101692578D01*
X102273429Y-101478492D01*
X102273434Y-101478481D01*
X102290443Y-101415000D01*
X101400000Y-101415000D01*
X101301897Y-101415000D01*
X101381761Y-101345798D01*
X101459493Y-101224844D01*
X101500000Y-101086889D01*
X101500000Y-100943111D01*
X101459493Y-100805156D01*
X101381761Y-100684202D01*
X101301897Y-100615000D01*
X102290443Y-100615000D01*
X102290443Y-100614999D01*
X102273434Y-100551518D01*
X102273429Y-100551507D01*
X102173600Y-100337422D01*
X102173599Y-100337420D01*
X102038113Y-100143926D01*
X102038108Y-100143920D01*
X101916053Y-100021865D01*
X101882568Y-99960542D01*
X101887552Y-99890850D01*
X101929424Y-99834917D01*
X101960400Y-99818002D01*
X102092331Y-99768796D01*
X102207546Y-99682546D01*
X102293796Y-99567331D01*
X102344091Y-99432483D01*
X102350500Y-99372873D01*
X102350499Y-97577128D01*
X102344091Y-97517517D01*
X102311456Y-97430019D01*
X102293797Y-97382671D01*
X102293793Y-97382664D01*
X102207547Y-97267455D01*
X102207544Y-97267452D01*
X102092335Y-97181206D01*
X102092328Y-97181202D01*
X101957482Y-97130908D01*
X101957483Y-97130908D01*
X101897883Y-97124501D01*
X101897881Y-97124500D01*
X101897873Y-97124500D01*
X101897864Y-97124500D01*
X100102129Y-97124500D01*
X100102123Y-97124501D01*
X100042516Y-97130908D01*
X99907671Y-97181202D01*
X99907664Y-97181206D01*
X99792455Y-97267452D01*
X99792452Y-97267455D01*
X99706206Y-97382664D01*
X99706202Y-97382671D01*
X99655908Y-97517517D01*
X99649501Y-97577116D01*
X99649501Y-97577123D01*
X99649500Y-97577135D01*
X99649500Y-99372870D01*
X55235031Y-99372870D01*
X55250000Y-99321889D01*
X55250000Y-99178111D01*
X55209493Y-99040156D01*
X55131761Y-98919202D01*
X55051897Y-98850000D01*
X56040443Y-98850000D01*
X56040443Y-98849999D01*
X56023434Y-98786518D01*
X56023429Y-98786507D01*
X55923600Y-98572422D01*
X55923599Y-98572420D01*
X55788113Y-98378926D01*
X55788108Y-98378920D01*
X55666053Y-98256865D01*
X55632568Y-98195542D01*
X55637552Y-98125850D01*
X55679424Y-98069917D01*
X55710400Y-98053002D01*
X55842331Y-98003796D01*
X55957546Y-97917546D01*
X56043796Y-97802331D01*
X56094091Y-97667483D01*
X56100500Y-97607873D01*
X56100500Y-97250001D01*
X75944390Y-97250001D01*
X75964804Y-97535433D01*
X76025628Y-97815037D01*
X76025630Y-97815043D01*
X76025631Y-97815046D01*
X76117181Y-98060500D01*
X76125635Y-98083166D01*
X76262770Y-98334309D01*
X76262775Y-98334317D01*
X76434254Y-98563387D01*
X76434270Y-98563405D01*
X76636594Y-98765729D01*
X76636612Y-98765745D01*
X76865682Y-98937224D01*
X76865690Y-98937229D01*
X77116833Y-99074364D01*
X77116832Y-99074364D01*
X77116836Y-99074365D01*
X77116839Y-99074367D01*
X77384954Y-99174369D01*
X77384960Y-99174370D01*
X77384962Y-99174371D01*
X77664566Y-99235195D01*
X77664568Y-99235195D01*
X77664572Y-99235196D01*
X77918220Y-99253337D01*
X77949999Y-99255610D01*
X77950000Y-99255610D01*
X77950001Y-99255610D01*
X77978595Y-99253564D01*
X78235428Y-99235196D01*
X78515046Y-99174369D01*
X78783161Y-99074367D01*
X79034315Y-98937226D01*
X79263395Y-98765739D01*
X79465739Y-98563395D01*
X79637226Y-98334315D01*
X79774367Y-98083161D01*
X79874369Y-97815046D01*
X79906469Y-97667483D01*
X79935195Y-97535433D01*
X79935195Y-97535432D01*
X79935196Y-97535428D01*
X79952034Y-97300001D01*
X87994390Y-97300001D01*
X88014804Y-97585433D01*
X88075628Y-97865037D01*
X88075630Y-97865043D01*
X88075631Y-97865046D01*
X88148532Y-98060500D01*
X88175635Y-98133166D01*
X88312770Y-98384309D01*
X88312775Y-98384317D01*
X88484254Y-98613387D01*
X88484270Y-98613405D01*
X88686594Y-98815729D01*
X88686612Y-98815745D01*
X88915682Y-98987224D01*
X88915690Y-98987229D01*
X89166833Y-99124364D01*
X89166832Y-99124364D01*
X89166836Y-99124365D01*
X89166839Y-99124367D01*
X89434954Y-99224369D01*
X89434960Y-99224370D01*
X89434962Y-99224371D01*
X89714566Y-99285195D01*
X89714568Y-99285195D01*
X89714572Y-99285196D01*
X89968220Y-99303337D01*
X89999999Y-99305610D01*
X90000000Y-99305610D01*
X90000001Y-99305610D01*
X90028595Y-99303564D01*
X90285428Y-99285196D01*
X90565046Y-99224369D01*
X90833161Y-99124367D01*
X91084315Y-98987226D01*
X91313395Y-98815739D01*
X91515739Y-98613395D01*
X91687226Y-98384315D01*
X91824367Y-98133161D01*
X91924369Y-97865046D01*
X91985196Y-97585428D01*
X92005610Y-97300000D01*
X91985196Y-97014572D01*
X91967852Y-96934844D01*
X91924371Y-96734962D01*
X91924370Y-96734960D01*
X91924369Y-96734954D01*
X91824367Y-96466839D01*
X91692312Y-96225000D01*
X91687229Y-96215690D01*
X91687224Y-96215682D01*
X91515745Y-95986612D01*
X91515729Y-95986594D01*
X91313405Y-95784270D01*
X91313387Y-95784254D01*
X91084317Y-95612775D01*
X91084309Y-95612770D01*
X90833166Y-95475635D01*
X90833167Y-95475635D01*
X90715225Y-95431645D01*
X90565046Y-95375631D01*
X90565043Y-95375630D01*
X90565037Y-95375628D01*
X90285433Y-95314804D01*
X90000001Y-95294390D01*
X89999999Y-95294390D01*
X89714566Y-95314804D01*
X89434962Y-95375628D01*
X89166833Y-95475635D01*
X88915690Y-95612770D01*
X88915682Y-95612775D01*
X88686612Y-95784254D01*
X88686594Y-95784270D01*
X88484270Y-95986594D01*
X88484254Y-95986612D01*
X88312775Y-96215682D01*
X88312770Y-96215690D01*
X88175635Y-96466833D01*
X88075628Y-96734962D01*
X88014804Y-97014566D01*
X87994390Y-97299998D01*
X87994390Y-97300001D01*
X79952034Y-97300001D01*
X79955610Y-97250000D01*
X79935196Y-96964572D01*
X79910345Y-96850335D01*
X79874371Y-96684962D01*
X79874370Y-96684960D01*
X79874369Y-96684954D01*
X79774367Y-96416839D01*
X79683849Y-96251069D01*
X79637229Y-96165690D01*
X79637224Y-96165682D01*
X79465745Y-95936612D01*
X79465729Y-95936594D01*
X79263405Y-95734270D01*
X79263387Y-95734254D01*
X79034317Y-95562775D01*
X79034309Y-95562770D01*
X78783166Y-95425635D01*
X78783167Y-95425635D01*
X78623035Y-95365909D01*
X78515046Y-95325631D01*
X78515043Y-95325630D01*
X78515037Y-95325628D01*
X78235433Y-95264804D01*
X77950001Y-95244390D01*
X77949999Y-95244390D01*
X77664566Y-95264804D01*
X77384962Y-95325628D01*
X77116833Y-95425635D01*
X76865690Y-95562770D01*
X76865682Y-95562775D01*
X76636612Y-95734254D01*
X76636594Y-95734270D01*
X76434270Y-95936594D01*
X76434254Y-95936612D01*
X76262775Y-96165682D01*
X76262770Y-96165690D01*
X76125635Y-96416833D01*
X76025628Y-96684962D01*
X75964804Y-96964566D01*
X75944390Y-97249998D01*
X75944390Y-97250001D01*
X56100500Y-97250001D01*
X56100499Y-95812128D01*
X56094091Y-95752517D01*
X56087285Y-95734270D01*
X56043797Y-95617671D01*
X56043793Y-95617664D01*
X55957547Y-95502455D01*
X55957544Y-95502452D01*
X55842335Y-95416206D01*
X55842328Y-95416202D01*
X55707482Y-95365908D01*
X55707483Y-95365908D01*
X55647883Y-95359501D01*
X55647881Y-95359500D01*
X55647873Y-95359500D01*
X55647864Y-95359500D01*
X53852129Y-95359500D01*
X53852123Y-95359501D01*
X53792516Y-95365908D01*
X53657671Y-95416202D01*
X53657664Y-95416206D01*
X53542455Y-95502452D01*
X53542452Y-95502455D01*
X53456206Y-95617664D01*
X53456202Y-95617671D01*
X53405908Y-95752517D01*
X53399501Y-95812116D01*
X53399501Y-95812123D01*
X53399500Y-95812135D01*
X53399500Y-97607870D01*
X51100000Y-97607870D01*
X51100000Y-97125000D01*
X50150000Y-97125000D01*
X50051897Y-97125000D01*
X50131761Y-97055798D01*
X50209493Y-96934844D01*
X50250000Y-96796889D01*
X50250000Y-96653111D01*
X50209493Y-96515156D01*
X50131761Y-96394202D01*
X50023100Y-96300048D01*
X49892315Y-96240320D01*
X49785763Y-96225000D01*
X49714237Y-96225000D01*
X49607685Y-96240320D01*
X49476900Y-96300048D01*
X49368239Y-96394202D01*
X49290507Y-96515156D01*
X49250000Y-96653111D01*
X49250000Y-96796889D01*
X43310235Y-96796889D01*
X43481831Y-96499675D01*
X43561603Y-96325000D01*
X48400000Y-96325000D01*
X49350000Y-96325000D01*
X49350000Y-95375000D01*
X50150000Y-95375000D01*
X50150000Y-96325000D01*
X51100000Y-96325000D01*
X51100000Y-95827172D01*
X51099999Y-95827155D01*
X51093598Y-95767627D01*
X51093596Y-95767620D01*
X51043354Y-95632913D01*
X51043350Y-95632906D01*
X50957190Y-95517812D01*
X50957187Y-95517809D01*
X50842093Y-95431649D01*
X50842086Y-95431645D01*
X50707379Y-95381403D01*
X50707372Y-95381401D01*
X50647844Y-95375000D01*
X50150000Y-95375000D01*
X49350000Y-95375000D01*
X48852155Y-95375000D01*
X48792627Y-95381401D01*
X48792620Y-95381403D01*
X48657913Y-95431645D01*
X48657906Y-95431649D01*
X48542812Y-95517809D01*
X48542809Y-95517812D01*
X48456649Y-95632906D01*
X48456645Y-95632913D01*
X48406403Y-95767620D01*
X48406401Y-95767627D01*
X48400000Y-95827155D01*
X48400000Y-96325000D01*
X43561603Y-96325000D01*
X43650033Y-96131365D01*
X43650043Y-96131340D01*
X43782465Y-95748733D01*
X43782468Y-95748722D01*
X43877928Y-95355231D01*
X43935552Y-94954450D01*
X43954818Y-94550000D01*
X123645181Y-94550000D01*
X123664447Y-94954450D01*
X123722071Y-95355231D01*
X123817531Y-95748722D01*
X123817534Y-95748733D01*
X123949956Y-96131340D01*
X123949966Y-96131365D01*
X124118168Y-96499675D01*
X124320621Y-96850335D01*
X124320627Y-96850343D01*
X124555480Y-97180147D01*
X124555492Y-97180162D01*
X124624505Y-97259806D01*
X124624506Y-97259807D01*
X126521542Y-95362771D01*
X126601570Y-95493365D01*
X126765130Y-95684870D01*
X126956635Y-95848430D01*
X127087227Y-95928457D01*
X125190052Y-97825632D01*
X125190052Y-97825633D01*
X125431968Y-98015876D01*
X125772594Y-98234782D01*
X126132485Y-98420319D01*
X126508383Y-98570806D01*
X126508395Y-98570810D01*
X126896882Y-98684880D01*
X126896899Y-98684884D01*
X127294460Y-98761508D01*
X127294472Y-98761510D01*
X127697554Y-98800000D01*
X128102446Y-98800000D01*
X128505527Y-98761510D01*
X128505539Y-98761508D01*
X128903100Y-98684884D01*
X128903117Y-98684880D01*
X129291604Y-98570810D01*
X129291616Y-98570806D01*
X129667507Y-98420322D01*
X129667511Y-98420320D01*
X130027406Y-98234782D01*
X130368031Y-98015877D01*
X130609946Y-97825633D01*
X130609946Y-97825632D01*
X128712772Y-95928457D01*
X128843365Y-95848430D01*
X129034870Y-95684870D01*
X129198430Y-95493365D01*
X129278457Y-95362772D01*
X131175492Y-97259806D01*
X131244516Y-97180151D01*
X131244519Y-97180147D01*
X131479372Y-96850343D01*
X131479378Y-96850335D01*
X131681831Y-96499675D01*
X131850033Y-96131365D01*
X131850043Y-96131340D01*
X131895500Y-96000000D01*
X134745181Y-96000000D01*
X134764447Y-96404450D01*
X134822071Y-96805231D01*
X134917531Y-97198722D01*
X134917534Y-97198733D01*
X135049956Y-97581340D01*
X135049966Y-97581365D01*
X135218168Y-97949675D01*
X135420621Y-98300335D01*
X135420627Y-98300343D01*
X135655480Y-98630147D01*
X135655492Y-98630162D01*
X135724505Y-98709806D01*
X135724505Y-98709807D01*
X137621541Y-96812770D01*
X137701570Y-96943365D01*
X137865130Y-97134870D01*
X138056635Y-97298430D01*
X138187227Y-97378457D01*
X136290052Y-99275632D01*
X136290052Y-99275633D01*
X136531968Y-99465876D01*
X136872594Y-99684782D01*
X137232485Y-99870319D01*
X137608383Y-100020806D01*
X137608395Y-100020810D01*
X137996882Y-100134880D01*
X137996899Y-100134884D01*
X138394460Y-100211508D01*
X138394472Y-100211510D01*
X138797554Y-100250000D01*
X139202446Y-100250000D01*
X139605527Y-100211510D01*
X139605539Y-100211508D01*
X140003100Y-100134884D01*
X140003117Y-100134880D01*
X140391604Y-100020810D01*
X140391616Y-100020806D01*
X140767507Y-99870322D01*
X140767511Y-99870320D01*
X141127406Y-99684782D01*
X141468031Y-99465877D01*
X141709946Y-99275633D01*
X141709946Y-99275632D01*
X139812772Y-97378457D01*
X139943365Y-97298430D01*
X140134870Y-97134870D01*
X140298430Y-96943365D01*
X140378457Y-96812772D01*
X142275492Y-98709806D01*
X142344516Y-98630151D01*
X142344519Y-98630147D01*
X142579372Y-98300343D01*
X142579378Y-98300335D01*
X142781831Y-97949675D01*
X142950033Y-97581365D01*
X142950043Y-97581340D01*
X143082465Y-97198733D01*
X143082468Y-97198722D01*
X143177928Y-96805231D01*
X143235552Y-96404450D01*
X143254818Y-96000000D01*
X143235552Y-95595549D01*
X143177928Y-95194768D01*
X143082468Y-94801277D01*
X143082465Y-94801266D01*
X142950043Y-94418659D01*
X142950033Y-94418634D01*
X142781831Y-94050324D01*
X142579378Y-93699664D01*
X142579372Y-93699656D01*
X142344519Y-93369852D01*
X142344507Y-93369837D01*
X142275493Y-93290192D01*
X142275493Y-93290191D01*
X140378457Y-95187227D01*
X140298430Y-95056635D01*
X140134870Y-94865130D01*
X139943365Y-94701570D01*
X139812770Y-94621541D01*
X141709946Y-92724366D01*
X141709946Y-92724365D01*
X141468031Y-92534122D01*
X141127406Y-92315217D01*
X140767511Y-92129679D01*
X140767507Y-92129677D01*
X140391616Y-91979193D01*
X140391604Y-91979189D01*
X140003117Y-91865119D01*
X140003100Y-91865115D01*
X139605539Y-91788491D01*
X139605527Y-91788489D01*
X139202446Y-91750000D01*
X138797554Y-91750000D01*
X138394472Y-91788489D01*
X138394460Y-91788491D01*
X137996899Y-91865115D01*
X137996882Y-91865119D01*
X137608395Y-91979189D01*
X137608383Y-91979193D01*
X137232485Y-92129680D01*
X136872594Y-92315217D01*
X136531957Y-92534130D01*
X136290052Y-92724365D01*
X136290052Y-92724366D01*
X138187228Y-94621542D01*
X138056635Y-94701570D01*
X137865130Y-94865130D01*
X137701570Y-95056635D01*
X137621542Y-95187228D01*
X135724506Y-93290192D01*
X135655487Y-93369843D01*
X135655476Y-93369856D01*
X135420627Y-93699656D01*
X135420621Y-93699664D01*
X135218168Y-94050324D01*
X135049966Y-94418634D01*
X135049956Y-94418659D01*
X134917534Y-94801266D01*
X134917531Y-94801277D01*
X134822071Y-95194768D01*
X134764447Y-95595549D01*
X134745181Y-96000000D01*
X131895500Y-96000000D01*
X131982465Y-95748733D01*
X131982468Y-95748722D01*
X132077928Y-95355231D01*
X132135552Y-94954450D01*
X132154818Y-94550000D01*
X132135552Y-94145549D01*
X132077928Y-93744768D01*
X131982468Y-93351277D01*
X131982465Y-93351266D01*
X131850043Y-92968659D01*
X131850033Y-92968634D01*
X131681831Y-92600324D01*
X131479378Y-92249664D01*
X131479372Y-92249656D01*
X131244519Y-91919852D01*
X131244507Y-91919837D01*
X131175493Y-91840192D01*
X131175493Y-91840191D01*
X129278457Y-93737227D01*
X129198430Y-93606635D01*
X129034870Y-93415130D01*
X128843365Y-93251570D01*
X128712770Y-93171541D01*
X130609946Y-91274366D01*
X130609946Y-91274365D01*
X130368031Y-91084122D01*
X130027406Y-90865217D01*
X129667511Y-90679679D01*
X129667507Y-90679677D01*
X129291616Y-90529193D01*
X129291604Y-90529189D01*
X128903117Y-90415119D01*
X128903100Y-90415115D01*
X128505539Y-90338491D01*
X128505527Y-90338489D01*
X128102446Y-90300000D01*
X127697554Y-90300000D01*
X127294472Y-90338489D01*
X127294460Y-90338491D01*
X126896899Y-90415115D01*
X126896882Y-90415119D01*
X126508395Y-90529189D01*
X126508383Y-90529193D01*
X126132485Y-90679680D01*
X125772594Y-90865217D01*
X125431957Y-91084130D01*
X125190052Y-91274365D01*
X125190052Y-91274366D01*
X127087228Y-93171542D01*
X126956635Y-93251570D01*
X126765130Y-93415130D01*
X126601570Y-93606635D01*
X126521542Y-93737228D01*
X124624506Y-91840192D01*
X124555487Y-91919843D01*
X124555476Y-91919856D01*
X124320627Y-92249656D01*
X124320621Y-92249664D01*
X124118168Y-92600324D01*
X123949966Y-92968634D01*
X123949956Y-92968659D01*
X123817534Y-93351266D01*
X123817531Y-93351277D01*
X123722071Y-93744768D01*
X123664447Y-94145549D01*
X123645181Y-94550000D01*
X43954818Y-94550000D01*
X43935552Y-94145549D01*
X43877928Y-93744768D01*
X43782468Y-93351277D01*
X43782465Y-93351266D01*
X43726650Y-93190001D01*
X71694532Y-93190001D01*
X71714364Y-93416686D01*
X71714366Y-93416697D01*
X71773258Y-93636488D01*
X71773261Y-93636497D01*
X71869431Y-93842732D01*
X71869432Y-93842734D01*
X71999954Y-94029141D01*
X72160858Y-94190045D01*
X72160861Y-94190047D01*
X72347266Y-94320568D01*
X72553504Y-94416739D01*
X72553509Y-94416740D01*
X72553511Y-94416741D01*
X72606415Y-94430916D01*
X72773308Y-94475635D01*
X72935230Y-94489801D01*
X72999998Y-94495468D01*
X73000000Y-94495468D01*
X73000002Y-94495468D01*
X73056673Y-94490509D01*
X73226692Y-94475635D01*
X73446496Y-94416739D01*
X73652734Y-94320568D01*
X73839139Y-94190047D01*
X74000047Y-94029139D01*
X74130568Y-93842734D01*
X74226739Y-93636496D01*
X74285635Y-93416692D01*
X74305468Y-93190000D01*
X74285635Y-92963308D01*
X74226739Y-92743504D01*
X74130568Y-92537266D01*
X74000047Y-92350861D01*
X74000045Y-92350858D01*
X73839141Y-92189954D01*
X73652734Y-92059432D01*
X73652732Y-92059431D01*
X73446497Y-91963261D01*
X73446488Y-91963258D01*
X73226697Y-91904366D01*
X73226693Y-91904365D01*
X73226692Y-91904365D01*
X73226691Y-91904364D01*
X73226686Y-91904364D01*
X73000002Y-91884532D01*
X72999998Y-91884532D01*
X72773313Y-91904364D01*
X72773302Y-91904366D01*
X72553511Y-91963258D01*
X72553502Y-91963261D01*
X72347267Y-92059431D01*
X72347265Y-92059432D01*
X72160858Y-92189954D01*
X71999954Y-92350858D01*
X71869432Y-92537265D01*
X71869431Y-92537267D01*
X71773261Y-92743502D01*
X71773258Y-92743511D01*
X71714366Y-92963302D01*
X71714364Y-92963313D01*
X71694532Y-93189998D01*
X71694532Y-93190001D01*
X43726650Y-93190001D01*
X43650043Y-92968659D01*
X43650033Y-92968634D01*
X43481831Y-92600324D01*
X43279378Y-92249664D01*
X43279372Y-92249656D01*
X43044519Y-91919852D01*
X43044507Y-91919837D01*
X42975493Y-91840192D01*
X42975493Y-91840191D01*
X41078457Y-93737227D01*
X40998430Y-93606635D01*
X40834870Y-93415130D01*
X40643365Y-93251570D01*
X40512770Y-93171541D01*
X42409946Y-91274366D01*
X42409946Y-91274365D01*
X42168031Y-91084122D01*
X41827406Y-90865217D01*
X41467511Y-90679679D01*
X41467507Y-90679677D01*
X41091616Y-90529193D01*
X41091604Y-90529189D01*
X40703117Y-90415119D01*
X40703100Y-90415115D01*
X40305539Y-90338491D01*
X40305527Y-90338489D01*
X39902446Y-90300000D01*
X39497554Y-90300000D01*
X39094472Y-90338489D01*
X39094460Y-90338491D01*
X38696899Y-90415115D01*
X38696882Y-90415119D01*
X38308395Y-90529189D01*
X38308383Y-90529193D01*
X37932485Y-90679680D01*
X37572594Y-90865217D01*
X37231957Y-91084130D01*
X36990052Y-91274365D01*
X36990052Y-91274366D01*
X38887228Y-93171542D01*
X38756635Y-93251570D01*
X38565130Y-93415130D01*
X38401570Y-93606635D01*
X38321542Y-93737228D01*
X36424506Y-91840192D01*
X36355487Y-91919843D01*
X36355476Y-91919856D01*
X36120627Y-92249656D01*
X36120621Y-92249664D01*
X35918168Y-92600324D01*
X35749966Y-92968634D01*
X35749956Y-92968659D01*
X35617534Y-93351266D01*
X35617531Y-93351277D01*
X35522071Y-93744768D01*
X35464447Y-94145549D01*
X35445181Y-94550000D01*
X32495501Y-94550000D01*
X32450043Y-94418659D01*
X32450033Y-94418634D01*
X32281831Y-94050324D01*
X32079378Y-93699664D01*
X32079372Y-93699656D01*
X31844519Y-93369852D01*
X31844507Y-93369837D01*
X31775493Y-93290192D01*
X31775493Y-93290191D01*
X29878457Y-95187227D01*
X29798430Y-95056635D01*
X29634870Y-94865130D01*
X29443365Y-94701570D01*
X29312770Y-94621541D01*
X31209946Y-92724366D01*
X31209946Y-92724365D01*
X30968031Y-92534122D01*
X30627406Y-92315217D01*
X30267511Y-92129679D01*
X30267507Y-92129677D01*
X29891616Y-91979193D01*
X29891604Y-91979189D01*
X29503117Y-91865119D01*
X29503100Y-91865115D01*
X29105539Y-91788491D01*
X29105527Y-91788489D01*
X28702446Y-91750000D01*
X28297554Y-91750000D01*
X27894472Y-91788489D01*
X27894460Y-91788491D01*
X27496899Y-91865115D01*
X27496882Y-91865119D01*
X27108395Y-91979189D01*
X27108383Y-91979193D01*
X26732485Y-92129680D01*
X26372594Y-92315217D01*
X26031957Y-92534130D01*
X25790052Y-92724365D01*
X25790052Y-92724366D01*
X27687228Y-94621542D01*
X27556635Y-94701570D01*
X27365130Y-94865130D01*
X27201570Y-95056635D01*
X27121542Y-95187228D01*
X25224506Y-93290192D01*
X25155487Y-93369843D01*
X25155476Y-93369856D01*
X24920627Y-93699656D01*
X24920621Y-93699664D01*
X24718168Y-94050324D01*
X24549966Y-94418634D01*
X24549956Y-94418659D01*
X24417534Y-94801266D01*
X24417531Y-94801277D01*
X24322071Y-95194768D01*
X24264447Y-95595549D01*
X24245181Y-96000000D01*
X20854260Y-96000000D01*
X20786819Y-95932559D01*
X20753334Y-95871236D01*
X20750500Y-95844878D01*
X20750500Y-87550000D01*
X63445181Y-87550000D01*
X63464447Y-87954450D01*
X63522071Y-88355231D01*
X63617531Y-88748722D01*
X63617534Y-88748733D01*
X63749956Y-89131340D01*
X63749966Y-89131365D01*
X63918168Y-89499675D01*
X64120621Y-89850335D01*
X64120627Y-89850343D01*
X64355480Y-90180147D01*
X64355492Y-90180162D01*
X64424505Y-90259806D01*
X64424505Y-90259807D01*
X66321541Y-88362770D01*
X66401570Y-88493365D01*
X66565130Y-88684870D01*
X66756635Y-88848430D01*
X66887227Y-88928457D01*
X64990052Y-90825632D01*
X64990052Y-90825633D01*
X65231968Y-91015876D01*
X65572594Y-91234782D01*
X65932485Y-91420319D01*
X66308383Y-91570806D01*
X66308395Y-91570810D01*
X66696882Y-91684880D01*
X66696899Y-91684884D01*
X67094460Y-91761508D01*
X67094472Y-91761510D01*
X67497554Y-91800000D01*
X67902446Y-91800000D01*
X68305527Y-91761510D01*
X68305539Y-91761508D01*
X68703100Y-91684884D01*
X68703117Y-91684880D01*
X69091604Y-91570810D01*
X69091616Y-91570806D01*
X69467507Y-91420322D01*
X69467511Y-91420320D01*
X69827406Y-91234782D01*
X70168031Y-91015877D01*
X70409946Y-90825633D01*
X70409946Y-90825632D01*
X68512772Y-88928457D01*
X68643365Y-88848430D01*
X68834870Y-88684870D01*
X68998430Y-88493365D01*
X69078457Y-88362772D01*
X70975492Y-90259806D01*
X71044516Y-90180151D01*
X71044519Y-90180147D01*
X71279372Y-89850343D01*
X71279378Y-89850335D01*
X71481831Y-89499675D01*
X71650033Y-89131365D01*
X71650043Y-89131340D01*
X71782465Y-88748733D01*
X71782468Y-88748722D01*
X71877928Y-88355231D01*
X71935552Y-87954450D01*
X71954818Y-87550000D01*
X95645181Y-87550000D01*
X95664447Y-87954450D01*
X95722071Y-88355231D01*
X95817531Y-88748722D01*
X95817534Y-88748733D01*
X95949956Y-89131340D01*
X95949966Y-89131365D01*
X96118168Y-89499675D01*
X96320621Y-89850335D01*
X96320627Y-89850343D01*
X96555480Y-90180147D01*
X96555492Y-90180162D01*
X96624505Y-90259806D01*
X96624505Y-90259807D01*
X98521541Y-88362770D01*
X98601570Y-88493365D01*
X98765130Y-88684870D01*
X98956635Y-88848430D01*
X99087227Y-88928457D01*
X97190052Y-90825632D01*
X97190052Y-90825633D01*
X97431968Y-91015876D01*
X97772594Y-91234782D01*
X98132485Y-91420319D01*
X98508383Y-91570806D01*
X98508395Y-91570810D01*
X98896882Y-91684880D01*
X98896899Y-91684884D01*
X99294460Y-91761508D01*
X99294472Y-91761510D01*
X99697554Y-91800000D01*
X100102446Y-91800000D01*
X100505527Y-91761510D01*
X100505539Y-91761508D01*
X100903100Y-91684884D01*
X100903117Y-91684880D01*
X101291604Y-91570810D01*
X101291616Y-91570806D01*
X101667507Y-91420322D01*
X101667511Y-91420320D01*
X102027406Y-91234782D01*
X102368031Y-91015877D01*
X102609946Y-90825633D01*
X102609946Y-90825632D01*
X100712772Y-88928457D01*
X100843365Y-88848430D01*
X101034870Y-88684870D01*
X101198430Y-88493365D01*
X101278457Y-88362771D01*
X103175492Y-90259806D01*
X103244516Y-90180151D01*
X103244519Y-90180147D01*
X103479372Y-89850343D01*
X103479378Y-89850335D01*
X103681831Y-89499675D01*
X103850033Y-89131365D01*
X103850043Y-89131340D01*
X103982465Y-88748733D01*
X103982468Y-88748722D01*
X104077928Y-88355231D01*
X104135552Y-87954450D01*
X104154818Y-87550000D01*
X104135552Y-87145549D01*
X104077928Y-86744768D01*
X103982468Y-86351277D01*
X103982465Y-86351266D01*
X103850043Y-85968659D01*
X103850033Y-85968634D01*
X103681831Y-85600324D01*
X103479378Y-85249664D01*
X103479372Y-85249656D01*
X103244519Y-84919852D01*
X103244507Y-84919837D01*
X103175493Y-84840192D01*
X103175493Y-84840191D01*
X101278456Y-86737227D01*
X101198430Y-86606635D01*
X101034870Y-86415130D01*
X100843365Y-86251570D01*
X100712770Y-86171541D01*
X102609946Y-84274366D01*
X102609946Y-84274365D01*
X102368031Y-84084122D01*
X102027406Y-83865217D01*
X101667511Y-83679679D01*
X101667507Y-83679677D01*
X101291616Y-83529193D01*
X101291604Y-83529189D01*
X100903117Y-83415119D01*
X100903100Y-83415115D01*
X100505539Y-83338491D01*
X100505527Y-83338489D01*
X100102446Y-83300000D01*
X99697554Y-83300000D01*
X99294472Y-83338489D01*
X99294460Y-83338491D01*
X98896899Y-83415115D01*
X98896882Y-83415119D01*
X98508395Y-83529189D01*
X98508383Y-83529193D01*
X98132485Y-83679680D01*
X97772594Y-83865217D01*
X97431957Y-84084130D01*
X97190052Y-84274365D01*
X97190052Y-84274366D01*
X99087228Y-86171542D01*
X98956635Y-86251570D01*
X98765130Y-86415130D01*
X98601570Y-86606635D01*
X98521542Y-86737228D01*
X96624506Y-84840192D01*
X96555487Y-84919843D01*
X96555476Y-84919856D01*
X96320627Y-85249656D01*
X96320621Y-85249664D01*
X96118168Y-85600324D01*
X95949966Y-85968634D01*
X95949956Y-85968659D01*
X95817534Y-86351266D01*
X95817531Y-86351277D01*
X95722071Y-86744768D01*
X95664447Y-87145549D01*
X95645181Y-87550000D01*
X71954818Y-87550000D01*
X71935552Y-87145549D01*
X71877928Y-86744768D01*
X71782468Y-86351277D01*
X71782465Y-86351266D01*
X71650043Y-85968659D01*
X71650033Y-85968634D01*
X71481831Y-85600324D01*
X71279378Y-85249664D01*
X71279372Y-85249656D01*
X71137200Y-85050004D01*
X76194592Y-85050004D01*
X76214196Y-85311620D01*
X76214197Y-85311625D01*
X76272576Y-85567402D01*
X76272578Y-85567411D01*
X76272580Y-85567416D01*
X76368432Y-85811643D01*
X76499614Y-86038857D01*
X76631736Y-86204533D01*
X76663198Y-86243985D01*
X76844753Y-86412441D01*
X76855521Y-86422433D01*
X77072296Y-86570228D01*
X77072301Y-86570230D01*
X77072302Y-86570231D01*
X77072303Y-86570232D01*
X77197843Y-86630688D01*
X77308673Y-86684061D01*
X77308674Y-86684061D01*
X77308677Y-86684063D01*
X77559385Y-86761396D01*
X77818818Y-86800500D01*
X78081182Y-86800500D01*
X78340615Y-86761396D01*
X78591323Y-86684063D01*
X78827704Y-86570228D01*
X78873922Y-86538717D01*
X89026966Y-86538717D01*
X89072546Y-86569793D01*
X89072550Y-86569795D01*
X89308854Y-86683594D01*
X89308858Y-86683595D01*
X89559494Y-86760907D01*
X89559500Y-86760909D01*
X89818848Y-86799999D01*
X89818857Y-86800000D01*
X90081143Y-86800000D01*
X90081151Y-86799999D01*
X90340499Y-86760909D01*
X90340505Y-86760907D01*
X90591143Y-86683595D01*
X90827452Y-86569795D01*
X90873031Y-86538719D01*
X90873031Y-86538717D01*
X89950001Y-85615685D01*
X89950000Y-85615685D01*
X89026966Y-86538717D01*
X78873922Y-86538717D01*
X79044479Y-86422433D01*
X79236805Y-86243981D01*
X79400386Y-86038857D01*
X79531568Y-85811643D01*
X79627420Y-85567416D01*
X79685802Y-85311630D01*
X79685808Y-85311550D01*
X79705408Y-85050004D01*
X79705408Y-85049995D01*
X79685803Y-84788379D01*
X79685802Y-84788374D01*
X79685802Y-84788370D01*
X79627420Y-84532584D01*
X79531568Y-84288357D01*
X79400386Y-84061143D01*
X79236805Y-83856019D01*
X79236804Y-83856018D01*
X79236801Y-83856014D01*
X79044479Y-83677567D01*
X79026101Y-83665037D01*
X78827704Y-83529772D01*
X78827700Y-83529770D01*
X78827697Y-83529768D01*
X78827696Y-83529767D01*
X78591325Y-83415938D01*
X78591327Y-83415938D01*
X78340623Y-83338606D01*
X78340619Y-83338605D01*
X78340615Y-83338604D01*
X78215823Y-83319794D01*
X78081187Y-83299500D01*
X78081182Y-83299500D01*
X77818818Y-83299500D01*
X77818812Y-83299500D01*
X77657247Y-83323853D01*
X77559385Y-83338604D01*
X77559382Y-83338605D01*
X77559376Y-83338606D01*
X77308673Y-83415938D01*
X77072303Y-83529767D01*
X77072302Y-83529768D01*
X77072296Y-83529771D01*
X77072296Y-83529772D01*
X77046839Y-83547128D01*
X76855520Y-83677567D01*
X76663198Y-83856014D01*
X76499614Y-84061143D01*
X76368432Y-84288356D01*
X76272582Y-84532578D01*
X76272576Y-84532597D01*
X76214197Y-84788374D01*
X76214196Y-84788379D01*
X76194592Y-85049995D01*
X76194592Y-85050004D01*
X71137200Y-85050004D01*
X71044519Y-84919852D01*
X71044507Y-84919837D01*
X70975493Y-84840192D01*
X70975493Y-84840191D01*
X69078457Y-86737227D01*
X68998430Y-86606635D01*
X68834870Y-86415130D01*
X68643365Y-86251570D01*
X68512770Y-86171541D01*
X70409946Y-84274366D01*
X70409946Y-84274365D01*
X70168031Y-84084122D01*
X69827406Y-83865217D01*
X69467511Y-83679679D01*
X69467507Y-83679677D01*
X69091616Y-83529193D01*
X69091604Y-83529189D01*
X68703117Y-83415119D01*
X68703100Y-83415115D01*
X68305539Y-83338491D01*
X68305527Y-83338489D01*
X67902446Y-83300000D01*
X67497554Y-83300000D01*
X67094472Y-83338489D01*
X67094460Y-83338491D01*
X66696899Y-83415115D01*
X66696882Y-83415119D01*
X66308395Y-83529189D01*
X66308383Y-83529193D01*
X65932485Y-83679680D01*
X65572594Y-83865217D01*
X65231957Y-84084130D01*
X64990052Y-84274365D01*
X64990052Y-84274366D01*
X66887228Y-86171542D01*
X66756635Y-86251570D01*
X66565130Y-86415130D01*
X66401570Y-86606635D01*
X66321542Y-86737228D01*
X64424506Y-84840192D01*
X64355487Y-84919843D01*
X64355476Y-84919856D01*
X64120627Y-85249656D01*
X64120621Y-85249664D01*
X63918168Y-85600324D01*
X63749966Y-85968634D01*
X63749956Y-85968659D01*
X63617534Y-86351266D01*
X63617531Y-86351277D01*
X63522071Y-86744768D01*
X63464447Y-87145549D01*
X63445181Y-87550000D01*
X20750500Y-87550000D01*
X20750500Y-83100001D01*
X81994390Y-83100001D01*
X82014804Y-83385433D01*
X82075628Y-83665037D01*
X82075630Y-83665043D01*
X82075631Y-83665046D01*
X82150291Y-83865217D01*
X82175635Y-83933166D01*
X82312770Y-84184309D01*
X82312775Y-84184317D01*
X82484254Y-84413387D01*
X82484270Y-84413405D01*
X82686594Y-84615729D01*
X82686612Y-84615745D01*
X82915682Y-84787224D01*
X82915690Y-84787229D01*
X83166833Y-84924364D01*
X83166832Y-84924364D01*
X83166836Y-84924365D01*
X83166839Y-84924367D01*
X83434954Y-85024369D01*
X83434960Y-85024370D01*
X83434962Y-85024371D01*
X83714566Y-85085195D01*
X83714568Y-85085195D01*
X83714572Y-85085196D01*
X83968220Y-85103337D01*
X83999999Y-85105610D01*
X84000000Y-85105610D01*
X84000001Y-85105610D01*
X84028595Y-85103564D01*
X84285428Y-85085196D01*
X84447204Y-85050004D01*
X88195093Y-85050004D01*
X88214692Y-85311545D01*
X88214693Y-85311550D01*
X88273058Y-85567270D01*
X88368883Y-85811426D01*
X88368882Y-85811426D01*
X88461855Y-85972457D01*
X88461856Y-85972458D01*
X89312425Y-85121889D01*
X89450000Y-85121889D01*
X89490507Y-85259844D01*
X89568239Y-85380798D01*
X89676900Y-85474952D01*
X89807685Y-85534680D01*
X89914237Y-85550000D01*
X89985763Y-85550000D01*
X90092315Y-85534680D01*
X90223100Y-85474952D01*
X90331761Y-85380798D01*
X90409493Y-85259844D01*
X90450000Y-85121889D01*
X90450000Y-85050000D01*
X90515685Y-85050000D01*
X91438143Y-85972458D01*
X91438144Y-85972458D01*
X91531116Y-85811426D01*
X91626941Y-85567270D01*
X91685306Y-85311550D01*
X91685307Y-85311545D01*
X91704907Y-85050004D01*
X91704907Y-85049995D01*
X91685307Y-84788454D01*
X91685306Y-84788449D01*
X91626941Y-84532729D01*
X91531116Y-84288573D01*
X91531117Y-84288573D01*
X91438143Y-84127540D01*
X90515685Y-85049999D01*
X90515685Y-85050000D01*
X90450000Y-85050000D01*
X90450000Y-84978111D01*
X90409493Y-84840156D01*
X90331761Y-84719202D01*
X90223100Y-84625048D01*
X90092315Y-84565320D01*
X89985763Y-84550000D01*
X89914237Y-84550000D01*
X89807685Y-84565320D01*
X89676900Y-84625048D01*
X89568239Y-84719202D01*
X89490507Y-84840156D01*
X89450000Y-84978111D01*
X89450000Y-85121889D01*
X89312425Y-85121889D01*
X89384314Y-85050000D01*
X89384314Y-85049999D01*
X88461855Y-84127541D01*
X88368883Y-84288573D01*
X88273058Y-84532729D01*
X88214693Y-84788449D01*
X88214692Y-84788454D01*
X88195093Y-85049995D01*
X88195093Y-85050004D01*
X84447204Y-85050004D01*
X84565037Y-85024371D01*
X84565037Y-85024370D01*
X84565046Y-85024369D01*
X84833161Y-84924367D01*
X85084315Y-84787226D01*
X85313395Y-84615739D01*
X85515739Y-84413395D01*
X85687226Y-84184315D01*
X85824367Y-83933161D01*
X85924369Y-83665046D01*
X85946942Y-83561281D01*
X89026967Y-83561281D01*
X89950000Y-84484314D01*
X89950001Y-84484314D01*
X90873032Y-83561281D01*
X90827451Y-83530204D01*
X90591142Y-83416404D01*
X90591144Y-83416404D01*
X90340505Y-83339092D01*
X90340499Y-83339090D01*
X90081151Y-83300000D01*
X89818848Y-83300000D01*
X89559500Y-83339090D01*
X89559494Y-83339092D01*
X89308858Y-83416404D01*
X89308854Y-83416405D01*
X89072546Y-83530206D01*
X89026967Y-83561281D01*
X85946942Y-83561281D01*
X85985196Y-83385428D01*
X86005610Y-83100000D01*
X85985196Y-82814572D01*
X85924369Y-82534954D01*
X85824367Y-82266839D01*
X85687226Y-82015685D01*
X85687224Y-82015682D01*
X85515745Y-81786612D01*
X85515729Y-81786594D01*
X85313405Y-81584270D01*
X85313387Y-81584254D01*
X85084317Y-81412775D01*
X85084309Y-81412770D01*
X84833166Y-81275635D01*
X84833167Y-81275635D01*
X84725915Y-81235632D01*
X84565046Y-81175631D01*
X84565043Y-81175630D01*
X84565037Y-81175628D01*
X84285433Y-81114804D01*
X84000001Y-81094390D01*
X83999999Y-81094390D01*
X83714566Y-81114804D01*
X83434962Y-81175628D01*
X83166833Y-81275635D01*
X82915690Y-81412770D01*
X82915682Y-81412775D01*
X82686612Y-81584254D01*
X82686594Y-81584270D01*
X82484270Y-81786594D01*
X82484254Y-81786612D01*
X82312775Y-82015682D01*
X82312770Y-82015690D01*
X82175635Y-82266833D01*
X82075628Y-82534962D01*
X82014804Y-82814566D01*
X81994390Y-83099998D01*
X81994390Y-83100001D01*
X20750500Y-83100001D01*
X20750500Y-78550007D01*
X77444671Y-78550007D01*
X77463964Y-78844363D01*
X77463965Y-78844373D01*
X77463966Y-78844380D01*
X77463968Y-78844390D01*
X77521518Y-79133716D01*
X77521521Y-79133730D01*
X77616349Y-79413080D01*
X77746825Y-79677660D01*
X77746829Y-79677667D01*
X77910725Y-79922955D01*
X78105241Y-80144758D01*
X78327043Y-80339273D01*
X78572335Y-80503172D01*
X78836923Y-80633652D01*
X79116278Y-80728481D01*
X79405620Y-80786034D01*
X79433888Y-80787886D01*
X79699993Y-80805329D01*
X79700000Y-80805329D01*
X79700007Y-80805329D01*
X79935675Y-80789881D01*
X79994380Y-80786034D01*
X80283722Y-80728481D01*
X80563077Y-80633652D01*
X80827665Y-80503172D01*
X81072957Y-80339273D01*
X81294758Y-80144758D01*
X81489273Y-79922957D01*
X81653172Y-79677665D01*
X81783652Y-79413077D01*
X81878481Y-79133722D01*
X81936034Y-78844380D01*
X81955329Y-78550007D01*
X85644671Y-78550007D01*
X85663964Y-78844363D01*
X85663965Y-78844373D01*
X85663966Y-78844380D01*
X85663968Y-78844390D01*
X85721518Y-79133716D01*
X85721521Y-79133730D01*
X85816349Y-79413080D01*
X85946825Y-79677660D01*
X85946829Y-79677667D01*
X86110725Y-79922955D01*
X86305241Y-80144758D01*
X86527043Y-80339273D01*
X86772335Y-80503172D01*
X87036923Y-80633652D01*
X87316278Y-80728481D01*
X87605620Y-80786034D01*
X87633888Y-80787886D01*
X87899993Y-80805329D01*
X87900000Y-80805329D01*
X87900007Y-80805329D01*
X88135675Y-80789881D01*
X88194380Y-80786034D01*
X88483722Y-80728481D01*
X88763077Y-80633652D01*
X89027665Y-80503172D01*
X89272957Y-80339273D01*
X89494758Y-80144758D01*
X89689273Y-79922957D01*
X89853172Y-79677665D01*
X89983652Y-79413077D01*
X90078481Y-79133722D01*
X90136034Y-78844380D01*
X90155329Y-78550000D01*
X90155329Y-78549992D01*
X90136035Y-78255636D01*
X90136034Y-78255620D01*
X90078481Y-77966278D01*
X89983652Y-77686923D01*
X89853172Y-77422336D01*
X89689273Y-77177043D01*
X89646655Y-77128447D01*
X89494758Y-76955241D01*
X89272955Y-76760725D01*
X89027667Y-76596829D01*
X89027660Y-76596825D01*
X88763080Y-76466349D01*
X88483730Y-76371521D01*
X88483724Y-76371519D01*
X88483722Y-76371519D01*
X88194380Y-76313966D01*
X88194373Y-76313965D01*
X88194363Y-76313964D01*
X87900007Y-76294671D01*
X87899993Y-76294671D01*
X87605636Y-76313964D01*
X87605624Y-76313965D01*
X87605620Y-76313966D01*
X87605612Y-76313967D01*
X87605609Y-76313968D01*
X87316283Y-76371518D01*
X87316269Y-76371521D01*
X87036919Y-76466349D01*
X86772334Y-76596828D01*
X86527041Y-76760728D01*
X86305241Y-76955241D01*
X86110728Y-77177041D01*
X85946828Y-77422334D01*
X85816349Y-77686919D01*
X85721521Y-77966269D01*
X85721518Y-77966283D01*
X85663968Y-78255609D01*
X85663964Y-78255636D01*
X85644671Y-78549992D01*
X85644671Y-78550007D01*
X81955329Y-78550007D01*
X81955329Y-78550000D01*
X81955329Y-78549992D01*
X81936035Y-78255636D01*
X81936034Y-78255620D01*
X81878481Y-77966278D01*
X81783652Y-77686923D01*
X81653172Y-77422336D01*
X81489273Y-77177043D01*
X81446655Y-77128447D01*
X81294758Y-76955241D01*
X81072955Y-76760725D01*
X80827667Y-76596829D01*
X80827660Y-76596825D01*
X80563080Y-76466349D01*
X80283730Y-76371521D01*
X80283724Y-76371519D01*
X80283722Y-76371519D01*
X79994380Y-76313966D01*
X79994373Y-76313965D01*
X79994363Y-76313964D01*
X79700007Y-76294671D01*
X79699993Y-76294671D01*
X79405636Y-76313964D01*
X79405624Y-76313965D01*
X79405620Y-76313966D01*
X79405612Y-76313967D01*
X79405609Y-76313968D01*
X79116283Y-76371518D01*
X79116269Y-76371521D01*
X78836919Y-76466349D01*
X78572334Y-76596828D01*
X78327041Y-76760728D01*
X78105241Y-76955241D01*
X77910728Y-77177041D01*
X77746828Y-77422334D01*
X77616349Y-77686919D01*
X77521521Y-77966269D01*
X77521518Y-77966283D01*
X77463968Y-78255609D01*
X77463964Y-78255636D01*
X77444671Y-78549992D01*
X77444671Y-78550007D01*
X20750500Y-78550007D01*
X20750500Y-70200000D01*
X77445172Y-70200000D01*
X77464462Y-70494312D01*
X77464464Y-70494324D01*
X77522001Y-70783584D01*
X77522005Y-70783599D01*
X77616812Y-71062888D01*
X77747264Y-71327418D01*
X77851256Y-71483055D01*
X77851258Y-71483055D01*
X78886618Y-70447696D01*
X78905714Y-70516473D01*
X78992316Y-70679822D01*
X79112009Y-70820735D01*
X79259195Y-70932623D01*
X79426993Y-71010255D01*
X79450299Y-71015385D01*
X78416943Y-72048740D01*
X78572585Y-72152737D01*
X78837111Y-72283187D01*
X79116400Y-72377994D01*
X79116415Y-72377998D01*
X79405675Y-72435535D01*
X79405687Y-72435537D01*
X79700000Y-72454827D01*
X79994312Y-72435537D01*
X79994324Y-72435535D01*
X80283584Y-72377998D01*
X80283599Y-72377994D01*
X80562888Y-72283187D01*
X80827406Y-72152741D01*
X80827419Y-72152734D01*
X80983055Y-72048740D01*
X79947780Y-71013465D01*
X80059010Y-70975988D01*
X80217431Y-70880669D01*
X80351658Y-70753523D01*
X80455413Y-70600495D01*
X80515464Y-70449779D01*
X81548740Y-71483055D01*
X81652734Y-71327419D01*
X81652741Y-71327406D01*
X81783187Y-71062888D01*
X81877994Y-70783599D01*
X81877998Y-70783584D01*
X81935535Y-70494324D01*
X81935537Y-70494312D01*
X81954827Y-70200000D01*
X85645172Y-70200000D01*
X85664462Y-70494312D01*
X85664464Y-70494324D01*
X85722001Y-70783584D01*
X85722005Y-70783599D01*
X85816812Y-71062888D01*
X85947264Y-71327418D01*
X86051256Y-71483055D01*
X86051258Y-71483055D01*
X87086618Y-70447696D01*
X87105714Y-70516473D01*
X87192316Y-70679822D01*
X87312009Y-70820735D01*
X87459195Y-70932623D01*
X87626993Y-71010255D01*
X87650299Y-71015385D01*
X86616943Y-72048740D01*
X86772585Y-72152737D01*
X87037111Y-72283187D01*
X87316400Y-72377994D01*
X87316415Y-72377998D01*
X87605675Y-72435535D01*
X87605687Y-72435537D01*
X87900000Y-72454827D01*
X88194312Y-72435537D01*
X88194324Y-72435535D01*
X88483584Y-72377998D01*
X88483599Y-72377994D01*
X88762888Y-72283187D01*
X89027406Y-72152741D01*
X89027419Y-72152734D01*
X89183055Y-72048740D01*
X88147780Y-71013465D01*
X88259010Y-70975988D01*
X88417431Y-70880669D01*
X88551658Y-70753523D01*
X88655413Y-70600495D01*
X88715464Y-70449779D01*
X89748740Y-71483055D01*
X89852734Y-71327419D01*
X89852741Y-71327406D01*
X89983187Y-71062888D01*
X90077994Y-70783599D01*
X90077998Y-70783584D01*
X90135535Y-70494324D01*
X90135537Y-70494312D01*
X90154827Y-70200000D01*
X90135537Y-69905687D01*
X90135535Y-69905675D01*
X90077998Y-69616415D01*
X90077994Y-69616400D01*
X89983187Y-69337111D01*
X89852737Y-69072585D01*
X89748740Y-68916943D01*
X88713381Y-69952302D01*
X88694286Y-69883527D01*
X88607684Y-69720178D01*
X88487991Y-69579265D01*
X88340805Y-69467377D01*
X88173007Y-69389745D01*
X88149700Y-69384614D01*
X89183055Y-68351258D01*
X89183055Y-68351256D01*
X89027418Y-68247264D01*
X88762888Y-68116812D01*
X88483599Y-68022005D01*
X88483584Y-68022001D01*
X88194324Y-67964464D01*
X88194312Y-67964462D01*
X87900000Y-67945172D01*
X87605687Y-67964462D01*
X87605675Y-67964464D01*
X87316415Y-68022001D01*
X87316400Y-68022005D01*
X87037111Y-68116812D01*
X86772586Y-68247261D01*
X86616943Y-68351258D01*
X86616942Y-68351258D01*
X87652219Y-69386534D01*
X87540990Y-69424012D01*
X87382569Y-69519331D01*
X87248342Y-69646477D01*
X87144587Y-69799505D01*
X87084536Y-69950220D01*
X86051258Y-68916942D01*
X86051258Y-68916943D01*
X85947261Y-69072586D01*
X85816812Y-69337111D01*
X85722005Y-69616400D01*
X85722001Y-69616415D01*
X85664464Y-69905675D01*
X85664462Y-69905687D01*
X85645172Y-70200000D01*
X81954827Y-70200000D01*
X81935537Y-69905687D01*
X81935535Y-69905675D01*
X81877998Y-69616415D01*
X81877994Y-69616400D01*
X81783187Y-69337111D01*
X81652737Y-69072585D01*
X81548740Y-68916943D01*
X80513381Y-69952302D01*
X80494286Y-69883527D01*
X80407684Y-69720178D01*
X80287991Y-69579265D01*
X80140805Y-69467377D01*
X79973007Y-69389745D01*
X79949700Y-69384614D01*
X80983055Y-68351258D01*
X80983055Y-68351256D01*
X80827418Y-68247264D01*
X80562888Y-68116812D01*
X80283599Y-68022005D01*
X80283584Y-68022001D01*
X79994324Y-67964464D01*
X79994312Y-67964462D01*
X79700000Y-67945172D01*
X79405687Y-67964462D01*
X79405675Y-67964464D01*
X79116415Y-68022001D01*
X79116400Y-68022005D01*
X78837111Y-68116812D01*
X78572586Y-68247261D01*
X78416943Y-68351258D01*
X78416942Y-68351258D01*
X79452219Y-69386534D01*
X79340990Y-69424012D01*
X79182569Y-69519331D01*
X79048342Y-69646477D01*
X78944587Y-69799505D01*
X78884536Y-69950220D01*
X77851258Y-68916942D01*
X77851258Y-68916943D01*
X77747261Y-69072586D01*
X77616812Y-69337111D01*
X77522005Y-69616400D01*
X77522001Y-69616415D01*
X77464464Y-69905675D01*
X77464462Y-69905687D01*
X77445172Y-70200000D01*
X20750500Y-70200000D01*
X20750500Y-61900000D01*
X77445172Y-61900000D01*
X77464462Y-62194312D01*
X77464464Y-62194324D01*
X77522001Y-62483584D01*
X77522005Y-62483599D01*
X77616812Y-62762888D01*
X77747264Y-63027418D01*
X77851256Y-63183055D01*
X77851258Y-63183055D01*
X78886618Y-62147696D01*
X78905714Y-62216473D01*
X78992316Y-62379822D01*
X79112009Y-62520735D01*
X79259195Y-62632623D01*
X79426993Y-62710255D01*
X79450299Y-62715385D01*
X78416943Y-63748740D01*
X78572585Y-63852737D01*
X78837111Y-63983187D01*
X79116400Y-64077994D01*
X79116415Y-64077998D01*
X79405675Y-64135535D01*
X79405687Y-64135537D01*
X79700000Y-64154827D01*
X79994312Y-64135537D01*
X79994324Y-64135535D01*
X80283584Y-64077998D01*
X80283599Y-64077994D01*
X80562888Y-63983187D01*
X80827406Y-63852741D01*
X80827419Y-63852734D01*
X80983055Y-63748740D01*
X79947780Y-62713465D01*
X80059010Y-62675988D01*
X80217431Y-62580669D01*
X80351658Y-62453523D01*
X80455413Y-62300495D01*
X80515464Y-62149779D01*
X81548740Y-63183055D01*
X81652734Y-63027419D01*
X81652741Y-63027406D01*
X81783187Y-62762888D01*
X81877994Y-62483599D01*
X81877998Y-62483584D01*
X81935535Y-62194324D01*
X81935537Y-62194312D01*
X81954827Y-61900000D01*
X85645172Y-61900000D01*
X85664462Y-62194312D01*
X85664464Y-62194324D01*
X85722001Y-62483584D01*
X85722005Y-62483599D01*
X85816812Y-62762888D01*
X85947264Y-63027418D01*
X86051256Y-63183055D01*
X86051258Y-63183055D01*
X87086618Y-62147696D01*
X87105714Y-62216473D01*
X87192316Y-62379822D01*
X87312009Y-62520735D01*
X87459195Y-62632623D01*
X87626993Y-62710255D01*
X87650299Y-62715385D01*
X86616943Y-63748740D01*
X86772585Y-63852737D01*
X87037111Y-63983187D01*
X87316400Y-64077994D01*
X87316415Y-64077998D01*
X87605675Y-64135535D01*
X87605687Y-64135537D01*
X87900000Y-64154827D01*
X88194312Y-64135537D01*
X88194324Y-64135535D01*
X88483584Y-64077998D01*
X88483599Y-64077994D01*
X88762888Y-63983187D01*
X89027406Y-63852741D01*
X89027419Y-63852734D01*
X89183055Y-63748740D01*
X88147780Y-62713465D01*
X88259010Y-62675988D01*
X88417431Y-62580669D01*
X88551658Y-62453523D01*
X88655413Y-62300495D01*
X88715464Y-62149779D01*
X89748740Y-63183055D01*
X89852734Y-63027419D01*
X89852741Y-63027406D01*
X89983187Y-62762888D01*
X90077994Y-62483599D01*
X90077998Y-62483584D01*
X90135535Y-62194324D01*
X90135537Y-62194312D01*
X90154827Y-61900000D01*
X90135537Y-61605687D01*
X90135535Y-61605675D01*
X90077998Y-61316415D01*
X90077994Y-61316400D01*
X89983187Y-61037111D01*
X89852737Y-60772585D01*
X89748740Y-60616943D01*
X88713381Y-61652302D01*
X88694286Y-61583527D01*
X88607684Y-61420178D01*
X88487991Y-61279265D01*
X88340805Y-61167377D01*
X88173007Y-61089745D01*
X88149700Y-61084614D01*
X89183055Y-60051258D01*
X89183055Y-60051256D01*
X89027418Y-59947264D01*
X88762888Y-59816812D01*
X88483599Y-59722005D01*
X88483584Y-59722001D01*
X88194324Y-59664464D01*
X88194312Y-59664462D01*
X87900000Y-59645172D01*
X87605687Y-59664462D01*
X87605675Y-59664464D01*
X87316415Y-59722001D01*
X87316400Y-59722005D01*
X87037111Y-59816812D01*
X86772586Y-59947261D01*
X86616943Y-60051258D01*
X86616942Y-60051258D01*
X87652219Y-61086534D01*
X87540990Y-61124012D01*
X87382569Y-61219331D01*
X87248342Y-61346477D01*
X87144587Y-61499505D01*
X87084536Y-61650220D01*
X86051258Y-60616942D01*
X86051258Y-60616943D01*
X85947261Y-60772586D01*
X85816812Y-61037111D01*
X85722005Y-61316400D01*
X85722001Y-61316415D01*
X85664464Y-61605675D01*
X85664462Y-61605687D01*
X85645172Y-61900000D01*
X81954827Y-61900000D01*
X81935537Y-61605687D01*
X81935535Y-61605675D01*
X81877998Y-61316415D01*
X81877994Y-61316400D01*
X81783187Y-61037111D01*
X81652737Y-60772585D01*
X81548740Y-60616943D01*
X80513381Y-61652302D01*
X80494286Y-61583527D01*
X80407684Y-61420178D01*
X80287991Y-61279265D01*
X80140805Y-61167377D01*
X79973007Y-61089745D01*
X79949700Y-61084614D01*
X80983055Y-60051258D01*
X80983055Y-60051256D01*
X80827418Y-59947264D01*
X80562888Y-59816812D01*
X80283599Y-59722005D01*
X80283584Y-59722001D01*
X79994324Y-59664464D01*
X79994312Y-59664462D01*
X79700000Y-59645172D01*
X79405687Y-59664462D01*
X79405675Y-59664464D01*
X79116415Y-59722001D01*
X79116400Y-59722005D01*
X78837111Y-59816812D01*
X78572586Y-59947261D01*
X78416943Y-60051258D01*
X78416942Y-60051258D01*
X79452219Y-61086534D01*
X79340990Y-61124012D01*
X79182569Y-61219331D01*
X79048342Y-61346477D01*
X78944587Y-61499505D01*
X78884536Y-61650220D01*
X77851258Y-60616942D01*
X77851258Y-60616943D01*
X77747261Y-60772586D01*
X77616812Y-61037111D01*
X77522005Y-61316400D01*
X77522001Y-61316415D01*
X77464464Y-61605675D01*
X77464462Y-61605687D01*
X77445172Y-61900000D01*
X20750500Y-61900000D01*
X20750500Y-53714759D01*
X66039500Y-53714759D01*
X66069988Y-53975596D01*
X66080077Y-54061914D01*
X66080077Y-54061916D01*
X66160680Y-54402009D01*
X66160681Y-54402012D01*
X66280223Y-54730452D01*
X66280226Y-54730458D01*
X66437088Y-55042796D01*
X66629146Y-55334805D01*
X66629152Y-55334813D01*
X66713425Y-55435245D01*
X66853817Y-55602558D01*
X66886773Y-55633650D01*
X67108044Y-55842410D01*
X67108050Y-55842415D01*
X67388402Y-56051129D01*
X67388404Y-56051130D01*
X67691096Y-56225889D01*
X68012029Y-56364326D01*
X68346864Y-56464569D01*
X68346866Y-56464569D01*
X68346872Y-56464571D01*
X68691061Y-56525260D01*
X68691062Y-56525260D01*
X68691073Y-56525262D01*
X68952695Y-56540500D01*
X79716328Y-56540500D01*
X79719155Y-56540582D01*
X79847416Y-56544314D01*
X79978050Y-56532884D01*
X80108927Y-56525262D01*
X80149359Y-56518131D01*
X80154691Y-56517429D01*
X80195605Y-56513851D01*
X80324028Y-56487334D01*
X80453136Y-56464569D01*
X80492447Y-56452799D01*
X80497690Y-56451476D01*
X80507289Y-56449493D01*
X80537903Y-56443173D01*
X80662382Y-56401924D01*
X80787971Y-56364326D01*
X80825670Y-56348063D01*
X80830695Y-56346150D01*
X80851091Y-56339392D01*
X80869671Y-56333237D01*
X80869676Y-56333234D01*
X80869681Y-56333233D01*
X80988513Y-56277820D01*
X81108904Y-56225889D01*
X81144451Y-56205365D01*
X81149251Y-56202867D01*
X81166683Y-56194738D01*
X81186452Y-56185520D01*
X81298040Y-56116691D01*
X81411596Y-56051130D01*
X81444539Y-56026603D01*
X81448989Y-56023583D01*
X81483933Y-56002031D01*
X81586774Y-55920714D01*
X81691953Y-55842412D01*
X81721819Y-55814233D01*
X81725890Y-55810715D01*
X81758101Y-55785247D01*
X81850811Y-55692536D01*
X81946183Y-55602558D01*
X81972578Y-55571099D01*
X81976209Y-55567137D01*
X82005247Y-55538101D01*
X82086574Y-55435245D01*
X82170849Y-55334811D01*
X82193405Y-55300514D01*
X82196564Y-55296138D01*
X82222031Y-55263933D01*
X82264559Y-55194983D01*
X82290864Y-55152338D01*
X82332961Y-55088331D01*
X82362913Y-55042793D01*
X82381336Y-55006108D01*
X82383964Y-55001397D01*
X82405520Y-54966452D01*
X82460930Y-54847624D01*
X82519777Y-54730451D01*
X82533823Y-54691856D01*
X82535877Y-54686897D01*
X82553233Y-54649681D01*
X82594479Y-54525206D01*
X82639319Y-54402011D01*
X82648783Y-54362071D01*
X82650249Y-54356901D01*
X82663173Y-54317903D01*
X82689692Y-54189466D01*
X82719923Y-54061914D01*
X82724689Y-54021128D01*
X82725544Y-54015827D01*
X82733851Y-53975605D01*
X82745279Y-53844974D01*
X82760500Y-53714759D01*
X82760500Y-53673716D01*
X82760736Y-53668309D01*
X82764313Y-53627426D01*
X82764314Y-53627416D01*
X82762062Y-53550007D01*
X85644671Y-53550007D01*
X85663964Y-53844363D01*
X85663965Y-53844373D01*
X85663966Y-53844380D01*
X85698592Y-54018461D01*
X85721518Y-54133716D01*
X85721521Y-54133730D01*
X85816349Y-54413080D01*
X85946825Y-54677660D01*
X85946829Y-54677667D01*
X86110725Y-54922955D01*
X86305241Y-55144758D01*
X86527043Y-55339273D01*
X86772335Y-55503172D01*
X87036923Y-55633652D01*
X87316278Y-55728481D01*
X87605620Y-55786034D01*
X87633888Y-55787886D01*
X87899993Y-55805329D01*
X87900000Y-55805329D01*
X87900007Y-55805329D01*
X88135675Y-55789881D01*
X88194380Y-55786034D01*
X88483722Y-55728481D01*
X88763077Y-55633652D01*
X89027665Y-55503172D01*
X89272957Y-55339273D01*
X89494758Y-55144758D01*
X89689273Y-54922957D01*
X89853172Y-54677665D01*
X89983652Y-54413077D01*
X90078481Y-54133722D01*
X90136034Y-53844380D01*
X90139881Y-53785675D01*
X90155329Y-53550007D01*
X90155329Y-53549992D01*
X90136035Y-53255636D01*
X90136034Y-53255620D01*
X90078481Y-52966278D01*
X89983652Y-52686923D01*
X89853172Y-52422336D01*
X89689273Y-52177043D01*
X89566645Y-52037213D01*
X89494758Y-51955241D01*
X89272955Y-51760725D01*
X89027667Y-51596829D01*
X89027660Y-51596825D01*
X88763080Y-51466349D01*
X88483730Y-51371521D01*
X88483724Y-51371519D01*
X88483722Y-51371519D01*
X88194380Y-51313966D01*
X88194373Y-51313965D01*
X88194363Y-51313964D01*
X87900007Y-51294671D01*
X87899993Y-51294671D01*
X87605636Y-51313964D01*
X87605624Y-51313965D01*
X87605620Y-51313966D01*
X87605612Y-51313967D01*
X87605609Y-51313968D01*
X87316283Y-51371518D01*
X87316269Y-51371521D01*
X87036919Y-51466349D01*
X86772334Y-51596828D01*
X86527041Y-51760728D01*
X86305241Y-51955241D01*
X86110728Y-52177041D01*
X85946828Y-52422334D01*
X85816349Y-52686919D01*
X85721521Y-52966269D01*
X85721518Y-52966283D01*
X85663968Y-53255609D01*
X85663964Y-53255636D01*
X85644671Y-53549992D01*
X85644671Y-53550007D01*
X82762062Y-53550007D01*
X82760500Y-53496329D01*
X82760500Y-53365241D01*
X82755734Y-53324480D01*
X82755342Y-53319093D01*
X82754149Y-53278046D01*
X82735139Y-53148273D01*
X82719923Y-53018086D01*
X82710456Y-52978145D01*
X82709442Y-52972840D01*
X82703492Y-52932218D01*
X82669550Y-52805546D01*
X82639319Y-52677989D01*
X82625278Y-52639411D01*
X82623660Y-52634282D01*
X82613030Y-52594609D01*
X82564616Y-52472745D01*
X82519777Y-52349549D01*
X82511216Y-52332504D01*
X82501355Y-52312868D01*
X82499139Y-52307930D01*
X82483986Y-52269786D01*
X82421758Y-52154377D01*
X82362917Y-52037213D01*
X82362914Y-52037209D01*
X82340355Y-52002910D01*
X82337589Y-51998278D01*
X82318104Y-51962139D01*
X82242898Y-51854735D01*
X82170849Y-51745189D01*
X82170847Y-51745186D01*
X82170846Y-51745185D01*
X82163781Y-51736765D01*
X82144454Y-51713733D01*
X82141175Y-51709459D01*
X82117628Y-51675830D01*
X82030463Y-51577883D01*
X81946183Y-51477442D01*
X81892592Y-51426882D01*
X81850811Y-51387462D01*
X81779946Y-51316597D01*
X81705075Y-51249968D01*
X81691954Y-51237589D01*
X81691953Y-51237588D01*
X81689285Y-51235602D01*
X81685114Y-51232204D01*
X81584170Y-51142372D01*
X81297861Y-50941896D01*
X81297852Y-50941891D01*
X80990220Y-50776017D01*
X80990203Y-50776010D01*
X80665397Y-50646973D01*
X80665386Y-50646969D01*
X80327785Y-50556508D01*
X79981955Y-50505852D01*
X79956999Y-50505125D01*
X79632584Y-50495686D01*
X79632580Y-50495686D01*
X79632571Y-50495686D01*
X79284398Y-50526148D01*
X79284396Y-50526148D01*
X79232143Y-50536938D01*
X79207068Y-50539500D01*
X68952695Y-50539500D01*
X68778280Y-50549658D01*
X68691072Y-50554738D01*
X68691061Y-50554739D01*
X68346872Y-50615428D01*
X68346865Y-50615430D01*
X68012027Y-50715674D01*
X67691104Y-50854107D01*
X67691091Y-50854113D01*
X67388402Y-51028870D01*
X67108050Y-51237584D01*
X67108044Y-51237589D01*
X66853819Y-51477440D01*
X66853817Y-51477442D01*
X66629152Y-51745186D01*
X66629146Y-51745194D01*
X66437088Y-52037203D01*
X66280226Y-52349541D01*
X66280223Y-52349547D01*
X66160681Y-52677987D01*
X66160680Y-52677990D01*
X66080077Y-53018083D01*
X66080077Y-53018085D01*
X66080077Y-53018086D01*
X66039500Y-53365241D01*
X66039500Y-53714759D01*
X20750500Y-53714759D01*
X20750500Y-44550000D01*
X63445181Y-44550000D01*
X63464447Y-44954450D01*
X63522071Y-45355231D01*
X63617531Y-45748722D01*
X63617534Y-45748733D01*
X63749956Y-46131340D01*
X63749966Y-46131365D01*
X63918168Y-46499675D01*
X64120621Y-46850335D01*
X64120627Y-46850343D01*
X64355480Y-47180147D01*
X64355492Y-47180162D01*
X64424505Y-47259806D01*
X64424505Y-47259807D01*
X66321541Y-45362770D01*
X66401570Y-45493365D01*
X66565130Y-45684870D01*
X66756635Y-45848430D01*
X66887227Y-45928457D01*
X64990052Y-47825632D01*
X64990052Y-47825633D01*
X65231968Y-48015876D01*
X65572594Y-48234782D01*
X65932485Y-48420319D01*
X66308383Y-48570806D01*
X66308395Y-48570810D01*
X66696882Y-48684880D01*
X66696899Y-48684884D01*
X67094460Y-48761508D01*
X67094472Y-48761510D01*
X67497554Y-48800000D01*
X67902446Y-48800000D01*
X68305527Y-48761510D01*
X68305539Y-48761508D01*
X68703100Y-48684884D01*
X68703117Y-48684880D01*
X69091604Y-48570810D01*
X69091616Y-48570806D01*
X69467507Y-48420322D01*
X69467511Y-48420320D01*
X69827406Y-48234782D01*
X70168031Y-48015877D01*
X70409946Y-47825633D01*
X70409946Y-47825632D01*
X68512772Y-45928457D01*
X68643365Y-45848430D01*
X68834870Y-45684870D01*
X68998430Y-45493365D01*
X69078457Y-45362772D01*
X70975492Y-47259806D01*
X71044516Y-47180151D01*
X71044519Y-47180147D01*
X71279372Y-46850343D01*
X71279378Y-46850335D01*
X71481831Y-46499675D01*
X71650033Y-46131365D01*
X71650043Y-46131340D01*
X71782465Y-45748733D01*
X71782468Y-45748722D01*
X71877928Y-45355231D01*
X71935552Y-44954450D01*
X71954818Y-44550000D01*
X95645181Y-44550000D01*
X95664447Y-44954450D01*
X95722071Y-45355231D01*
X95817531Y-45748722D01*
X95817534Y-45748733D01*
X95949956Y-46131340D01*
X95949966Y-46131365D01*
X96118168Y-46499675D01*
X96320621Y-46850335D01*
X96320627Y-46850343D01*
X96555480Y-47180147D01*
X96555492Y-47180162D01*
X96624505Y-47259806D01*
X96624505Y-47259807D01*
X98521541Y-45362770D01*
X98601570Y-45493365D01*
X98765130Y-45684870D01*
X98956635Y-45848430D01*
X99087227Y-45928457D01*
X97190052Y-47825632D01*
X97190052Y-47825633D01*
X97431968Y-48015876D01*
X97772594Y-48234782D01*
X98132485Y-48420319D01*
X98508383Y-48570806D01*
X98508395Y-48570810D01*
X98896882Y-48684880D01*
X98896899Y-48684884D01*
X99294460Y-48761508D01*
X99294472Y-48761510D01*
X99697554Y-48800000D01*
X100102446Y-48800000D01*
X100505527Y-48761510D01*
X100505539Y-48761508D01*
X100903100Y-48684884D01*
X100903117Y-48684880D01*
X101291604Y-48570810D01*
X101291616Y-48570806D01*
X101667507Y-48420322D01*
X101667511Y-48420320D01*
X102027406Y-48234782D01*
X102368031Y-48015877D01*
X102609946Y-47825633D01*
X102609946Y-47825632D01*
X100712772Y-45928457D01*
X100843365Y-45848430D01*
X101034870Y-45684870D01*
X101198430Y-45493365D01*
X101278457Y-45362771D01*
X103175492Y-47259806D01*
X103244516Y-47180151D01*
X103244519Y-47180147D01*
X103479372Y-46850343D01*
X103479378Y-46850335D01*
X103681831Y-46499675D01*
X103850033Y-46131365D01*
X103850043Y-46131340D01*
X103982465Y-45748733D01*
X103982468Y-45748722D01*
X104077928Y-45355231D01*
X104135552Y-44954450D01*
X104154818Y-44550000D01*
X104135552Y-44145549D01*
X104077928Y-43744768D01*
X103982468Y-43351277D01*
X103982465Y-43351266D01*
X103850043Y-42968659D01*
X103850033Y-42968634D01*
X103681831Y-42600324D01*
X103479378Y-42249664D01*
X103479372Y-42249656D01*
X103244519Y-41919852D01*
X103244507Y-41919837D01*
X103175493Y-41840192D01*
X103175493Y-41840191D01*
X101278456Y-43737227D01*
X101198430Y-43606635D01*
X101034870Y-43415130D01*
X100843365Y-43251570D01*
X100712770Y-43171541D01*
X102609946Y-41274366D01*
X102609946Y-41274365D01*
X102368031Y-41084122D01*
X102027406Y-40865217D01*
X101667511Y-40679679D01*
X101667507Y-40679677D01*
X101291616Y-40529193D01*
X101291604Y-40529189D01*
X100903117Y-40415119D01*
X100903100Y-40415115D01*
X100505539Y-40338491D01*
X100505527Y-40338489D01*
X100102446Y-40300000D01*
X99697554Y-40300000D01*
X99294472Y-40338489D01*
X99294460Y-40338491D01*
X98896899Y-40415115D01*
X98896882Y-40415119D01*
X98508395Y-40529189D01*
X98508383Y-40529193D01*
X98132485Y-40679680D01*
X97772594Y-40865217D01*
X97431957Y-41084130D01*
X97190052Y-41274365D01*
X97190052Y-41274366D01*
X99087228Y-43171542D01*
X98956635Y-43251570D01*
X98765130Y-43415130D01*
X98601570Y-43606635D01*
X98521542Y-43737228D01*
X96624506Y-41840192D01*
X96555487Y-41919843D01*
X96555476Y-41919856D01*
X96320627Y-42249656D01*
X96320621Y-42249664D01*
X96118168Y-42600324D01*
X95949966Y-42968634D01*
X95949956Y-42968659D01*
X95817534Y-43351266D01*
X95817531Y-43351277D01*
X95722071Y-43744768D01*
X95664447Y-44145549D01*
X95645181Y-44550000D01*
X71954818Y-44550000D01*
X71935552Y-44145549D01*
X71877928Y-43744768D01*
X71782468Y-43351277D01*
X71782465Y-43351266D01*
X71650043Y-42968659D01*
X71650033Y-42968634D01*
X71481831Y-42600324D01*
X71279378Y-42249664D01*
X71279372Y-42249656D01*
X71044519Y-41919852D01*
X71044507Y-41919837D01*
X70975493Y-41840192D01*
X70975493Y-41840191D01*
X69078457Y-43737227D01*
X68998430Y-43606635D01*
X68834870Y-43415130D01*
X68643365Y-43251570D01*
X68512770Y-43171541D01*
X70409946Y-41274366D01*
X70409946Y-41274365D01*
X70168031Y-41084122D01*
X69827406Y-40865217D01*
X69467511Y-40679679D01*
X69467507Y-40679677D01*
X69091616Y-40529193D01*
X69091604Y-40529189D01*
X68703117Y-40415119D01*
X68703100Y-40415115D01*
X68305539Y-40338491D01*
X68305527Y-40338489D01*
X67902446Y-40300000D01*
X67497554Y-40300000D01*
X67094472Y-40338489D01*
X67094460Y-40338491D01*
X66696899Y-40415115D01*
X66696882Y-40415119D01*
X66308395Y-40529189D01*
X66308383Y-40529193D01*
X65932485Y-40679680D01*
X65572594Y-40865217D01*
X65231957Y-41084130D01*
X64990052Y-41274365D01*
X64990052Y-41274366D01*
X66887228Y-43171542D01*
X66756635Y-43251570D01*
X66565130Y-43415130D01*
X66401570Y-43606635D01*
X66321542Y-43737228D01*
X64424506Y-41840192D01*
X64355487Y-41919843D01*
X64355476Y-41919856D01*
X64120627Y-42249656D01*
X64120621Y-42249664D01*
X63918168Y-42600324D01*
X63749966Y-42968634D01*
X63749956Y-42968659D01*
X63617534Y-43351266D01*
X63617531Y-43351277D01*
X63522071Y-43744768D01*
X63464447Y-44145549D01*
X63445181Y-44550000D01*
X20750500Y-44550000D01*
X20750500Y-37550000D01*
X35445181Y-37550000D01*
X35464447Y-37954450D01*
X35522071Y-38355231D01*
X35617531Y-38748722D01*
X35617534Y-38748733D01*
X35749956Y-39131340D01*
X35749966Y-39131365D01*
X35918168Y-39499675D01*
X36120621Y-39850335D01*
X36120627Y-39850343D01*
X36355480Y-40180147D01*
X36355492Y-40180162D01*
X36424505Y-40259806D01*
X36424506Y-40259807D01*
X38321542Y-38362771D01*
X38401570Y-38493365D01*
X38565130Y-38684870D01*
X38756635Y-38848430D01*
X38887227Y-38928457D01*
X36990052Y-40825632D01*
X36990052Y-40825633D01*
X37231968Y-41015876D01*
X37572594Y-41234782D01*
X37932485Y-41420319D01*
X38308383Y-41570806D01*
X38308395Y-41570810D01*
X38696882Y-41684880D01*
X38696899Y-41684884D01*
X39094460Y-41761508D01*
X39094472Y-41761510D01*
X39497554Y-41800000D01*
X39902446Y-41800000D01*
X40305527Y-41761510D01*
X40305539Y-41761508D01*
X40703100Y-41684884D01*
X40703117Y-41684880D01*
X41091604Y-41570810D01*
X41091616Y-41570806D01*
X41467507Y-41420322D01*
X41467511Y-41420320D01*
X41827406Y-41234782D01*
X42168031Y-41015877D01*
X42409946Y-40825633D01*
X42409946Y-40825632D01*
X40512772Y-38928457D01*
X40643365Y-38848430D01*
X40834870Y-38684870D01*
X40998430Y-38493365D01*
X41078457Y-38362772D01*
X42975492Y-40259806D01*
X43044516Y-40180151D01*
X43044519Y-40180147D01*
X43279372Y-39850343D01*
X43279378Y-39850335D01*
X43481831Y-39499675D01*
X43650033Y-39131365D01*
X43650043Y-39131340D01*
X43782465Y-38748733D01*
X43782468Y-38748722D01*
X43877928Y-38355231D01*
X43935552Y-37954450D01*
X43954818Y-37550000D01*
X123645181Y-37550000D01*
X123664447Y-37954450D01*
X123722071Y-38355231D01*
X123817531Y-38748722D01*
X123817534Y-38748733D01*
X123949956Y-39131340D01*
X123949966Y-39131365D01*
X124118168Y-39499675D01*
X124320621Y-39850335D01*
X124320627Y-39850343D01*
X124555480Y-40180147D01*
X124555492Y-40180162D01*
X124624505Y-40259806D01*
X124624506Y-40259807D01*
X126521542Y-38362771D01*
X126601570Y-38493365D01*
X126765130Y-38684870D01*
X126956635Y-38848430D01*
X127087227Y-38928457D01*
X125190052Y-40825632D01*
X125190052Y-40825633D01*
X125431968Y-41015876D01*
X125772594Y-41234782D01*
X126132485Y-41420319D01*
X126508383Y-41570806D01*
X126508395Y-41570810D01*
X126896882Y-41684880D01*
X126896899Y-41684884D01*
X127294460Y-41761508D01*
X127294472Y-41761510D01*
X127697554Y-41800000D01*
X128102446Y-41800000D01*
X128505527Y-41761510D01*
X128505539Y-41761508D01*
X128903100Y-41684884D01*
X128903117Y-41684880D01*
X129291604Y-41570810D01*
X129291616Y-41570806D01*
X129667507Y-41420322D01*
X129667511Y-41420320D01*
X130027406Y-41234782D01*
X130368031Y-41015877D01*
X130609946Y-40825633D01*
X130609946Y-40825632D01*
X128712772Y-38928457D01*
X128843365Y-38848430D01*
X129034870Y-38684870D01*
X129198430Y-38493365D01*
X129278457Y-38362772D01*
X131175492Y-40259806D01*
X131244516Y-40180151D01*
X131244519Y-40180147D01*
X131479372Y-39850343D01*
X131479378Y-39850335D01*
X131681831Y-39499675D01*
X131850033Y-39131365D01*
X131850043Y-39131340D01*
X131982465Y-38748733D01*
X131982468Y-38748722D01*
X132077928Y-38355231D01*
X132135552Y-37954450D01*
X132154818Y-37550000D01*
X132135552Y-37145549D01*
X132077928Y-36744768D01*
X131982468Y-36351277D01*
X131982465Y-36351266D01*
X131850043Y-35968659D01*
X131850033Y-35968634D01*
X131681831Y-35600324D01*
X131479378Y-35249664D01*
X131479372Y-35249656D01*
X131244519Y-34919852D01*
X131244507Y-34919837D01*
X131175493Y-34840192D01*
X131175493Y-34840191D01*
X129278457Y-36737227D01*
X129198430Y-36606635D01*
X129034870Y-36415130D01*
X128843365Y-36251570D01*
X128712770Y-36171541D01*
X130609946Y-34274366D01*
X130609946Y-34274365D01*
X130368031Y-34084122D01*
X130027406Y-33865217D01*
X129667511Y-33679679D01*
X129667507Y-33679677D01*
X129291616Y-33529193D01*
X129291604Y-33529189D01*
X128903117Y-33415119D01*
X128903100Y-33415115D01*
X128505539Y-33338491D01*
X128505527Y-33338489D01*
X128102446Y-33300000D01*
X127697554Y-33300000D01*
X127294472Y-33338489D01*
X127294460Y-33338491D01*
X126896899Y-33415115D01*
X126896882Y-33415119D01*
X126508395Y-33529189D01*
X126508383Y-33529193D01*
X126132485Y-33679680D01*
X125772594Y-33865217D01*
X125431957Y-34084130D01*
X125190052Y-34274365D01*
X125190052Y-34274366D01*
X127087228Y-36171542D01*
X126956635Y-36251570D01*
X126765130Y-36415130D01*
X126601570Y-36606635D01*
X126521542Y-36737228D01*
X124624506Y-34840192D01*
X124555487Y-34919843D01*
X124555476Y-34919856D01*
X124320627Y-35249656D01*
X124320621Y-35249664D01*
X124118168Y-35600324D01*
X123949966Y-35968634D01*
X123949956Y-35968659D01*
X123817534Y-36351266D01*
X123817531Y-36351277D01*
X123722071Y-36744768D01*
X123664447Y-37145549D01*
X123645181Y-37550000D01*
X43954818Y-37550000D01*
X43935552Y-37145549D01*
X43877928Y-36744768D01*
X43782468Y-36351277D01*
X43782465Y-36351266D01*
X43650043Y-35968659D01*
X43650033Y-35968634D01*
X43481831Y-35600324D01*
X43279378Y-35249664D01*
X43279372Y-35249656D01*
X43044519Y-34919852D01*
X43044507Y-34919837D01*
X42975493Y-34840192D01*
X42975493Y-34840191D01*
X41078457Y-36737227D01*
X40998430Y-36606635D01*
X40834870Y-36415130D01*
X40643365Y-36251570D01*
X40512770Y-36171541D01*
X42409946Y-34274366D01*
X42409946Y-34274365D01*
X42185513Y-34097870D01*
X60369500Y-34097870D01*
X60369501Y-34097876D01*
X60375908Y-34157483D01*
X60426202Y-34292328D01*
X60426206Y-34292335D01*
X60512452Y-34407544D01*
X60512455Y-34407547D01*
X60627664Y-34493793D01*
X60627671Y-34493797D01*
X60762517Y-34544091D01*
X60762516Y-34544091D01*
X60769444Y-34544835D01*
X60822127Y-34550500D01*
X63017872Y-34550499D01*
X63077483Y-34544091D01*
X63212331Y-34493796D01*
X63327546Y-34407546D01*
X63413796Y-34292331D01*
X63464091Y-34157483D01*
X63470500Y-34097873D01*
X63470499Y-33000000D01*
X65445207Y-33000000D01*
X65464348Y-33243219D01*
X65521303Y-33480457D01*
X65614665Y-33705853D01*
X65614668Y-33705859D01*
X65657902Y-33776412D01*
X66309752Y-33124562D01*
X66340682Y-33250046D01*
X66419680Y-33400566D01*
X66532405Y-33527806D01*
X66672305Y-33624371D01*
X66831249Y-33684651D01*
X66875643Y-33690041D01*
X66223586Y-34342096D01*
X66294141Y-34385331D01*
X66294146Y-34385334D01*
X66519542Y-34478696D01*
X66756780Y-34535651D01*
X66756779Y-34535651D01*
X67000000Y-34554792D01*
X67243219Y-34535651D01*
X67480457Y-34478696D01*
X67705861Y-34385331D01*
X67776412Y-34342097D01*
X67776412Y-34342096D01*
X67124356Y-33690041D01*
X67168751Y-33684651D01*
X67327695Y-33624371D01*
X67467595Y-33527806D01*
X67580320Y-33400566D01*
X67659318Y-33250046D01*
X67690247Y-33124562D01*
X68342096Y-33776412D01*
X68342097Y-33776412D01*
X68385331Y-33705861D01*
X68478696Y-33480457D01*
X68535651Y-33243219D01*
X68554791Y-33000007D01*
X76894671Y-33000007D01*
X76913964Y-33294363D01*
X76913965Y-33294373D01*
X76913966Y-33294380D01*
X76935087Y-33400566D01*
X76971518Y-33583716D01*
X76971521Y-33583730D01*
X77066349Y-33863080D01*
X77196825Y-34127660D01*
X77196829Y-34127667D01*
X77360725Y-34372955D01*
X77555241Y-34594758D01*
X77777044Y-34789274D01*
X77972446Y-34919837D01*
X78022335Y-34953172D01*
X78286923Y-35083652D01*
X78566278Y-35178481D01*
X78855620Y-35236034D01*
X78883888Y-35237886D01*
X79149993Y-35255329D01*
X79150000Y-35255329D01*
X79150007Y-35255329D01*
X79385675Y-35239881D01*
X79444380Y-35236034D01*
X79733722Y-35178481D01*
X80013077Y-35083652D01*
X80277665Y-34953172D01*
X80522957Y-34789273D01*
X80744758Y-34594758D01*
X80939273Y-34372957D01*
X81103172Y-34127665D01*
X81233652Y-33863077D01*
X81328481Y-33583722D01*
X81386034Y-33294380D01*
X81405329Y-33000007D01*
X86594671Y-33000007D01*
X86613964Y-33294363D01*
X86613965Y-33294373D01*
X86613966Y-33294380D01*
X86635087Y-33400566D01*
X86671518Y-33583716D01*
X86671521Y-33583730D01*
X86766349Y-33863080D01*
X86896825Y-34127660D01*
X86896829Y-34127667D01*
X87060725Y-34372955D01*
X87255241Y-34594758D01*
X87477044Y-34789274D01*
X87672446Y-34919837D01*
X87722335Y-34953172D01*
X87986923Y-35083652D01*
X88266278Y-35178481D01*
X88555620Y-35236034D01*
X88583888Y-35237886D01*
X88849993Y-35255329D01*
X88850000Y-35255329D01*
X88850007Y-35255329D01*
X89085675Y-35239881D01*
X89144380Y-35236034D01*
X89433722Y-35178481D01*
X89713077Y-35083652D01*
X89977665Y-34953172D01*
X90222957Y-34789273D01*
X90444758Y-34594758D01*
X90639273Y-34372957D01*
X90803172Y-34127665D01*
X90817865Y-34097870D01*
X99264500Y-34097870D01*
X99264501Y-34097876D01*
X99270908Y-34157483D01*
X99321202Y-34292328D01*
X99321206Y-34292335D01*
X99407452Y-34407544D01*
X99407455Y-34407547D01*
X99522664Y-34493793D01*
X99522671Y-34493797D01*
X99657517Y-34544091D01*
X99657516Y-34544091D01*
X99664444Y-34544835D01*
X99717127Y-34550500D01*
X101912872Y-34550499D01*
X101972483Y-34544091D01*
X102107331Y-34493796D01*
X102222546Y-34407546D01*
X102308796Y-34292331D01*
X102359091Y-34157483D01*
X102365500Y-34097873D01*
X102365499Y-33000000D01*
X104340207Y-33000000D01*
X104359348Y-33243219D01*
X104416303Y-33480457D01*
X104509665Y-33705853D01*
X104509668Y-33705859D01*
X104552902Y-33776412D01*
X105204752Y-33124562D01*
X105235682Y-33250046D01*
X105314680Y-33400566D01*
X105427405Y-33527806D01*
X105567305Y-33624371D01*
X105726249Y-33684651D01*
X105770643Y-33690041D01*
X105118586Y-34342096D01*
X105189141Y-34385331D01*
X105189146Y-34385334D01*
X105414542Y-34478696D01*
X105651780Y-34535651D01*
X105651779Y-34535651D01*
X105895000Y-34554792D01*
X106138219Y-34535651D01*
X106375457Y-34478696D01*
X106600861Y-34385331D01*
X106671412Y-34342097D01*
X106671412Y-34342096D01*
X106019356Y-33690041D01*
X106063751Y-33684651D01*
X106222695Y-33624371D01*
X106362595Y-33527806D01*
X106475320Y-33400566D01*
X106554318Y-33250046D01*
X106585247Y-33124563D01*
X107237096Y-33776412D01*
X107237097Y-33776412D01*
X107280331Y-33705861D01*
X107373696Y-33480457D01*
X107430651Y-33243219D01*
X107449792Y-33000000D01*
X107430651Y-32756780D01*
X107373696Y-32519542D01*
X107280334Y-32294146D01*
X107280331Y-32294141D01*
X107237096Y-32223586D01*
X106585247Y-32875436D01*
X106554318Y-32749954D01*
X106475320Y-32599434D01*
X106362595Y-32472194D01*
X106222695Y-32375629D01*
X106063751Y-32315349D01*
X106019357Y-32309958D01*
X106329315Y-32000000D01*
X134745181Y-32000000D01*
X134764447Y-32404450D01*
X134822071Y-32805231D01*
X134917531Y-33198722D01*
X134917534Y-33198733D01*
X135049956Y-33581340D01*
X135049966Y-33581365D01*
X135218168Y-33949675D01*
X135420621Y-34300335D01*
X135420627Y-34300343D01*
X135655480Y-34630147D01*
X135655492Y-34630162D01*
X135724505Y-34709806D01*
X135724505Y-34709807D01*
X137621541Y-32812770D01*
X137701570Y-32943365D01*
X137865130Y-33134870D01*
X138056635Y-33298430D01*
X138187227Y-33378457D01*
X136290052Y-35275632D01*
X136290052Y-35275633D01*
X136531968Y-35465876D01*
X136872594Y-35684782D01*
X137232485Y-35870319D01*
X137608383Y-36020806D01*
X137608395Y-36020810D01*
X137996882Y-36134880D01*
X137996899Y-36134884D01*
X138394460Y-36211508D01*
X138394472Y-36211510D01*
X138797554Y-36250000D01*
X139202446Y-36250000D01*
X139605527Y-36211510D01*
X139605539Y-36211508D01*
X140003100Y-36134884D01*
X140003117Y-36134880D01*
X140391604Y-36020810D01*
X140391616Y-36020806D01*
X140767507Y-35870322D01*
X140767511Y-35870320D01*
X141127406Y-35684782D01*
X141468031Y-35465877D01*
X141709946Y-35275633D01*
X141709946Y-35275632D01*
X139812772Y-33378457D01*
X139943365Y-33298430D01*
X140134870Y-33134870D01*
X140298430Y-32943365D01*
X140378457Y-32812772D01*
X142275492Y-34709806D01*
X142344516Y-34630151D01*
X142344519Y-34630147D01*
X142579372Y-34300343D01*
X142579378Y-34300335D01*
X142781831Y-33949675D01*
X142950033Y-33581365D01*
X142950043Y-33581340D01*
X143082465Y-33198733D01*
X143082468Y-33198722D01*
X143177928Y-32805231D01*
X143235552Y-32404450D01*
X143254818Y-32000000D01*
X143235552Y-31595549D01*
X143177928Y-31194768D01*
X143082468Y-30801277D01*
X143082465Y-30801266D01*
X142950043Y-30418659D01*
X142950033Y-30418634D01*
X142781831Y-30050324D01*
X142579378Y-29699664D01*
X142579372Y-29699656D01*
X142344519Y-29369852D01*
X142344507Y-29369837D01*
X142275493Y-29290192D01*
X142275493Y-29290191D01*
X140378457Y-31187227D01*
X140298430Y-31056635D01*
X140134870Y-30865130D01*
X139943365Y-30701570D01*
X139812770Y-30621541D01*
X141709946Y-28724366D01*
X141709946Y-28724365D01*
X141468031Y-28534122D01*
X141127406Y-28315217D01*
X140767511Y-28129679D01*
X140767507Y-28129677D01*
X140391616Y-27979193D01*
X140391604Y-27979189D01*
X140003117Y-27865119D01*
X140003100Y-27865115D01*
X139605539Y-27788491D01*
X139605527Y-27788489D01*
X139202446Y-27750000D01*
X138797554Y-27750000D01*
X138394472Y-27788489D01*
X138394460Y-27788491D01*
X137996899Y-27865115D01*
X137996882Y-27865119D01*
X137608395Y-27979189D01*
X137608383Y-27979193D01*
X137232485Y-28129680D01*
X136872594Y-28315217D01*
X136531957Y-28534130D01*
X136290052Y-28724365D01*
X136290052Y-28724366D01*
X138187228Y-30621542D01*
X138056635Y-30701570D01*
X137865130Y-30865130D01*
X137701570Y-31056635D01*
X137621542Y-31187228D01*
X135724506Y-29290192D01*
X135655487Y-29369843D01*
X135655476Y-29369856D01*
X135420627Y-29699656D01*
X135420621Y-29699664D01*
X135218168Y-30050324D01*
X135049966Y-30418634D01*
X135049956Y-30418659D01*
X134917534Y-30801266D01*
X134917531Y-30801277D01*
X134822071Y-31194768D01*
X134764447Y-31595549D01*
X134745181Y-32000000D01*
X106329315Y-32000000D01*
X106671412Y-31657902D01*
X106600859Y-31614668D01*
X106600853Y-31614665D01*
X106375457Y-31521303D01*
X106138219Y-31464348D01*
X106138220Y-31464348D01*
X105895000Y-31445207D01*
X105651780Y-31464348D01*
X105414542Y-31521303D01*
X105189136Y-31614670D01*
X105118586Y-31657901D01*
X105770643Y-32309958D01*
X105726249Y-32315349D01*
X105567305Y-32375629D01*
X105427405Y-32472194D01*
X105314680Y-32599434D01*
X105235682Y-32749954D01*
X105204752Y-32875437D01*
X104552901Y-32223586D01*
X104509670Y-32294136D01*
X104416303Y-32519542D01*
X104359348Y-32756780D01*
X104340207Y-33000000D01*
X102365499Y-33000000D01*
X102365499Y-31902128D01*
X102359091Y-31842517D01*
X102308796Y-31707669D01*
X102308795Y-31707668D01*
X102308793Y-31707664D01*
X102222547Y-31592455D01*
X102222544Y-31592452D01*
X102107335Y-31506206D01*
X102107328Y-31506202D01*
X101972482Y-31455908D01*
X101972483Y-31455908D01*
X101912883Y-31449501D01*
X101912881Y-31449500D01*
X101912873Y-31449500D01*
X101912864Y-31449500D01*
X99717129Y-31449500D01*
X99717123Y-31449501D01*
X99657516Y-31455908D01*
X99522671Y-31506202D01*
X99522664Y-31506206D01*
X99407455Y-31592452D01*
X99407452Y-31592455D01*
X99321206Y-31707664D01*
X99321202Y-31707671D01*
X99270908Y-31842517D01*
X99264501Y-31902116D01*
X99264501Y-31902123D01*
X99264500Y-31902135D01*
X99264500Y-34097870D01*
X90817865Y-34097870D01*
X90933652Y-33863077D01*
X91028481Y-33583722D01*
X91086034Y-33294380D01*
X91105329Y-33000000D01*
X91105329Y-32999999D01*
X91105329Y-32999992D01*
X91086035Y-32705636D01*
X91086034Y-32705620D01*
X91028481Y-32416278D01*
X90933652Y-32136923D01*
X90803172Y-31872336D01*
X90800799Y-31868785D01*
X90720716Y-31748931D01*
X90639273Y-31627043D01*
X90546541Y-31521303D01*
X90444758Y-31405241D01*
X90222955Y-31210725D01*
X89977667Y-31046829D01*
X89977660Y-31046825D01*
X89713080Y-30916349D01*
X89433730Y-30821521D01*
X89433724Y-30821519D01*
X89433722Y-30821519D01*
X89144380Y-30763966D01*
X89144373Y-30763965D01*
X89144363Y-30763964D01*
X88850007Y-30744671D01*
X88849993Y-30744671D01*
X88555636Y-30763964D01*
X88555624Y-30763965D01*
X88555620Y-30763966D01*
X88555612Y-30763967D01*
X88555609Y-30763968D01*
X88266283Y-30821518D01*
X88266269Y-30821521D01*
X87986919Y-30916349D01*
X87722334Y-31046828D01*
X87477041Y-31210728D01*
X87255241Y-31405241D01*
X87060728Y-31627041D01*
X86896828Y-31872334D01*
X86766349Y-32136919D01*
X86671521Y-32416269D01*
X86671518Y-32416283D01*
X86613968Y-32705609D01*
X86613964Y-32705636D01*
X86594671Y-32999992D01*
X86594671Y-33000007D01*
X81405329Y-33000007D01*
X81405329Y-33000000D01*
X81405329Y-32999999D01*
X81405329Y-32999992D01*
X81386035Y-32705636D01*
X81386034Y-32705620D01*
X81328481Y-32416278D01*
X81233652Y-32136923D01*
X81103172Y-31872336D01*
X81100799Y-31868785D01*
X81020716Y-31748931D01*
X80939273Y-31627043D01*
X80846541Y-31521303D01*
X80744758Y-31405241D01*
X80522955Y-31210725D01*
X80277667Y-31046829D01*
X80277660Y-31046825D01*
X80013080Y-30916349D01*
X79733730Y-30821521D01*
X79733724Y-30821519D01*
X79733722Y-30821519D01*
X79444380Y-30763966D01*
X79444373Y-30763965D01*
X79444363Y-30763964D01*
X79150007Y-30744671D01*
X79149993Y-30744671D01*
X78855636Y-30763964D01*
X78855624Y-30763965D01*
X78855620Y-30763966D01*
X78855612Y-30763967D01*
X78855609Y-30763968D01*
X78566283Y-30821518D01*
X78566269Y-30821521D01*
X78286919Y-30916349D01*
X78022334Y-31046828D01*
X77777041Y-31210728D01*
X77555241Y-31405241D01*
X77360728Y-31627041D01*
X77196828Y-31872334D01*
X77066349Y-32136919D01*
X76971521Y-32416269D01*
X76971518Y-32416283D01*
X76913968Y-32705609D01*
X76913964Y-32705636D01*
X76894671Y-32999992D01*
X76894671Y-33000007D01*
X68554791Y-33000007D01*
X68554792Y-33000000D01*
X68535651Y-32756780D01*
X68478696Y-32519542D01*
X68385334Y-32294146D01*
X68385331Y-32294141D01*
X68342096Y-32223586D01*
X67690247Y-32875436D01*
X67659318Y-32749954D01*
X67580320Y-32599434D01*
X67467595Y-32472194D01*
X67327695Y-32375629D01*
X67168751Y-32315349D01*
X67124357Y-32309958D01*
X67776412Y-31657902D01*
X67705859Y-31614668D01*
X67705853Y-31614665D01*
X67480457Y-31521303D01*
X67243219Y-31464348D01*
X67243220Y-31464348D01*
X67000000Y-31445207D01*
X66756780Y-31464348D01*
X66519542Y-31521303D01*
X66294136Y-31614670D01*
X66223586Y-31657901D01*
X66875643Y-32309958D01*
X66831249Y-32315349D01*
X66672305Y-32375629D01*
X66532405Y-32472194D01*
X66419680Y-32599434D01*
X66340682Y-32749954D01*
X66309752Y-32875437D01*
X65657901Y-32223586D01*
X65614670Y-32294136D01*
X65521303Y-32519542D01*
X65464348Y-32756780D01*
X65445207Y-33000000D01*
X63470499Y-33000000D01*
X63470499Y-31902128D01*
X63464091Y-31842517D01*
X63413796Y-31707669D01*
X63413795Y-31707668D01*
X63413793Y-31707664D01*
X63327547Y-31592455D01*
X63327544Y-31592452D01*
X63212335Y-31506206D01*
X63212328Y-31506202D01*
X63077482Y-31455908D01*
X63077483Y-31455908D01*
X63017883Y-31449501D01*
X63017881Y-31449500D01*
X63017873Y-31449500D01*
X63017864Y-31449500D01*
X60822129Y-31449500D01*
X60822123Y-31449501D01*
X60762516Y-31455908D01*
X60627671Y-31506202D01*
X60627664Y-31506206D01*
X60512455Y-31592452D01*
X60512452Y-31592455D01*
X60426206Y-31707664D01*
X60426202Y-31707671D01*
X60375908Y-31842517D01*
X60369501Y-31902116D01*
X60369501Y-31902123D01*
X60369500Y-31902135D01*
X60369500Y-34097870D01*
X42185513Y-34097870D01*
X42168031Y-34084122D01*
X41827406Y-33865217D01*
X41467511Y-33679679D01*
X41467507Y-33679677D01*
X41091616Y-33529193D01*
X41091604Y-33529189D01*
X40703117Y-33415119D01*
X40703100Y-33415115D01*
X40305539Y-33338491D01*
X40305527Y-33338489D01*
X39902446Y-33300000D01*
X39497554Y-33300000D01*
X39094472Y-33338489D01*
X39094460Y-33338491D01*
X38696899Y-33415115D01*
X38696882Y-33415119D01*
X38308395Y-33529189D01*
X38308383Y-33529193D01*
X37932485Y-33679680D01*
X37572594Y-33865217D01*
X37231957Y-34084130D01*
X36990052Y-34274365D01*
X36990052Y-34274366D01*
X38887228Y-36171542D01*
X38756635Y-36251570D01*
X38565130Y-36415130D01*
X38401570Y-36606635D01*
X38321542Y-36737228D01*
X36424506Y-34840192D01*
X36355487Y-34919843D01*
X36355476Y-34919856D01*
X36120627Y-35249656D01*
X36120621Y-35249664D01*
X35918168Y-35600324D01*
X35749966Y-35968634D01*
X35749956Y-35968659D01*
X35617534Y-36351266D01*
X35617531Y-36351277D01*
X35522071Y-36744768D01*
X35464447Y-37145549D01*
X35445181Y-37550000D01*
X20750500Y-37550000D01*
X20750500Y-32155122D01*
X20770185Y-32088083D01*
X20786819Y-32067441D01*
X20854260Y-32000000D01*
X24245181Y-32000000D01*
X24264447Y-32404450D01*
X24322071Y-32805231D01*
X24417531Y-33198722D01*
X24417534Y-33198733D01*
X24549956Y-33581340D01*
X24549966Y-33581365D01*
X24718168Y-33949675D01*
X24920621Y-34300335D01*
X24920627Y-34300343D01*
X25155480Y-34630147D01*
X25155492Y-34630162D01*
X25224505Y-34709806D01*
X25224506Y-34709807D01*
X27121542Y-32812771D01*
X27201570Y-32943365D01*
X27365130Y-33134870D01*
X27556635Y-33298430D01*
X27687227Y-33378457D01*
X25790052Y-35275632D01*
X25790052Y-35275633D01*
X26031968Y-35465876D01*
X26372594Y-35684782D01*
X26732485Y-35870319D01*
X27108383Y-36020806D01*
X27108395Y-36020810D01*
X27496882Y-36134880D01*
X27496899Y-36134884D01*
X27894460Y-36211508D01*
X27894472Y-36211510D01*
X28297554Y-36250000D01*
X28702446Y-36250000D01*
X29105527Y-36211510D01*
X29105539Y-36211508D01*
X29503100Y-36134884D01*
X29503117Y-36134880D01*
X29891604Y-36020810D01*
X29891616Y-36020806D01*
X30267507Y-35870322D01*
X30267511Y-35870320D01*
X30627406Y-35684782D01*
X30968031Y-35465877D01*
X31209946Y-35275633D01*
X31209946Y-35275632D01*
X29312772Y-33378457D01*
X29443365Y-33298430D01*
X29634870Y-33134870D01*
X29798430Y-32943365D01*
X29878457Y-32812772D01*
X31775492Y-34709806D01*
X31844516Y-34630151D01*
X31844519Y-34630147D01*
X32079372Y-34300343D01*
X32079378Y-34300335D01*
X32281831Y-33949675D01*
X32450033Y-33581365D01*
X32450043Y-33581340D01*
X32582465Y-33198733D01*
X32582468Y-33198722D01*
X32677928Y-32805231D01*
X32735552Y-32404450D01*
X32754818Y-32000000D01*
X32735552Y-31595549D01*
X32677928Y-31194768D01*
X32582468Y-30801277D01*
X32582465Y-30801266D01*
X32450043Y-30418659D01*
X32450033Y-30418634D01*
X32281831Y-30050324D01*
X32079378Y-29699664D01*
X32079372Y-29699656D01*
X31844519Y-29369852D01*
X31844507Y-29369837D01*
X31775493Y-29290192D01*
X31775493Y-29290191D01*
X29878457Y-31187227D01*
X29798430Y-31056635D01*
X29634870Y-30865130D01*
X29443365Y-30701570D01*
X29312770Y-30621541D01*
X31209946Y-28724366D01*
X31209946Y-28724365D01*
X30968031Y-28534122D01*
X30627406Y-28315217D01*
X30267511Y-28129679D01*
X30267507Y-28129677D01*
X29891616Y-27979193D01*
X29891604Y-27979189D01*
X29503117Y-27865119D01*
X29503100Y-27865115D01*
X29105539Y-27788491D01*
X29105527Y-27788489D01*
X28702446Y-27750000D01*
X28297554Y-27750000D01*
X27894472Y-27788489D01*
X27894460Y-27788491D01*
X27496899Y-27865115D01*
X27496882Y-27865119D01*
X27108395Y-27979189D01*
X27108383Y-27979193D01*
X26732485Y-28129680D01*
X26372594Y-28315217D01*
X26031957Y-28534130D01*
X25790052Y-28724365D01*
X25790052Y-28724366D01*
X27687228Y-30621542D01*
X27556635Y-30701570D01*
X27365130Y-30865130D01*
X27201570Y-31056635D01*
X27121542Y-31187228D01*
X25224506Y-29290192D01*
X25155487Y-29369843D01*
X25155476Y-29369856D01*
X24920627Y-29699656D01*
X24920621Y-29699664D01*
X24718168Y-30050324D01*
X24549966Y-30418634D01*
X24549956Y-30418659D01*
X24417534Y-30801266D01*
X24417531Y-30801277D01*
X24322071Y-31194768D01*
X24264447Y-31595549D01*
X24245181Y-32000000D01*
X20854260Y-32000000D01*
X27567441Y-25286819D01*
X27628764Y-25253334D01*
X27655122Y-25250500D01*
X69475326Y-25250500D01*
X98475326Y-25250500D01*
X139844878Y-25250500D01*
X139911917Y-25270185D01*
G37*
%TD.AperFunction*%
%TD*%
M02*
