%TF.GenerationSoftware,KiCad,Pcbnew,7.0.9*%
%TF.CreationDate,2023-12-21T19:45:13+01:00*%
%TF.ProjectId,pcb_puissance,7063625f-7075-4697-9373-616e63652e6b,1.1*%
%TF.SameCoordinates,Original*%
%TF.FileFunction,Copper,L2,Bot*%
%TF.FilePolarity,Positive*%
%FSLAX46Y46*%
G04 Gerber Fmt 4.6, Leading zero omitted, Abs format (unit mm)*
G04 Created by KiCad (PCBNEW 7.0.9) date 2023-12-21 19:45:13*
%MOMM*%
%LPD*%
G01*
G04 APERTURE LIST*
%TA.AperFunction,ComponentPad*%
%ADD10O,1.700000X1.700000*%
%TD*%
%TA.AperFunction,ComponentPad*%
%ADD11R,1.700000X1.700000*%
%TD*%
%TA.AperFunction,ComponentPad*%
%ADD12R,2.100000X2.100000*%
%TD*%
%TA.AperFunction,ComponentPad*%
%ADD13C,2.100000*%
%TD*%
%TA.AperFunction,ComponentPad*%
%ADD14C,3.000000*%
%TD*%
%TA.AperFunction,ComponentPad*%
%ADD15C,2.500000*%
%TD*%
%TA.AperFunction,ComponentPad*%
%ADD16C,3.500000*%
%TD*%
%TA.AperFunction,ComponentPad*%
%ADD17R,1.600000X1.600000*%
%TD*%
%TA.AperFunction,ComponentPad*%
%ADD18O,1.600000X1.600000*%
%TD*%
%TA.AperFunction,ViaPad*%
%ADD19C,0.800000*%
%TD*%
%TA.AperFunction,ViaPad*%
%ADD20C,3.500000*%
%TD*%
%TA.AperFunction,Conductor*%
%ADD21C,5.000000*%
%TD*%
G04 APERTURE END LIST*
D10*
%TO.P,J11,2,Pin_2*%
%TO.N,GND*%
X49750000Y-99265000D03*
D11*
%TO.P,J11,1,Pin_1*%
X49750000Y-96725000D03*
%TD*%
%TO.P,J10,1,Pin_1*%
%TO.N,+5V*%
X54750000Y-96710000D03*
D10*
%TO.P,J10,2,Pin_2*%
%TO.N,GND*%
X54750000Y-99250000D03*
%TD*%
D11*
%TO.P,J9,1,Pin_1*%
%TO.N,+12V*%
X101000000Y-98475000D03*
D10*
%TO.P,J9,2,Pin_2*%
%TO.N,GND*%
X101000000Y-101015000D03*
%TD*%
D12*
%TO.P,J3,1,1*%
%TO.N,BUTTON_NC*%
X107435000Y-126085000D03*
D13*
%TO.P,J3,2,2*%
%TO.N,GND*%
X102355000Y-126085000D03*
%TD*%
D14*
%TO.P,K1,1*%
%TO.N,TRANSFO1*%
X84050000Y-83850000D03*
D15*
%TO.P,K1,2*%
%TO.N,BUTTON_NO*%
X78000000Y-85800000D03*
D14*
%TO.P,K1,3*%
%TO.N,RELAY_NC*%
X78000000Y-98000000D03*
%TO.P,K1,4*%
%TO.N,RELAY_NO*%
X90050000Y-98050000D03*
D15*
%TO.P,K1,5*%
%TO.N,GND*%
X90000000Y-85800000D03*
%TD*%
D13*
%TO.P,J1,2,2*%
%TO.N,GND*%
X105895000Y-33000000D03*
D12*
%TO.P,J1,1,1*%
%TO.N,BATTERY*%
X100815000Y-33000000D03*
%TD*%
%TO.P,J5,1,1*%
%TO.N,+5V*%
X62620000Y-113915000D03*
D13*
%TO.P,J5,2,2*%
%TO.N,BUTTON_NO*%
X67700000Y-113915000D03*
%TD*%
D16*
%TO.P,TRANSFO2,1*%
%TO.N,+12V*%
X79760000Y-78540000D03*
%TO.P,TRANSFO2,2*%
%TO.N,GND*%
X79760000Y-70190000D03*
%TO.P,TRANSFO2,3*%
X79760000Y-61890000D03*
%TO.P,TRANSFO2,4*%
%TO.N,+5V*%
X79760000Y-53540000D03*
%TD*%
D13*
%TO.P,J6,2,2*%
%TO.N,GND*%
X61920000Y-126085000D03*
D12*
%TO.P,J6,1,1*%
%TO.N,+5V*%
X67000000Y-126085000D03*
%TD*%
D16*
%TO.P,TRANSFO1,1*%
%TO.N,+12V*%
X87880000Y-53540000D03*
%TO.P,TRANSFO1,2*%
%TO.N,GND*%
X87880000Y-61890000D03*
%TO.P,TRANSFO1,3*%
X87880000Y-70190000D03*
%TO.P,TRANSFO1,4*%
%TO.N,TRANSFO1*%
X87880000Y-78540000D03*
%TD*%
D12*
%TO.P,J2,1,1*%
%TO.N,+12V*%
X61920000Y-33000000D03*
D13*
%TO.P,J2,2,2*%
%TO.N,GND*%
X67000000Y-33000000D03*
%TD*%
D12*
%TO.P,J4,1,1*%
%TO.N,+12V*%
X102815000Y-113915000D03*
D13*
%TO.P,J4,2,2*%
%TO.N,BUTTON_NC*%
X107895000Y-113915000D03*
%TD*%
D16*
%TO.P,F1,1*%
%TO.N,BATTERY*%
X88850000Y-33000000D03*
%TO.P,F1,2*%
%TO.N,+12V*%
X79150000Y-33000000D03*
%TD*%
D12*
%TO.P,J7,1,1*%
%TO.N,RELAY_NO*%
X87185000Y-126085000D03*
D13*
%TO.P,J7,2,2*%
%TO.N,GND*%
X82105000Y-126085000D03*
%TD*%
D12*
%TO.P,J8,1,1*%
%TO.N,RELAY_NC*%
X82815000Y-113915000D03*
D13*
%TO.P,J8,2,2*%
%TO.N,GND*%
X87895000Y-113915000D03*
%TD*%
D17*
%TO.P,D9,1,K*%
%TO.N,GND*%
X73000000Y-100810000D03*
D18*
%TO.P,D9,2,A*%
%TO.N,BUTTON_NO*%
X73000000Y-93190000D03*
%TD*%
D19*
%TO.N,GND*%
X87000000Y-130000000D03*
X96000000Y-99000000D03*
X110000000Y-130000000D03*
X99000000Y-115000000D03*
X76000000Y-120000000D03*
X71000000Y-129000000D03*
X102750000Y-143750000D03*
X67000000Y-143750000D03*
X94000000Y-143750000D03*
X85000000Y-143750000D03*
X76000000Y-143750000D03*
X106000000Y-45000000D03*
X63000000Y-45000000D03*
X71000000Y-57000000D03*
X84000000Y-57000000D03*
X96000000Y-57000000D03*
X76000000Y-129000000D03*
X95000000Y-85000000D03*
X72500000Y-85000000D03*
X67500000Y-95000000D03*
X57500000Y-107500000D03*
X110000000Y-107500000D03*
X75000000Y-107500000D03*
X70000000Y-120000000D03*
X75000000Y-95000000D03*
X120000000Y-95000000D03*
X85000000Y-95000000D03*
X98500000Y-143750000D03*
X89250000Y-143750000D03*
X80500000Y-143750000D03*
X71500000Y-143750000D03*
D20*
%TO.N,+5V*%
X69040000Y-53540000D03*
%TD*%
D21*
%TO.N,+5V*%
X79720000Y-53500000D02*
X79760000Y-53540000D01*
X69040000Y-53540000D02*
X79760000Y-53540000D01*
%TD*%
%TA.AperFunction,Conductor*%
%TO.N,GND*%
G36*
X140015469Y-25020185D02*
G01*
X140036111Y-25036819D01*
X146963181Y-31963889D01*
X146996666Y-32025212D01*
X146999500Y-32051570D01*
X146999500Y-95948430D01*
X146979815Y-96015469D01*
X146963181Y-96036111D01*
X140036111Y-102963181D01*
X139974788Y-102996666D01*
X139948430Y-102999500D01*
X116024760Y-102999500D01*
X116024554Y-102999459D01*
X116000000Y-102999459D01*
X115999901Y-102999500D01*
X115999617Y-102999616D01*
X115982713Y-103016405D01*
X115982358Y-103016933D01*
X114516995Y-104482295D01*
X114516819Y-104482413D01*
X114499616Y-104499616D01*
X114499457Y-104499995D01*
X114499461Y-104524665D01*
X114499500Y-104524855D01*
X114499500Y-142948430D01*
X114479815Y-143015469D01*
X114463181Y-143036111D01*
X113036111Y-144463181D01*
X112974788Y-144496666D01*
X112948430Y-144499500D01*
X56551569Y-144499500D01*
X56484530Y-144479815D01*
X56463888Y-144463181D01*
X55036819Y-143036111D01*
X55003334Y-142974788D01*
X55000500Y-142948430D01*
X55000500Y-139499999D01*
X58394551Y-139499999D01*
X58402275Y-139598142D01*
X58402466Y-139603008D01*
X58402466Y-139625734D01*
X58406019Y-139648167D01*
X58406592Y-139653002D01*
X58410603Y-139703959D01*
X58414317Y-139751148D01*
X58414317Y-139751151D01*
X58414318Y-139751153D01*
X58437296Y-139846867D01*
X58438246Y-139851642D01*
X58441801Y-139874090D01*
X58448824Y-139895705D01*
X58450146Y-139900390D01*
X58473127Y-139996114D01*
X58510797Y-140087057D01*
X58512482Y-140091623D01*
X58518170Y-140109126D01*
X58519507Y-140113240D01*
X58519508Y-140113243D01*
X58519509Y-140113244D01*
X58529821Y-140133484D01*
X58531858Y-140137904D01*
X58569532Y-140228857D01*
X58620973Y-140312803D01*
X58623351Y-140317048D01*
X58630514Y-140331104D01*
X58633666Y-140337290D01*
X58633667Y-140337292D01*
X58647017Y-140355667D01*
X58649722Y-140359714D01*
X58699021Y-140440163D01*
X58701164Y-140443659D01*
X58701171Y-140443667D01*
X58765094Y-140518511D01*
X58768107Y-140522332D01*
X58781469Y-140540724D01*
X58797547Y-140556802D01*
X58800832Y-140560355D01*
X58864776Y-140635224D01*
X58939639Y-140699163D01*
X58943202Y-140702457D01*
X58959276Y-140718531D01*
X58977654Y-140731883D01*
X58977665Y-140731891D01*
X58981471Y-140734891D01*
X59056341Y-140798836D01*
X59056343Y-140798837D01*
X59056344Y-140798838D01*
X59056345Y-140798839D01*
X59140277Y-140850272D01*
X59144325Y-140852977D01*
X59144335Y-140852984D01*
X59162710Y-140866334D01*
X59182961Y-140876652D01*
X59187179Y-140879014D01*
X59271141Y-140930466D01*
X59271143Y-140930466D01*
X59271145Y-140930468D01*
X59312908Y-140947766D01*
X59362101Y-140968142D01*
X59366515Y-140970178D01*
X59374608Y-140974301D01*
X59386760Y-140980493D01*
X59408380Y-140987517D01*
X59412923Y-140989194D01*
X59503889Y-141026873D01*
X59599627Y-141049857D01*
X59604289Y-141051172D01*
X59625910Y-141058198D01*
X59625911Y-141058198D01*
X59625914Y-141058199D01*
X59634646Y-141059581D01*
X59648367Y-141061754D01*
X59653107Y-141062696D01*
X59748852Y-141085683D01*
X59847024Y-141093409D01*
X59851795Y-141093974D01*
X59874271Y-141097534D01*
X59874275Y-141097534D01*
X59896992Y-141097534D01*
X59901858Y-141097725D01*
X60000000Y-141105449D01*
X60098142Y-141097725D01*
X60103008Y-141097534D01*
X60125725Y-141097534D01*
X60125729Y-141097534D01*
X60148204Y-141093974D01*
X60152975Y-141093409D01*
X60251148Y-141085683D01*
X60346897Y-141062695D01*
X60351627Y-141061755D01*
X60374090Y-141058198D01*
X60395737Y-141051164D01*
X60400351Y-141049862D01*
X60496111Y-141026873D01*
X60587090Y-140989188D01*
X60591599Y-140987524D01*
X60613240Y-140980493D01*
X60633508Y-140970165D01*
X60637863Y-140968157D01*
X60728859Y-140930466D01*
X60812833Y-140879006D01*
X60817018Y-140876662D01*
X60837290Y-140866334D01*
X60855684Y-140852969D01*
X60859707Y-140850281D01*
X60943659Y-140798836D01*
X61018547Y-140734875D01*
X61022314Y-140731906D01*
X61040724Y-140718531D01*
X61056819Y-140702435D01*
X61060347Y-140699174D01*
X61135224Y-140635224D01*
X61199174Y-140560347D01*
X61202435Y-140556819D01*
X61218531Y-140540724D01*
X61231906Y-140522314D01*
X61234875Y-140518547D01*
X61298836Y-140443659D01*
X61350281Y-140359707D01*
X61352969Y-140355684D01*
X61366334Y-140337290D01*
X61376662Y-140317018D01*
X61379006Y-140312833D01*
X61430466Y-140228859D01*
X61468157Y-140137863D01*
X61470165Y-140133508D01*
X61480493Y-140113240D01*
X61487524Y-140091599D01*
X61489188Y-140087090D01*
X61526873Y-139996111D01*
X61549862Y-139900351D01*
X61551164Y-139895737D01*
X61558198Y-139874090D01*
X61561755Y-139851627D01*
X61562695Y-139846897D01*
X61585683Y-139751148D01*
X61593409Y-139652978D01*
X61593974Y-139648201D01*
X61597534Y-139625729D01*
X61598155Y-139594043D01*
X61598334Y-139590401D01*
X61605449Y-139500000D01*
X61605449Y-139499999D01*
X107894551Y-139499999D01*
X107902275Y-139598142D01*
X107902466Y-139603008D01*
X107902466Y-139625734D01*
X107906019Y-139648167D01*
X107906592Y-139653002D01*
X107910603Y-139703959D01*
X107914317Y-139751148D01*
X107914317Y-139751151D01*
X107914318Y-139751153D01*
X107937296Y-139846867D01*
X107938246Y-139851642D01*
X107941801Y-139874090D01*
X107948824Y-139895705D01*
X107950146Y-139900390D01*
X107973127Y-139996114D01*
X108010797Y-140087057D01*
X108012482Y-140091623D01*
X108018170Y-140109126D01*
X108019507Y-140113240D01*
X108019508Y-140113243D01*
X108019509Y-140113244D01*
X108029821Y-140133484D01*
X108031858Y-140137904D01*
X108069532Y-140228857D01*
X108120973Y-140312803D01*
X108123351Y-140317048D01*
X108130514Y-140331104D01*
X108133666Y-140337290D01*
X108133667Y-140337292D01*
X108147017Y-140355667D01*
X108149722Y-140359714D01*
X108199021Y-140440163D01*
X108201164Y-140443659D01*
X108201171Y-140443667D01*
X108265094Y-140518511D01*
X108268107Y-140522332D01*
X108281469Y-140540724D01*
X108297547Y-140556802D01*
X108300832Y-140560355D01*
X108364776Y-140635224D01*
X108439639Y-140699163D01*
X108443202Y-140702457D01*
X108459276Y-140718531D01*
X108477654Y-140731883D01*
X108477665Y-140731891D01*
X108481471Y-140734891D01*
X108556341Y-140798836D01*
X108556343Y-140798837D01*
X108556344Y-140798838D01*
X108556345Y-140798839D01*
X108640277Y-140850272D01*
X108644325Y-140852977D01*
X108644335Y-140852984D01*
X108662710Y-140866334D01*
X108682961Y-140876652D01*
X108687179Y-140879014D01*
X108771141Y-140930466D01*
X108771143Y-140930466D01*
X108771145Y-140930468D01*
X108812908Y-140947766D01*
X108862101Y-140968142D01*
X108866515Y-140970178D01*
X108874608Y-140974301D01*
X108886760Y-140980493D01*
X108908380Y-140987517D01*
X108912923Y-140989194D01*
X109003889Y-141026873D01*
X109099627Y-141049857D01*
X109104289Y-141051172D01*
X109125910Y-141058198D01*
X109125911Y-141058198D01*
X109125914Y-141058199D01*
X109134646Y-141059581D01*
X109148367Y-141061754D01*
X109153107Y-141062696D01*
X109248852Y-141085683D01*
X109347024Y-141093409D01*
X109351795Y-141093974D01*
X109374271Y-141097534D01*
X109374275Y-141097534D01*
X109396992Y-141097534D01*
X109401858Y-141097725D01*
X109500000Y-141105449D01*
X109598142Y-141097725D01*
X109603008Y-141097534D01*
X109625725Y-141097534D01*
X109625729Y-141097534D01*
X109648204Y-141093974D01*
X109652975Y-141093409D01*
X109751148Y-141085683D01*
X109846897Y-141062695D01*
X109851627Y-141061755D01*
X109874090Y-141058198D01*
X109895737Y-141051164D01*
X109900351Y-141049862D01*
X109996111Y-141026873D01*
X110087090Y-140989188D01*
X110091599Y-140987524D01*
X110113240Y-140980493D01*
X110133508Y-140970165D01*
X110137863Y-140968157D01*
X110228859Y-140930466D01*
X110312833Y-140879006D01*
X110317018Y-140876662D01*
X110337290Y-140866334D01*
X110355684Y-140852969D01*
X110359707Y-140850281D01*
X110443659Y-140798836D01*
X110518547Y-140734875D01*
X110522314Y-140731906D01*
X110540724Y-140718531D01*
X110556819Y-140702435D01*
X110560347Y-140699174D01*
X110635224Y-140635224D01*
X110699174Y-140560347D01*
X110702435Y-140556819D01*
X110718531Y-140540724D01*
X110731906Y-140522314D01*
X110734875Y-140518547D01*
X110798836Y-140443659D01*
X110850281Y-140359707D01*
X110852969Y-140355684D01*
X110866334Y-140337290D01*
X110876662Y-140317018D01*
X110879006Y-140312833D01*
X110930466Y-140228859D01*
X110968157Y-140137863D01*
X110970165Y-140133508D01*
X110980493Y-140113240D01*
X110987524Y-140091599D01*
X110989188Y-140087090D01*
X111026873Y-139996111D01*
X111049862Y-139900351D01*
X111051164Y-139895737D01*
X111058198Y-139874090D01*
X111061755Y-139851627D01*
X111062695Y-139846897D01*
X111085683Y-139751148D01*
X111093409Y-139652978D01*
X111093974Y-139648201D01*
X111097534Y-139625729D01*
X111098155Y-139594043D01*
X111098334Y-139590401D01*
X111105449Y-139500000D01*
X111098333Y-139409593D01*
X111098155Y-139405946D01*
X111097979Y-139396990D01*
X111097534Y-139374271D01*
X111093974Y-139351798D01*
X111093409Y-139347021D01*
X111085683Y-139248852D01*
X111062696Y-139153107D01*
X111061753Y-139148357D01*
X111058198Y-139125913D01*
X111058198Y-139125911D01*
X111058195Y-139125903D01*
X111051172Y-139104289D01*
X111049857Y-139099627D01*
X111026873Y-139003889D01*
X110989194Y-138912923D01*
X110987517Y-138908380D01*
X110980493Y-138886760D01*
X110970178Y-138866515D01*
X110968139Y-138862093D01*
X110930468Y-138771145D01*
X110930466Y-138771141D01*
X110879014Y-138687179D01*
X110876649Y-138682955D01*
X110866337Y-138662716D01*
X110866334Y-138662710D01*
X110858039Y-138651293D01*
X110852977Y-138644325D01*
X110850272Y-138640277D01*
X110798839Y-138556345D01*
X110798838Y-138556344D01*
X110798837Y-138556343D01*
X110798836Y-138556341D01*
X110734891Y-138481471D01*
X110731891Y-138477665D01*
X110718531Y-138459276D01*
X110702453Y-138443198D01*
X110699163Y-138439639D01*
X110635224Y-138364776D01*
X110560355Y-138300832D01*
X110556799Y-138297544D01*
X110540724Y-138281469D01*
X110522332Y-138268107D01*
X110518511Y-138265094D01*
X110443667Y-138201171D01*
X110443659Y-138201164D01*
X110443654Y-138201161D01*
X110443653Y-138201160D01*
X110359714Y-138149722D01*
X110355667Y-138147017D01*
X110337292Y-138133667D01*
X110337290Y-138133666D01*
X110331104Y-138130514D01*
X110317048Y-138123351D01*
X110312803Y-138120973D01*
X110228857Y-138069532D01*
X110137904Y-138031858D01*
X110133484Y-138029821D01*
X110113244Y-138019509D01*
X110113243Y-138019508D01*
X110113240Y-138019507D01*
X110109126Y-138018170D01*
X110091623Y-138012482D01*
X110087057Y-138010797D01*
X109996114Y-137973127D01*
X109900390Y-137950146D01*
X109895705Y-137948824D01*
X109874090Y-137941801D01*
X109851642Y-137938246D01*
X109846867Y-137937296D01*
X109751152Y-137914318D01*
X109751153Y-137914318D01*
X109751151Y-137914317D01*
X109751148Y-137914317D01*
X109703959Y-137910603D01*
X109653002Y-137906592D01*
X109648167Y-137906019D01*
X109625734Y-137902466D01*
X109625729Y-137902466D01*
X109603008Y-137902466D01*
X109598142Y-137902275D01*
X109500000Y-137894551D01*
X109401858Y-137902275D01*
X109396992Y-137902466D01*
X109374271Y-137902466D01*
X109351833Y-137906019D01*
X109346998Y-137906592D01*
X109248851Y-137914317D01*
X109248844Y-137914318D01*
X109153132Y-137937296D01*
X109148357Y-137938246D01*
X109125913Y-137941801D01*
X109125903Y-137941803D01*
X109104299Y-137948823D01*
X109099612Y-137950145D01*
X109003891Y-137973125D01*
X108912938Y-138010799D01*
X108908373Y-138012483D01*
X108886757Y-138019507D01*
X108866515Y-138029820D01*
X108862098Y-138031856D01*
X108771141Y-138069534D01*
X108687201Y-138120970D01*
X108682958Y-138123347D01*
X108662716Y-138133662D01*
X108662708Y-138133667D01*
X108644330Y-138147018D01*
X108640286Y-138149720D01*
X108556339Y-138201165D01*
X108481482Y-138265098D01*
X108477660Y-138268111D01*
X108459276Y-138281469D01*
X108443198Y-138297544D01*
X108439626Y-138300846D01*
X108364775Y-138364775D01*
X108300846Y-138439626D01*
X108297544Y-138443198D01*
X108281469Y-138459276D01*
X108268111Y-138477660D01*
X108265098Y-138481482D01*
X108201165Y-138556339D01*
X108149720Y-138640286D01*
X108147018Y-138644330D01*
X108133667Y-138662708D01*
X108133662Y-138662716D01*
X108123347Y-138682958D01*
X108120970Y-138687201D01*
X108069534Y-138771141D01*
X108031856Y-138862098D01*
X108029820Y-138866515D01*
X108019507Y-138886757D01*
X108012483Y-138908373D01*
X108010799Y-138912938D01*
X107973125Y-139003891D01*
X107950145Y-139099612D01*
X107948823Y-139104299D01*
X107941803Y-139125903D01*
X107941801Y-139125913D01*
X107938246Y-139148357D01*
X107937296Y-139153132D01*
X107914318Y-139248844D01*
X107914317Y-139248851D01*
X107906592Y-139346998D01*
X107906019Y-139351833D01*
X107902466Y-139374270D01*
X107902466Y-139396990D01*
X107902275Y-139401856D01*
X107894551Y-139499999D01*
X61605449Y-139499999D01*
X61598333Y-139409593D01*
X61598155Y-139405946D01*
X61597979Y-139396990D01*
X61597534Y-139374271D01*
X61593974Y-139351798D01*
X61593409Y-139347021D01*
X61585683Y-139248852D01*
X61562696Y-139153107D01*
X61561753Y-139148357D01*
X61558198Y-139125913D01*
X61558198Y-139125911D01*
X61558195Y-139125903D01*
X61551172Y-139104289D01*
X61549857Y-139099627D01*
X61526873Y-139003889D01*
X61489194Y-138912923D01*
X61487517Y-138908380D01*
X61480493Y-138886760D01*
X61470178Y-138866515D01*
X61468139Y-138862093D01*
X61430468Y-138771145D01*
X61430466Y-138771141D01*
X61379014Y-138687179D01*
X61376649Y-138682955D01*
X61366337Y-138662716D01*
X61366334Y-138662710D01*
X61358039Y-138651293D01*
X61352977Y-138644325D01*
X61350272Y-138640277D01*
X61298839Y-138556345D01*
X61298838Y-138556344D01*
X61298837Y-138556343D01*
X61298836Y-138556341D01*
X61234891Y-138481471D01*
X61231891Y-138477665D01*
X61218531Y-138459276D01*
X61202453Y-138443198D01*
X61199163Y-138439639D01*
X61135224Y-138364776D01*
X61060355Y-138300832D01*
X61056799Y-138297544D01*
X61040724Y-138281469D01*
X61022332Y-138268107D01*
X61018511Y-138265094D01*
X60943667Y-138201171D01*
X60943659Y-138201164D01*
X60943654Y-138201161D01*
X60943653Y-138201160D01*
X60859714Y-138149722D01*
X60855667Y-138147017D01*
X60837292Y-138133667D01*
X60837290Y-138133666D01*
X60831104Y-138130514D01*
X60817048Y-138123351D01*
X60812803Y-138120973D01*
X60728857Y-138069532D01*
X60637904Y-138031858D01*
X60633484Y-138029821D01*
X60613244Y-138019509D01*
X60613243Y-138019508D01*
X60613240Y-138019507D01*
X60609126Y-138018170D01*
X60591623Y-138012482D01*
X60587057Y-138010797D01*
X60496114Y-137973127D01*
X60400390Y-137950146D01*
X60395705Y-137948824D01*
X60374090Y-137941801D01*
X60351642Y-137938246D01*
X60346867Y-137937296D01*
X60251152Y-137914318D01*
X60251153Y-137914318D01*
X60251151Y-137914317D01*
X60251148Y-137914317D01*
X60203959Y-137910603D01*
X60153002Y-137906592D01*
X60148167Y-137906019D01*
X60125734Y-137902466D01*
X60125729Y-137902466D01*
X60103008Y-137902466D01*
X60098142Y-137902275D01*
X60000000Y-137894551D01*
X59901858Y-137902275D01*
X59896992Y-137902466D01*
X59874271Y-137902466D01*
X59851833Y-137906019D01*
X59846998Y-137906592D01*
X59748851Y-137914317D01*
X59748844Y-137914318D01*
X59653132Y-137937296D01*
X59648357Y-137938246D01*
X59625913Y-137941801D01*
X59625903Y-137941803D01*
X59604299Y-137948823D01*
X59599612Y-137950145D01*
X59503891Y-137973125D01*
X59412938Y-138010799D01*
X59408373Y-138012483D01*
X59386757Y-138019507D01*
X59366515Y-138029820D01*
X59362098Y-138031856D01*
X59271141Y-138069534D01*
X59187201Y-138120970D01*
X59182958Y-138123347D01*
X59162716Y-138133662D01*
X59162708Y-138133667D01*
X59144330Y-138147018D01*
X59140286Y-138149720D01*
X59056339Y-138201165D01*
X58981482Y-138265098D01*
X58977660Y-138268111D01*
X58959276Y-138281469D01*
X58943198Y-138297544D01*
X58939626Y-138300846D01*
X58864775Y-138364775D01*
X58800846Y-138439626D01*
X58797544Y-138443198D01*
X58781469Y-138459276D01*
X58768111Y-138477660D01*
X58765098Y-138481482D01*
X58701165Y-138556339D01*
X58649720Y-138640286D01*
X58647018Y-138644330D01*
X58633667Y-138662708D01*
X58633662Y-138662716D01*
X58623347Y-138682958D01*
X58620970Y-138687201D01*
X58569534Y-138771141D01*
X58531856Y-138862098D01*
X58529820Y-138866515D01*
X58519507Y-138886757D01*
X58512483Y-138908373D01*
X58510799Y-138912938D01*
X58473125Y-139003891D01*
X58450145Y-139099612D01*
X58448823Y-139104299D01*
X58441803Y-139125903D01*
X58441801Y-139125913D01*
X58438246Y-139148357D01*
X58437296Y-139153132D01*
X58414318Y-139248844D01*
X58414317Y-139248851D01*
X58406592Y-139346998D01*
X58406019Y-139351833D01*
X58402466Y-139374270D01*
X58402466Y-139396990D01*
X58402275Y-139401856D01*
X58394551Y-139499999D01*
X55000500Y-139499999D01*
X55000500Y-126085000D01*
X60365207Y-126085000D01*
X60384348Y-126328219D01*
X60441303Y-126565457D01*
X60534665Y-126790853D01*
X60534668Y-126790859D01*
X60577902Y-126861412D01*
X61229752Y-126209562D01*
X61260682Y-126335046D01*
X61339680Y-126485566D01*
X61452405Y-126612806D01*
X61592305Y-126709371D01*
X61751249Y-126769651D01*
X61795643Y-126775041D01*
X61143586Y-127427096D01*
X61214141Y-127470331D01*
X61214146Y-127470334D01*
X61439542Y-127563696D01*
X61676780Y-127620651D01*
X61676779Y-127620651D01*
X61920000Y-127639792D01*
X62163219Y-127620651D01*
X62400457Y-127563696D01*
X62625861Y-127470331D01*
X62696412Y-127427097D01*
X62696412Y-127427096D01*
X62452186Y-127182870D01*
X65449500Y-127182870D01*
X65449501Y-127182876D01*
X65455908Y-127242483D01*
X65506202Y-127377328D01*
X65506206Y-127377335D01*
X65592452Y-127492544D01*
X65592455Y-127492547D01*
X65707664Y-127578793D01*
X65707671Y-127578797D01*
X65842517Y-127629091D01*
X65842516Y-127629091D01*
X65849444Y-127629835D01*
X65902127Y-127635500D01*
X68097872Y-127635499D01*
X68157483Y-127629091D01*
X68292331Y-127578796D01*
X68407546Y-127492546D01*
X68493796Y-127377331D01*
X68544091Y-127242483D01*
X68550500Y-127182873D01*
X68550499Y-126085000D01*
X80550207Y-126085000D01*
X80569348Y-126328219D01*
X80626303Y-126565457D01*
X80719665Y-126790853D01*
X80719668Y-126790859D01*
X80762902Y-126861412D01*
X81414752Y-126209562D01*
X81445682Y-126335046D01*
X81524680Y-126485566D01*
X81637405Y-126612806D01*
X81777305Y-126709371D01*
X81936249Y-126769651D01*
X81980643Y-126775041D01*
X81328586Y-127427096D01*
X81399141Y-127470331D01*
X81399146Y-127470334D01*
X81624542Y-127563696D01*
X81861780Y-127620651D01*
X81861779Y-127620651D01*
X82105000Y-127639792D01*
X82348219Y-127620651D01*
X82585457Y-127563696D01*
X82810861Y-127470331D01*
X82881412Y-127427097D01*
X82881412Y-127427096D01*
X82637186Y-127182870D01*
X85634500Y-127182870D01*
X85634501Y-127182876D01*
X85640908Y-127242483D01*
X85691202Y-127377328D01*
X85691206Y-127377335D01*
X85777452Y-127492544D01*
X85777455Y-127492547D01*
X85892664Y-127578793D01*
X85892671Y-127578797D01*
X86027517Y-127629091D01*
X86027516Y-127629091D01*
X86034444Y-127629835D01*
X86087127Y-127635500D01*
X88282872Y-127635499D01*
X88342483Y-127629091D01*
X88477331Y-127578796D01*
X88592546Y-127492546D01*
X88678796Y-127377331D01*
X88729091Y-127242483D01*
X88735500Y-127182873D01*
X88735499Y-126085000D01*
X100800207Y-126085000D01*
X100819348Y-126328219D01*
X100876303Y-126565457D01*
X100969665Y-126790853D01*
X100969668Y-126790859D01*
X101012902Y-126861412D01*
X101664752Y-126209562D01*
X101695682Y-126335046D01*
X101774680Y-126485566D01*
X101887405Y-126612806D01*
X102027305Y-126709371D01*
X102186249Y-126769651D01*
X102230643Y-126775041D01*
X101578586Y-127427096D01*
X101649141Y-127470331D01*
X101649146Y-127470334D01*
X101874542Y-127563696D01*
X102111780Y-127620651D01*
X102111779Y-127620651D01*
X102355000Y-127639792D01*
X102598219Y-127620651D01*
X102835457Y-127563696D01*
X103060861Y-127470331D01*
X103131412Y-127427097D01*
X103131412Y-127427096D01*
X102887186Y-127182870D01*
X105884500Y-127182870D01*
X105884501Y-127182876D01*
X105890908Y-127242483D01*
X105941202Y-127377328D01*
X105941206Y-127377335D01*
X106027452Y-127492544D01*
X106027455Y-127492547D01*
X106142664Y-127578793D01*
X106142671Y-127578797D01*
X106277517Y-127629091D01*
X106277516Y-127629091D01*
X106284444Y-127629835D01*
X106337127Y-127635500D01*
X108532872Y-127635499D01*
X108592483Y-127629091D01*
X108727331Y-127578796D01*
X108842546Y-127492546D01*
X108928796Y-127377331D01*
X108979091Y-127242483D01*
X108985500Y-127182873D01*
X108985499Y-124987128D01*
X108979091Y-124927517D01*
X108928796Y-124792669D01*
X108928795Y-124792668D01*
X108928793Y-124792664D01*
X108842547Y-124677455D01*
X108842544Y-124677452D01*
X108727335Y-124591206D01*
X108727328Y-124591202D01*
X108592482Y-124540908D01*
X108592483Y-124540908D01*
X108532883Y-124534501D01*
X108532881Y-124534500D01*
X108532873Y-124534500D01*
X108532864Y-124534500D01*
X106337129Y-124534500D01*
X106337123Y-124534501D01*
X106277516Y-124540908D01*
X106142671Y-124591202D01*
X106142664Y-124591206D01*
X106027455Y-124677452D01*
X106027452Y-124677455D01*
X105941206Y-124792664D01*
X105941202Y-124792671D01*
X105890908Y-124927517D01*
X105884501Y-124987116D01*
X105884501Y-124987123D01*
X105884500Y-124987135D01*
X105884500Y-127182870D01*
X102887186Y-127182870D01*
X102479356Y-126775041D01*
X102523751Y-126769651D01*
X102682695Y-126709371D01*
X102822595Y-126612806D01*
X102935320Y-126485566D01*
X103014318Y-126335046D01*
X103045247Y-126209563D01*
X103697096Y-126861412D01*
X103697097Y-126861412D01*
X103740331Y-126790861D01*
X103833696Y-126565457D01*
X103890651Y-126328219D01*
X103909792Y-126085000D01*
X103890651Y-125841780D01*
X103833696Y-125604542D01*
X103740334Y-125379146D01*
X103740331Y-125379141D01*
X103697096Y-125308586D01*
X103045247Y-125960436D01*
X103014318Y-125834954D01*
X102935320Y-125684434D01*
X102822595Y-125557194D01*
X102682695Y-125460629D01*
X102523751Y-125400349D01*
X102479357Y-125394958D01*
X103131412Y-124742902D01*
X103060859Y-124699668D01*
X103060853Y-124699665D01*
X102835457Y-124606303D01*
X102598219Y-124549348D01*
X102598220Y-124549348D01*
X102355000Y-124530207D01*
X102111780Y-124549348D01*
X101874542Y-124606303D01*
X101649136Y-124699670D01*
X101578586Y-124742901D01*
X102230643Y-125394958D01*
X102186249Y-125400349D01*
X102027305Y-125460629D01*
X101887405Y-125557194D01*
X101774680Y-125684434D01*
X101695682Y-125834954D01*
X101664752Y-125960437D01*
X101012901Y-125308586D01*
X100969670Y-125379136D01*
X100876303Y-125604542D01*
X100819348Y-125841780D01*
X100800207Y-126085000D01*
X88735499Y-126085000D01*
X88735499Y-124987128D01*
X88729091Y-124927517D01*
X88678796Y-124792669D01*
X88678795Y-124792668D01*
X88678793Y-124792664D01*
X88592547Y-124677455D01*
X88592544Y-124677452D01*
X88477335Y-124591206D01*
X88477328Y-124591202D01*
X88342482Y-124540908D01*
X88342483Y-124540908D01*
X88282883Y-124534501D01*
X88282881Y-124534500D01*
X88282873Y-124534500D01*
X88282864Y-124534500D01*
X86087129Y-124534500D01*
X86087123Y-124534501D01*
X86027516Y-124540908D01*
X85892671Y-124591202D01*
X85892664Y-124591206D01*
X85777455Y-124677452D01*
X85777452Y-124677455D01*
X85691206Y-124792664D01*
X85691202Y-124792671D01*
X85640908Y-124927517D01*
X85634501Y-124987116D01*
X85634501Y-124987123D01*
X85634500Y-124987135D01*
X85634500Y-127182870D01*
X82637186Y-127182870D01*
X82229356Y-126775041D01*
X82273751Y-126769651D01*
X82432695Y-126709371D01*
X82572595Y-126612806D01*
X82685320Y-126485566D01*
X82764318Y-126335046D01*
X82795247Y-126209563D01*
X83447096Y-126861412D01*
X83447097Y-126861412D01*
X83490331Y-126790861D01*
X83583696Y-126565457D01*
X83640651Y-126328219D01*
X83659792Y-126085000D01*
X83640651Y-125841780D01*
X83583696Y-125604542D01*
X83490334Y-125379146D01*
X83490331Y-125379141D01*
X83447096Y-125308586D01*
X82795247Y-125960436D01*
X82764318Y-125834954D01*
X82685320Y-125684434D01*
X82572595Y-125557194D01*
X82432695Y-125460629D01*
X82273751Y-125400349D01*
X82229357Y-125394958D01*
X82881412Y-124742902D01*
X82810859Y-124699668D01*
X82810853Y-124699665D01*
X82585457Y-124606303D01*
X82348219Y-124549348D01*
X82348220Y-124549348D01*
X82105000Y-124530207D01*
X81861780Y-124549348D01*
X81624542Y-124606303D01*
X81399136Y-124699670D01*
X81328586Y-124742901D01*
X81980643Y-125394958D01*
X81936249Y-125400349D01*
X81777305Y-125460629D01*
X81637405Y-125557194D01*
X81524680Y-125684434D01*
X81445682Y-125834954D01*
X81414752Y-125960437D01*
X80762901Y-125308586D01*
X80719670Y-125379136D01*
X80626303Y-125604542D01*
X80569348Y-125841780D01*
X80550207Y-126085000D01*
X68550499Y-126085000D01*
X68550499Y-124987128D01*
X68544091Y-124927517D01*
X68493796Y-124792669D01*
X68493795Y-124792668D01*
X68493793Y-124792664D01*
X68407547Y-124677455D01*
X68407544Y-124677452D01*
X68292335Y-124591206D01*
X68292328Y-124591202D01*
X68157482Y-124540908D01*
X68157483Y-124540908D01*
X68097883Y-124534501D01*
X68097881Y-124534500D01*
X68097873Y-124534500D01*
X68097864Y-124534500D01*
X65902129Y-124534500D01*
X65902123Y-124534501D01*
X65842516Y-124540908D01*
X65707671Y-124591202D01*
X65707664Y-124591206D01*
X65592455Y-124677452D01*
X65592452Y-124677455D01*
X65506206Y-124792664D01*
X65506202Y-124792671D01*
X65455908Y-124927517D01*
X65449501Y-124987116D01*
X65449501Y-124987123D01*
X65449500Y-124987135D01*
X65449500Y-127182870D01*
X62452186Y-127182870D01*
X62044356Y-126775041D01*
X62088751Y-126769651D01*
X62247695Y-126709371D01*
X62387595Y-126612806D01*
X62500320Y-126485566D01*
X62579318Y-126335046D01*
X62610247Y-126209563D01*
X63262096Y-126861412D01*
X63262097Y-126861412D01*
X63305331Y-126790861D01*
X63398696Y-126565457D01*
X63455651Y-126328219D01*
X63474792Y-126085000D01*
X63455651Y-125841780D01*
X63398696Y-125604542D01*
X63305334Y-125379146D01*
X63305331Y-125379141D01*
X63262096Y-125308586D01*
X62610247Y-125960436D01*
X62579318Y-125834954D01*
X62500320Y-125684434D01*
X62387595Y-125557194D01*
X62247695Y-125460629D01*
X62088751Y-125400349D01*
X62044357Y-125394958D01*
X62696412Y-124742902D01*
X62625859Y-124699668D01*
X62625853Y-124699665D01*
X62400457Y-124606303D01*
X62163219Y-124549348D01*
X62163220Y-124549348D01*
X61920000Y-124530207D01*
X61676780Y-124549348D01*
X61439542Y-124606303D01*
X61214136Y-124699670D01*
X61143586Y-124742901D01*
X61795643Y-125394958D01*
X61751249Y-125400349D01*
X61592305Y-125460629D01*
X61452405Y-125557194D01*
X61339680Y-125684434D01*
X61260682Y-125834954D01*
X61229752Y-125960437D01*
X60577901Y-125308586D01*
X60534670Y-125379136D01*
X60441303Y-125604542D01*
X60384348Y-125841780D01*
X60365207Y-126085000D01*
X55000500Y-126085000D01*
X55000500Y-115012870D01*
X61069500Y-115012870D01*
X61069501Y-115012876D01*
X61075908Y-115072483D01*
X61126202Y-115207328D01*
X61126206Y-115207335D01*
X61212452Y-115322544D01*
X61212455Y-115322547D01*
X61327664Y-115408793D01*
X61327671Y-115408797D01*
X61462517Y-115459091D01*
X61462516Y-115459091D01*
X61469444Y-115459835D01*
X61522127Y-115465500D01*
X63717872Y-115465499D01*
X63777483Y-115459091D01*
X63912331Y-115408796D01*
X64027546Y-115322546D01*
X64113796Y-115207331D01*
X64164091Y-115072483D01*
X64170500Y-115012873D01*
X64170499Y-113915000D01*
X66144706Y-113915000D01*
X66163853Y-114158297D01*
X66163853Y-114158300D01*
X66163854Y-114158302D01*
X66201610Y-114315566D01*
X66220830Y-114395619D01*
X66314222Y-114621089D01*
X66441737Y-114829173D01*
X66441738Y-114829176D01*
X66441741Y-114829179D01*
X66600241Y-115014759D01*
X66743897Y-115137453D01*
X66785823Y-115173261D01*
X66785826Y-115173262D01*
X66993910Y-115300777D01*
X67219381Y-115394169D01*
X67219378Y-115394169D01*
X67219384Y-115394170D01*
X67219388Y-115394172D01*
X67456698Y-115451146D01*
X67700000Y-115470294D01*
X67943302Y-115451146D01*
X68180612Y-115394172D01*
X68406089Y-115300777D01*
X68614179Y-115173259D01*
X68799759Y-115014759D01*
X68801372Y-115012870D01*
X81264500Y-115012870D01*
X81264501Y-115012876D01*
X81270908Y-115072483D01*
X81321202Y-115207328D01*
X81321206Y-115207335D01*
X81407452Y-115322544D01*
X81407455Y-115322547D01*
X81522664Y-115408793D01*
X81522671Y-115408797D01*
X81657517Y-115459091D01*
X81657516Y-115459091D01*
X81664444Y-115459835D01*
X81717127Y-115465500D01*
X83912872Y-115465499D01*
X83972483Y-115459091D01*
X84107331Y-115408796D01*
X84222546Y-115322546D01*
X84308796Y-115207331D01*
X84359091Y-115072483D01*
X84365500Y-115012873D01*
X84365499Y-113915000D01*
X86340207Y-113915000D01*
X86359348Y-114158219D01*
X86416303Y-114395457D01*
X86509665Y-114620853D01*
X86509668Y-114620859D01*
X86552902Y-114691412D01*
X87204752Y-114039562D01*
X87235682Y-114165046D01*
X87314680Y-114315566D01*
X87427405Y-114442806D01*
X87567305Y-114539371D01*
X87726249Y-114599651D01*
X87770643Y-114605041D01*
X87118586Y-115257096D01*
X87189141Y-115300331D01*
X87189146Y-115300334D01*
X87414542Y-115393696D01*
X87651780Y-115450651D01*
X87651779Y-115450651D01*
X87895000Y-115469792D01*
X88138219Y-115450651D01*
X88375457Y-115393696D01*
X88600861Y-115300331D01*
X88671412Y-115257097D01*
X88671412Y-115257096D01*
X88427186Y-115012870D01*
X101264500Y-115012870D01*
X101264501Y-115012876D01*
X101270908Y-115072483D01*
X101321202Y-115207328D01*
X101321206Y-115207335D01*
X101407452Y-115322544D01*
X101407455Y-115322547D01*
X101522664Y-115408793D01*
X101522671Y-115408797D01*
X101657517Y-115459091D01*
X101657516Y-115459091D01*
X101664444Y-115459835D01*
X101717127Y-115465500D01*
X103912872Y-115465499D01*
X103972483Y-115459091D01*
X104107331Y-115408796D01*
X104222546Y-115322546D01*
X104308796Y-115207331D01*
X104359091Y-115072483D01*
X104365500Y-115012873D01*
X104365499Y-113915000D01*
X106339706Y-113915000D01*
X106358853Y-114158297D01*
X106358853Y-114158300D01*
X106358854Y-114158302D01*
X106396610Y-114315566D01*
X106415830Y-114395619D01*
X106509222Y-114621089D01*
X106636737Y-114829173D01*
X106636738Y-114829176D01*
X106636741Y-114829179D01*
X106795241Y-115014759D01*
X106938897Y-115137453D01*
X106980823Y-115173261D01*
X106980826Y-115173262D01*
X107188910Y-115300777D01*
X107414381Y-115394169D01*
X107414378Y-115394169D01*
X107414384Y-115394170D01*
X107414388Y-115394172D01*
X107651698Y-115451146D01*
X107895000Y-115470294D01*
X108138302Y-115451146D01*
X108375612Y-115394172D01*
X108601089Y-115300777D01*
X108809179Y-115173259D01*
X108994759Y-115014759D01*
X109153259Y-114829179D01*
X109280777Y-114621089D01*
X109374172Y-114395612D01*
X109431146Y-114158302D01*
X109450294Y-113915000D01*
X109431146Y-113671698D01*
X109374172Y-113434388D01*
X109338934Y-113349315D01*
X109280777Y-113208910D01*
X109153262Y-113000826D01*
X109153261Y-113000823D01*
X109117453Y-112958897D01*
X108994759Y-112815241D01*
X108872063Y-112710449D01*
X108809176Y-112656738D01*
X108809173Y-112656737D01*
X108601089Y-112529222D01*
X108375618Y-112435830D01*
X108375621Y-112435830D01*
X108269992Y-112410470D01*
X108138302Y-112378854D01*
X108138300Y-112378853D01*
X108138297Y-112378853D01*
X107895000Y-112359706D01*
X107651702Y-112378853D01*
X107651698Y-112378854D01*
X107475301Y-112421204D01*
X107414380Y-112435830D01*
X107188910Y-112529222D01*
X106980826Y-112656737D01*
X106980823Y-112656738D01*
X106795241Y-112815241D01*
X106636738Y-113000823D01*
X106636737Y-113000826D01*
X106509222Y-113208910D01*
X106415830Y-113434380D01*
X106358853Y-113671702D01*
X106339706Y-113915000D01*
X104365499Y-113915000D01*
X104365499Y-112817128D01*
X104359091Y-112757517D01*
X104308796Y-112622669D01*
X104308795Y-112622668D01*
X104308793Y-112622664D01*
X104222547Y-112507455D01*
X104222544Y-112507452D01*
X104107335Y-112421206D01*
X104107328Y-112421202D01*
X103972482Y-112370908D01*
X103972483Y-112370908D01*
X103912883Y-112364501D01*
X103912881Y-112364500D01*
X103912873Y-112364500D01*
X103912864Y-112364500D01*
X101717129Y-112364500D01*
X101717123Y-112364501D01*
X101657516Y-112370908D01*
X101522671Y-112421202D01*
X101522664Y-112421206D01*
X101407455Y-112507452D01*
X101407452Y-112507455D01*
X101321206Y-112622664D01*
X101321202Y-112622671D01*
X101270908Y-112757517D01*
X101264703Y-112815241D01*
X101264501Y-112817123D01*
X101264500Y-112817135D01*
X101264500Y-115012870D01*
X88427186Y-115012870D01*
X88019356Y-114605041D01*
X88063751Y-114599651D01*
X88222695Y-114539371D01*
X88362595Y-114442806D01*
X88475320Y-114315566D01*
X88554318Y-114165046D01*
X88585247Y-114039562D01*
X89237096Y-114691412D01*
X89237097Y-114691412D01*
X89280331Y-114620861D01*
X89373696Y-114395457D01*
X89430651Y-114158219D01*
X89449792Y-113915000D01*
X89430651Y-113671780D01*
X89373696Y-113434542D01*
X89280334Y-113209146D01*
X89280331Y-113209141D01*
X89237096Y-113138586D01*
X88585247Y-113790436D01*
X88554318Y-113664954D01*
X88475320Y-113514434D01*
X88362595Y-113387194D01*
X88222695Y-113290629D01*
X88063751Y-113230349D01*
X88019357Y-113224958D01*
X88671412Y-112572902D01*
X88600859Y-112529668D01*
X88600853Y-112529665D01*
X88375457Y-112436303D01*
X88138219Y-112379348D01*
X88138220Y-112379348D01*
X87895000Y-112360207D01*
X87651780Y-112379348D01*
X87414542Y-112436303D01*
X87189136Y-112529670D01*
X87118586Y-112572901D01*
X87770643Y-113224958D01*
X87726249Y-113230349D01*
X87567305Y-113290629D01*
X87427405Y-113387194D01*
X87314680Y-113514434D01*
X87235682Y-113664954D01*
X87204752Y-113790436D01*
X86552901Y-113138586D01*
X86509670Y-113209136D01*
X86416303Y-113434542D01*
X86359348Y-113671780D01*
X86340207Y-113915000D01*
X84365499Y-113915000D01*
X84365499Y-112817128D01*
X84359091Y-112757517D01*
X84308796Y-112622669D01*
X84308795Y-112622668D01*
X84308793Y-112622664D01*
X84222547Y-112507455D01*
X84222544Y-112507452D01*
X84107335Y-112421206D01*
X84107328Y-112421202D01*
X83972482Y-112370908D01*
X83972483Y-112370908D01*
X83912883Y-112364501D01*
X83912881Y-112364500D01*
X83912873Y-112364500D01*
X83912864Y-112364500D01*
X81717129Y-112364500D01*
X81717123Y-112364501D01*
X81657516Y-112370908D01*
X81522671Y-112421202D01*
X81522664Y-112421206D01*
X81407455Y-112507452D01*
X81407452Y-112507455D01*
X81321206Y-112622664D01*
X81321202Y-112622671D01*
X81270908Y-112757517D01*
X81264703Y-112815241D01*
X81264501Y-112817123D01*
X81264500Y-112817135D01*
X81264500Y-115012870D01*
X68801372Y-115012870D01*
X68958259Y-114829179D01*
X69085777Y-114621089D01*
X69179172Y-114395612D01*
X69236146Y-114158302D01*
X69255294Y-113915000D01*
X69236146Y-113671698D01*
X69179172Y-113434388D01*
X69143934Y-113349315D01*
X69085777Y-113208910D01*
X68958262Y-113000826D01*
X68958261Y-113000823D01*
X68922453Y-112958897D01*
X68799759Y-112815241D01*
X68677063Y-112710449D01*
X68614176Y-112656738D01*
X68614173Y-112656737D01*
X68406089Y-112529222D01*
X68180618Y-112435830D01*
X68180621Y-112435830D01*
X68074992Y-112410470D01*
X67943302Y-112378854D01*
X67943300Y-112378853D01*
X67943297Y-112378853D01*
X67700000Y-112359706D01*
X67456702Y-112378853D01*
X67456698Y-112378854D01*
X67280301Y-112421204D01*
X67219380Y-112435830D01*
X66993910Y-112529222D01*
X66785826Y-112656737D01*
X66785823Y-112656738D01*
X66600241Y-112815241D01*
X66441738Y-113000823D01*
X66441737Y-113000826D01*
X66314222Y-113208910D01*
X66220830Y-113434380D01*
X66163853Y-113671702D01*
X66144706Y-113915000D01*
X64170499Y-113915000D01*
X64170499Y-112817128D01*
X64164091Y-112757517D01*
X64113796Y-112622669D01*
X64113795Y-112622668D01*
X64113793Y-112622664D01*
X64027547Y-112507455D01*
X64027544Y-112507452D01*
X63912335Y-112421206D01*
X63912328Y-112421202D01*
X63777482Y-112370908D01*
X63777483Y-112370908D01*
X63717883Y-112364501D01*
X63717881Y-112364500D01*
X63717873Y-112364500D01*
X63717864Y-112364500D01*
X61522129Y-112364500D01*
X61522123Y-112364501D01*
X61462516Y-112370908D01*
X61327671Y-112421202D01*
X61327664Y-112421206D01*
X61212455Y-112507452D01*
X61212452Y-112507455D01*
X61126206Y-112622664D01*
X61126202Y-112622671D01*
X61075908Y-112757517D01*
X61069703Y-112815241D01*
X61069501Y-112817123D01*
X61069500Y-112817135D01*
X61069500Y-115012870D01*
X55000500Y-115012870D01*
X55000500Y-104522662D01*
X55000539Y-104500002D01*
X55000541Y-104500000D01*
X55000539Y-104499995D01*
X55000500Y-104499899D01*
X55000384Y-104499619D01*
X55000383Y-104499618D01*
X55000383Y-104499617D01*
X55000381Y-104499616D01*
X54983252Y-104482430D01*
X54982903Y-104482196D01*
X53511586Y-103010878D01*
X53500383Y-102999618D01*
X53500383Y-102999617D01*
X53500381Y-102999616D01*
X53500380Y-102999615D01*
X53500284Y-102999575D01*
X53500002Y-102999457D01*
X53475334Y-102999461D01*
X53475145Y-102999500D01*
X27551570Y-102999500D01*
X27484531Y-102979815D01*
X27463889Y-102963181D01*
X25710708Y-101210000D01*
X71700000Y-101210000D01*
X71700000Y-101657844D01*
X71706401Y-101717372D01*
X71706403Y-101717379D01*
X71756645Y-101852086D01*
X71756649Y-101852093D01*
X71842809Y-101967187D01*
X71842812Y-101967190D01*
X71957906Y-102053350D01*
X71957913Y-102053354D01*
X72092620Y-102103596D01*
X72092627Y-102103598D01*
X72152155Y-102109999D01*
X72152172Y-102110000D01*
X72600000Y-102110000D01*
X72600000Y-101210000D01*
X71700000Y-101210000D01*
X25710708Y-101210000D01*
X25310708Y-100810000D01*
X72595014Y-100810000D01*
X72614835Y-100935148D01*
X72672359Y-101048045D01*
X72761955Y-101137641D01*
X72874852Y-101195165D01*
X72968519Y-101210000D01*
X73031481Y-101210000D01*
X73400000Y-101210000D01*
X73400000Y-102110000D01*
X73847828Y-102110000D01*
X73847844Y-102109999D01*
X73907372Y-102103598D01*
X73907379Y-102103596D01*
X74042086Y-102053354D01*
X74042093Y-102053350D01*
X74157187Y-101967190D01*
X74157190Y-101967187D01*
X74243350Y-101852093D01*
X74243354Y-101852086D01*
X74293596Y-101717379D01*
X74293598Y-101717372D01*
X74299999Y-101657844D01*
X74300000Y-101657827D01*
X74300000Y-101415000D01*
X99709557Y-101415000D01*
X99726565Y-101478481D01*
X99726570Y-101478492D01*
X99826399Y-101692578D01*
X99961894Y-101886082D01*
X100128917Y-102053105D01*
X100322421Y-102188600D01*
X100536507Y-102288429D01*
X100536518Y-102288434D01*
X100599999Y-102305443D01*
X100600000Y-102305442D01*
X100600000Y-101415000D01*
X99709557Y-101415000D01*
X74300000Y-101415000D01*
X74300000Y-101210000D01*
X73400000Y-101210000D01*
X73031481Y-101210000D01*
X73125148Y-101195165D01*
X73238045Y-101137641D01*
X73327641Y-101048045D01*
X73385165Y-100935148D01*
X73404986Y-100810000D01*
X73385165Y-100684852D01*
X73327641Y-100571955D01*
X73238045Y-100482359D01*
X73125148Y-100424835D01*
X73031481Y-100410000D01*
X72968519Y-100410000D01*
X72874852Y-100424835D01*
X72761955Y-100482359D01*
X72672359Y-100571955D01*
X72614835Y-100684852D01*
X72595014Y-100810000D01*
X25310708Y-100810000D01*
X24165708Y-99665000D01*
X48459557Y-99665000D01*
X48476565Y-99728481D01*
X48476570Y-99728492D01*
X48576399Y-99942578D01*
X48711894Y-100136082D01*
X48878917Y-100303105D01*
X49072421Y-100438600D01*
X49286507Y-100538429D01*
X49286518Y-100538434D01*
X49349999Y-100555443D01*
X49350000Y-100555442D01*
X49350000Y-99665000D01*
X48459557Y-99665000D01*
X24165708Y-99665000D01*
X23837597Y-99336889D01*
X49250000Y-99336889D01*
X49290507Y-99474844D01*
X49368239Y-99595798D01*
X49476900Y-99689952D01*
X49607685Y-99749680D01*
X49714237Y-99765000D01*
X49785763Y-99765000D01*
X49892315Y-99749680D01*
X50023100Y-99689952D01*
X50051897Y-99665000D01*
X50150000Y-99665000D01*
X50150000Y-100555443D01*
X50213481Y-100538434D01*
X50213492Y-100538429D01*
X50427578Y-100438600D01*
X50621082Y-100303105D01*
X50788105Y-100136082D01*
X50923600Y-99942578D01*
X51023429Y-99728492D01*
X51023434Y-99728481D01*
X51040443Y-99665000D01*
X50150000Y-99665000D01*
X50051897Y-99665000D01*
X50069208Y-99650000D01*
X53459557Y-99650000D01*
X53476565Y-99713481D01*
X53476570Y-99713492D01*
X53576399Y-99927578D01*
X53711894Y-100121082D01*
X53878917Y-100288105D01*
X54072421Y-100423600D01*
X54286507Y-100523429D01*
X54286518Y-100523434D01*
X54349999Y-100540443D01*
X54350000Y-100540442D01*
X54350000Y-99650000D01*
X53459557Y-99650000D01*
X50069208Y-99650000D01*
X50131761Y-99595798D01*
X50209493Y-99474844D01*
X50250000Y-99336889D01*
X50250000Y-99193111D01*
X50209493Y-99055156D01*
X50131761Y-98934202D01*
X50023100Y-98840048D01*
X49892315Y-98780320D01*
X49785763Y-98765000D01*
X49714237Y-98765000D01*
X49607685Y-98780320D01*
X49476900Y-98840048D01*
X49368239Y-98934202D01*
X49290507Y-99055156D01*
X49250000Y-99193111D01*
X49250000Y-99336889D01*
X23837597Y-99336889D01*
X20536819Y-96036111D01*
X20517101Y-96000000D01*
X26894551Y-96000000D01*
X26896164Y-96020493D01*
X26902275Y-96098142D01*
X26902466Y-96103008D01*
X26902466Y-96125734D01*
X26906019Y-96148167D01*
X26906592Y-96153002D01*
X26908374Y-96175635D01*
X26914317Y-96251148D01*
X26914317Y-96251151D01*
X26914318Y-96251153D01*
X26937296Y-96346867D01*
X26938246Y-96351642D01*
X26941801Y-96374090D01*
X26948824Y-96395705D01*
X26950146Y-96400390D01*
X26973127Y-96496114D01*
X27010797Y-96587057D01*
X27012482Y-96591623D01*
X27018170Y-96609126D01*
X27019507Y-96613240D01*
X27019508Y-96613243D01*
X27019509Y-96613244D01*
X27029821Y-96633484D01*
X27031858Y-96637904D01*
X27069532Y-96728857D01*
X27120973Y-96812803D01*
X27123351Y-96817048D01*
X27130514Y-96831104D01*
X27133666Y-96837290D01*
X27133667Y-96837292D01*
X27147017Y-96855667D01*
X27149722Y-96859714D01*
X27199021Y-96940163D01*
X27201164Y-96943659D01*
X27219973Y-96965682D01*
X27265094Y-97018511D01*
X27268107Y-97022332D01*
X27281469Y-97040724D01*
X27297547Y-97056802D01*
X27300832Y-97060355D01*
X27364776Y-97135224D01*
X27439639Y-97199163D01*
X27443202Y-97202457D01*
X27459276Y-97218531D01*
X27477654Y-97231883D01*
X27477665Y-97231891D01*
X27481471Y-97234891D01*
X27556341Y-97298836D01*
X27556343Y-97298837D01*
X27556344Y-97298838D01*
X27556345Y-97298839D01*
X27640277Y-97350272D01*
X27644325Y-97352977D01*
X27644335Y-97352984D01*
X27662710Y-97366334D01*
X27682961Y-97376652D01*
X27687179Y-97379014D01*
X27771141Y-97430466D01*
X27771143Y-97430466D01*
X27771145Y-97430468D01*
X27781995Y-97434962D01*
X27862101Y-97468142D01*
X27866515Y-97470178D01*
X27874608Y-97474301D01*
X27886760Y-97480493D01*
X27908380Y-97487517D01*
X27912923Y-97489194D01*
X28003889Y-97526873D01*
X28099627Y-97549857D01*
X28104289Y-97551172D01*
X28125910Y-97558198D01*
X28125911Y-97558198D01*
X28125914Y-97558199D01*
X28134646Y-97559581D01*
X28148367Y-97561754D01*
X28153107Y-97562696D01*
X28248852Y-97585683D01*
X28347024Y-97593409D01*
X28351795Y-97593974D01*
X28374271Y-97597534D01*
X28374275Y-97597534D01*
X28396992Y-97597534D01*
X28401858Y-97597725D01*
X28500000Y-97605449D01*
X28598142Y-97597725D01*
X28603008Y-97597534D01*
X28625725Y-97597534D01*
X28625729Y-97597534D01*
X28648204Y-97593974D01*
X28652975Y-97593409D01*
X28751148Y-97585683D01*
X28846897Y-97562695D01*
X28851627Y-97561755D01*
X28874090Y-97558198D01*
X28895737Y-97551164D01*
X28900351Y-97549862D01*
X28996111Y-97526873D01*
X29087090Y-97489188D01*
X29091599Y-97487524D01*
X29113240Y-97480493D01*
X29133508Y-97470165D01*
X29137863Y-97468157D01*
X29228859Y-97430466D01*
X29312833Y-97379006D01*
X29317018Y-97376662D01*
X29337290Y-97366334D01*
X29355684Y-97352969D01*
X29359707Y-97350281D01*
X29443659Y-97298836D01*
X29518547Y-97234875D01*
X29522314Y-97231906D01*
X29540724Y-97218531D01*
X29556819Y-97202435D01*
X29560347Y-97199174D01*
X29635224Y-97135224D01*
X29643956Y-97125000D01*
X48400000Y-97125000D01*
X48400000Y-97622844D01*
X48406401Y-97682372D01*
X48406403Y-97682379D01*
X48456645Y-97817086D01*
X48456649Y-97817093D01*
X48542809Y-97932187D01*
X48542812Y-97932190D01*
X48657906Y-98018350D01*
X48657913Y-98018354D01*
X48789986Y-98067614D01*
X48845920Y-98109485D01*
X48870337Y-98174949D01*
X48855486Y-98243222D01*
X48834335Y-98271477D01*
X48711886Y-98393926D01*
X48576400Y-98587420D01*
X48576399Y-98587422D01*
X48476570Y-98801507D01*
X48476565Y-98801518D01*
X48459556Y-98864999D01*
X48459557Y-98865000D01*
X49350000Y-98865000D01*
X49350000Y-97125000D01*
X48400000Y-97125000D01*
X29643956Y-97125000D01*
X29699174Y-97060347D01*
X29702435Y-97056819D01*
X29718531Y-97040724D01*
X29731906Y-97022314D01*
X29734875Y-97018547D01*
X29798836Y-96943659D01*
X29850281Y-96859707D01*
X29852969Y-96855684D01*
X29866334Y-96837290D01*
X29876662Y-96817018D01*
X29879006Y-96812833D01*
X29888777Y-96796889D01*
X49250000Y-96796889D01*
X49290507Y-96934844D01*
X49368239Y-97055798D01*
X49476900Y-97149952D01*
X49607685Y-97209680D01*
X49714237Y-97225000D01*
X49785763Y-97225000D01*
X49892315Y-97209680D01*
X50023100Y-97149952D01*
X50051897Y-97125000D01*
X50150000Y-97125000D01*
X50150000Y-98865000D01*
X51040443Y-98865000D01*
X51040443Y-98864999D01*
X51023434Y-98801518D01*
X51023429Y-98801507D01*
X50923600Y-98587422D01*
X50923599Y-98587420D01*
X50788113Y-98393926D01*
X50788108Y-98393920D01*
X50665665Y-98271477D01*
X50632180Y-98210154D01*
X50637164Y-98140462D01*
X50679036Y-98084529D01*
X50710013Y-98067614D01*
X50842086Y-98018354D01*
X50842093Y-98018350D01*
X50957187Y-97932190D01*
X50957190Y-97932187D01*
X51043350Y-97817093D01*
X51043354Y-97817086D01*
X51093596Y-97682379D01*
X51093598Y-97682372D01*
X51099999Y-97622844D01*
X51100000Y-97622827D01*
X51100000Y-97607870D01*
X53399500Y-97607870D01*
X53399501Y-97607876D01*
X53405908Y-97667483D01*
X53456202Y-97802328D01*
X53456206Y-97802335D01*
X53542452Y-97917544D01*
X53542455Y-97917547D01*
X53657664Y-98003793D01*
X53657671Y-98003797D01*
X53657674Y-98003798D01*
X53789598Y-98053002D01*
X53845531Y-98094873D01*
X53869949Y-98160337D01*
X53855098Y-98228610D01*
X53833947Y-98256865D01*
X53711886Y-98378926D01*
X53576400Y-98572420D01*
X53576399Y-98572422D01*
X53476570Y-98786507D01*
X53476565Y-98786518D01*
X53459556Y-98849999D01*
X53459557Y-98850000D01*
X54448103Y-98850000D01*
X54368239Y-98919202D01*
X54290507Y-99040156D01*
X54250000Y-99178111D01*
X54250000Y-99321889D01*
X54290507Y-99459844D01*
X54368239Y-99580798D01*
X54476900Y-99674952D01*
X54607685Y-99734680D01*
X54714237Y-99750000D01*
X54785763Y-99750000D01*
X54892315Y-99734680D01*
X55023100Y-99674952D01*
X55051897Y-99650000D01*
X55150000Y-99650000D01*
X55150000Y-100540443D01*
X55213481Y-100523434D01*
X55213492Y-100523429D01*
X55427578Y-100423600D01*
X55447001Y-100410000D01*
X71700000Y-100410000D01*
X72600000Y-100410000D01*
X72600000Y-99510000D01*
X73400000Y-99510000D01*
X73400000Y-100410000D01*
X74300000Y-100410000D01*
X74300000Y-99962172D01*
X74299999Y-99962155D01*
X74293598Y-99902627D01*
X74293596Y-99902620D01*
X74243354Y-99767913D01*
X74243350Y-99767906D01*
X74157190Y-99652812D01*
X74157187Y-99652809D01*
X74042093Y-99566649D01*
X74042086Y-99566645D01*
X73907379Y-99516403D01*
X73907372Y-99516401D01*
X73847844Y-99510000D01*
X73400000Y-99510000D01*
X72600000Y-99510000D01*
X72152155Y-99510000D01*
X72092627Y-99516401D01*
X72092620Y-99516403D01*
X71957913Y-99566645D01*
X71957906Y-99566649D01*
X71842812Y-99652809D01*
X71842809Y-99652812D01*
X71756649Y-99767906D01*
X71756645Y-99767913D01*
X71706403Y-99902620D01*
X71706401Y-99902627D01*
X71700000Y-99962155D01*
X71700000Y-100410000D01*
X55447001Y-100410000D01*
X55621082Y-100288105D01*
X55788105Y-100121082D01*
X55923600Y-99927578D01*
X56023429Y-99713492D01*
X56023434Y-99713481D01*
X56040443Y-99650000D01*
X55150000Y-99650000D01*
X55051897Y-99650000D01*
X55131761Y-99580798D01*
X55209493Y-99459844D01*
X55250000Y-99321889D01*
X55250000Y-99178111D01*
X55209493Y-99040156D01*
X55131761Y-98919202D01*
X55051897Y-98850000D01*
X56040443Y-98850000D01*
X56040443Y-98849999D01*
X56023434Y-98786518D01*
X56023429Y-98786507D01*
X55923600Y-98572422D01*
X55923599Y-98572420D01*
X55788113Y-98378926D01*
X55788108Y-98378920D01*
X55666053Y-98256865D01*
X55632568Y-98195542D01*
X55637552Y-98125850D01*
X55679424Y-98069917D01*
X55710400Y-98053002D01*
X55842331Y-98003796D01*
X55847400Y-98000001D01*
X75994390Y-98000001D01*
X76014804Y-98285433D01*
X76075628Y-98565037D01*
X76075630Y-98565043D01*
X76075631Y-98565046D01*
X76150210Y-98765000D01*
X76175635Y-98833166D01*
X76312770Y-99084309D01*
X76312775Y-99084317D01*
X76484254Y-99313387D01*
X76484270Y-99313405D01*
X76686594Y-99515729D01*
X76686612Y-99515745D01*
X76915682Y-99687224D01*
X76915690Y-99687229D01*
X77166833Y-99824364D01*
X77166832Y-99824364D01*
X77166836Y-99824365D01*
X77166839Y-99824367D01*
X77434954Y-99924369D01*
X77434960Y-99924370D01*
X77434962Y-99924371D01*
X77714566Y-99985195D01*
X77714568Y-99985195D01*
X77714572Y-99985196D01*
X77968220Y-100003337D01*
X77999999Y-100005610D01*
X78000000Y-100005610D01*
X78000001Y-100005610D01*
X78028595Y-100003564D01*
X78285428Y-99985196D01*
X78481341Y-99942578D01*
X78565037Y-99924371D01*
X78565037Y-99924370D01*
X78565046Y-99924369D01*
X78833161Y-99824367D01*
X79084315Y-99687226D01*
X79313395Y-99515739D01*
X79515739Y-99313395D01*
X79687226Y-99084315D01*
X79824367Y-98833161D01*
X79924369Y-98565046D01*
X79985196Y-98285428D01*
X80002034Y-98050001D01*
X88044390Y-98050001D01*
X88064804Y-98335433D01*
X88125628Y-98615037D01*
X88125630Y-98615043D01*
X88125631Y-98615046D01*
X88187275Y-98780320D01*
X88225635Y-98883166D01*
X88362770Y-99134309D01*
X88362775Y-99134317D01*
X88534254Y-99363387D01*
X88534270Y-99363405D01*
X88736594Y-99565729D01*
X88736612Y-99565745D01*
X88965682Y-99737224D01*
X88965690Y-99737229D01*
X89216833Y-99874364D01*
X89216832Y-99874364D01*
X89216836Y-99874365D01*
X89216839Y-99874367D01*
X89484954Y-99974369D01*
X89484960Y-99974370D01*
X89484962Y-99974371D01*
X89764566Y-100035195D01*
X89764568Y-100035195D01*
X89764572Y-100035196D01*
X90018220Y-100053337D01*
X90049999Y-100055610D01*
X90050000Y-100055610D01*
X90050001Y-100055610D01*
X90078595Y-100053564D01*
X90335428Y-100035196D01*
X90526597Y-99993610D01*
X90615037Y-99974371D01*
X90615037Y-99974370D01*
X90615046Y-99974369D01*
X90883161Y-99874367D01*
X91134315Y-99737226D01*
X91363395Y-99565739D01*
X91556264Y-99372870D01*
X99649500Y-99372870D01*
X99649501Y-99372876D01*
X99655908Y-99432483D01*
X99706202Y-99567328D01*
X99706206Y-99567335D01*
X99792452Y-99682544D01*
X99792455Y-99682547D01*
X99907664Y-99768793D01*
X99907671Y-99768797D01*
X99907674Y-99768798D01*
X100039598Y-99818002D01*
X100095531Y-99859873D01*
X100119949Y-99925337D01*
X100105098Y-99993610D01*
X100083947Y-100021865D01*
X99961886Y-100143926D01*
X99826400Y-100337420D01*
X99826399Y-100337422D01*
X99726570Y-100551507D01*
X99726565Y-100551518D01*
X99709556Y-100614999D01*
X99709557Y-100615000D01*
X100698103Y-100615000D01*
X100618239Y-100684202D01*
X100540507Y-100805156D01*
X100500000Y-100943111D01*
X100500000Y-101086889D01*
X100540507Y-101224844D01*
X100618239Y-101345798D01*
X100726900Y-101439952D01*
X100857685Y-101499680D01*
X100964237Y-101515000D01*
X101035763Y-101515000D01*
X101142315Y-101499680D01*
X101273100Y-101439952D01*
X101301897Y-101415000D01*
X101400000Y-101415000D01*
X101400000Y-102305443D01*
X101463481Y-102288434D01*
X101463492Y-102288429D01*
X101677578Y-102188600D01*
X101871082Y-102053105D01*
X102038105Y-101886082D01*
X102173600Y-101692578D01*
X102273429Y-101478492D01*
X102273434Y-101478481D01*
X102290443Y-101415000D01*
X101400000Y-101415000D01*
X101301897Y-101415000D01*
X101381761Y-101345798D01*
X101459493Y-101224844D01*
X101500000Y-101086889D01*
X101500000Y-100943111D01*
X101459493Y-100805156D01*
X101381761Y-100684202D01*
X101301897Y-100615000D01*
X102290443Y-100615000D01*
X102290443Y-100614999D01*
X102273434Y-100551518D01*
X102273429Y-100551507D01*
X102173600Y-100337422D01*
X102173599Y-100337420D01*
X102038113Y-100143926D01*
X102038108Y-100143920D01*
X101916053Y-100021865D01*
X101882568Y-99960542D01*
X101887552Y-99890850D01*
X101929424Y-99834917D01*
X101960400Y-99818002D01*
X102092331Y-99768796D01*
X102207546Y-99682546D01*
X102293796Y-99567331D01*
X102344091Y-99432483D01*
X102350500Y-99372873D01*
X102350499Y-97577128D01*
X102344091Y-97517517D01*
X102332904Y-97487524D01*
X102293797Y-97382671D01*
X102293793Y-97382664D01*
X102207547Y-97267455D01*
X102207544Y-97267452D01*
X102092335Y-97181206D01*
X102092328Y-97181202D01*
X101957482Y-97130908D01*
X101957483Y-97130908D01*
X101897883Y-97124501D01*
X101897881Y-97124500D01*
X101897873Y-97124500D01*
X101897864Y-97124500D01*
X100102129Y-97124500D01*
X100102123Y-97124501D01*
X100042516Y-97130908D01*
X99907671Y-97181202D01*
X99907664Y-97181206D01*
X99792455Y-97267452D01*
X99792452Y-97267455D01*
X99706206Y-97382664D01*
X99706202Y-97382671D01*
X99655908Y-97517517D01*
X99651051Y-97562702D01*
X99649501Y-97577123D01*
X99649500Y-97577135D01*
X99649500Y-99372870D01*
X91556264Y-99372870D01*
X91565739Y-99363395D01*
X91737226Y-99134315D01*
X91874367Y-98883161D01*
X91974369Y-98615046D01*
X92035196Y-98335428D01*
X92055610Y-98050000D01*
X92035196Y-97764572D01*
X92014075Y-97667482D01*
X91974371Y-97484962D01*
X91974370Y-97484960D01*
X91974369Y-97484954D01*
X91874367Y-97216839D01*
X91827504Y-97131017D01*
X91737229Y-96965690D01*
X91737224Y-96965682D01*
X91565745Y-96736612D01*
X91565729Y-96736594D01*
X91363405Y-96534270D01*
X91363387Y-96534254D01*
X91134317Y-96362775D01*
X91134309Y-96362770D01*
X90883166Y-96225635D01*
X90883167Y-96225635D01*
X90775915Y-96185632D01*
X90615046Y-96125631D01*
X90615043Y-96125630D01*
X90615037Y-96125628D01*
X90335433Y-96064804D01*
X90050001Y-96044390D01*
X90049999Y-96044390D01*
X89764566Y-96064804D01*
X89484962Y-96125628D01*
X89216833Y-96225635D01*
X88965690Y-96362770D01*
X88965682Y-96362775D01*
X88736612Y-96534254D01*
X88736594Y-96534270D01*
X88534270Y-96736594D01*
X88534254Y-96736612D01*
X88362775Y-96965682D01*
X88362770Y-96965690D01*
X88225635Y-97216833D01*
X88125628Y-97484962D01*
X88064804Y-97764566D01*
X88044390Y-98049998D01*
X88044390Y-98050001D01*
X80002034Y-98050001D01*
X80005610Y-98000000D01*
X79985196Y-97714572D01*
X79978191Y-97682372D01*
X79924371Y-97434962D01*
X79924370Y-97434960D01*
X79924369Y-97434954D01*
X79824367Y-97166839D01*
X79807103Y-97135223D01*
X79687229Y-96915690D01*
X79687224Y-96915682D01*
X79515745Y-96686612D01*
X79515729Y-96686594D01*
X79313405Y-96484270D01*
X79313387Y-96484254D01*
X79084317Y-96312775D01*
X79084309Y-96312770D01*
X78833166Y-96175635D01*
X78833167Y-96175635D01*
X78699377Y-96125734D01*
X78565046Y-96075631D01*
X78565043Y-96075630D01*
X78565037Y-96075628D01*
X78285433Y-96014804D01*
X78000001Y-95994390D01*
X77999999Y-95994390D01*
X77714566Y-96014804D01*
X77434962Y-96075628D01*
X77166833Y-96175635D01*
X76915690Y-96312770D01*
X76915682Y-96312775D01*
X76686612Y-96484254D01*
X76686594Y-96484270D01*
X76484270Y-96686594D01*
X76484254Y-96686612D01*
X76312775Y-96915682D01*
X76312770Y-96915690D01*
X76175635Y-97166833D01*
X76075628Y-97434962D01*
X76014804Y-97714566D01*
X75994390Y-97999998D01*
X75994390Y-98000001D01*
X55847400Y-98000001D01*
X55957546Y-97917546D01*
X56043796Y-97802331D01*
X56094091Y-97667483D01*
X56100500Y-97607873D01*
X56100499Y-95812128D01*
X56095299Y-95763757D01*
X56094091Y-95752516D01*
X56043797Y-95617671D01*
X56043793Y-95617664D01*
X55957547Y-95502455D01*
X55957544Y-95502452D01*
X55842335Y-95416206D01*
X55842328Y-95416202D01*
X55707482Y-95365908D01*
X55707483Y-95365908D01*
X55647883Y-95359501D01*
X55647881Y-95359500D01*
X55647873Y-95359500D01*
X55647864Y-95359500D01*
X53852129Y-95359500D01*
X53852123Y-95359501D01*
X53792516Y-95365908D01*
X53657671Y-95416202D01*
X53657664Y-95416206D01*
X53542455Y-95502452D01*
X53542452Y-95502455D01*
X53456206Y-95617664D01*
X53456202Y-95617671D01*
X53405908Y-95752517D01*
X53399501Y-95812116D01*
X53399501Y-95812123D01*
X53399500Y-95812135D01*
X53399500Y-97607870D01*
X51100000Y-97607870D01*
X51100000Y-97125000D01*
X50150000Y-97125000D01*
X50051897Y-97125000D01*
X50131761Y-97055798D01*
X50209493Y-96934844D01*
X50250000Y-96796889D01*
X50250000Y-96653111D01*
X50209493Y-96515156D01*
X50131761Y-96394202D01*
X50023100Y-96300048D01*
X49892315Y-96240320D01*
X49785763Y-96225000D01*
X49714237Y-96225000D01*
X49607685Y-96240320D01*
X49476900Y-96300048D01*
X49368239Y-96394202D01*
X49290507Y-96515156D01*
X49250000Y-96653111D01*
X49250000Y-96796889D01*
X29888777Y-96796889D01*
X29930466Y-96728859D01*
X29968157Y-96637863D01*
X29970165Y-96633508D01*
X29980493Y-96613240D01*
X29987524Y-96591599D01*
X29989188Y-96587090D01*
X30026873Y-96496111D01*
X30049862Y-96400351D01*
X30051164Y-96395737D01*
X30058198Y-96374090D01*
X30061755Y-96351627D01*
X30062695Y-96346897D01*
X30067952Y-96325000D01*
X48400000Y-96325000D01*
X49350000Y-96325000D01*
X49350000Y-95375000D01*
X50150000Y-95375000D01*
X50150000Y-96325000D01*
X51100000Y-96325000D01*
X51100000Y-95827172D01*
X51099999Y-95827155D01*
X51093598Y-95767627D01*
X51093596Y-95767620D01*
X51043354Y-95632913D01*
X51043350Y-95632906D01*
X50957190Y-95517812D01*
X50957187Y-95517809D01*
X50842093Y-95431649D01*
X50842086Y-95431645D01*
X50707379Y-95381403D01*
X50707372Y-95381401D01*
X50647844Y-95375000D01*
X50150000Y-95375000D01*
X49350000Y-95375000D01*
X48852155Y-95375000D01*
X48792627Y-95381401D01*
X48792620Y-95381403D01*
X48657913Y-95431645D01*
X48657906Y-95431649D01*
X48542812Y-95517809D01*
X48542809Y-95517812D01*
X48456649Y-95632906D01*
X48456645Y-95632913D01*
X48406403Y-95767620D01*
X48406401Y-95767627D01*
X48400000Y-95827155D01*
X48400000Y-96325000D01*
X30067952Y-96325000D01*
X30085683Y-96251148D01*
X30093409Y-96152978D01*
X30093974Y-96148201D01*
X30097534Y-96125729D01*
X30098155Y-96094043D01*
X30098334Y-96090401D01*
X30098377Y-96089851D01*
X30105449Y-96000000D01*
X30098333Y-95909593D01*
X30098155Y-95905946D01*
X30097979Y-95896990D01*
X30097534Y-95874271D01*
X30093974Y-95851798D01*
X30093409Y-95847021D01*
X30085683Y-95748852D01*
X30062696Y-95653107D01*
X30061753Y-95648357D01*
X30058198Y-95625913D01*
X30058198Y-95625911D01*
X30058195Y-95625903D01*
X30051172Y-95604289D01*
X30049857Y-95599627D01*
X30026873Y-95503889D01*
X29989194Y-95412923D01*
X29987517Y-95408380D01*
X29980493Y-95386760D01*
X29970178Y-95366515D01*
X29968139Y-95362093D01*
X29967065Y-95359501D01*
X29930466Y-95271141D01*
X29879014Y-95187179D01*
X29876649Y-95182955D01*
X29866334Y-95162710D01*
X29858039Y-95151293D01*
X29852977Y-95144325D01*
X29850272Y-95140277D01*
X29798839Y-95056345D01*
X29798838Y-95056344D01*
X29798837Y-95056343D01*
X29798836Y-95056341D01*
X29734891Y-94981471D01*
X29731891Y-94977665D01*
X29718531Y-94959276D01*
X29702453Y-94943198D01*
X29699163Y-94939639D01*
X29635224Y-94864776D01*
X29560355Y-94800832D01*
X29556799Y-94797544D01*
X29540724Y-94781469D01*
X29522332Y-94768107D01*
X29518511Y-94765094D01*
X29443667Y-94701171D01*
X29443659Y-94701164D01*
X29443654Y-94701161D01*
X29443653Y-94701160D01*
X29359714Y-94649722D01*
X29355667Y-94647017D01*
X29337292Y-94633667D01*
X29337290Y-94633666D01*
X29330882Y-94630401D01*
X29317048Y-94623351D01*
X29312803Y-94620973D01*
X29228857Y-94569532D01*
X29157558Y-94539999D01*
X38154551Y-94539999D01*
X38162275Y-94638142D01*
X38162466Y-94643008D01*
X38162466Y-94665734D01*
X38166019Y-94688167D01*
X38166592Y-94693002D01*
X38170603Y-94743959D01*
X38174317Y-94791148D01*
X38174317Y-94791151D01*
X38174318Y-94791153D01*
X38197296Y-94886867D01*
X38198246Y-94891642D01*
X38201801Y-94914090D01*
X38208824Y-94935705D01*
X38210146Y-94940390D01*
X38233127Y-95036114D01*
X38270797Y-95127057D01*
X38272482Y-95131623D01*
X38276610Y-95144325D01*
X38279507Y-95153240D01*
X38279508Y-95153243D01*
X38279509Y-95153244D01*
X38289821Y-95173484D01*
X38291858Y-95177904D01*
X38329532Y-95268857D01*
X38380973Y-95352803D01*
X38383351Y-95357048D01*
X38390514Y-95371104D01*
X38393666Y-95377290D01*
X38393667Y-95377292D01*
X38407017Y-95395667D01*
X38409722Y-95399714D01*
X38459021Y-95480163D01*
X38461164Y-95483659D01*
X38490333Y-95517812D01*
X38525094Y-95558511D01*
X38528107Y-95562332D01*
X38541469Y-95580724D01*
X38557547Y-95596802D01*
X38560832Y-95600355D01*
X38624776Y-95675224D01*
X38699639Y-95739163D01*
X38703202Y-95742457D01*
X38719276Y-95758531D01*
X38731796Y-95767627D01*
X38737665Y-95771891D01*
X38741471Y-95774891D01*
X38816341Y-95838836D01*
X38816343Y-95838837D01*
X38816344Y-95838838D01*
X38816345Y-95838839D01*
X38900277Y-95890272D01*
X38904325Y-95892977D01*
X38904335Y-95892984D01*
X38922710Y-95906334D01*
X38942961Y-95916652D01*
X38947179Y-95919014D01*
X39031141Y-95970466D01*
X39031143Y-95970466D01*
X39031145Y-95970468D01*
X39041575Y-95974788D01*
X39122101Y-96008142D01*
X39126515Y-96010178D01*
X39134608Y-96014301D01*
X39146760Y-96020493D01*
X39168380Y-96027517D01*
X39172923Y-96029194D01*
X39263889Y-96066873D01*
X39359627Y-96089857D01*
X39364289Y-96091172D01*
X39385910Y-96098198D01*
X39385911Y-96098198D01*
X39385914Y-96098199D01*
X39394646Y-96099581D01*
X39408367Y-96101754D01*
X39413107Y-96102696D01*
X39508852Y-96125683D01*
X39607024Y-96133409D01*
X39611795Y-96133974D01*
X39634271Y-96137534D01*
X39634275Y-96137534D01*
X39656992Y-96137534D01*
X39661858Y-96137725D01*
X39760000Y-96145449D01*
X39858142Y-96137725D01*
X39863008Y-96137534D01*
X39885725Y-96137534D01*
X39885729Y-96137534D01*
X39908204Y-96133974D01*
X39912975Y-96133409D01*
X40011148Y-96125683D01*
X40106897Y-96102695D01*
X40111627Y-96101755D01*
X40134090Y-96098198D01*
X40155737Y-96091164D01*
X40160351Y-96089862D01*
X40256111Y-96066873D01*
X40347090Y-96029188D01*
X40351599Y-96027524D01*
X40373240Y-96020493D01*
X40393508Y-96010165D01*
X40397863Y-96008157D01*
X40488859Y-95970466D01*
X40572833Y-95919006D01*
X40577018Y-95916662D01*
X40597290Y-95906334D01*
X40615684Y-95892969D01*
X40619707Y-95890281D01*
X40703659Y-95838836D01*
X40778547Y-95774875D01*
X40782314Y-95771906D01*
X40800724Y-95758531D01*
X40816819Y-95742435D01*
X40820347Y-95739174D01*
X40895224Y-95675224D01*
X40959174Y-95600347D01*
X40962435Y-95596819D01*
X40978531Y-95580724D01*
X40991906Y-95562314D01*
X40994875Y-95558547D01*
X41058836Y-95483659D01*
X41110281Y-95399707D01*
X41112969Y-95395684D01*
X41126334Y-95377290D01*
X41136662Y-95357018D01*
X41139006Y-95352833D01*
X41190466Y-95268859D01*
X41228157Y-95177863D01*
X41230165Y-95173508D01*
X41240493Y-95153240D01*
X41247524Y-95131599D01*
X41249188Y-95127090D01*
X41286873Y-95036111D01*
X41309862Y-94940351D01*
X41311164Y-94935737D01*
X41318198Y-94914090D01*
X41321755Y-94891627D01*
X41322695Y-94886897D01*
X41345683Y-94791148D01*
X41353409Y-94692978D01*
X41353974Y-94688201D01*
X41357534Y-94665729D01*
X41358155Y-94634043D01*
X41358334Y-94630401D01*
X41362707Y-94574835D01*
X41365449Y-94540000D01*
X41365449Y-94539999D01*
X126274551Y-94539999D01*
X126282275Y-94638142D01*
X126282466Y-94643008D01*
X126282466Y-94665734D01*
X126286019Y-94688167D01*
X126286592Y-94693002D01*
X126290603Y-94743959D01*
X126294317Y-94791148D01*
X126294317Y-94791151D01*
X126294318Y-94791153D01*
X126317296Y-94886867D01*
X126318246Y-94891642D01*
X126321801Y-94914090D01*
X126328824Y-94935705D01*
X126330146Y-94940390D01*
X126353127Y-95036114D01*
X126390797Y-95127057D01*
X126392482Y-95131623D01*
X126396610Y-95144325D01*
X126399507Y-95153240D01*
X126399508Y-95153243D01*
X126399509Y-95153244D01*
X126409821Y-95173484D01*
X126411858Y-95177904D01*
X126449532Y-95268857D01*
X126500973Y-95352803D01*
X126503351Y-95357048D01*
X126510514Y-95371104D01*
X126513666Y-95377290D01*
X126513667Y-95377292D01*
X126527017Y-95395667D01*
X126529722Y-95399714D01*
X126579021Y-95480163D01*
X126581164Y-95483659D01*
X126610333Y-95517812D01*
X126645094Y-95558511D01*
X126648107Y-95562332D01*
X126661469Y-95580724D01*
X126677547Y-95596802D01*
X126680832Y-95600355D01*
X126744776Y-95675224D01*
X126819639Y-95739163D01*
X126823202Y-95742457D01*
X126839276Y-95758531D01*
X126851796Y-95767627D01*
X126857665Y-95771891D01*
X126861471Y-95774891D01*
X126936341Y-95838836D01*
X126936343Y-95838837D01*
X126936344Y-95838838D01*
X126936345Y-95838839D01*
X127020277Y-95890272D01*
X127024325Y-95892977D01*
X127024335Y-95892984D01*
X127042710Y-95906334D01*
X127062961Y-95916652D01*
X127067179Y-95919014D01*
X127151141Y-95970466D01*
X127151143Y-95970466D01*
X127151145Y-95970468D01*
X127161575Y-95974788D01*
X127242101Y-96008142D01*
X127246515Y-96010178D01*
X127254608Y-96014301D01*
X127266760Y-96020493D01*
X127288380Y-96027517D01*
X127292923Y-96029194D01*
X127383889Y-96066873D01*
X127479627Y-96089857D01*
X127484289Y-96091172D01*
X127505910Y-96098198D01*
X127505911Y-96098198D01*
X127505914Y-96098199D01*
X127514646Y-96099581D01*
X127528367Y-96101754D01*
X127533107Y-96102696D01*
X127628852Y-96125683D01*
X127727024Y-96133409D01*
X127731795Y-96133974D01*
X127754271Y-96137534D01*
X127754275Y-96137534D01*
X127776992Y-96137534D01*
X127781858Y-96137725D01*
X127880000Y-96145449D01*
X127978142Y-96137725D01*
X127983008Y-96137534D01*
X128005725Y-96137534D01*
X128005729Y-96137534D01*
X128028204Y-96133974D01*
X128032975Y-96133409D01*
X128131148Y-96125683D01*
X128226897Y-96102695D01*
X128231627Y-96101755D01*
X128254090Y-96098198D01*
X128275737Y-96091164D01*
X128280351Y-96089862D01*
X128376111Y-96066873D01*
X128467090Y-96029188D01*
X128471599Y-96027524D01*
X128493240Y-96020493D01*
X128513508Y-96010165D01*
X128517863Y-96008157D01*
X128537556Y-96000000D01*
X137394551Y-96000000D01*
X137396164Y-96020493D01*
X137402275Y-96098142D01*
X137402466Y-96103008D01*
X137402466Y-96125734D01*
X137406019Y-96148167D01*
X137406592Y-96153002D01*
X137408374Y-96175635D01*
X137414317Y-96251148D01*
X137414317Y-96251151D01*
X137414318Y-96251153D01*
X137437296Y-96346867D01*
X137438246Y-96351642D01*
X137441801Y-96374090D01*
X137448824Y-96395705D01*
X137450146Y-96400390D01*
X137473127Y-96496114D01*
X137510797Y-96587057D01*
X137512482Y-96591623D01*
X137518170Y-96609126D01*
X137519507Y-96613240D01*
X137519508Y-96613243D01*
X137519509Y-96613244D01*
X137529821Y-96633484D01*
X137531858Y-96637904D01*
X137569532Y-96728857D01*
X137620973Y-96812803D01*
X137623351Y-96817048D01*
X137630514Y-96831104D01*
X137633666Y-96837290D01*
X137633667Y-96837292D01*
X137647017Y-96855667D01*
X137649722Y-96859714D01*
X137699021Y-96940163D01*
X137701164Y-96943659D01*
X137719973Y-96965682D01*
X137765094Y-97018511D01*
X137768107Y-97022332D01*
X137781469Y-97040724D01*
X137797547Y-97056802D01*
X137800832Y-97060355D01*
X137864776Y-97135224D01*
X137939639Y-97199163D01*
X137943202Y-97202457D01*
X137959276Y-97218531D01*
X137977654Y-97231883D01*
X137977665Y-97231891D01*
X137981471Y-97234891D01*
X138056341Y-97298836D01*
X138056343Y-97298837D01*
X138056344Y-97298838D01*
X138056345Y-97298839D01*
X138140277Y-97350272D01*
X138144325Y-97352977D01*
X138144335Y-97352984D01*
X138162710Y-97366334D01*
X138182961Y-97376652D01*
X138187179Y-97379014D01*
X138271141Y-97430466D01*
X138271143Y-97430466D01*
X138271145Y-97430468D01*
X138281995Y-97434962D01*
X138362101Y-97468142D01*
X138366515Y-97470178D01*
X138374608Y-97474301D01*
X138386760Y-97480493D01*
X138408380Y-97487517D01*
X138412923Y-97489194D01*
X138503889Y-97526873D01*
X138599627Y-97549857D01*
X138604289Y-97551172D01*
X138625910Y-97558198D01*
X138625911Y-97558198D01*
X138625914Y-97558199D01*
X138634646Y-97559581D01*
X138648367Y-97561754D01*
X138653107Y-97562696D01*
X138748852Y-97585683D01*
X138847024Y-97593409D01*
X138851795Y-97593974D01*
X138874271Y-97597534D01*
X138874275Y-97597534D01*
X138896992Y-97597534D01*
X138901858Y-97597725D01*
X139000000Y-97605449D01*
X139098142Y-97597725D01*
X139103008Y-97597534D01*
X139125725Y-97597534D01*
X139125729Y-97597534D01*
X139148204Y-97593974D01*
X139152975Y-97593409D01*
X139251148Y-97585683D01*
X139346897Y-97562695D01*
X139351627Y-97561755D01*
X139374090Y-97558198D01*
X139395737Y-97551164D01*
X139400351Y-97549862D01*
X139496111Y-97526873D01*
X139587090Y-97489188D01*
X139591599Y-97487524D01*
X139613240Y-97480493D01*
X139633508Y-97470165D01*
X139637863Y-97468157D01*
X139728859Y-97430466D01*
X139812833Y-97379006D01*
X139817018Y-97376662D01*
X139837290Y-97366334D01*
X139855684Y-97352969D01*
X139859707Y-97350281D01*
X139943659Y-97298836D01*
X140018547Y-97234875D01*
X140022314Y-97231906D01*
X140040724Y-97218531D01*
X140056819Y-97202435D01*
X140060347Y-97199174D01*
X140135224Y-97135224D01*
X140199174Y-97060347D01*
X140202435Y-97056819D01*
X140218531Y-97040724D01*
X140231906Y-97022314D01*
X140234875Y-97018547D01*
X140298836Y-96943659D01*
X140350281Y-96859707D01*
X140352969Y-96855684D01*
X140366334Y-96837290D01*
X140376662Y-96817018D01*
X140379006Y-96812833D01*
X140430466Y-96728859D01*
X140468157Y-96637863D01*
X140470165Y-96633508D01*
X140480493Y-96613240D01*
X140487524Y-96591599D01*
X140489188Y-96587090D01*
X140526873Y-96496111D01*
X140549862Y-96400351D01*
X140551164Y-96395737D01*
X140558198Y-96374090D01*
X140561755Y-96351627D01*
X140562695Y-96346897D01*
X140585683Y-96251148D01*
X140593409Y-96152978D01*
X140593974Y-96148201D01*
X140597534Y-96125729D01*
X140598155Y-96094043D01*
X140598334Y-96090401D01*
X140598377Y-96089851D01*
X140605449Y-96000000D01*
X140598333Y-95909593D01*
X140598155Y-95905946D01*
X140597979Y-95896990D01*
X140597534Y-95874271D01*
X140593974Y-95851798D01*
X140593409Y-95847021D01*
X140585683Y-95748852D01*
X140562696Y-95653107D01*
X140561753Y-95648357D01*
X140558198Y-95625913D01*
X140558198Y-95625911D01*
X140558195Y-95625903D01*
X140551172Y-95604289D01*
X140549857Y-95599627D01*
X140526873Y-95503889D01*
X140489194Y-95412923D01*
X140487517Y-95408380D01*
X140480493Y-95386760D01*
X140470178Y-95366515D01*
X140468139Y-95362093D01*
X140467065Y-95359501D01*
X140430466Y-95271141D01*
X140379014Y-95187179D01*
X140376649Y-95182955D01*
X140366334Y-95162710D01*
X140358039Y-95151293D01*
X140352977Y-95144325D01*
X140350272Y-95140277D01*
X140298839Y-95056345D01*
X140298838Y-95056344D01*
X140298837Y-95056343D01*
X140298836Y-95056341D01*
X140234891Y-94981471D01*
X140231891Y-94977665D01*
X140218531Y-94959276D01*
X140202453Y-94943198D01*
X140199163Y-94939639D01*
X140135224Y-94864776D01*
X140060355Y-94800832D01*
X140056799Y-94797544D01*
X140040724Y-94781469D01*
X140022332Y-94768107D01*
X140018511Y-94765094D01*
X139943667Y-94701171D01*
X139943659Y-94701164D01*
X139943654Y-94701161D01*
X139943653Y-94701160D01*
X139859714Y-94649722D01*
X139855667Y-94647017D01*
X139837292Y-94633667D01*
X139837290Y-94633666D01*
X139830882Y-94630401D01*
X139817048Y-94623351D01*
X139812803Y-94620973D01*
X139728857Y-94569532D01*
X139637904Y-94531858D01*
X139633484Y-94529821D01*
X139613244Y-94519509D01*
X139613243Y-94519508D01*
X139613240Y-94519507D01*
X139609126Y-94518170D01*
X139591623Y-94512482D01*
X139587057Y-94510797D01*
X139496114Y-94473127D01*
X139400390Y-94450146D01*
X139395705Y-94448824D01*
X139374090Y-94441801D01*
X139351642Y-94438246D01*
X139346867Y-94437296D01*
X139251152Y-94414318D01*
X139251153Y-94414318D01*
X139251151Y-94414317D01*
X139251148Y-94414317D01*
X139203959Y-94410603D01*
X139153002Y-94406592D01*
X139148167Y-94406019D01*
X139125734Y-94402466D01*
X139125729Y-94402466D01*
X139103008Y-94402466D01*
X139098142Y-94402275D01*
X139000000Y-94394551D01*
X138901858Y-94402275D01*
X138896992Y-94402466D01*
X138874271Y-94402466D01*
X138851833Y-94406019D01*
X138846998Y-94406592D01*
X138748851Y-94414317D01*
X138748844Y-94414318D01*
X138653132Y-94437296D01*
X138648357Y-94438246D01*
X138625913Y-94441801D01*
X138625903Y-94441803D01*
X138604299Y-94448823D01*
X138599612Y-94450145D01*
X138503891Y-94473125D01*
X138412938Y-94510799D01*
X138408373Y-94512483D01*
X138386757Y-94519507D01*
X138366515Y-94529820D01*
X138362098Y-94531856D01*
X138271141Y-94569534D01*
X138187201Y-94620970D01*
X138182958Y-94623347D01*
X138162716Y-94633662D01*
X138162708Y-94633667D01*
X138144330Y-94647018D01*
X138140286Y-94649720D01*
X138056339Y-94701165D01*
X137981482Y-94765098D01*
X137977660Y-94768111D01*
X137959276Y-94781469D01*
X137943198Y-94797544D01*
X137939626Y-94800846D01*
X137864775Y-94864775D01*
X137800846Y-94939626D01*
X137797544Y-94943198D01*
X137781469Y-94959276D01*
X137768111Y-94977660D01*
X137765098Y-94981482D01*
X137701165Y-95056339D01*
X137649720Y-95140286D01*
X137647018Y-95144330D01*
X137633667Y-95162708D01*
X137633662Y-95162716D01*
X137623347Y-95182958D01*
X137620970Y-95187201D01*
X137569534Y-95271141D01*
X137531856Y-95362098D01*
X137529820Y-95366515D01*
X137519507Y-95386757D01*
X137512483Y-95408373D01*
X137510799Y-95412938D01*
X137473125Y-95503891D01*
X137450145Y-95599612D01*
X137448823Y-95604299D01*
X137441803Y-95625903D01*
X137441801Y-95625913D01*
X137438246Y-95648357D01*
X137437296Y-95653132D01*
X137414318Y-95748844D01*
X137414317Y-95748851D01*
X137406592Y-95846998D01*
X137406019Y-95851833D01*
X137402466Y-95874270D01*
X137402466Y-95896990D01*
X137402275Y-95901856D01*
X137394567Y-95999792D01*
X137394551Y-96000000D01*
X128537556Y-96000000D01*
X128608859Y-95970466D01*
X128692833Y-95919006D01*
X128697018Y-95916662D01*
X128717290Y-95906334D01*
X128735684Y-95892969D01*
X128739707Y-95890281D01*
X128823659Y-95838836D01*
X128898547Y-95774875D01*
X128902314Y-95771906D01*
X128920724Y-95758531D01*
X128936819Y-95742435D01*
X128940347Y-95739174D01*
X129015224Y-95675224D01*
X129079174Y-95600347D01*
X129082435Y-95596819D01*
X129098531Y-95580724D01*
X129111906Y-95562314D01*
X129114875Y-95558547D01*
X129178836Y-95483659D01*
X129230281Y-95399707D01*
X129232969Y-95395684D01*
X129246334Y-95377290D01*
X129256662Y-95357018D01*
X129259006Y-95352833D01*
X129310466Y-95268859D01*
X129348157Y-95177863D01*
X129350165Y-95173508D01*
X129360493Y-95153240D01*
X129367524Y-95131599D01*
X129369188Y-95127090D01*
X129406873Y-95036111D01*
X129429862Y-94940351D01*
X129431164Y-94935737D01*
X129438198Y-94914090D01*
X129441755Y-94891627D01*
X129442695Y-94886897D01*
X129465683Y-94791148D01*
X129473409Y-94692978D01*
X129473974Y-94688201D01*
X129477534Y-94665729D01*
X129478155Y-94634043D01*
X129478334Y-94630401D01*
X129482707Y-94574835D01*
X129485449Y-94540000D01*
X129478333Y-94449593D01*
X129478155Y-94445946D01*
X129477985Y-94437296D01*
X129477534Y-94414271D01*
X129473974Y-94391798D01*
X129473409Y-94387021D01*
X129465683Y-94288852D01*
X129442696Y-94193107D01*
X129441753Y-94188357D01*
X129438198Y-94165913D01*
X129438198Y-94165911D01*
X129438195Y-94165903D01*
X129431172Y-94144289D01*
X129429857Y-94139627D01*
X129406873Y-94043889D01*
X129369194Y-93952923D01*
X129367517Y-93948380D01*
X129360493Y-93926760D01*
X129350178Y-93906515D01*
X129348139Y-93902093D01*
X129310468Y-93811145D01*
X129310466Y-93811141D01*
X129259014Y-93727179D01*
X129256649Y-93722955D01*
X129246337Y-93702716D01*
X129246334Y-93702710D01*
X129238039Y-93691293D01*
X129232977Y-93684325D01*
X129230272Y-93680277D01*
X129178839Y-93596345D01*
X129178838Y-93596344D01*
X129178837Y-93596343D01*
X129178836Y-93596341D01*
X129114891Y-93521471D01*
X129111891Y-93517665D01*
X129098531Y-93499276D01*
X129082453Y-93483198D01*
X129079163Y-93479639D01*
X129015224Y-93404776D01*
X128940355Y-93340832D01*
X128936799Y-93337544D01*
X128920724Y-93321469D01*
X128902332Y-93308107D01*
X128898511Y-93305094D01*
X128823667Y-93241171D01*
X128823659Y-93241164D01*
X128823654Y-93241161D01*
X128823653Y-93241160D01*
X128739714Y-93189722D01*
X128735667Y-93187017D01*
X128717292Y-93173667D01*
X128717290Y-93173666D01*
X128711104Y-93170514D01*
X128697048Y-93163351D01*
X128692803Y-93160973D01*
X128608857Y-93109532D01*
X128517904Y-93071858D01*
X128513484Y-93069821D01*
X128493244Y-93059509D01*
X128493243Y-93059508D01*
X128493240Y-93059507D01*
X128489126Y-93058170D01*
X128471623Y-93052482D01*
X128467057Y-93050797D01*
X128376114Y-93013127D01*
X128280390Y-92990146D01*
X128275705Y-92988824D01*
X128254090Y-92981801D01*
X128231642Y-92978246D01*
X128226867Y-92977296D01*
X128131152Y-92954318D01*
X128131153Y-92954318D01*
X128131151Y-92954317D01*
X128131148Y-92954317D01*
X128083959Y-92950603D01*
X128033002Y-92946592D01*
X128028167Y-92946019D01*
X128005734Y-92942466D01*
X128005729Y-92942466D01*
X127983008Y-92942466D01*
X127978142Y-92942275D01*
X127880000Y-92934551D01*
X127781858Y-92942275D01*
X127776992Y-92942466D01*
X127754271Y-92942466D01*
X127731833Y-92946019D01*
X127726998Y-92946592D01*
X127628851Y-92954317D01*
X127628844Y-92954318D01*
X127533132Y-92977296D01*
X127528357Y-92978246D01*
X127505913Y-92981801D01*
X127505903Y-92981803D01*
X127484299Y-92988823D01*
X127479612Y-92990145D01*
X127383891Y-93013125D01*
X127292938Y-93050799D01*
X127288373Y-93052483D01*
X127266757Y-93059507D01*
X127246515Y-93069820D01*
X127242098Y-93071856D01*
X127151141Y-93109534D01*
X127067201Y-93160970D01*
X127062958Y-93163347D01*
X127042716Y-93173662D01*
X127042708Y-93173667D01*
X127024330Y-93187018D01*
X127020286Y-93189720D01*
X126936339Y-93241165D01*
X126861482Y-93305098D01*
X126857660Y-93308111D01*
X126839276Y-93321469D01*
X126823198Y-93337544D01*
X126819626Y-93340846D01*
X126744775Y-93404775D01*
X126680846Y-93479626D01*
X126677544Y-93483198D01*
X126661469Y-93499276D01*
X126648111Y-93517660D01*
X126645098Y-93521482D01*
X126581165Y-93596339D01*
X126529720Y-93680286D01*
X126527018Y-93684330D01*
X126513667Y-93702708D01*
X126513662Y-93702716D01*
X126503347Y-93722958D01*
X126500970Y-93727201D01*
X126449534Y-93811141D01*
X126411856Y-93902098D01*
X126409820Y-93906515D01*
X126399507Y-93926757D01*
X126392483Y-93948373D01*
X126390799Y-93952938D01*
X126353125Y-94043891D01*
X126330145Y-94139612D01*
X126328823Y-94144299D01*
X126321803Y-94165903D01*
X126321801Y-94165913D01*
X126318246Y-94188357D01*
X126317296Y-94193132D01*
X126294318Y-94288844D01*
X126294317Y-94288851D01*
X126286592Y-94386998D01*
X126286019Y-94391833D01*
X126282466Y-94414270D01*
X126282466Y-94436990D01*
X126282275Y-94441856D01*
X126274551Y-94539999D01*
X41365449Y-94539999D01*
X41358333Y-94449593D01*
X41358155Y-94445946D01*
X41357985Y-94437296D01*
X41357534Y-94414271D01*
X41353974Y-94391798D01*
X41353409Y-94387021D01*
X41345683Y-94288852D01*
X41322696Y-94193107D01*
X41321753Y-94188357D01*
X41318198Y-94165913D01*
X41318198Y-94165911D01*
X41318195Y-94165903D01*
X41311172Y-94144289D01*
X41309857Y-94139627D01*
X41286873Y-94043889D01*
X41249194Y-93952923D01*
X41247517Y-93948380D01*
X41240493Y-93926760D01*
X41230178Y-93906515D01*
X41228139Y-93902093D01*
X41190468Y-93811145D01*
X41190466Y-93811141D01*
X41139014Y-93727179D01*
X41136649Y-93722955D01*
X41126337Y-93702716D01*
X41126334Y-93702710D01*
X41118039Y-93691293D01*
X41112977Y-93684325D01*
X41110272Y-93680277D01*
X41058839Y-93596345D01*
X41058838Y-93596344D01*
X41058837Y-93596343D01*
X41058836Y-93596341D01*
X40994891Y-93521471D01*
X40991891Y-93517665D01*
X40978531Y-93499276D01*
X40962453Y-93483198D01*
X40959163Y-93479639D01*
X40895224Y-93404776D01*
X40820355Y-93340832D01*
X40816799Y-93337544D01*
X40800724Y-93321469D01*
X40782332Y-93308107D01*
X40778511Y-93305094D01*
X40703667Y-93241171D01*
X40703659Y-93241164D01*
X40703654Y-93241161D01*
X40703653Y-93241160D01*
X40620169Y-93190001D01*
X71694532Y-93190001D01*
X71714364Y-93416686D01*
X71714366Y-93416697D01*
X71773258Y-93636488D01*
X71773261Y-93636497D01*
X71869431Y-93842732D01*
X71869432Y-93842734D01*
X71999954Y-94029141D01*
X72160858Y-94190045D01*
X72160861Y-94190047D01*
X72347266Y-94320568D01*
X72553504Y-94416739D01*
X72553509Y-94416740D01*
X72553511Y-94416741D01*
X72606415Y-94430916D01*
X72773308Y-94475635D01*
X72935230Y-94489801D01*
X72999998Y-94495468D01*
X73000000Y-94495468D01*
X73000002Y-94495468D01*
X73056673Y-94490509D01*
X73226692Y-94475635D01*
X73446496Y-94416739D01*
X73652734Y-94320568D01*
X73839139Y-94190047D01*
X74000047Y-94029139D01*
X74130568Y-93842734D01*
X74226739Y-93636496D01*
X74285635Y-93416692D01*
X74305468Y-93190000D01*
X74302928Y-93160973D01*
X74294954Y-93069821D01*
X74285635Y-92963308D01*
X74226739Y-92743504D01*
X74130568Y-92537266D01*
X74000047Y-92350861D01*
X74000045Y-92350858D01*
X73839141Y-92189954D01*
X73652734Y-92059432D01*
X73652732Y-92059431D01*
X73446497Y-91963261D01*
X73446488Y-91963258D01*
X73226697Y-91904366D01*
X73226693Y-91904365D01*
X73226692Y-91904365D01*
X73226691Y-91904364D01*
X73226686Y-91904364D01*
X73000002Y-91884532D01*
X72999998Y-91884532D01*
X72773313Y-91904364D01*
X72773302Y-91904366D01*
X72553511Y-91963258D01*
X72553502Y-91963261D01*
X72347267Y-92059431D01*
X72347265Y-92059432D01*
X72160858Y-92189954D01*
X71999954Y-92350858D01*
X71869432Y-92537265D01*
X71869431Y-92537267D01*
X71773261Y-92743502D01*
X71773258Y-92743511D01*
X71714366Y-92963302D01*
X71714364Y-92963313D01*
X71694532Y-93189998D01*
X71694532Y-93190001D01*
X40620169Y-93190001D01*
X40619714Y-93189722D01*
X40615667Y-93187017D01*
X40597292Y-93173667D01*
X40597290Y-93173666D01*
X40591104Y-93170514D01*
X40577048Y-93163351D01*
X40572803Y-93160973D01*
X40488857Y-93109532D01*
X40397904Y-93071858D01*
X40393484Y-93069821D01*
X40373244Y-93059509D01*
X40373243Y-93059508D01*
X40373240Y-93059507D01*
X40369126Y-93058170D01*
X40351623Y-93052482D01*
X40347057Y-93050797D01*
X40256114Y-93013127D01*
X40160390Y-92990146D01*
X40155705Y-92988824D01*
X40134090Y-92981801D01*
X40111642Y-92978246D01*
X40106867Y-92977296D01*
X40011152Y-92954318D01*
X40011153Y-92954318D01*
X40011151Y-92954317D01*
X40011148Y-92954317D01*
X39963959Y-92950603D01*
X39913002Y-92946592D01*
X39908167Y-92946019D01*
X39885734Y-92942466D01*
X39885729Y-92942466D01*
X39863008Y-92942466D01*
X39858142Y-92942275D01*
X39760000Y-92934551D01*
X39661858Y-92942275D01*
X39656992Y-92942466D01*
X39634271Y-92942466D01*
X39611833Y-92946019D01*
X39606998Y-92946592D01*
X39508851Y-92954317D01*
X39508844Y-92954318D01*
X39413132Y-92977296D01*
X39408357Y-92978246D01*
X39385913Y-92981801D01*
X39385903Y-92981803D01*
X39364299Y-92988823D01*
X39359612Y-92990145D01*
X39263891Y-93013125D01*
X39172938Y-93050799D01*
X39168373Y-93052483D01*
X39146757Y-93059507D01*
X39126515Y-93069820D01*
X39122098Y-93071856D01*
X39031141Y-93109534D01*
X38947201Y-93160970D01*
X38942958Y-93163347D01*
X38922716Y-93173662D01*
X38922708Y-93173667D01*
X38904330Y-93187018D01*
X38900286Y-93189720D01*
X38816339Y-93241165D01*
X38741482Y-93305098D01*
X38737660Y-93308111D01*
X38719276Y-93321469D01*
X38703198Y-93337544D01*
X38699626Y-93340846D01*
X38624775Y-93404775D01*
X38560846Y-93479626D01*
X38557544Y-93483198D01*
X38541469Y-93499276D01*
X38528111Y-93517660D01*
X38525098Y-93521482D01*
X38461165Y-93596339D01*
X38409720Y-93680286D01*
X38407018Y-93684330D01*
X38393667Y-93702708D01*
X38393662Y-93702716D01*
X38383347Y-93722958D01*
X38380970Y-93727201D01*
X38329534Y-93811141D01*
X38291856Y-93902098D01*
X38289820Y-93906515D01*
X38279507Y-93926757D01*
X38272483Y-93948373D01*
X38270799Y-93952938D01*
X38233125Y-94043891D01*
X38210145Y-94139612D01*
X38208823Y-94144299D01*
X38201803Y-94165903D01*
X38201801Y-94165913D01*
X38198246Y-94188357D01*
X38197296Y-94193132D01*
X38174318Y-94288844D01*
X38174317Y-94288851D01*
X38166592Y-94386998D01*
X38166019Y-94391833D01*
X38162466Y-94414270D01*
X38162466Y-94436990D01*
X38162275Y-94441856D01*
X38154551Y-94539999D01*
X29157558Y-94539999D01*
X29137904Y-94531858D01*
X29133484Y-94529821D01*
X29113244Y-94519509D01*
X29113243Y-94519508D01*
X29113240Y-94519507D01*
X29109126Y-94518170D01*
X29091623Y-94512482D01*
X29087057Y-94510797D01*
X28996114Y-94473127D01*
X28900390Y-94450146D01*
X28895705Y-94448824D01*
X28874090Y-94441801D01*
X28851642Y-94438246D01*
X28846867Y-94437296D01*
X28751152Y-94414318D01*
X28751153Y-94414318D01*
X28751151Y-94414317D01*
X28751148Y-94414317D01*
X28703959Y-94410603D01*
X28653002Y-94406592D01*
X28648167Y-94406019D01*
X28625734Y-94402466D01*
X28625729Y-94402466D01*
X28603008Y-94402466D01*
X28598142Y-94402275D01*
X28500000Y-94394551D01*
X28401858Y-94402275D01*
X28396992Y-94402466D01*
X28374271Y-94402466D01*
X28351833Y-94406019D01*
X28346998Y-94406592D01*
X28248851Y-94414317D01*
X28248844Y-94414318D01*
X28153132Y-94437296D01*
X28148357Y-94438246D01*
X28125913Y-94441801D01*
X28125903Y-94441803D01*
X28104299Y-94448823D01*
X28099612Y-94450145D01*
X28003891Y-94473125D01*
X27912938Y-94510799D01*
X27908373Y-94512483D01*
X27886757Y-94519507D01*
X27866515Y-94529820D01*
X27862098Y-94531856D01*
X27771141Y-94569534D01*
X27687201Y-94620970D01*
X27682958Y-94623347D01*
X27662716Y-94633662D01*
X27662708Y-94633667D01*
X27644330Y-94647018D01*
X27640286Y-94649720D01*
X27556339Y-94701165D01*
X27481482Y-94765098D01*
X27477660Y-94768111D01*
X27459276Y-94781469D01*
X27443198Y-94797544D01*
X27439626Y-94800846D01*
X27364775Y-94864775D01*
X27300846Y-94939626D01*
X27297544Y-94943198D01*
X27281469Y-94959276D01*
X27268111Y-94977660D01*
X27265098Y-94981482D01*
X27201165Y-95056339D01*
X27149720Y-95140286D01*
X27147018Y-95144330D01*
X27133667Y-95162708D01*
X27133662Y-95162716D01*
X27123347Y-95182958D01*
X27120970Y-95187201D01*
X27069534Y-95271141D01*
X27031856Y-95362098D01*
X27029820Y-95366515D01*
X27019507Y-95386757D01*
X27012483Y-95408373D01*
X27010799Y-95412938D01*
X26973125Y-95503891D01*
X26950145Y-95599612D01*
X26948823Y-95604299D01*
X26941803Y-95625903D01*
X26941801Y-95625913D01*
X26938246Y-95648357D01*
X26937296Y-95653132D01*
X26914318Y-95748844D01*
X26914317Y-95748851D01*
X26906592Y-95846998D01*
X26906019Y-95851833D01*
X26902466Y-95874270D01*
X26902466Y-95896990D01*
X26902275Y-95901856D01*
X26894567Y-95999792D01*
X26894551Y-96000000D01*
X20517101Y-96000000D01*
X20503334Y-95974788D01*
X20500500Y-95948430D01*
X20500500Y-87539999D01*
X66154551Y-87539999D01*
X66162275Y-87638142D01*
X66162466Y-87643008D01*
X66162466Y-87665734D01*
X66166019Y-87688167D01*
X66166592Y-87693002D01*
X66170603Y-87743959D01*
X66174317Y-87791148D01*
X66174317Y-87791151D01*
X66174318Y-87791153D01*
X66197296Y-87886867D01*
X66198246Y-87891642D01*
X66201801Y-87914090D01*
X66208824Y-87935705D01*
X66210146Y-87940390D01*
X66233127Y-88036114D01*
X66270797Y-88127057D01*
X66272482Y-88131623D01*
X66278170Y-88149126D01*
X66279507Y-88153240D01*
X66279508Y-88153243D01*
X66279509Y-88153244D01*
X66289821Y-88173484D01*
X66291858Y-88177904D01*
X66329532Y-88268857D01*
X66380973Y-88352803D01*
X66383351Y-88357048D01*
X66390514Y-88371104D01*
X66393666Y-88377290D01*
X66393667Y-88377292D01*
X66407017Y-88395667D01*
X66409722Y-88399714D01*
X66459021Y-88480163D01*
X66461164Y-88483659D01*
X66461171Y-88483667D01*
X66525094Y-88558511D01*
X66528107Y-88562332D01*
X66541469Y-88580724D01*
X66557547Y-88596802D01*
X66560832Y-88600355D01*
X66624776Y-88675224D01*
X66699639Y-88739163D01*
X66703202Y-88742457D01*
X66719276Y-88758531D01*
X66737654Y-88771883D01*
X66737665Y-88771891D01*
X66741471Y-88774891D01*
X66816341Y-88838836D01*
X66816343Y-88838837D01*
X66816344Y-88838838D01*
X66816345Y-88838839D01*
X66900277Y-88890272D01*
X66904325Y-88892977D01*
X66904335Y-88892984D01*
X66922710Y-88906334D01*
X66942961Y-88916652D01*
X66947179Y-88919014D01*
X67031141Y-88970466D01*
X67031143Y-88970466D01*
X67031145Y-88970468D01*
X67072908Y-88987766D01*
X67122101Y-89008142D01*
X67126515Y-89010178D01*
X67134608Y-89014301D01*
X67146760Y-89020493D01*
X67168380Y-89027517D01*
X67172923Y-89029194D01*
X67263889Y-89066873D01*
X67359627Y-89089857D01*
X67364289Y-89091172D01*
X67385910Y-89098198D01*
X67385911Y-89098198D01*
X67385914Y-89098199D01*
X67394646Y-89099581D01*
X67408367Y-89101754D01*
X67413107Y-89102696D01*
X67508852Y-89125683D01*
X67607024Y-89133409D01*
X67611795Y-89133974D01*
X67634271Y-89137534D01*
X67634275Y-89137534D01*
X67656992Y-89137534D01*
X67661858Y-89137725D01*
X67760000Y-89145449D01*
X67858142Y-89137725D01*
X67863008Y-89137534D01*
X67885725Y-89137534D01*
X67885729Y-89137534D01*
X67908204Y-89133974D01*
X67912975Y-89133409D01*
X68011148Y-89125683D01*
X68106897Y-89102695D01*
X68111627Y-89101755D01*
X68134090Y-89098198D01*
X68155737Y-89091164D01*
X68160351Y-89089862D01*
X68256111Y-89066873D01*
X68347090Y-89029188D01*
X68351599Y-89027524D01*
X68373240Y-89020493D01*
X68393508Y-89010165D01*
X68397863Y-89008157D01*
X68488859Y-88970466D01*
X68572833Y-88919006D01*
X68577018Y-88916662D01*
X68597290Y-88906334D01*
X68615684Y-88892969D01*
X68619707Y-88890281D01*
X68703659Y-88838836D01*
X68778547Y-88774875D01*
X68782314Y-88771906D01*
X68800724Y-88758531D01*
X68816819Y-88742435D01*
X68820347Y-88739174D01*
X68895224Y-88675224D01*
X68959174Y-88600347D01*
X68962435Y-88596819D01*
X68978531Y-88580724D01*
X68991906Y-88562314D01*
X68994875Y-88558547D01*
X69058836Y-88483659D01*
X69110281Y-88399707D01*
X69112969Y-88395684D01*
X69126334Y-88377290D01*
X69136662Y-88357018D01*
X69139006Y-88352833D01*
X69190466Y-88268859D01*
X69228157Y-88177863D01*
X69230165Y-88173508D01*
X69240493Y-88153240D01*
X69247524Y-88131599D01*
X69249188Y-88127090D01*
X69286873Y-88036111D01*
X69309862Y-87940351D01*
X69311164Y-87935737D01*
X69318198Y-87914090D01*
X69321755Y-87891627D01*
X69322695Y-87886897D01*
X69345683Y-87791148D01*
X69353409Y-87692978D01*
X69353974Y-87688201D01*
X69357534Y-87665729D01*
X69358155Y-87634043D01*
X69358334Y-87630401D01*
X69365449Y-87540000D01*
X69358333Y-87449593D01*
X69358155Y-87445946D01*
X69357979Y-87436990D01*
X69357534Y-87414271D01*
X69353974Y-87391798D01*
X69353409Y-87387021D01*
X69345683Y-87288852D01*
X69322696Y-87193107D01*
X69321753Y-87188357D01*
X69318198Y-87165913D01*
X69318198Y-87165911D01*
X69318195Y-87165903D01*
X69311172Y-87144289D01*
X69309857Y-87139627D01*
X69286873Y-87043889D01*
X69249194Y-86952923D01*
X69247517Y-86948380D01*
X69240493Y-86926760D01*
X69230178Y-86906515D01*
X69228139Y-86902093D01*
X69190468Y-86811145D01*
X69176810Y-86788857D01*
X69139014Y-86727179D01*
X69136649Y-86722955D01*
X69136396Y-86722458D01*
X69126334Y-86702710D01*
X69118039Y-86691293D01*
X69112977Y-86684325D01*
X69110272Y-86680277D01*
X69058839Y-86596345D01*
X69058838Y-86596344D01*
X69058837Y-86596343D01*
X69058836Y-86596341D01*
X68994891Y-86521471D01*
X68991891Y-86517665D01*
X68978531Y-86499276D01*
X68962453Y-86483198D01*
X68959163Y-86479639D01*
X68895224Y-86404776D01*
X68820355Y-86340832D01*
X68816799Y-86337544D01*
X68800724Y-86321469D01*
X68782332Y-86308107D01*
X68778511Y-86305094D01*
X68754609Y-86284680D01*
X68703659Y-86241164D01*
X68703654Y-86241161D01*
X68703653Y-86241160D01*
X68619714Y-86189722D01*
X68615667Y-86187017D01*
X68597292Y-86173667D01*
X68597290Y-86173666D01*
X68591104Y-86170514D01*
X68577048Y-86163351D01*
X68572803Y-86160973D01*
X68488857Y-86109532D01*
X68397904Y-86071858D01*
X68393484Y-86069821D01*
X68373244Y-86059509D01*
X68373243Y-86059508D01*
X68373240Y-86059507D01*
X68369126Y-86058170D01*
X68351623Y-86052482D01*
X68347057Y-86050797D01*
X68256114Y-86013127D01*
X68160390Y-85990146D01*
X68155705Y-85988824D01*
X68134090Y-85981801D01*
X68111642Y-85978246D01*
X68106867Y-85977296D01*
X68011152Y-85954318D01*
X68011153Y-85954318D01*
X68011151Y-85954317D01*
X68011148Y-85954317D01*
X67963959Y-85950603D01*
X67913002Y-85946592D01*
X67908167Y-85946019D01*
X67885734Y-85942466D01*
X67885729Y-85942466D01*
X67863008Y-85942466D01*
X67858142Y-85942275D01*
X67760000Y-85934551D01*
X67661858Y-85942275D01*
X67656992Y-85942466D01*
X67634271Y-85942466D01*
X67611833Y-85946019D01*
X67606998Y-85946592D01*
X67508851Y-85954317D01*
X67508844Y-85954318D01*
X67413132Y-85977296D01*
X67408357Y-85978246D01*
X67385913Y-85981801D01*
X67385903Y-85981803D01*
X67364299Y-85988823D01*
X67359612Y-85990145D01*
X67263891Y-86013125D01*
X67172938Y-86050799D01*
X67168373Y-86052483D01*
X67146757Y-86059507D01*
X67126515Y-86069820D01*
X67122098Y-86071856D01*
X67031141Y-86109534D01*
X66947201Y-86160970D01*
X66942958Y-86163347D01*
X66922716Y-86173662D01*
X66922708Y-86173667D01*
X66904330Y-86187018D01*
X66900286Y-86189720D01*
X66816339Y-86241165D01*
X66741482Y-86305098D01*
X66737660Y-86308111D01*
X66719276Y-86321469D01*
X66703198Y-86337544D01*
X66699626Y-86340846D01*
X66624775Y-86404775D01*
X66560846Y-86479626D01*
X66557544Y-86483198D01*
X66541469Y-86499276D01*
X66528111Y-86517660D01*
X66525098Y-86521482D01*
X66461165Y-86596339D01*
X66409720Y-86680286D01*
X66407018Y-86684330D01*
X66393667Y-86702708D01*
X66393662Y-86702716D01*
X66383347Y-86722958D01*
X66380970Y-86727201D01*
X66329534Y-86811141D01*
X66291856Y-86902098D01*
X66289820Y-86906515D01*
X66279507Y-86926757D01*
X66272483Y-86948373D01*
X66270799Y-86952938D01*
X66233125Y-87043891D01*
X66210145Y-87139612D01*
X66208823Y-87144299D01*
X66201803Y-87165903D01*
X66201801Y-87165913D01*
X66198246Y-87188357D01*
X66197296Y-87193132D01*
X66174318Y-87288844D01*
X66174317Y-87288851D01*
X66166592Y-87386998D01*
X66166019Y-87391833D01*
X66162466Y-87414270D01*
X66162466Y-87436990D01*
X66162275Y-87441856D01*
X66154551Y-87539999D01*
X20500500Y-87539999D01*
X20500500Y-85800004D01*
X76244592Y-85800004D01*
X76264196Y-86061620D01*
X76264197Y-86061625D01*
X76264197Y-86061629D01*
X76264198Y-86061630D01*
X76272914Y-86099818D01*
X76322576Y-86317402D01*
X76322578Y-86317411D01*
X76322580Y-86317416D01*
X76418432Y-86561643D01*
X76549614Y-86788857D01*
X76639917Y-86902093D01*
X76713198Y-86993985D01*
X76870148Y-87139612D01*
X76905521Y-87172433D01*
X77122296Y-87320228D01*
X77122301Y-87320230D01*
X77122302Y-87320231D01*
X77122303Y-87320232D01*
X77247843Y-87380688D01*
X77358673Y-87434061D01*
X77358674Y-87434061D01*
X77358677Y-87434063D01*
X77609385Y-87511396D01*
X77868818Y-87550500D01*
X78131182Y-87550500D01*
X78390615Y-87511396D01*
X78641323Y-87434063D01*
X78877704Y-87320228D01*
X78923922Y-87288717D01*
X89076966Y-87288717D01*
X89122546Y-87319793D01*
X89122550Y-87319795D01*
X89358854Y-87433594D01*
X89358858Y-87433595D01*
X89609494Y-87510907D01*
X89609500Y-87510909D01*
X89868848Y-87549999D01*
X89868857Y-87550000D01*
X90131143Y-87550000D01*
X90131151Y-87549999D01*
X90197497Y-87539999D01*
X98274551Y-87539999D01*
X98282275Y-87638142D01*
X98282466Y-87643008D01*
X98282466Y-87665734D01*
X98286019Y-87688167D01*
X98286592Y-87693002D01*
X98290603Y-87743959D01*
X98294317Y-87791148D01*
X98294317Y-87791151D01*
X98294318Y-87791153D01*
X98317296Y-87886867D01*
X98318246Y-87891642D01*
X98321801Y-87914090D01*
X98328824Y-87935705D01*
X98330146Y-87940390D01*
X98353127Y-88036114D01*
X98390797Y-88127057D01*
X98392482Y-88131623D01*
X98398170Y-88149126D01*
X98399507Y-88153240D01*
X98399508Y-88153243D01*
X98399509Y-88153244D01*
X98409821Y-88173484D01*
X98411858Y-88177904D01*
X98449532Y-88268857D01*
X98500973Y-88352803D01*
X98503351Y-88357048D01*
X98510514Y-88371104D01*
X98513666Y-88377290D01*
X98513667Y-88377292D01*
X98527017Y-88395667D01*
X98529722Y-88399714D01*
X98579021Y-88480163D01*
X98581164Y-88483659D01*
X98581171Y-88483667D01*
X98645094Y-88558511D01*
X98648107Y-88562332D01*
X98661469Y-88580724D01*
X98677547Y-88596802D01*
X98680832Y-88600355D01*
X98744776Y-88675224D01*
X98819639Y-88739163D01*
X98823202Y-88742457D01*
X98839276Y-88758531D01*
X98857654Y-88771883D01*
X98857665Y-88771891D01*
X98861471Y-88774891D01*
X98936341Y-88838836D01*
X98936343Y-88838837D01*
X98936344Y-88838838D01*
X98936345Y-88838839D01*
X99020277Y-88890272D01*
X99024325Y-88892977D01*
X99024335Y-88892984D01*
X99042710Y-88906334D01*
X99062961Y-88916652D01*
X99067179Y-88919014D01*
X99151141Y-88970466D01*
X99151143Y-88970466D01*
X99151145Y-88970468D01*
X99192908Y-88987766D01*
X99242101Y-89008142D01*
X99246515Y-89010178D01*
X99254608Y-89014301D01*
X99266760Y-89020493D01*
X99288380Y-89027517D01*
X99292923Y-89029194D01*
X99383889Y-89066873D01*
X99479627Y-89089857D01*
X99484289Y-89091172D01*
X99505910Y-89098198D01*
X99505911Y-89098198D01*
X99505914Y-89098199D01*
X99514646Y-89099581D01*
X99528367Y-89101754D01*
X99533107Y-89102696D01*
X99628852Y-89125683D01*
X99727024Y-89133409D01*
X99731795Y-89133974D01*
X99754271Y-89137534D01*
X99754275Y-89137534D01*
X99776992Y-89137534D01*
X99781858Y-89137725D01*
X99880000Y-89145449D01*
X99978142Y-89137725D01*
X99983008Y-89137534D01*
X100005725Y-89137534D01*
X100005729Y-89137534D01*
X100028204Y-89133974D01*
X100032975Y-89133409D01*
X100131148Y-89125683D01*
X100226897Y-89102695D01*
X100231627Y-89101755D01*
X100254090Y-89098198D01*
X100275737Y-89091164D01*
X100280351Y-89089862D01*
X100376111Y-89066873D01*
X100467090Y-89029188D01*
X100471599Y-89027524D01*
X100493240Y-89020493D01*
X100513508Y-89010165D01*
X100517863Y-89008157D01*
X100608859Y-88970466D01*
X100692833Y-88919006D01*
X100697018Y-88916662D01*
X100717290Y-88906334D01*
X100735684Y-88892969D01*
X100739707Y-88890281D01*
X100823659Y-88838836D01*
X100898547Y-88774875D01*
X100902314Y-88771906D01*
X100920724Y-88758531D01*
X100936819Y-88742435D01*
X100940347Y-88739174D01*
X101015224Y-88675224D01*
X101079174Y-88600347D01*
X101082435Y-88596819D01*
X101098531Y-88580724D01*
X101111906Y-88562314D01*
X101114875Y-88558547D01*
X101178836Y-88483659D01*
X101230281Y-88399707D01*
X101232969Y-88395684D01*
X101246334Y-88377290D01*
X101256662Y-88357018D01*
X101259006Y-88352833D01*
X101310466Y-88268859D01*
X101348157Y-88177863D01*
X101350165Y-88173508D01*
X101360493Y-88153240D01*
X101367524Y-88131599D01*
X101369188Y-88127090D01*
X101406873Y-88036111D01*
X101429862Y-87940351D01*
X101431164Y-87935737D01*
X101438198Y-87914090D01*
X101441755Y-87891627D01*
X101442695Y-87886897D01*
X101465683Y-87791148D01*
X101473409Y-87692978D01*
X101473974Y-87688201D01*
X101477534Y-87665729D01*
X101478155Y-87634043D01*
X101478334Y-87630401D01*
X101485449Y-87540000D01*
X101478333Y-87449593D01*
X101478155Y-87445946D01*
X101477979Y-87436990D01*
X101477534Y-87414271D01*
X101473974Y-87391798D01*
X101473409Y-87387021D01*
X101465683Y-87288852D01*
X101442696Y-87193107D01*
X101441753Y-87188357D01*
X101438198Y-87165913D01*
X101438198Y-87165911D01*
X101438195Y-87165903D01*
X101431172Y-87144289D01*
X101429857Y-87139627D01*
X101406873Y-87043889D01*
X101369194Y-86952923D01*
X101367517Y-86948380D01*
X101360493Y-86926760D01*
X101350178Y-86906515D01*
X101348139Y-86902093D01*
X101310468Y-86811145D01*
X101296810Y-86788857D01*
X101259014Y-86727179D01*
X101256649Y-86722955D01*
X101256396Y-86722458D01*
X101246334Y-86702710D01*
X101238039Y-86691293D01*
X101232977Y-86684325D01*
X101230272Y-86680277D01*
X101178839Y-86596345D01*
X101178838Y-86596344D01*
X101178837Y-86596343D01*
X101178836Y-86596341D01*
X101114891Y-86521471D01*
X101111891Y-86517665D01*
X101098531Y-86499276D01*
X101082453Y-86483198D01*
X101079163Y-86479639D01*
X101015224Y-86404776D01*
X100940355Y-86340832D01*
X100936799Y-86337544D01*
X100920724Y-86321469D01*
X100902332Y-86308107D01*
X100898511Y-86305094D01*
X100874609Y-86284680D01*
X100823659Y-86241164D01*
X100823654Y-86241161D01*
X100823653Y-86241160D01*
X100739714Y-86189722D01*
X100735667Y-86187017D01*
X100717292Y-86173667D01*
X100717290Y-86173666D01*
X100711104Y-86170514D01*
X100697048Y-86163351D01*
X100692803Y-86160973D01*
X100608857Y-86109532D01*
X100517904Y-86071858D01*
X100513484Y-86069821D01*
X100493244Y-86059509D01*
X100493243Y-86059508D01*
X100493240Y-86059507D01*
X100489126Y-86058170D01*
X100471623Y-86052482D01*
X100467057Y-86050797D01*
X100376114Y-86013127D01*
X100280390Y-85990146D01*
X100275705Y-85988824D01*
X100254090Y-85981801D01*
X100231642Y-85978246D01*
X100226867Y-85977296D01*
X100131152Y-85954318D01*
X100131153Y-85954318D01*
X100131151Y-85954317D01*
X100131148Y-85954317D01*
X100083959Y-85950603D01*
X100033002Y-85946592D01*
X100028167Y-85946019D01*
X100005734Y-85942466D01*
X100005729Y-85942466D01*
X99983008Y-85942466D01*
X99978142Y-85942275D01*
X99880000Y-85934551D01*
X99781858Y-85942275D01*
X99776992Y-85942466D01*
X99754271Y-85942466D01*
X99731833Y-85946019D01*
X99726998Y-85946592D01*
X99628851Y-85954317D01*
X99628844Y-85954318D01*
X99533132Y-85977296D01*
X99528357Y-85978246D01*
X99505913Y-85981801D01*
X99505903Y-85981803D01*
X99484299Y-85988823D01*
X99479612Y-85990145D01*
X99383891Y-86013125D01*
X99292938Y-86050799D01*
X99288373Y-86052483D01*
X99266757Y-86059507D01*
X99246515Y-86069820D01*
X99242098Y-86071856D01*
X99151141Y-86109534D01*
X99067201Y-86160970D01*
X99062958Y-86163347D01*
X99042716Y-86173662D01*
X99042708Y-86173667D01*
X99024330Y-86187018D01*
X99020286Y-86189720D01*
X98936339Y-86241165D01*
X98861482Y-86305098D01*
X98857660Y-86308111D01*
X98839276Y-86321469D01*
X98823198Y-86337544D01*
X98819626Y-86340846D01*
X98744775Y-86404775D01*
X98680846Y-86479626D01*
X98677544Y-86483198D01*
X98661469Y-86499276D01*
X98648111Y-86517660D01*
X98645098Y-86521482D01*
X98581165Y-86596339D01*
X98529720Y-86680286D01*
X98527018Y-86684330D01*
X98513667Y-86702708D01*
X98513662Y-86702716D01*
X98503347Y-86722958D01*
X98500970Y-86727201D01*
X98449534Y-86811141D01*
X98411856Y-86902098D01*
X98409820Y-86906515D01*
X98399507Y-86926757D01*
X98392483Y-86948373D01*
X98390799Y-86952938D01*
X98353125Y-87043891D01*
X98330145Y-87139612D01*
X98328823Y-87144299D01*
X98321803Y-87165903D01*
X98321801Y-87165913D01*
X98318246Y-87188357D01*
X98317296Y-87193132D01*
X98294318Y-87288844D01*
X98294317Y-87288851D01*
X98286592Y-87386998D01*
X98286019Y-87391833D01*
X98282466Y-87414270D01*
X98282466Y-87436990D01*
X98282275Y-87441856D01*
X98274551Y-87539999D01*
X90197497Y-87539999D01*
X90390499Y-87510909D01*
X90390505Y-87510907D01*
X90641143Y-87433595D01*
X90877452Y-87319795D01*
X90923031Y-87288719D01*
X90923031Y-87288717D01*
X90000001Y-86365685D01*
X90000000Y-86365685D01*
X89076966Y-87288717D01*
X78923922Y-87288717D01*
X79094479Y-87172433D01*
X79286805Y-86993981D01*
X79450386Y-86788857D01*
X79581568Y-86561643D01*
X79677420Y-86317416D01*
X79735802Y-86061630D01*
X79735808Y-86061550D01*
X79755408Y-85800004D01*
X79755408Y-85799995D01*
X79735803Y-85538379D01*
X79735802Y-85538374D01*
X79735802Y-85538370D01*
X79677420Y-85282584D01*
X79581568Y-85038357D01*
X79450386Y-84811143D01*
X79286805Y-84606019D01*
X79286804Y-84606018D01*
X79286801Y-84606014D01*
X79094479Y-84427567D01*
X79076101Y-84415037D01*
X78877704Y-84279772D01*
X78877700Y-84279770D01*
X78877697Y-84279768D01*
X78877696Y-84279767D01*
X78641325Y-84165938D01*
X78641327Y-84165938D01*
X78390623Y-84088606D01*
X78390619Y-84088605D01*
X78390615Y-84088604D01*
X78265823Y-84069794D01*
X78131187Y-84049500D01*
X78131182Y-84049500D01*
X77868818Y-84049500D01*
X77868812Y-84049500D01*
X77707247Y-84073853D01*
X77609385Y-84088604D01*
X77609382Y-84088605D01*
X77609376Y-84088606D01*
X77358673Y-84165938D01*
X77122303Y-84279767D01*
X77122302Y-84279768D01*
X77122296Y-84279771D01*
X77122296Y-84279772D01*
X77096839Y-84297128D01*
X76905520Y-84427567D01*
X76713198Y-84606014D01*
X76549614Y-84811143D01*
X76418432Y-85038356D01*
X76322582Y-85282578D01*
X76322576Y-85282597D01*
X76264197Y-85538374D01*
X76264196Y-85538379D01*
X76244592Y-85799995D01*
X76244592Y-85800004D01*
X20500500Y-85800004D01*
X20500500Y-83850001D01*
X82044390Y-83850001D01*
X82064804Y-84135433D01*
X82125628Y-84415037D01*
X82125630Y-84415043D01*
X82125631Y-84415046D01*
X82225633Y-84683161D01*
X82225635Y-84683166D01*
X82362770Y-84934309D01*
X82362775Y-84934317D01*
X82534254Y-85163387D01*
X82534270Y-85163405D01*
X82736594Y-85365729D01*
X82736612Y-85365745D01*
X82965682Y-85537224D01*
X82965690Y-85537229D01*
X83216833Y-85674364D01*
X83216832Y-85674364D01*
X83216836Y-85674365D01*
X83216839Y-85674367D01*
X83484954Y-85774369D01*
X83484960Y-85774370D01*
X83484962Y-85774371D01*
X83764566Y-85835195D01*
X83764568Y-85835195D01*
X83764572Y-85835196D01*
X84018220Y-85853337D01*
X84049999Y-85855610D01*
X84050000Y-85855610D01*
X84050001Y-85855610D01*
X84078595Y-85853564D01*
X84335428Y-85835196D01*
X84497204Y-85800004D01*
X88245093Y-85800004D01*
X88264692Y-86061545D01*
X88264693Y-86061550D01*
X88323058Y-86317270D01*
X88418883Y-86561426D01*
X88418882Y-86561426D01*
X88511855Y-86722457D01*
X88511856Y-86722458D01*
X89362425Y-85871889D01*
X89500000Y-85871889D01*
X89540507Y-86009844D01*
X89618239Y-86130798D01*
X89726900Y-86224952D01*
X89857685Y-86284680D01*
X89964237Y-86300000D01*
X90035763Y-86300000D01*
X90142315Y-86284680D01*
X90273100Y-86224952D01*
X90381761Y-86130798D01*
X90459493Y-86009844D01*
X90500000Y-85871889D01*
X90500000Y-85800000D01*
X90565685Y-85800000D01*
X91488143Y-86722458D01*
X91488144Y-86722458D01*
X91581116Y-86561426D01*
X91676941Y-86317270D01*
X91735306Y-86061550D01*
X91735307Y-86061545D01*
X91754907Y-85800004D01*
X91754907Y-85799995D01*
X91735307Y-85538454D01*
X91735306Y-85538449D01*
X91676941Y-85282729D01*
X91581116Y-85038573D01*
X91581117Y-85038573D01*
X91488143Y-84877540D01*
X90565685Y-85799999D01*
X90565685Y-85800000D01*
X90500000Y-85800000D01*
X90500000Y-85728111D01*
X90459493Y-85590156D01*
X90381761Y-85469202D01*
X90273100Y-85375048D01*
X90142315Y-85315320D01*
X90035763Y-85300000D01*
X89964237Y-85300000D01*
X89857685Y-85315320D01*
X89726900Y-85375048D01*
X89618239Y-85469202D01*
X89540507Y-85590156D01*
X89500000Y-85728111D01*
X89500000Y-85871889D01*
X89362425Y-85871889D01*
X89434314Y-85800000D01*
X89434314Y-85799999D01*
X88511855Y-84877541D01*
X88418883Y-85038573D01*
X88323058Y-85282729D01*
X88264693Y-85538449D01*
X88264692Y-85538454D01*
X88245093Y-85799995D01*
X88245093Y-85800004D01*
X84497204Y-85800004D01*
X84615037Y-85774371D01*
X84615037Y-85774370D01*
X84615046Y-85774369D01*
X84883161Y-85674367D01*
X85134315Y-85537226D01*
X85363395Y-85365739D01*
X85565739Y-85163395D01*
X85737226Y-84934315D01*
X85874367Y-84683161D01*
X85974369Y-84415046D01*
X85996942Y-84311281D01*
X89076967Y-84311281D01*
X90000000Y-85234314D01*
X90000001Y-85234314D01*
X90923032Y-84311281D01*
X90877451Y-84280204D01*
X90641142Y-84166404D01*
X90641144Y-84166404D01*
X90390505Y-84089092D01*
X90390499Y-84089090D01*
X90131151Y-84050000D01*
X89868848Y-84050000D01*
X89609500Y-84089090D01*
X89609494Y-84089092D01*
X89358858Y-84166404D01*
X89358854Y-84166405D01*
X89122546Y-84280206D01*
X89076967Y-84311281D01*
X85996942Y-84311281D01*
X86035196Y-84135428D01*
X86055610Y-83850000D01*
X86035196Y-83564572D01*
X85974369Y-83284954D01*
X85874367Y-83016839D01*
X85737226Y-82765685D01*
X85737224Y-82765682D01*
X85565745Y-82536612D01*
X85565729Y-82536594D01*
X85363405Y-82334270D01*
X85363387Y-82334254D01*
X85134317Y-82162775D01*
X85134309Y-82162770D01*
X84883166Y-82025635D01*
X84883167Y-82025635D01*
X84775915Y-81985632D01*
X84615046Y-81925631D01*
X84615043Y-81925630D01*
X84615037Y-81925628D01*
X84335433Y-81864804D01*
X84050001Y-81844390D01*
X84049999Y-81844390D01*
X83764566Y-81864804D01*
X83484962Y-81925628D01*
X83216833Y-82025635D01*
X82965690Y-82162770D01*
X82965682Y-82162775D01*
X82736612Y-82334254D01*
X82736594Y-82334270D01*
X82534270Y-82536594D01*
X82534254Y-82536612D01*
X82362775Y-82765682D01*
X82362770Y-82765690D01*
X82225635Y-83016833D01*
X82125628Y-83284962D01*
X82064804Y-83564566D01*
X82044390Y-83849998D01*
X82044390Y-83850001D01*
X20500500Y-83850001D01*
X20500500Y-78540007D01*
X77504671Y-78540007D01*
X77523964Y-78834363D01*
X77523965Y-78834373D01*
X77523966Y-78834380D01*
X77523968Y-78834390D01*
X77581518Y-79123716D01*
X77581521Y-79123730D01*
X77676349Y-79403080D01*
X77806825Y-79667660D01*
X77806829Y-79667667D01*
X77970725Y-79912955D01*
X78165241Y-80134758D01*
X78387043Y-80329273D01*
X78632335Y-80493172D01*
X78896923Y-80623652D01*
X79176278Y-80718481D01*
X79465620Y-80776034D01*
X79493888Y-80777886D01*
X79759993Y-80795329D01*
X79760000Y-80795329D01*
X79760007Y-80795329D01*
X79995675Y-80779881D01*
X80054380Y-80776034D01*
X80343722Y-80718481D01*
X80623077Y-80623652D01*
X80887665Y-80493172D01*
X81132957Y-80329273D01*
X81354758Y-80134758D01*
X81549273Y-79912957D01*
X81713172Y-79667665D01*
X81843652Y-79403077D01*
X81938481Y-79123722D01*
X81996034Y-78834380D01*
X82015329Y-78540007D01*
X85624671Y-78540007D01*
X85643964Y-78834363D01*
X85643965Y-78834373D01*
X85643966Y-78834380D01*
X85643968Y-78834390D01*
X85701518Y-79123716D01*
X85701521Y-79123730D01*
X85796349Y-79403080D01*
X85926825Y-79667660D01*
X85926829Y-79667667D01*
X86090725Y-79912955D01*
X86285241Y-80134758D01*
X86507043Y-80329273D01*
X86752335Y-80493172D01*
X87016923Y-80623652D01*
X87296278Y-80718481D01*
X87585620Y-80776034D01*
X87613888Y-80777886D01*
X87879993Y-80795329D01*
X87880000Y-80795329D01*
X87880007Y-80795329D01*
X88115675Y-80779881D01*
X88174380Y-80776034D01*
X88463722Y-80718481D01*
X88743077Y-80623652D01*
X89007665Y-80493172D01*
X89252957Y-80329273D01*
X89474758Y-80134758D01*
X89669273Y-79912957D01*
X89833172Y-79667665D01*
X89963652Y-79403077D01*
X90058481Y-79123722D01*
X90116034Y-78834380D01*
X90135329Y-78540000D01*
X90135329Y-78539992D01*
X90116035Y-78245636D01*
X90116034Y-78245620D01*
X90058481Y-77956278D01*
X89963652Y-77676923D01*
X89833172Y-77412336D01*
X89669273Y-77167043D01*
X89626655Y-77118447D01*
X89474758Y-76945241D01*
X89252955Y-76750725D01*
X89007667Y-76586829D01*
X89007660Y-76586825D01*
X88743080Y-76456349D01*
X88463730Y-76361521D01*
X88463724Y-76361519D01*
X88463722Y-76361519D01*
X88174380Y-76303966D01*
X88174373Y-76303965D01*
X88174363Y-76303964D01*
X87880007Y-76284671D01*
X87879993Y-76284671D01*
X87585636Y-76303964D01*
X87585624Y-76303965D01*
X87585620Y-76303966D01*
X87585612Y-76303967D01*
X87585609Y-76303968D01*
X87296283Y-76361518D01*
X87296269Y-76361521D01*
X87016919Y-76456349D01*
X86752334Y-76586828D01*
X86507041Y-76750728D01*
X86285241Y-76945241D01*
X86090728Y-77167041D01*
X85926828Y-77412334D01*
X85796349Y-77676919D01*
X85701521Y-77956269D01*
X85701518Y-77956283D01*
X85643968Y-78245609D01*
X85643964Y-78245636D01*
X85624671Y-78539992D01*
X85624671Y-78540007D01*
X82015329Y-78540007D01*
X82015329Y-78540000D01*
X82015329Y-78539992D01*
X81996035Y-78245636D01*
X81996034Y-78245620D01*
X81938481Y-77956278D01*
X81843652Y-77676923D01*
X81713172Y-77412336D01*
X81549273Y-77167043D01*
X81506655Y-77118447D01*
X81354758Y-76945241D01*
X81132955Y-76750725D01*
X80887667Y-76586829D01*
X80887660Y-76586825D01*
X80623080Y-76456349D01*
X80343730Y-76361521D01*
X80343724Y-76361519D01*
X80343722Y-76361519D01*
X80054380Y-76303966D01*
X80054373Y-76303965D01*
X80054363Y-76303964D01*
X79760007Y-76284671D01*
X79759993Y-76284671D01*
X79465636Y-76303964D01*
X79465624Y-76303965D01*
X79465620Y-76303966D01*
X79465612Y-76303967D01*
X79465609Y-76303968D01*
X79176283Y-76361518D01*
X79176269Y-76361521D01*
X78896919Y-76456349D01*
X78632334Y-76586828D01*
X78387041Y-76750728D01*
X78165241Y-76945241D01*
X77970728Y-77167041D01*
X77806828Y-77412334D01*
X77676349Y-77676919D01*
X77581521Y-77956269D01*
X77581518Y-77956283D01*
X77523968Y-78245609D01*
X77523964Y-78245636D01*
X77504671Y-78539992D01*
X77504671Y-78540007D01*
X20500500Y-78540007D01*
X20500500Y-70190000D01*
X77505172Y-70190000D01*
X77524462Y-70484312D01*
X77524464Y-70484324D01*
X77582001Y-70773584D01*
X77582005Y-70773599D01*
X77676812Y-71052888D01*
X77807264Y-71317418D01*
X77911256Y-71473055D01*
X77911258Y-71473055D01*
X78946618Y-70437696D01*
X78965714Y-70506473D01*
X79052316Y-70669822D01*
X79172009Y-70810735D01*
X79319195Y-70922623D01*
X79486993Y-71000255D01*
X79510299Y-71005385D01*
X78476943Y-72038740D01*
X78632585Y-72142737D01*
X78897111Y-72273187D01*
X79176400Y-72367994D01*
X79176415Y-72367998D01*
X79465675Y-72425535D01*
X79465687Y-72425537D01*
X79760000Y-72444827D01*
X80054312Y-72425537D01*
X80054324Y-72425535D01*
X80343584Y-72367998D01*
X80343599Y-72367994D01*
X80622888Y-72273187D01*
X80887406Y-72142741D01*
X80887419Y-72142734D01*
X81043055Y-72038740D01*
X80007780Y-71003465D01*
X80119010Y-70965988D01*
X80277431Y-70870669D01*
X80411658Y-70743523D01*
X80515413Y-70590495D01*
X80575464Y-70439779D01*
X81608740Y-71473055D01*
X81712734Y-71317419D01*
X81712741Y-71317406D01*
X81843187Y-71052888D01*
X81937994Y-70773599D01*
X81937998Y-70773584D01*
X81995535Y-70484324D01*
X81995537Y-70484312D01*
X82014827Y-70190000D01*
X85625172Y-70190000D01*
X85644462Y-70484312D01*
X85644464Y-70484324D01*
X85702001Y-70773584D01*
X85702005Y-70773599D01*
X85796812Y-71052888D01*
X85927264Y-71317418D01*
X86031256Y-71473055D01*
X86031258Y-71473055D01*
X87066618Y-70437696D01*
X87085714Y-70506473D01*
X87172316Y-70669822D01*
X87292009Y-70810735D01*
X87439195Y-70922623D01*
X87606993Y-71000255D01*
X87630299Y-71005385D01*
X86596943Y-72038740D01*
X86752585Y-72142737D01*
X87017111Y-72273187D01*
X87296400Y-72367994D01*
X87296415Y-72367998D01*
X87585675Y-72425535D01*
X87585687Y-72425537D01*
X87880000Y-72444827D01*
X88174312Y-72425537D01*
X88174324Y-72425535D01*
X88463584Y-72367998D01*
X88463599Y-72367994D01*
X88742888Y-72273187D01*
X89007406Y-72142741D01*
X89007419Y-72142734D01*
X89163055Y-72038740D01*
X88127780Y-71003465D01*
X88239010Y-70965988D01*
X88397431Y-70870669D01*
X88531658Y-70743523D01*
X88635413Y-70590495D01*
X88695464Y-70439779D01*
X89728740Y-71473055D01*
X89832734Y-71317419D01*
X89832741Y-71317406D01*
X89963187Y-71052888D01*
X90057994Y-70773599D01*
X90057998Y-70773584D01*
X90115535Y-70484324D01*
X90115537Y-70484312D01*
X90134827Y-70190000D01*
X90115537Y-69895687D01*
X90115535Y-69895675D01*
X90057998Y-69606415D01*
X90057994Y-69606400D01*
X89963187Y-69327111D01*
X89832737Y-69062585D01*
X89728740Y-68906943D01*
X88693381Y-69942302D01*
X88674286Y-69873527D01*
X88587684Y-69710178D01*
X88467991Y-69569265D01*
X88320805Y-69457377D01*
X88153007Y-69379745D01*
X88129700Y-69374614D01*
X89163055Y-68341258D01*
X89163055Y-68341256D01*
X89007418Y-68237264D01*
X88742888Y-68106812D01*
X88463599Y-68012005D01*
X88463584Y-68012001D01*
X88174324Y-67954464D01*
X88174312Y-67954462D01*
X87880000Y-67935172D01*
X87585687Y-67954462D01*
X87585675Y-67954464D01*
X87296415Y-68012001D01*
X87296400Y-68012005D01*
X87017111Y-68106812D01*
X86752586Y-68237261D01*
X86596943Y-68341258D01*
X86596942Y-68341258D01*
X87632219Y-69376534D01*
X87520990Y-69414012D01*
X87362569Y-69509331D01*
X87228342Y-69636477D01*
X87124587Y-69789505D01*
X87064536Y-69940220D01*
X86031258Y-68906942D01*
X86031258Y-68906943D01*
X85927261Y-69062586D01*
X85796812Y-69327111D01*
X85702005Y-69606400D01*
X85702001Y-69606415D01*
X85644464Y-69895675D01*
X85644462Y-69895687D01*
X85625172Y-70190000D01*
X82014827Y-70190000D01*
X81995537Y-69895687D01*
X81995535Y-69895675D01*
X81937998Y-69606415D01*
X81937994Y-69606400D01*
X81843187Y-69327111D01*
X81712737Y-69062585D01*
X81608740Y-68906943D01*
X80573381Y-69942302D01*
X80554286Y-69873527D01*
X80467684Y-69710178D01*
X80347991Y-69569265D01*
X80200805Y-69457377D01*
X80033007Y-69379745D01*
X80009700Y-69374614D01*
X81043055Y-68341258D01*
X81043055Y-68341256D01*
X80887418Y-68237264D01*
X80622888Y-68106812D01*
X80343599Y-68012005D01*
X80343584Y-68012001D01*
X80054324Y-67954464D01*
X80054312Y-67954462D01*
X79760000Y-67935172D01*
X79465687Y-67954462D01*
X79465675Y-67954464D01*
X79176415Y-68012001D01*
X79176400Y-68012005D01*
X78897111Y-68106812D01*
X78632586Y-68237261D01*
X78476943Y-68341258D01*
X78476942Y-68341258D01*
X79512219Y-69376534D01*
X79400990Y-69414012D01*
X79242569Y-69509331D01*
X79108342Y-69636477D01*
X79004587Y-69789505D01*
X78944536Y-69940220D01*
X77911258Y-68906942D01*
X77911258Y-68906943D01*
X77807261Y-69062586D01*
X77676812Y-69327111D01*
X77582005Y-69606400D01*
X77582001Y-69606415D01*
X77524464Y-69895675D01*
X77524462Y-69895687D01*
X77505172Y-70190000D01*
X20500500Y-70190000D01*
X20500500Y-61890000D01*
X77505172Y-61890000D01*
X77524462Y-62184312D01*
X77524464Y-62184324D01*
X77582001Y-62473584D01*
X77582005Y-62473599D01*
X77676812Y-62752888D01*
X77807264Y-63017418D01*
X77911256Y-63173055D01*
X77911258Y-63173055D01*
X78946618Y-62137696D01*
X78965714Y-62206473D01*
X79052316Y-62369822D01*
X79172009Y-62510735D01*
X79319195Y-62622623D01*
X79486993Y-62700255D01*
X79510299Y-62705385D01*
X78476943Y-63738740D01*
X78632585Y-63842737D01*
X78897111Y-63973187D01*
X79176400Y-64067994D01*
X79176415Y-64067998D01*
X79465675Y-64125535D01*
X79465687Y-64125537D01*
X79760000Y-64144827D01*
X80054312Y-64125537D01*
X80054324Y-64125535D01*
X80343584Y-64067998D01*
X80343599Y-64067994D01*
X80622888Y-63973187D01*
X80887406Y-63842741D01*
X80887419Y-63842734D01*
X81043055Y-63738740D01*
X80007780Y-62703465D01*
X80119010Y-62665988D01*
X80277431Y-62570669D01*
X80411658Y-62443523D01*
X80515413Y-62290495D01*
X80575464Y-62139779D01*
X81608740Y-63173055D01*
X81712734Y-63017419D01*
X81712741Y-63017406D01*
X81843187Y-62752888D01*
X81937994Y-62473599D01*
X81937998Y-62473584D01*
X81995535Y-62184324D01*
X81995537Y-62184312D01*
X82014827Y-61890000D01*
X85625172Y-61890000D01*
X85644462Y-62184312D01*
X85644464Y-62184324D01*
X85702001Y-62473584D01*
X85702005Y-62473599D01*
X85796812Y-62752888D01*
X85927264Y-63017418D01*
X86031256Y-63173055D01*
X86031258Y-63173055D01*
X87066618Y-62137696D01*
X87085714Y-62206473D01*
X87172316Y-62369822D01*
X87292009Y-62510735D01*
X87439195Y-62622623D01*
X87606993Y-62700255D01*
X87630299Y-62705385D01*
X86596943Y-63738740D01*
X86752585Y-63842737D01*
X87017111Y-63973187D01*
X87296400Y-64067994D01*
X87296415Y-64067998D01*
X87585675Y-64125535D01*
X87585687Y-64125537D01*
X87880000Y-64144827D01*
X88174312Y-64125537D01*
X88174324Y-64125535D01*
X88463584Y-64067998D01*
X88463599Y-64067994D01*
X88742888Y-63973187D01*
X89007406Y-63842741D01*
X89007419Y-63842734D01*
X89163055Y-63738740D01*
X88127780Y-62703465D01*
X88239010Y-62665988D01*
X88397431Y-62570669D01*
X88531658Y-62443523D01*
X88635413Y-62290495D01*
X88695464Y-62139779D01*
X89728740Y-63173055D01*
X89832734Y-63017419D01*
X89832741Y-63017406D01*
X89963187Y-62752888D01*
X90057994Y-62473599D01*
X90057998Y-62473584D01*
X90115535Y-62184324D01*
X90115537Y-62184312D01*
X90134827Y-61890000D01*
X90115537Y-61595687D01*
X90115535Y-61595675D01*
X90057998Y-61306415D01*
X90057994Y-61306400D01*
X89963187Y-61027111D01*
X89832737Y-60762585D01*
X89728740Y-60606943D01*
X88693381Y-61642302D01*
X88674286Y-61573527D01*
X88587684Y-61410178D01*
X88467991Y-61269265D01*
X88320805Y-61157377D01*
X88153007Y-61079745D01*
X88129700Y-61074614D01*
X89163055Y-60041258D01*
X89163055Y-60041256D01*
X89007418Y-59937264D01*
X88742888Y-59806812D01*
X88463599Y-59712005D01*
X88463584Y-59712001D01*
X88174324Y-59654464D01*
X88174312Y-59654462D01*
X87880000Y-59635172D01*
X87585687Y-59654462D01*
X87585675Y-59654464D01*
X87296415Y-59712001D01*
X87296400Y-59712005D01*
X87017111Y-59806812D01*
X86752586Y-59937261D01*
X86596943Y-60041258D01*
X86596942Y-60041258D01*
X87632219Y-61076534D01*
X87520990Y-61114012D01*
X87362569Y-61209331D01*
X87228342Y-61336477D01*
X87124587Y-61489505D01*
X87064536Y-61640220D01*
X86031258Y-60606942D01*
X86031258Y-60606943D01*
X85927261Y-60762586D01*
X85796812Y-61027111D01*
X85702005Y-61306400D01*
X85702001Y-61306415D01*
X85644464Y-61595675D01*
X85644462Y-61595687D01*
X85625172Y-61890000D01*
X82014827Y-61890000D01*
X81995537Y-61595687D01*
X81995535Y-61595675D01*
X81937998Y-61306415D01*
X81937994Y-61306400D01*
X81843187Y-61027111D01*
X81712737Y-60762585D01*
X81608740Y-60606943D01*
X80573381Y-61642302D01*
X80554286Y-61573527D01*
X80467684Y-61410178D01*
X80347991Y-61269265D01*
X80200805Y-61157377D01*
X80033007Y-61079745D01*
X80009700Y-61074614D01*
X81043055Y-60041258D01*
X81043055Y-60041256D01*
X80887418Y-59937264D01*
X80622888Y-59806812D01*
X80343599Y-59712005D01*
X80343584Y-59712001D01*
X80054324Y-59654464D01*
X80054312Y-59654462D01*
X79760000Y-59635172D01*
X79465687Y-59654462D01*
X79465675Y-59654464D01*
X79176415Y-59712001D01*
X79176400Y-59712005D01*
X78897111Y-59806812D01*
X78632586Y-59937261D01*
X78476943Y-60041258D01*
X78476942Y-60041258D01*
X79512219Y-61076534D01*
X79400990Y-61114012D01*
X79242569Y-61209331D01*
X79108342Y-61336477D01*
X79004587Y-61489505D01*
X78944536Y-61640220D01*
X77911258Y-60606942D01*
X77911258Y-60606943D01*
X77807261Y-60762586D01*
X77676812Y-61027111D01*
X77582005Y-61306400D01*
X77582001Y-61306415D01*
X77524464Y-61595675D01*
X77524462Y-61595687D01*
X77505172Y-61890000D01*
X20500500Y-61890000D01*
X20500500Y-53714759D01*
X66039500Y-53714759D01*
X66069988Y-53975596D01*
X66080077Y-54061914D01*
X66080077Y-54061916D01*
X66160680Y-54402009D01*
X66160681Y-54402012D01*
X66280223Y-54730452D01*
X66280226Y-54730458D01*
X66437088Y-55042796D01*
X66629146Y-55334805D01*
X66629152Y-55334813D01*
X66629154Y-55334815D01*
X66853817Y-55602558D01*
X66949188Y-55692536D01*
X67108044Y-55842410D01*
X67108050Y-55842415D01*
X67388402Y-56051129D01*
X67388404Y-56051130D01*
X67691096Y-56225889D01*
X68012029Y-56364326D01*
X68346864Y-56464569D01*
X68346866Y-56464569D01*
X68346872Y-56464571D01*
X68691061Y-56525260D01*
X68691062Y-56525260D01*
X68691073Y-56525262D01*
X68952695Y-56540500D01*
X79716328Y-56540500D01*
X79719155Y-56540582D01*
X79847416Y-56544314D01*
X79978050Y-56532884D01*
X80108927Y-56525262D01*
X80149359Y-56518131D01*
X80154691Y-56517429D01*
X80195605Y-56513851D01*
X80324028Y-56487334D01*
X80453136Y-56464569D01*
X80492447Y-56452799D01*
X80497690Y-56451476D01*
X80507289Y-56449493D01*
X80537903Y-56443173D01*
X80662382Y-56401924D01*
X80787971Y-56364326D01*
X80825670Y-56348063D01*
X80830695Y-56346150D01*
X80851091Y-56339392D01*
X80869671Y-56333237D01*
X80869676Y-56333234D01*
X80869681Y-56333233D01*
X80988513Y-56277820D01*
X81108904Y-56225889D01*
X81144451Y-56205365D01*
X81149251Y-56202867D01*
X81166683Y-56194738D01*
X81186452Y-56185520D01*
X81298040Y-56116691D01*
X81411596Y-56051130D01*
X81444539Y-56026603D01*
X81448989Y-56023583D01*
X81483933Y-56002031D01*
X81586774Y-55920714D01*
X81691953Y-55842412D01*
X81721819Y-55814233D01*
X81725890Y-55810715D01*
X81758101Y-55785247D01*
X81850811Y-55692536D01*
X81946183Y-55602558D01*
X81972578Y-55571099D01*
X81976209Y-55567137D01*
X82005247Y-55538101D01*
X82086574Y-55435245D01*
X82170849Y-55334811D01*
X82193405Y-55300514D01*
X82196564Y-55296138D01*
X82222031Y-55263933D01*
X82264559Y-55194983D01*
X82290864Y-55152338D01*
X82332961Y-55088331D01*
X82362913Y-55042793D01*
X82381336Y-55006108D01*
X82383964Y-55001397D01*
X82405520Y-54966452D01*
X82460930Y-54847624D01*
X82519777Y-54730451D01*
X82533823Y-54691856D01*
X82535877Y-54686897D01*
X82553233Y-54649681D01*
X82594479Y-54525206D01*
X82639319Y-54402011D01*
X82648783Y-54362071D01*
X82650249Y-54356901D01*
X82663173Y-54317903D01*
X82689692Y-54189466D01*
X82705274Y-54123722D01*
X82719922Y-54061920D01*
X82719922Y-54061918D01*
X82719923Y-54061914D01*
X82724689Y-54021128D01*
X82725544Y-54015827D01*
X82733851Y-53975605D01*
X82745279Y-53844974D01*
X82760500Y-53714759D01*
X82760500Y-53673716D01*
X82760736Y-53668309D01*
X82764313Y-53627426D01*
X82764314Y-53627416D01*
X82761771Y-53540007D01*
X85624671Y-53540007D01*
X85643964Y-53834363D01*
X85643965Y-53834373D01*
X85643966Y-53834380D01*
X85681117Y-54021155D01*
X85701518Y-54123716D01*
X85701521Y-54123730D01*
X85796349Y-54403080D01*
X85926825Y-54667660D01*
X85926829Y-54667667D01*
X86090725Y-54912955D01*
X86285241Y-55134758D01*
X86471676Y-55298257D01*
X86507043Y-55329273D01*
X86752335Y-55493172D01*
X87016923Y-55623652D01*
X87296278Y-55718481D01*
X87585620Y-55776034D01*
X87613888Y-55777886D01*
X87879993Y-55795329D01*
X87880000Y-55795329D01*
X87880007Y-55795329D01*
X88115675Y-55779881D01*
X88174380Y-55776034D01*
X88463722Y-55718481D01*
X88743077Y-55623652D01*
X89007665Y-55493172D01*
X89252957Y-55329273D01*
X89474758Y-55134758D01*
X89669273Y-54912957D01*
X89833172Y-54667665D01*
X89963652Y-54403077D01*
X90058481Y-54123722D01*
X90116034Y-53834380D01*
X90129599Y-53627426D01*
X90135329Y-53540007D01*
X90135329Y-53539992D01*
X90116035Y-53245636D01*
X90116034Y-53245620D01*
X90058481Y-52956278D01*
X89963652Y-52676923D01*
X89833172Y-52412336D01*
X89669273Y-52167043D01*
X89555415Y-52037213D01*
X89474758Y-51945241D01*
X89252955Y-51750725D01*
X89007667Y-51586829D01*
X89007660Y-51586825D01*
X88743080Y-51456349D01*
X88463730Y-51361521D01*
X88463724Y-51361519D01*
X88463722Y-51361519D01*
X88174380Y-51303966D01*
X88174373Y-51303965D01*
X88174363Y-51303964D01*
X87880007Y-51284671D01*
X87879993Y-51284671D01*
X87585636Y-51303964D01*
X87585624Y-51303965D01*
X87585620Y-51303966D01*
X87585612Y-51303967D01*
X87585609Y-51303968D01*
X87296283Y-51361518D01*
X87296269Y-51361521D01*
X87016919Y-51456349D01*
X86752334Y-51586828D01*
X86507041Y-51750728D01*
X86285241Y-51945241D01*
X86090728Y-52167041D01*
X85926828Y-52412334D01*
X85796349Y-52676919D01*
X85701521Y-52956269D01*
X85701518Y-52956283D01*
X85643968Y-53245609D01*
X85643964Y-53245636D01*
X85624671Y-53539992D01*
X85624671Y-53540007D01*
X82761771Y-53540007D01*
X82760500Y-53496329D01*
X82760500Y-53365241D01*
X82755734Y-53324480D01*
X82755342Y-53319093D01*
X82754149Y-53278046D01*
X82735139Y-53148273D01*
X82719923Y-53018086D01*
X82710456Y-52978145D01*
X82709442Y-52972840D01*
X82707015Y-52956269D01*
X82703492Y-52932218D01*
X82669550Y-52805546D01*
X82639319Y-52677989D01*
X82625278Y-52639411D01*
X82623660Y-52634282D01*
X82613030Y-52594609D01*
X82564616Y-52472745D01*
X82519777Y-52349549D01*
X82511216Y-52332504D01*
X82501355Y-52312868D01*
X82499139Y-52307930D01*
X82483986Y-52269786D01*
X82421758Y-52154377D01*
X82362917Y-52037213D01*
X82362914Y-52037209D01*
X82340355Y-52002910D01*
X82337589Y-51998278D01*
X82318104Y-51962139D01*
X82242898Y-51854735D01*
X82170849Y-51745189D01*
X82170847Y-51745186D01*
X82170846Y-51745185D01*
X82163781Y-51736765D01*
X82144454Y-51713733D01*
X82141175Y-51709459D01*
X82117628Y-51675830D01*
X82030463Y-51577883D01*
X81946183Y-51477442D01*
X81892592Y-51426882D01*
X81850811Y-51387462D01*
X81779946Y-51316597D01*
X81705075Y-51249968D01*
X81691954Y-51237589D01*
X81691953Y-51237588D01*
X81689285Y-51235602D01*
X81685114Y-51232204D01*
X81584170Y-51142372D01*
X81297861Y-50941896D01*
X81297852Y-50941891D01*
X80990220Y-50776017D01*
X80990203Y-50776010D01*
X80665397Y-50646973D01*
X80665386Y-50646969D01*
X80327785Y-50556508D01*
X79981955Y-50505852D01*
X79956999Y-50505125D01*
X79632584Y-50495686D01*
X79632580Y-50495686D01*
X79632571Y-50495686D01*
X79284398Y-50526148D01*
X79284396Y-50526148D01*
X79232143Y-50536938D01*
X79207068Y-50539500D01*
X68952695Y-50539500D01*
X68778280Y-50549658D01*
X68691072Y-50554738D01*
X68691061Y-50554739D01*
X68346872Y-50615428D01*
X68346865Y-50615430D01*
X68012027Y-50715674D01*
X67691104Y-50854107D01*
X67691091Y-50854113D01*
X67388402Y-51028870D01*
X67108050Y-51237584D01*
X67108044Y-51237589D01*
X66853819Y-51477440D01*
X66853817Y-51477442D01*
X66629152Y-51745186D01*
X66629146Y-51745194D01*
X66437088Y-52037203D01*
X66280226Y-52349541D01*
X66280223Y-52349547D01*
X66160681Y-52677987D01*
X66160680Y-52677990D01*
X66080077Y-53018083D01*
X66080077Y-53018085D01*
X66080077Y-53018086D01*
X66039500Y-53365241D01*
X66039500Y-53714759D01*
X20500500Y-53714759D01*
X20500500Y-44539999D01*
X66154551Y-44539999D01*
X66162275Y-44638142D01*
X66162466Y-44643008D01*
X66162466Y-44665734D01*
X66166019Y-44688167D01*
X66166592Y-44693002D01*
X66170603Y-44743959D01*
X66174317Y-44791148D01*
X66174317Y-44791151D01*
X66174318Y-44791153D01*
X66197296Y-44886867D01*
X66198246Y-44891642D01*
X66201801Y-44914090D01*
X66208824Y-44935705D01*
X66210146Y-44940390D01*
X66233127Y-45036114D01*
X66270797Y-45127057D01*
X66272482Y-45131623D01*
X66278170Y-45149126D01*
X66279507Y-45153240D01*
X66279508Y-45153243D01*
X66279509Y-45153244D01*
X66289821Y-45173484D01*
X66291858Y-45177904D01*
X66329532Y-45268857D01*
X66380973Y-45352803D01*
X66383351Y-45357048D01*
X66390514Y-45371104D01*
X66393666Y-45377290D01*
X66393667Y-45377292D01*
X66407017Y-45395667D01*
X66409722Y-45399714D01*
X66459021Y-45480163D01*
X66461164Y-45483659D01*
X66461171Y-45483667D01*
X66525094Y-45558511D01*
X66528107Y-45562332D01*
X66541469Y-45580724D01*
X66557547Y-45596802D01*
X66560832Y-45600355D01*
X66624776Y-45675224D01*
X66699639Y-45739163D01*
X66703202Y-45742457D01*
X66719276Y-45758531D01*
X66737654Y-45771883D01*
X66737665Y-45771891D01*
X66741471Y-45774891D01*
X66816341Y-45838836D01*
X66816343Y-45838837D01*
X66816344Y-45838838D01*
X66816345Y-45838839D01*
X66900277Y-45890272D01*
X66904325Y-45892977D01*
X66904335Y-45892984D01*
X66922710Y-45906334D01*
X66942961Y-45916652D01*
X66947179Y-45919014D01*
X67031141Y-45970466D01*
X67031143Y-45970466D01*
X67031145Y-45970468D01*
X67072908Y-45987766D01*
X67122101Y-46008142D01*
X67126515Y-46010178D01*
X67134608Y-46014301D01*
X67146760Y-46020493D01*
X67168380Y-46027517D01*
X67172923Y-46029194D01*
X67263889Y-46066873D01*
X67359627Y-46089857D01*
X67364289Y-46091172D01*
X67385910Y-46098198D01*
X67385911Y-46098198D01*
X67385914Y-46098199D01*
X67394646Y-46099581D01*
X67408367Y-46101754D01*
X67413107Y-46102696D01*
X67508852Y-46125683D01*
X67607024Y-46133409D01*
X67611795Y-46133974D01*
X67634271Y-46137534D01*
X67634275Y-46137534D01*
X67656992Y-46137534D01*
X67661858Y-46137725D01*
X67760000Y-46145449D01*
X67858142Y-46137725D01*
X67863008Y-46137534D01*
X67885725Y-46137534D01*
X67885729Y-46137534D01*
X67908204Y-46133974D01*
X67912975Y-46133409D01*
X68011148Y-46125683D01*
X68106897Y-46102695D01*
X68111627Y-46101755D01*
X68134090Y-46098198D01*
X68155737Y-46091164D01*
X68160351Y-46089862D01*
X68256111Y-46066873D01*
X68347090Y-46029188D01*
X68351599Y-46027524D01*
X68373240Y-46020493D01*
X68393508Y-46010165D01*
X68397863Y-46008157D01*
X68488859Y-45970466D01*
X68572833Y-45919006D01*
X68577018Y-45916662D01*
X68597290Y-45906334D01*
X68615684Y-45892969D01*
X68619707Y-45890281D01*
X68703659Y-45838836D01*
X68778547Y-45774875D01*
X68782314Y-45771906D01*
X68800724Y-45758531D01*
X68816819Y-45742435D01*
X68820347Y-45739174D01*
X68895224Y-45675224D01*
X68959174Y-45600347D01*
X68962435Y-45596819D01*
X68978531Y-45580724D01*
X68991906Y-45562314D01*
X68994875Y-45558547D01*
X69058836Y-45483659D01*
X69110281Y-45399707D01*
X69112969Y-45395684D01*
X69126334Y-45377290D01*
X69136662Y-45357018D01*
X69139006Y-45352833D01*
X69190466Y-45268859D01*
X69228157Y-45177863D01*
X69230165Y-45173508D01*
X69240493Y-45153240D01*
X69247524Y-45131599D01*
X69249188Y-45127090D01*
X69286873Y-45036111D01*
X69309862Y-44940351D01*
X69311164Y-44935737D01*
X69318198Y-44914090D01*
X69321755Y-44891627D01*
X69322695Y-44886897D01*
X69345683Y-44791148D01*
X69353409Y-44692978D01*
X69353974Y-44688201D01*
X69357534Y-44665729D01*
X69358155Y-44634043D01*
X69358334Y-44630401D01*
X69365449Y-44540000D01*
X69365449Y-44539999D01*
X98274551Y-44539999D01*
X98282275Y-44638142D01*
X98282466Y-44643008D01*
X98282466Y-44665734D01*
X98286019Y-44688167D01*
X98286592Y-44693002D01*
X98290603Y-44743959D01*
X98294317Y-44791148D01*
X98294317Y-44791151D01*
X98294318Y-44791153D01*
X98317296Y-44886867D01*
X98318246Y-44891642D01*
X98321801Y-44914090D01*
X98328824Y-44935705D01*
X98330146Y-44940390D01*
X98353127Y-45036114D01*
X98390797Y-45127057D01*
X98392482Y-45131623D01*
X98398170Y-45149126D01*
X98399507Y-45153240D01*
X98399508Y-45153243D01*
X98399509Y-45153244D01*
X98409821Y-45173484D01*
X98411858Y-45177904D01*
X98449532Y-45268857D01*
X98500973Y-45352803D01*
X98503351Y-45357048D01*
X98510514Y-45371104D01*
X98513666Y-45377290D01*
X98513667Y-45377292D01*
X98527017Y-45395667D01*
X98529722Y-45399714D01*
X98579021Y-45480163D01*
X98581164Y-45483659D01*
X98581171Y-45483667D01*
X98645094Y-45558511D01*
X98648107Y-45562332D01*
X98661469Y-45580724D01*
X98677547Y-45596802D01*
X98680832Y-45600355D01*
X98744776Y-45675224D01*
X98819639Y-45739163D01*
X98823202Y-45742457D01*
X98839276Y-45758531D01*
X98857654Y-45771883D01*
X98857665Y-45771891D01*
X98861471Y-45774891D01*
X98936341Y-45838836D01*
X98936343Y-45838837D01*
X98936344Y-45838838D01*
X98936345Y-45838839D01*
X99020277Y-45890272D01*
X99024325Y-45892977D01*
X99024335Y-45892984D01*
X99042710Y-45906334D01*
X99062961Y-45916652D01*
X99067179Y-45919014D01*
X99151141Y-45970466D01*
X99151143Y-45970466D01*
X99151145Y-45970468D01*
X99192908Y-45987766D01*
X99242101Y-46008142D01*
X99246515Y-46010178D01*
X99254608Y-46014301D01*
X99266760Y-46020493D01*
X99288380Y-46027517D01*
X99292923Y-46029194D01*
X99383889Y-46066873D01*
X99479627Y-46089857D01*
X99484289Y-46091172D01*
X99505910Y-46098198D01*
X99505911Y-46098198D01*
X99505914Y-46098199D01*
X99514646Y-46099581D01*
X99528367Y-46101754D01*
X99533107Y-46102696D01*
X99628852Y-46125683D01*
X99727024Y-46133409D01*
X99731795Y-46133974D01*
X99754271Y-46137534D01*
X99754275Y-46137534D01*
X99776992Y-46137534D01*
X99781858Y-46137725D01*
X99880000Y-46145449D01*
X99978142Y-46137725D01*
X99983008Y-46137534D01*
X100005725Y-46137534D01*
X100005729Y-46137534D01*
X100028204Y-46133974D01*
X100032975Y-46133409D01*
X100131148Y-46125683D01*
X100226897Y-46102695D01*
X100231627Y-46101755D01*
X100254090Y-46098198D01*
X100275737Y-46091164D01*
X100280351Y-46089862D01*
X100376111Y-46066873D01*
X100467090Y-46029188D01*
X100471599Y-46027524D01*
X100493240Y-46020493D01*
X100513508Y-46010165D01*
X100517863Y-46008157D01*
X100608859Y-45970466D01*
X100692833Y-45919006D01*
X100697018Y-45916662D01*
X100717290Y-45906334D01*
X100735684Y-45892969D01*
X100739707Y-45890281D01*
X100823659Y-45838836D01*
X100898547Y-45774875D01*
X100902314Y-45771906D01*
X100920724Y-45758531D01*
X100936819Y-45742435D01*
X100940347Y-45739174D01*
X101015224Y-45675224D01*
X101079174Y-45600347D01*
X101082435Y-45596819D01*
X101098531Y-45580724D01*
X101111906Y-45562314D01*
X101114875Y-45558547D01*
X101178836Y-45483659D01*
X101230281Y-45399707D01*
X101232969Y-45395684D01*
X101246334Y-45377290D01*
X101256662Y-45357018D01*
X101259006Y-45352833D01*
X101310466Y-45268859D01*
X101348157Y-45177863D01*
X101350165Y-45173508D01*
X101360493Y-45153240D01*
X101367524Y-45131599D01*
X101369188Y-45127090D01*
X101406873Y-45036111D01*
X101429862Y-44940351D01*
X101431164Y-44935737D01*
X101438198Y-44914090D01*
X101441755Y-44891627D01*
X101442695Y-44886897D01*
X101465683Y-44791148D01*
X101473409Y-44692978D01*
X101473974Y-44688201D01*
X101477534Y-44665729D01*
X101478155Y-44634043D01*
X101478334Y-44630401D01*
X101485449Y-44540000D01*
X101478333Y-44449593D01*
X101478155Y-44445946D01*
X101477979Y-44436990D01*
X101477534Y-44414271D01*
X101473974Y-44391798D01*
X101473409Y-44387021D01*
X101465683Y-44288852D01*
X101442696Y-44193107D01*
X101441753Y-44188357D01*
X101438198Y-44165913D01*
X101438198Y-44165911D01*
X101438195Y-44165903D01*
X101431172Y-44144289D01*
X101429857Y-44139627D01*
X101406873Y-44043889D01*
X101369194Y-43952923D01*
X101367517Y-43948380D01*
X101360493Y-43926760D01*
X101350178Y-43906515D01*
X101348139Y-43902093D01*
X101310468Y-43811145D01*
X101310466Y-43811141D01*
X101259014Y-43727179D01*
X101256649Y-43722955D01*
X101246337Y-43702716D01*
X101246334Y-43702710D01*
X101238039Y-43691293D01*
X101232977Y-43684325D01*
X101230272Y-43680277D01*
X101178839Y-43596345D01*
X101178838Y-43596344D01*
X101178837Y-43596343D01*
X101178836Y-43596341D01*
X101114891Y-43521471D01*
X101111891Y-43517665D01*
X101098531Y-43499276D01*
X101082453Y-43483198D01*
X101079163Y-43479639D01*
X101015224Y-43404776D01*
X100940355Y-43340832D01*
X100936799Y-43337544D01*
X100920724Y-43321469D01*
X100902332Y-43308107D01*
X100898511Y-43305094D01*
X100823667Y-43241171D01*
X100823659Y-43241164D01*
X100823654Y-43241161D01*
X100823653Y-43241160D01*
X100739714Y-43189722D01*
X100735667Y-43187017D01*
X100717292Y-43173667D01*
X100717290Y-43173666D01*
X100711104Y-43170514D01*
X100697048Y-43163351D01*
X100692803Y-43160973D01*
X100608857Y-43109532D01*
X100517904Y-43071858D01*
X100513484Y-43069821D01*
X100493244Y-43059509D01*
X100493243Y-43059508D01*
X100493240Y-43059507D01*
X100489126Y-43058170D01*
X100471623Y-43052482D01*
X100467057Y-43050797D01*
X100376114Y-43013127D01*
X100280390Y-42990146D01*
X100275705Y-42988824D01*
X100254090Y-42981801D01*
X100231642Y-42978246D01*
X100226867Y-42977296D01*
X100131152Y-42954318D01*
X100131153Y-42954318D01*
X100131151Y-42954317D01*
X100131148Y-42954317D01*
X100083959Y-42950603D01*
X100033002Y-42946592D01*
X100028167Y-42946019D01*
X100005734Y-42942466D01*
X100005729Y-42942466D01*
X99983008Y-42942466D01*
X99978142Y-42942275D01*
X99880000Y-42934551D01*
X99781858Y-42942275D01*
X99776992Y-42942466D01*
X99754271Y-42942466D01*
X99731833Y-42946019D01*
X99726998Y-42946592D01*
X99628851Y-42954317D01*
X99628844Y-42954318D01*
X99533132Y-42977296D01*
X99528357Y-42978246D01*
X99505913Y-42981801D01*
X99505903Y-42981803D01*
X99484299Y-42988823D01*
X99479612Y-42990145D01*
X99383891Y-43013125D01*
X99292938Y-43050799D01*
X99288373Y-43052483D01*
X99266757Y-43059507D01*
X99246515Y-43069820D01*
X99242098Y-43071856D01*
X99151141Y-43109534D01*
X99067201Y-43160970D01*
X99062958Y-43163347D01*
X99042716Y-43173662D01*
X99042708Y-43173667D01*
X99024330Y-43187018D01*
X99020286Y-43189720D01*
X98936339Y-43241165D01*
X98861482Y-43305098D01*
X98857660Y-43308111D01*
X98839276Y-43321469D01*
X98823198Y-43337544D01*
X98819626Y-43340846D01*
X98744775Y-43404775D01*
X98680846Y-43479626D01*
X98677544Y-43483198D01*
X98661469Y-43499276D01*
X98648111Y-43517660D01*
X98645098Y-43521482D01*
X98581165Y-43596339D01*
X98529720Y-43680286D01*
X98527018Y-43684330D01*
X98513667Y-43702708D01*
X98513662Y-43702716D01*
X98503347Y-43722958D01*
X98500970Y-43727201D01*
X98449534Y-43811141D01*
X98411856Y-43902098D01*
X98409820Y-43906515D01*
X98399507Y-43926757D01*
X98392483Y-43948373D01*
X98390799Y-43952938D01*
X98353125Y-44043891D01*
X98330145Y-44139612D01*
X98328823Y-44144299D01*
X98321803Y-44165903D01*
X98321801Y-44165913D01*
X98318246Y-44188357D01*
X98317296Y-44193132D01*
X98294318Y-44288844D01*
X98294317Y-44288851D01*
X98286592Y-44386998D01*
X98286019Y-44391833D01*
X98282466Y-44414270D01*
X98282466Y-44436990D01*
X98282275Y-44441856D01*
X98274551Y-44539999D01*
X69365449Y-44539999D01*
X69358333Y-44449593D01*
X69358155Y-44445946D01*
X69357979Y-44436990D01*
X69357534Y-44414271D01*
X69353974Y-44391798D01*
X69353409Y-44387021D01*
X69345683Y-44288852D01*
X69322696Y-44193107D01*
X69321753Y-44188357D01*
X69318198Y-44165913D01*
X69318198Y-44165911D01*
X69318195Y-44165903D01*
X69311172Y-44144289D01*
X69309857Y-44139627D01*
X69286873Y-44043889D01*
X69249194Y-43952923D01*
X69247517Y-43948380D01*
X69240493Y-43926760D01*
X69230178Y-43906515D01*
X69228139Y-43902093D01*
X69190468Y-43811145D01*
X69190466Y-43811141D01*
X69139014Y-43727179D01*
X69136649Y-43722955D01*
X69126337Y-43702716D01*
X69126334Y-43702710D01*
X69118039Y-43691293D01*
X69112977Y-43684325D01*
X69110272Y-43680277D01*
X69058839Y-43596345D01*
X69058838Y-43596344D01*
X69058837Y-43596343D01*
X69058836Y-43596341D01*
X68994891Y-43521471D01*
X68991891Y-43517665D01*
X68978531Y-43499276D01*
X68962453Y-43483198D01*
X68959163Y-43479639D01*
X68895224Y-43404776D01*
X68820355Y-43340832D01*
X68816799Y-43337544D01*
X68800724Y-43321469D01*
X68782332Y-43308107D01*
X68778511Y-43305094D01*
X68703667Y-43241171D01*
X68703659Y-43241164D01*
X68703654Y-43241161D01*
X68703653Y-43241160D01*
X68619714Y-43189722D01*
X68615667Y-43187017D01*
X68597292Y-43173667D01*
X68597290Y-43173666D01*
X68591104Y-43170514D01*
X68577048Y-43163351D01*
X68572803Y-43160973D01*
X68488857Y-43109532D01*
X68397904Y-43071858D01*
X68393484Y-43069821D01*
X68373244Y-43059509D01*
X68373243Y-43059508D01*
X68373240Y-43059507D01*
X68369126Y-43058170D01*
X68351623Y-43052482D01*
X68347057Y-43050797D01*
X68256114Y-43013127D01*
X68160390Y-42990146D01*
X68155705Y-42988824D01*
X68134090Y-42981801D01*
X68111642Y-42978246D01*
X68106867Y-42977296D01*
X68011152Y-42954318D01*
X68011153Y-42954318D01*
X68011151Y-42954317D01*
X68011148Y-42954317D01*
X67963959Y-42950603D01*
X67913002Y-42946592D01*
X67908167Y-42946019D01*
X67885734Y-42942466D01*
X67885729Y-42942466D01*
X67863008Y-42942466D01*
X67858142Y-42942275D01*
X67760000Y-42934551D01*
X67661858Y-42942275D01*
X67656992Y-42942466D01*
X67634271Y-42942466D01*
X67611833Y-42946019D01*
X67606998Y-42946592D01*
X67508851Y-42954317D01*
X67508844Y-42954318D01*
X67413132Y-42977296D01*
X67408357Y-42978246D01*
X67385913Y-42981801D01*
X67385903Y-42981803D01*
X67364299Y-42988823D01*
X67359612Y-42990145D01*
X67263891Y-43013125D01*
X67172938Y-43050799D01*
X67168373Y-43052483D01*
X67146757Y-43059507D01*
X67126515Y-43069820D01*
X67122098Y-43071856D01*
X67031141Y-43109534D01*
X66947201Y-43160970D01*
X66942958Y-43163347D01*
X66922716Y-43173662D01*
X66922708Y-43173667D01*
X66904330Y-43187018D01*
X66900286Y-43189720D01*
X66816339Y-43241165D01*
X66741482Y-43305098D01*
X66737660Y-43308111D01*
X66719276Y-43321469D01*
X66703198Y-43337544D01*
X66699626Y-43340846D01*
X66624775Y-43404775D01*
X66560846Y-43479626D01*
X66557544Y-43483198D01*
X66541469Y-43499276D01*
X66528111Y-43517660D01*
X66525098Y-43521482D01*
X66461165Y-43596339D01*
X66409720Y-43680286D01*
X66407018Y-43684330D01*
X66393667Y-43702708D01*
X66393662Y-43702716D01*
X66383347Y-43722958D01*
X66380970Y-43727201D01*
X66329534Y-43811141D01*
X66291856Y-43902098D01*
X66289820Y-43906515D01*
X66279507Y-43926757D01*
X66272483Y-43948373D01*
X66270799Y-43952938D01*
X66233125Y-44043891D01*
X66210145Y-44139612D01*
X66208823Y-44144299D01*
X66201803Y-44165903D01*
X66201801Y-44165913D01*
X66198246Y-44188357D01*
X66197296Y-44193132D01*
X66174318Y-44288844D01*
X66174317Y-44288851D01*
X66166592Y-44386998D01*
X66166019Y-44391833D01*
X66162466Y-44414270D01*
X66162466Y-44436990D01*
X66162275Y-44441856D01*
X66154551Y-44539999D01*
X20500500Y-44539999D01*
X20500500Y-37539999D01*
X38154551Y-37539999D01*
X38162275Y-37638142D01*
X38162466Y-37643008D01*
X38162466Y-37665734D01*
X38166019Y-37688167D01*
X38166592Y-37693002D01*
X38170603Y-37743959D01*
X38174317Y-37791148D01*
X38174317Y-37791151D01*
X38174318Y-37791153D01*
X38197296Y-37886867D01*
X38198246Y-37891642D01*
X38201801Y-37914090D01*
X38208824Y-37935705D01*
X38210146Y-37940390D01*
X38233127Y-38036114D01*
X38270797Y-38127057D01*
X38272482Y-38131623D01*
X38278170Y-38149126D01*
X38279507Y-38153240D01*
X38279508Y-38153243D01*
X38279509Y-38153244D01*
X38289821Y-38173484D01*
X38291858Y-38177904D01*
X38329532Y-38268857D01*
X38380973Y-38352803D01*
X38383351Y-38357048D01*
X38390514Y-38371104D01*
X38393666Y-38377290D01*
X38393667Y-38377292D01*
X38407017Y-38395667D01*
X38409722Y-38399714D01*
X38459021Y-38480163D01*
X38461164Y-38483659D01*
X38461171Y-38483667D01*
X38525094Y-38558511D01*
X38528107Y-38562332D01*
X38541469Y-38580724D01*
X38557547Y-38596802D01*
X38560832Y-38600355D01*
X38624776Y-38675224D01*
X38699639Y-38739163D01*
X38703202Y-38742457D01*
X38719276Y-38758531D01*
X38737654Y-38771883D01*
X38737665Y-38771891D01*
X38741471Y-38774891D01*
X38816341Y-38838836D01*
X38816343Y-38838837D01*
X38816344Y-38838838D01*
X38816345Y-38838839D01*
X38900277Y-38890272D01*
X38904325Y-38892977D01*
X38904335Y-38892984D01*
X38922710Y-38906334D01*
X38942961Y-38916652D01*
X38947179Y-38919014D01*
X39031141Y-38970466D01*
X39031143Y-38970466D01*
X39031145Y-38970468D01*
X39072908Y-38987766D01*
X39122101Y-39008142D01*
X39126515Y-39010178D01*
X39134608Y-39014301D01*
X39146760Y-39020493D01*
X39168380Y-39027517D01*
X39172923Y-39029194D01*
X39263889Y-39066873D01*
X39359627Y-39089857D01*
X39364289Y-39091172D01*
X39385910Y-39098198D01*
X39385911Y-39098198D01*
X39385914Y-39098199D01*
X39394646Y-39099581D01*
X39408367Y-39101754D01*
X39413107Y-39102696D01*
X39508852Y-39125683D01*
X39607024Y-39133409D01*
X39611795Y-39133974D01*
X39634271Y-39137534D01*
X39634275Y-39137534D01*
X39656992Y-39137534D01*
X39661858Y-39137725D01*
X39760000Y-39145449D01*
X39858142Y-39137725D01*
X39863008Y-39137534D01*
X39885725Y-39137534D01*
X39885729Y-39137534D01*
X39908204Y-39133974D01*
X39912975Y-39133409D01*
X40011148Y-39125683D01*
X40106897Y-39102695D01*
X40111627Y-39101755D01*
X40134090Y-39098198D01*
X40155737Y-39091164D01*
X40160351Y-39089862D01*
X40256111Y-39066873D01*
X40347090Y-39029188D01*
X40351599Y-39027524D01*
X40373240Y-39020493D01*
X40393508Y-39010165D01*
X40397863Y-39008157D01*
X40488859Y-38970466D01*
X40572833Y-38919006D01*
X40577018Y-38916662D01*
X40597290Y-38906334D01*
X40615684Y-38892969D01*
X40619707Y-38890281D01*
X40703659Y-38838836D01*
X40778547Y-38774875D01*
X40782314Y-38771906D01*
X40800724Y-38758531D01*
X40816819Y-38742435D01*
X40820347Y-38739174D01*
X40895224Y-38675224D01*
X40959174Y-38600347D01*
X40962435Y-38596819D01*
X40978531Y-38580724D01*
X40991906Y-38562314D01*
X40994875Y-38558547D01*
X41058836Y-38483659D01*
X41110281Y-38399707D01*
X41112969Y-38395684D01*
X41126334Y-38377290D01*
X41136662Y-38357018D01*
X41139006Y-38352833D01*
X41190466Y-38268859D01*
X41228157Y-38177863D01*
X41230165Y-38173508D01*
X41240493Y-38153240D01*
X41247524Y-38131599D01*
X41249188Y-38127090D01*
X41286873Y-38036111D01*
X41309862Y-37940351D01*
X41311164Y-37935737D01*
X41318198Y-37914090D01*
X41321755Y-37891627D01*
X41322695Y-37886897D01*
X41345683Y-37791148D01*
X41353409Y-37692978D01*
X41353974Y-37688201D01*
X41357534Y-37665729D01*
X41358155Y-37634043D01*
X41358334Y-37630401D01*
X41365449Y-37540000D01*
X41365449Y-37539999D01*
X126274551Y-37539999D01*
X126282275Y-37638142D01*
X126282466Y-37643008D01*
X126282466Y-37665734D01*
X126286019Y-37688167D01*
X126286592Y-37693002D01*
X126290603Y-37743959D01*
X126294317Y-37791148D01*
X126294317Y-37791151D01*
X126294318Y-37791153D01*
X126317296Y-37886867D01*
X126318246Y-37891642D01*
X126321801Y-37914090D01*
X126328824Y-37935705D01*
X126330146Y-37940390D01*
X126353127Y-38036114D01*
X126390797Y-38127057D01*
X126392482Y-38131623D01*
X126398170Y-38149126D01*
X126399507Y-38153240D01*
X126399508Y-38153243D01*
X126399509Y-38153244D01*
X126409821Y-38173484D01*
X126411858Y-38177904D01*
X126449532Y-38268857D01*
X126500973Y-38352803D01*
X126503351Y-38357048D01*
X126510514Y-38371104D01*
X126513666Y-38377290D01*
X126513667Y-38377292D01*
X126527017Y-38395667D01*
X126529722Y-38399714D01*
X126579021Y-38480163D01*
X126581164Y-38483659D01*
X126581171Y-38483667D01*
X126645094Y-38558511D01*
X126648107Y-38562332D01*
X126661469Y-38580724D01*
X126677547Y-38596802D01*
X126680832Y-38600355D01*
X126744776Y-38675224D01*
X126819639Y-38739163D01*
X126823202Y-38742457D01*
X126839276Y-38758531D01*
X126857654Y-38771883D01*
X126857665Y-38771891D01*
X126861471Y-38774891D01*
X126936341Y-38838836D01*
X126936343Y-38838837D01*
X126936344Y-38838838D01*
X126936345Y-38838839D01*
X127020277Y-38890272D01*
X127024325Y-38892977D01*
X127024335Y-38892984D01*
X127042710Y-38906334D01*
X127062961Y-38916652D01*
X127067179Y-38919014D01*
X127151141Y-38970466D01*
X127151143Y-38970466D01*
X127151145Y-38970468D01*
X127192908Y-38987766D01*
X127242101Y-39008142D01*
X127246515Y-39010178D01*
X127254608Y-39014301D01*
X127266760Y-39020493D01*
X127288380Y-39027517D01*
X127292923Y-39029194D01*
X127383889Y-39066873D01*
X127479627Y-39089857D01*
X127484289Y-39091172D01*
X127505910Y-39098198D01*
X127505911Y-39098198D01*
X127505914Y-39098199D01*
X127514646Y-39099581D01*
X127528367Y-39101754D01*
X127533107Y-39102696D01*
X127628852Y-39125683D01*
X127727024Y-39133409D01*
X127731795Y-39133974D01*
X127754271Y-39137534D01*
X127754275Y-39137534D01*
X127776992Y-39137534D01*
X127781858Y-39137725D01*
X127880000Y-39145449D01*
X127978142Y-39137725D01*
X127983008Y-39137534D01*
X128005725Y-39137534D01*
X128005729Y-39137534D01*
X128028204Y-39133974D01*
X128032975Y-39133409D01*
X128131148Y-39125683D01*
X128226897Y-39102695D01*
X128231627Y-39101755D01*
X128254090Y-39098198D01*
X128275737Y-39091164D01*
X128280351Y-39089862D01*
X128376111Y-39066873D01*
X128467090Y-39029188D01*
X128471599Y-39027524D01*
X128493240Y-39020493D01*
X128513508Y-39010165D01*
X128517863Y-39008157D01*
X128608859Y-38970466D01*
X128692833Y-38919006D01*
X128697018Y-38916662D01*
X128717290Y-38906334D01*
X128735684Y-38892969D01*
X128739707Y-38890281D01*
X128823659Y-38838836D01*
X128898547Y-38774875D01*
X128902314Y-38771906D01*
X128920724Y-38758531D01*
X128936819Y-38742435D01*
X128940347Y-38739174D01*
X129015224Y-38675224D01*
X129079174Y-38600347D01*
X129082435Y-38596819D01*
X129098531Y-38580724D01*
X129111906Y-38562314D01*
X129114875Y-38558547D01*
X129178836Y-38483659D01*
X129230281Y-38399707D01*
X129232969Y-38395684D01*
X129246334Y-38377290D01*
X129256662Y-38357018D01*
X129259006Y-38352833D01*
X129310466Y-38268859D01*
X129348157Y-38177863D01*
X129350165Y-38173508D01*
X129360493Y-38153240D01*
X129367524Y-38131599D01*
X129369188Y-38127090D01*
X129406873Y-38036111D01*
X129429862Y-37940351D01*
X129431164Y-37935737D01*
X129438198Y-37914090D01*
X129441755Y-37891627D01*
X129442695Y-37886897D01*
X129465683Y-37791148D01*
X129473409Y-37692978D01*
X129473974Y-37688201D01*
X129477534Y-37665729D01*
X129478155Y-37634043D01*
X129478334Y-37630401D01*
X129485449Y-37540000D01*
X129478333Y-37449593D01*
X129478155Y-37445946D01*
X129477979Y-37436990D01*
X129477534Y-37414271D01*
X129473974Y-37391798D01*
X129473409Y-37387021D01*
X129465683Y-37288852D01*
X129442696Y-37193107D01*
X129441753Y-37188357D01*
X129438198Y-37165913D01*
X129438198Y-37165911D01*
X129438195Y-37165903D01*
X129431172Y-37144289D01*
X129429857Y-37139627D01*
X129406873Y-37043889D01*
X129369194Y-36952923D01*
X129367517Y-36948380D01*
X129360493Y-36926760D01*
X129350178Y-36906515D01*
X129348139Y-36902093D01*
X129310468Y-36811145D01*
X129310466Y-36811141D01*
X129259014Y-36727179D01*
X129256649Y-36722955D01*
X129246337Y-36702716D01*
X129246334Y-36702710D01*
X129238039Y-36691293D01*
X129232977Y-36684325D01*
X129230272Y-36680277D01*
X129178839Y-36596345D01*
X129178838Y-36596344D01*
X129178837Y-36596343D01*
X129178836Y-36596341D01*
X129114891Y-36521471D01*
X129111891Y-36517665D01*
X129098531Y-36499276D01*
X129082453Y-36483198D01*
X129079163Y-36479639D01*
X129015224Y-36404776D01*
X128940355Y-36340832D01*
X128936799Y-36337544D01*
X128920724Y-36321469D01*
X128902332Y-36308107D01*
X128898511Y-36305094D01*
X128823667Y-36241171D01*
X128823659Y-36241164D01*
X128823654Y-36241161D01*
X128823653Y-36241160D01*
X128739714Y-36189722D01*
X128735667Y-36187017D01*
X128717292Y-36173667D01*
X128717290Y-36173666D01*
X128711104Y-36170514D01*
X128697048Y-36163351D01*
X128692803Y-36160973D01*
X128608857Y-36109532D01*
X128517904Y-36071858D01*
X128513484Y-36069821D01*
X128493244Y-36059509D01*
X128493243Y-36059508D01*
X128493240Y-36059507D01*
X128489126Y-36058170D01*
X128471623Y-36052482D01*
X128467057Y-36050797D01*
X128376114Y-36013127D01*
X128280390Y-35990146D01*
X128275705Y-35988824D01*
X128254090Y-35981801D01*
X128231642Y-35978246D01*
X128226867Y-35977296D01*
X128131152Y-35954318D01*
X128131153Y-35954318D01*
X128131151Y-35954317D01*
X128131148Y-35954317D01*
X128083959Y-35950603D01*
X128033002Y-35946592D01*
X128028167Y-35946019D01*
X128005734Y-35942466D01*
X128005729Y-35942466D01*
X127983008Y-35942466D01*
X127978142Y-35942275D01*
X127880000Y-35934551D01*
X127781858Y-35942275D01*
X127776992Y-35942466D01*
X127754271Y-35942466D01*
X127731833Y-35946019D01*
X127726998Y-35946592D01*
X127628851Y-35954317D01*
X127628844Y-35954318D01*
X127533132Y-35977296D01*
X127528357Y-35978246D01*
X127505913Y-35981801D01*
X127505903Y-35981803D01*
X127484299Y-35988823D01*
X127479612Y-35990145D01*
X127383891Y-36013125D01*
X127292938Y-36050799D01*
X127288373Y-36052483D01*
X127266757Y-36059507D01*
X127246515Y-36069820D01*
X127242098Y-36071856D01*
X127151141Y-36109534D01*
X127067201Y-36160970D01*
X127062958Y-36163347D01*
X127042716Y-36173662D01*
X127042708Y-36173667D01*
X127024330Y-36187018D01*
X127020286Y-36189720D01*
X126936339Y-36241165D01*
X126861482Y-36305098D01*
X126857660Y-36308111D01*
X126839276Y-36321469D01*
X126823198Y-36337544D01*
X126819626Y-36340846D01*
X126744775Y-36404775D01*
X126680846Y-36479626D01*
X126677544Y-36483198D01*
X126661469Y-36499276D01*
X126648111Y-36517660D01*
X126645098Y-36521482D01*
X126581165Y-36596339D01*
X126529720Y-36680286D01*
X126527018Y-36684330D01*
X126513667Y-36702708D01*
X126513662Y-36702716D01*
X126503347Y-36722958D01*
X126500970Y-36727201D01*
X126449534Y-36811141D01*
X126411856Y-36902098D01*
X126409820Y-36906515D01*
X126399507Y-36926757D01*
X126392483Y-36948373D01*
X126390799Y-36952938D01*
X126353125Y-37043891D01*
X126330145Y-37139612D01*
X126328823Y-37144299D01*
X126321803Y-37165903D01*
X126321801Y-37165913D01*
X126318246Y-37188357D01*
X126317296Y-37193132D01*
X126294318Y-37288844D01*
X126294317Y-37288851D01*
X126286592Y-37386998D01*
X126286019Y-37391833D01*
X126282466Y-37414270D01*
X126282466Y-37436990D01*
X126282275Y-37441856D01*
X126274551Y-37539999D01*
X41365449Y-37539999D01*
X41358333Y-37449593D01*
X41358155Y-37445946D01*
X41357979Y-37436990D01*
X41357534Y-37414271D01*
X41353974Y-37391798D01*
X41353409Y-37387021D01*
X41345683Y-37288852D01*
X41322696Y-37193107D01*
X41321753Y-37188357D01*
X41318198Y-37165913D01*
X41318198Y-37165911D01*
X41318195Y-37165903D01*
X41311172Y-37144289D01*
X41309857Y-37139627D01*
X41286873Y-37043889D01*
X41249194Y-36952923D01*
X41247517Y-36948380D01*
X41240493Y-36926760D01*
X41230178Y-36906515D01*
X41228139Y-36902093D01*
X41190468Y-36811145D01*
X41190466Y-36811141D01*
X41139014Y-36727179D01*
X41136649Y-36722955D01*
X41126337Y-36702716D01*
X41126334Y-36702710D01*
X41118039Y-36691293D01*
X41112977Y-36684325D01*
X41110272Y-36680277D01*
X41058839Y-36596345D01*
X41058838Y-36596344D01*
X41058837Y-36596343D01*
X41058836Y-36596341D01*
X40994891Y-36521471D01*
X40991891Y-36517665D01*
X40978531Y-36499276D01*
X40962453Y-36483198D01*
X40959163Y-36479639D01*
X40895224Y-36404776D01*
X40820355Y-36340832D01*
X40816799Y-36337544D01*
X40800724Y-36321469D01*
X40782332Y-36308107D01*
X40778511Y-36305094D01*
X40703667Y-36241171D01*
X40703659Y-36241164D01*
X40703654Y-36241161D01*
X40703653Y-36241160D01*
X40619714Y-36189722D01*
X40615667Y-36187017D01*
X40597292Y-36173667D01*
X40597290Y-36173666D01*
X40591104Y-36170514D01*
X40577048Y-36163351D01*
X40572803Y-36160973D01*
X40488857Y-36109532D01*
X40397904Y-36071858D01*
X40393484Y-36069821D01*
X40373244Y-36059509D01*
X40373243Y-36059508D01*
X40373240Y-36059507D01*
X40369126Y-36058170D01*
X40351623Y-36052482D01*
X40347057Y-36050797D01*
X40256114Y-36013127D01*
X40160390Y-35990146D01*
X40155705Y-35988824D01*
X40134090Y-35981801D01*
X40111642Y-35978246D01*
X40106867Y-35977296D01*
X40011152Y-35954318D01*
X40011153Y-35954318D01*
X40011151Y-35954317D01*
X40011148Y-35954317D01*
X39963959Y-35950603D01*
X39913002Y-35946592D01*
X39908167Y-35946019D01*
X39885734Y-35942466D01*
X39885729Y-35942466D01*
X39863008Y-35942466D01*
X39858142Y-35942275D01*
X39760000Y-35934551D01*
X39661858Y-35942275D01*
X39656992Y-35942466D01*
X39634271Y-35942466D01*
X39611833Y-35946019D01*
X39606998Y-35946592D01*
X39508851Y-35954317D01*
X39508844Y-35954318D01*
X39413132Y-35977296D01*
X39408357Y-35978246D01*
X39385913Y-35981801D01*
X39385903Y-35981803D01*
X39364299Y-35988823D01*
X39359612Y-35990145D01*
X39263891Y-36013125D01*
X39172938Y-36050799D01*
X39168373Y-36052483D01*
X39146757Y-36059507D01*
X39126515Y-36069820D01*
X39122098Y-36071856D01*
X39031141Y-36109534D01*
X38947201Y-36160970D01*
X38942958Y-36163347D01*
X38922716Y-36173662D01*
X38922708Y-36173667D01*
X38904330Y-36187018D01*
X38900286Y-36189720D01*
X38816339Y-36241165D01*
X38741482Y-36305098D01*
X38737660Y-36308111D01*
X38719276Y-36321469D01*
X38703198Y-36337544D01*
X38699626Y-36340846D01*
X38624775Y-36404775D01*
X38560846Y-36479626D01*
X38557544Y-36483198D01*
X38541469Y-36499276D01*
X38528111Y-36517660D01*
X38525098Y-36521482D01*
X38461165Y-36596339D01*
X38409720Y-36680286D01*
X38407018Y-36684330D01*
X38393667Y-36702708D01*
X38393662Y-36702716D01*
X38383347Y-36722958D01*
X38380970Y-36727201D01*
X38329534Y-36811141D01*
X38291856Y-36902098D01*
X38289820Y-36906515D01*
X38279507Y-36926757D01*
X38272483Y-36948373D01*
X38270799Y-36952938D01*
X38233125Y-37043891D01*
X38210145Y-37139612D01*
X38208823Y-37144299D01*
X38201803Y-37165903D01*
X38201801Y-37165913D01*
X38198246Y-37188357D01*
X38197296Y-37193132D01*
X38174318Y-37288844D01*
X38174317Y-37288851D01*
X38166592Y-37386998D01*
X38166019Y-37391833D01*
X38162466Y-37414270D01*
X38162466Y-37436990D01*
X38162275Y-37441856D01*
X38154551Y-37539999D01*
X20500500Y-37539999D01*
X20500500Y-34097870D01*
X60369500Y-34097870D01*
X60369501Y-34097876D01*
X60375908Y-34157483D01*
X60426202Y-34292328D01*
X60426206Y-34292335D01*
X60512452Y-34407544D01*
X60512455Y-34407547D01*
X60627664Y-34493793D01*
X60627671Y-34493797D01*
X60762517Y-34544091D01*
X60762516Y-34544091D01*
X60769444Y-34544835D01*
X60822127Y-34550500D01*
X63017872Y-34550499D01*
X63077483Y-34544091D01*
X63212331Y-34493796D01*
X63327546Y-34407546D01*
X63413796Y-34292331D01*
X63464091Y-34157483D01*
X63470500Y-34097873D01*
X63470499Y-33000000D01*
X65445207Y-33000000D01*
X65464348Y-33243219D01*
X65521303Y-33480457D01*
X65614665Y-33705853D01*
X65614668Y-33705859D01*
X65657902Y-33776412D01*
X66309752Y-33124562D01*
X66340682Y-33250046D01*
X66419680Y-33400566D01*
X66532405Y-33527806D01*
X66672305Y-33624371D01*
X66831249Y-33684651D01*
X66875643Y-33690041D01*
X66223586Y-34342096D01*
X66294141Y-34385331D01*
X66294146Y-34385334D01*
X66519542Y-34478696D01*
X66756780Y-34535651D01*
X66756779Y-34535651D01*
X67000000Y-34554792D01*
X67243219Y-34535651D01*
X67480457Y-34478696D01*
X67705861Y-34385331D01*
X67776412Y-34342097D01*
X67776412Y-34342096D01*
X67124356Y-33690041D01*
X67168751Y-33684651D01*
X67327695Y-33624371D01*
X67467595Y-33527806D01*
X67580320Y-33400566D01*
X67659318Y-33250046D01*
X67690247Y-33124562D01*
X68342096Y-33776412D01*
X68342097Y-33776412D01*
X68385331Y-33705861D01*
X68478696Y-33480457D01*
X68535651Y-33243219D01*
X68554791Y-33000007D01*
X76894671Y-33000007D01*
X76913964Y-33294363D01*
X76913965Y-33294373D01*
X76913966Y-33294380D01*
X76970740Y-33579808D01*
X76971518Y-33583716D01*
X76971521Y-33583730D01*
X77066349Y-33863080D01*
X77196825Y-34127660D01*
X77196829Y-34127667D01*
X77360725Y-34372955D01*
X77555241Y-34594758D01*
X77777043Y-34789273D01*
X78022335Y-34953172D01*
X78286923Y-35083652D01*
X78566278Y-35178481D01*
X78855620Y-35236034D01*
X78883888Y-35237886D01*
X79149993Y-35255329D01*
X79150000Y-35255329D01*
X79150007Y-35255329D01*
X79385675Y-35239881D01*
X79444380Y-35236034D01*
X79733722Y-35178481D01*
X80013077Y-35083652D01*
X80277665Y-34953172D01*
X80522957Y-34789273D01*
X80744758Y-34594758D01*
X80939273Y-34372957D01*
X81103172Y-34127665D01*
X81233652Y-33863077D01*
X81328481Y-33583722D01*
X81386034Y-33294380D01*
X81390130Y-33231883D01*
X81405329Y-33000007D01*
X86594671Y-33000007D01*
X86613964Y-33294363D01*
X86613965Y-33294373D01*
X86613966Y-33294380D01*
X86670740Y-33579808D01*
X86671518Y-33583716D01*
X86671521Y-33583730D01*
X86766349Y-33863080D01*
X86896825Y-34127660D01*
X86896829Y-34127667D01*
X87060725Y-34372955D01*
X87255241Y-34594758D01*
X87477043Y-34789273D01*
X87722335Y-34953172D01*
X87986923Y-35083652D01*
X88266278Y-35178481D01*
X88555620Y-35236034D01*
X88583888Y-35237886D01*
X88849993Y-35255329D01*
X88850000Y-35255329D01*
X88850007Y-35255329D01*
X89085675Y-35239881D01*
X89144380Y-35236034D01*
X89433722Y-35178481D01*
X89713077Y-35083652D01*
X89977665Y-34953172D01*
X90222957Y-34789273D01*
X90444758Y-34594758D01*
X90639273Y-34372957D01*
X90803172Y-34127665D01*
X90817865Y-34097870D01*
X99264500Y-34097870D01*
X99264501Y-34097876D01*
X99270908Y-34157483D01*
X99321202Y-34292328D01*
X99321206Y-34292335D01*
X99407452Y-34407544D01*
X99407455Y-34407547D01*
X99522664Y-34493793D01*
X99522671Y-34493797D01*
X99657517Y-34544091D01*
X99657516Y-34544091D01*
X99664444Y-34544835D01*
X99717127Y-34550500D01*
X101912872Y-34550499D01*
X101972483Y-34544091D01*
X102107331Y-34493796D01*
X102222546Y-34407546D01*
X102308796Y-34292331D01*
X102359091Y-34157483D01*
X102365500Y-34097873D01*
X102365499Y-33000000D01*
X104340207Y-33000000D01*
X104359348Y-33243219D01*
X104416303Y-33480457D01*
X104509665Y-33705853D01*
X104509668Y-33705859D01*
X104552902Y-33776412D01*
X105204752Y-33124562D01*
X105235682Y-33250046D01*
X105314680Y-33400566D01*
X105427405Y-33527806D01*
X105567305Y-33624371D01*
X105726249Y-33684651D01*
X105770643Y-33690041D01*
X105118586Y-34342096D01*
X105189141Y-34385331D01*
X105189146Y-34385334D01*
X105414542Y-34478696D01*
X105651780Y-34535651D01*
X105651779Y-34535651D01*
X105895000Y-34554792D01*
X106138219Y-34535651D01*
X106375457Y-34478696D01*
X106600861Y-34385331D01*
X106671412Y-34342097D01*
X106671412Y-34342096D01*
X106019356Y-33690041D01*
X106063751Y-33684651D01*
X106222695Y-33624371D01*
X106362595Y-33527806D01*
X106475320Y-33400566D01*
X106554318Y-33250046D01*
X106585247Y-33124563D01*
X107237096Y-33776412D01*
X107237097Y-33776412D01*
X107280331Y-33705861D01*
X107373696Y-33480457D01*
X107430651Y-33243219D01*
X107449792Y-33000000D01*
X107430651Y-32756780D01*
X107373696Y-32519542D01*
X107280334Y-32294146D01*
X107280331Y-32294141D01*
X107237096Y-32223586D01*
X106585247Y-32875436D01*
X106554318Y-32749954D01*
X106475320Y-32599434D01*
X106362595Y-32472194D01*
X106222695Y-32375629D01*
X106063751Y-32315349D01*
X106019357Y-32309958D01*
X106329316Y-31999999D01*
X137394551Y-31999999D01*
X137402275Y-32098142D01*
X137402466Y-32103008D01*
X137402466Y-32125734D01*
X137406019Y-32148167D01*
X137406592Y-32153002D01*
X137410603Y-32203959D01*
X137414317Y-32251148D01*
X137414317Y-32251151D01*
X137414318Y-32251153D01*
X137437296Y-32346867D01*
X137438246Y-32351642D01*
X137441801Y-32374090D01*
X137448824Y-32395705D01*
X137450146Y-32400390D01*
X137473127Y-32496114D01*
X137510797Y-32587057D01*
X137512482Y-32591623D01*
X137518170Y-32609126D01*
X137519507Y-32613240D01*
X137519508Y-32613243D01*
X137519509Y-32613244D01*
X137529821Y-32633484D01*
X137531858Y-32637904D01*
X137569532Y-32728857D01*
X137620973Y-32812803D01*
X137623351Y-32817048D01*
X137630514Y-32831104D01*
X137633666Y-32837290D01*
X137633667Y-32837292D01*
X137647017Y-32855667D01*
X137649722Y-32859714D01*
X137699021Y-32940163D01*
X137701164Y-32943659D01*
X137701171Y-32943667D01*
X137765094Y-33018511D01*
X137768107Y-33022332D01*
X137781469Y-33040724D01*
X137797547Y-33056802D01*
X137800832Y-33060355D01*
X137864776Y-33135224D01*
X137939639Y-33199163D01*
X137943202Y-33202457D01*
X137959276Y-33218531D01*
X137977654Y-33231883D01*
X137977665Y-33231891D01*
X137981471Y-33234891D01*
X138056341Y-33298836D01*
X138056343Y-33298837D01*
X138056344Y-33298838D01*
X138056345Y-33298839D01*
X138140277Y-33350272D01*
X138144325Y-33352977D01*
X138144335Y-33352984D01*
X138162710Y-33366334D01*
X138182961Y-33376652D01*
X138187179Y-33379014D01*
X138271141Y-33430466D01*
X138271143Y-33430466D01*
X138271145Y-33430468D01*
X138312908Y-33447766D01*
X138362101Y-33468142D01*
X138366515Y-33470178D01*
X138374608Y-33474301D01*
X138386760Y-33480493D01*
X138408380Y-33487517D01*
X138412923Y-33489194D01*
X138503889Y-33526873D01*
X138599627Y-33549857D01*
X138604289Y-33551172D01*
X138625910Y-33558198D01*
X138625911Y-33558198D01*
X138625914Y-33558199D01*
X138634646Y-33559581D01*
X138648367Y-33561754D01*
X138653107Y-33562696D01*
X138748852Y-33585683D01*
X138847024Y-33593409D01*
X138851795Y-33593974D01*
X138874271Y-33597534D01*
X138874275Y-33597534D01*
X138896992Y-33597534D01*
X138901858Y-33597725D01*
X139000000Y-33605449D01*
X139098142Y-33597725D01*
X139103008Y-33597534D01*
X139125725Y-33597534D01*
X139125729Y-33597534D01*
X139148204Y-33593974D01*
X139152975Y-33593409D01*
X139251148Y-33585683D01*
X139346897Y-33562695D01*
X139351627Y-33561755D01*
X139374090Y-33558198D01*
X139395737Y-33551164D01*
X139400351Y-33549862D01*
X139496111Y-33526873D01*
X139587090Y-33489188D01*
X139591599Y-33487524D01*
X139613240Y-33480493D01*
X139633508Y-33470165D01*
X139637863Y-33468157D01*
X139728859Y-33430466D01*
X139812833Y-33379006D01*
X139817018Y-33376662D01*
X139837290Y-33366334D01*
X139855684Y-33352969D01*
X139859707Y-33350281D01*
X139943659Y-33298836D01*
X140018547Y-33234875D01*
X140022314Y-33231906D01*
X140040724Y-33218531D01*
X140056819Y-33202435D01*
X140060347Y-33199174D01*
X140135224Y-33135224D01*
X140199174Y-33060347D01*
X140202435Y-33056819D01*
X140218531Y-33040724D01*
X140231906Y-33022314D01*
X140234875Y-33018547D01*
X140298836Y-32943659D01*
X140350281Y-32859707D01*
X140352969Y-32855684D01*
X140366334Y-32837290D01*
X140376662Y-32817018D01*
X140379006Y-32812833D01*
X140430466Y-32728859D01*
X140468157Y-32637863D01*
X140470165Y-32633508D01*
X140480493Y-32613240D01*
X140487524Y-32591599D01*
X140489188Y-32587090D01*
X140526873Y-32496111D01*
X140549862Y-32400351D01*
X140551164Y-32395737D01*
X140558198Y-32374090D01*
X140561755Y-32351627D01*
X140562695Y-32346897D01*
X140585683Y-32251148D01*
X140593409Y-32152978D01*
X140593974Y-32148201D01*
X140597534Y-32125729D01*
X140598155Y-32094043D01*
X140598334Y-32090401D01*
X140601390Y-32051570D01*
X140605449Y-32000000D01*
X140598333Y-31909593D01*
X140598155Y-31905946D01*
X140598080Y-31902135D01*
X140597534Y-31874271D01*
X140593974Y-31851798D01*
X140593409Y-31847021D01*
X140585683Y-31748852D01*
X140562696Y-31653107D01*
X140561753Y-31648357D01*
X140558198Y-31625913D01*
X140558198Y-31625911D01*
X140558195Y-31625903D01*
X140551172Y-31604289D01*
X140549857Y-31599627D01*
X140526873Y-31503889D01*
X140489194Y-31412923D01*
X140487517Y-31408380D01*
X140480493Y-31386760D01*
X140470178Y-31366515D01*
X140468139Y-31362093D01*
X140430468Y-31271145D01*
X140430466Y-31271141D01*
X140379014Y-31187179D01*
X140376649Y-31182955D01*
X140366337Y-31162716D01*
X140366334Y-31162710D01*
X140358039Y-31151293D01*
X140352977Y-31144325D01*
X140350272Y-31140277D01*
X140298839Y-31056345D01*
X140298838Y-31056344D01*
X140298837Y-31056343D01*
X140298836Y-31056341D01*
X140234891Y-30981471D01*
X140231891Y-30977665D01*
X140218531Y-30959276D01*
X140202453Y-30943198D01*
X140199163Y-30939639D01*
X140135224Y-30864776D01*
X140060355Y-30800832D01*
X140056799Y-30797544D01*
X140040724Y-30781469D01*
X140022332Y-30768107D01*
X140018511Y-30765094D01*
X140017190Y-30763966D01*
X139943659Y-30701164D01*
X139943654Y-30701161D01*
X139943653Y-30701160D01*
X139859714Y-30649722D01*
X139855667Y-30647017D01*
X139837292Y-30633667D01*
X139837290Y-30633666D01*
X139831104Y-30630514D01*
X139817048Y-30623351D01*
X139812803Y-30620973D01*
X139728857Y-30569532D01*
X139637904Y-30531858D01*
X139633484Y-30529821D01*
X139613244Y-30519509D01*
X139613243Y-30519508D01*
X139613240Y-30519507D01*
X139609126Y-30518170D01*
X139591623Y-30512482D01*
X139587057Y-30510797D01*
X139496114Y-30473127D01*
X139400390Y-30450146D01*
X139395705Y-30448824D01*
X139374090Y-30441801D01*
X139351642Y-30438246D01*
X139346867Y-30437296D01*
X139251152Y-30414318D01*
X139251153Y-30414318D01*
X139251151Y-30414317D01*
X139251148Y-30414317D01*
X139203959Y-30410603D01*
X139153002Y-30406592D01*
X139148167Y-30406019D01*
X139125734Y-30402466D01*
X139125729Y-30402466D01*
X139103008Y-30402466D01*
X139098142Y-30402275D01*
X139000000Y-30394551D01*
X138901858Y-30402275D01*
X138896992Y-30402466D01*
X138874271Y-30402466D01*
X138851833Y-30406019D01*
X138846998Y-30406592D01*
X138748851Y-30414317D01*
X138748844Y-30414318D01*
X138653132Y-30437296D01*
X138648357Y-30438246D01*
X138625913Y-30441801D01*
X138625903Y-30441803D01*
X138604299Y-30448823D01*
X138599612Y-30450145D01*
X138503891Y-30473125D01*
X138412938Y-30510799D01*
X138408373Y-30512483D01*
X138386757Y-30519507D01*
X138366515Y-30529820D01*
X138362098Y-30531856D01*
X138271141Y-30569534D01*
X138187201Y-30620970D01*
X138182958Y-30623347D01*
X138162716Y-30633662D01*
X138162708Y-30633667D01*
X138144330Y-30647018D01*
X138140286Y-30649720D01*
X138056339Y-30701165D01*
X137981482Y-30765098D01*
X137977660Y-30768111D01*
X137959276Y-30781469D01*
X137943198Y-30797544D01*
X137939626Y-30800846D01*
X137864775Y-30864775D01*
X137800846Y-30939626D01*
X137797544Y-30943198D01*
X137781469Y-30959276D01*
X137768111Y-30977660D01*
X137765098Y-30981482D01*
X137701165Y-31056339D01*
X137649720Y-31140286D01*
X137647018Y-31144330D01*
X137633667Y-31162708D01*
X137633662Y-31162716D01*
X137623347Y-31182958D01*
X137620970Y-31187201D01*
X137569534Y-31271141D01*
X137531856Y-31362098D01*
X137529820Y-31366515D01*
X137519507Y-31386757D01*
X137512483Y-31408373D01*
X137510799Y-31412938D01*
X137473125Y-31503891D01*
X137450145Y-31599612D01*
X137448823Y-31604299D01*
X137441803Y-31625903D01*
X137441801Y-31625913D01*
X137438246Y-31648357D01*
X137437296Y-31653132D01*
X137414318Y-31748844D01*
X137414317Y-31748851D01*
X137406592Y-31846998D01*
X137406019Y-31851833D01*
X137402466Y-31874270D01*
X137402466Y-31896990D01*
X137402275Y-31901856D01*
X137394551Y-31999999D01*
X106329316Y-31999999D01*
X106671412Y-31657902D01*
X106600859Y-31614668D01*
X106600853Y-31614665D01*
X106375457Y-31521303D01*
X106138219Y-31464348D01*
X106138220Y-31464348D01*
X105895000Y-31445207D01*
X105651780Y-31464348D01*
X105414542Y-31521303D01*
X105189136Y-31614670D01*
X105118586Y-31657901D01*
X105770643Y-32309958D01*
X105726249Y-32315349D01*
X105567305Y-32375629D01*
X105427405Y-32472194D01*
X105314680Y-32599434D01*
X105235682Y-32749954D01*
X105204752Y-32875437D01*
X104552901Y-32223586D01*
X104509670Y-32294136D01*
X104416303Y-32519542D01*
X104359348Y-32756780D01*
X104340207Y-33000000D01*
X102365499Y-33000000D01*
X102365499Y-31902128D01*
X102359091Y-31842517D01*
X102324503Y-31749783D01*
X102308797Y-31707671D01*
X102308793Y-31707664D01*
X102222547Y-31592455D01*
X102222544Y-31592452D01*
X102107335Y-31506206D01*
X102107328Y-31506202D01*
X101972482Y-31455908D01*
X101972483Y-31455908D01*
X101912883Y-31449501D01*
X101912881Y-31449500D01*
X101912873Y-31449500D01*
X101912864Y-31449500D01*
X99717129Y-31449500D01*
X99717123Y-31449501D01*
X99657516Y-31455908D01*
X99522671Y-31506202D01*
X99522664Y-31506206D01*
X99407455Y-31592452D01*
X99407452Y-31592455D01*
X99321206Y-31707664D01*
X99321202Y-31707671D01*
X99270908Y-31842517D01*
X99265052Y-31896990D01*
X99264501Y-31902123D01*
X99264500Y-31902135D01*
X99264500Y-34097870D01*
X90817865Y-34097870D01*
X90933652Y-33863077D01*
X91028481Y-33583722D01*
X91086034Y-33294380D01*
X91090130Y-33231883D01*
X91105329Y-33000007D01*
X91105329Y-32999992D01*
X91086035Y-32705636D01*
X91086034Y-32705620D01*
X91028481Y-32416278D01*
X90933652Y-32136923D01*
X90803172Y-31872336D01*
X90789472Y-31851833D01*
X90721285Y-31749783D01*
X90639273Y-31627043D01*
X90546541Y-31521303D01*
X90444758Y-31405241D01*
X90222955Y-31210725D01*
X89977667Y-31046829D01*
X89977660Y-31046825D01*
X89713080Y-30916349D01*
X89433730Y-30821521D01*
X89433724Y-30821519D01*
X89433722Y-30821519D01*
X89144380Y-30763966D01*
X89144373Y-30763965D01*
X89144363Y-30763964D01*
X88850007Y-30744671D01*
X88849993Y-30744671D01*
X88555636Y-30763964D01*
X88555624Y-30763965D01*
X88555620Y-30763966D01*
X88555612Y-30763967D01*
X88555609Y-30763968D01*
X88266283Y-30821518D01*
X88266269Y-30821521D01*
X87986919Y-30916349D01*
X87722334Y-31046828D01*
X87477041Y-31210728D01*
X87255241Y-31405241D01*
X87060728Y-31627041D01*
X86896828Y-31872334D01*
X86766349Y-32136919D01*
X86671521Y-32416269D01*
X86671518Y-32416283D01*
X86613968Y-32705609D01*
X86613964Y-32705636D01*
X86594671Y-32999992D01*
X86594671Y-33000007D01*
X81405329Y-33000007D01*
X81405329Y-32999992D01*
X81386035Y-32705636D01*
X81386034Y-32705620D01*
X81328481Y-32416278D01*
X81233652Y-32136923D01*
X81103172Y-31872336D01*
X81089472Y-31851833D01*
X81021285Y-31749783D01*
X80939273Y-31627043D01*
X80846541Y-31521303D01*
X80744758Y-31405241D01*
X80522955Y-31210725D01*
X80277667Y-31046829D01*
X80277660Y-31046825D01*
X80013080Y-30916349D01*
X79733730Y-30821521D01*
X79733724Y-30821519D01*
X79733722Y-30821519D01*
X79444380Y-30763966D01*
X79444373Y-30763965D01*
X79444363Y-30763964D01*
X79150007Y-30744671D01*
X79149993Y-30744671D01*
X78855636Y-30763964D01*
X78855624Y-30763965D01*
X78855620Y-30763966D01*
X78855612Y-30763967D01*
X78855609Y-30763968D01*
X78566283Y-30821518D01*
X78566269Y-30821521D01*
X78286919Y-30916349D01*
X78022334Y-31046828D01*
X77777041Y-31210728D01*
X77555241Y-31405241D01*
X77360728Y-31627041D01*
X77196828Y-31872334D01*
X77066349Y-32136919D01*
X76971521Y-32416269D01*
X76971518Y-32416283D01*
X76913968Y-32705609D01*
X76913964Y-32705636D01*
X76894671Y-32999992D01*
X76894671Y-33000007D01*
X68554791Y-33000007D01*
X68554792Y-33000000D01*
X68535651Y-32756780D01*
X68478696Y-32519542D01*
X68385334Y-32294146D01*
X68385331Y-32294141D01*
X68342096Y-32223586D01*
X67690247Y-32875436D01*
X67659318Y-32749954D01*
X67580320Y-32599434D01*
X67467595Y-32472194D01*
X67327695Y-32375629D01*
X67168751Y-32315349D01*
X67124357Y-32309958D01*
X67776412Y-31657902D01*
X67705859Y-31614668D01*
X67705853Y-31614665D01*
X67480457Y-31521303D01*
X67243219Y-31464348D01*
X67243220Y-31464348D01*
X67000000Y-31445207D01*
X66756780Y-31464348D01*
X66519542Y-31521303D01*
X66294136Y-31614670D01*
X66223586Y-31657901D01*
X66875643Y-32309958D01*
X66831249Y-32315349D01*
X66672305Y-32375629D01*
X66532405Y-32472194D01*
X66419680Y-32599434D01*
X66340682Y-32749954D01*
X66309752Y-32875437D01*
X65657901Y-32223586D01*
X65614670Y-32294136D01*
X65521303Y-32519542D01*
X65464348Y-32756780D01*
X65445207Y-33000000D01*
X63470499Y-33000000D01*
X63470499Y-31902128D01*
X63464091Y-31842517D01*
X63429503Y-31749783D01*
X63413797Y-31707671D01*
X63413793Y-31707664D01*
X63327547Y-31592455D01*
X63327544Y-31592452D01*
X63212335Y-31506206D01*
X63212328Y-31506202D01*
X63077482Y-31455908D01*
X63077483Y-31455908D01*
X63017883Y-31449501D01*
X63017881Y-31449500D01*
X63017873Y-31449500D01*
X63017864Y-31449500D01*
X60822129Y-31449500D01*
X60822123Y-31449501D01*
X60762516Y-31455908D01*
X60627671Y-31506202D01*
X60627664Y-31506206D01*
X60512455Y-31592452D01*
X60512452Y-31592455D01*
X60426206Y-31707664D01*
X60426202Y-31707671D01*
X60375908Y-31842517D01*
X60370052Y-31896990D01*
X60369501Y-31902123D01*
X60369500Y-31902135D01*
X60369500Y-34097870D01*
X20500500Y-34097870D01*
X20500500Y-32051570D01*
X20515643Y-31999999D01*
X26894551Y-31999999D01*
X26902275Y-32098142D01*
X26902466Y-32103008D01*
X26902466Y-32125734D01*
X26906019Y-32148167D01*
X26906592Y-32153002D01*
X26910603Y-32203959D01*
X26914317Y-32251148D01*
X26914317Y-32251151D01*
X26914318Y-32251153D01*
X26937296Y-32346867D01*
X26938246Y-32351642D01*
X26941801Y-32374090D01*
X26948824Y-32395705D01*
X26950146Y-32400390D01*
X26973127Y-32496114D01*
X27010797Y-32587057D01*
X27012482Y-32591623D01*
X27018170Y-32609126D01*
X27019507Y-32613240D01*
X27019508Y-32613243D01*
X27019509Y-32613244D01*
X27029821Y-32633484D01*
X27031858Y-32637904D01*
X27069532Y-32728857D01*
X27120973Y-32812803D01*
X27123351Y-32817048D01*
X27130514Y-32831104D01*
X27133666Y-32837290D01*
X27133667Y-32837292D01*
X27147017Y-32855667D01*
X27149722Y-32859714D01*
X27199021Y-32940163D01*
X27201164Y-32943659D01*
X27201171Y-32943667D01*
X27265094Y-33018511D01*
X27268107Y-33022332D01*
X27281469Y-33040724D01*
X27297547Y-33056802D01*
X27300832Y-33060355D01*
X27364776Y-33135224D01*
X27439639Y-33199163D01*
X27443202Y-33202457D01*
X27459276Y-33218531D01*
X27477654Y-33231883D01*
X27477665Y-33231891D01*
X27481471Y-33234891D01*
X27556341Y-33298836D01*
X27556343Y-33298837D01*
X27556344Y-33298838D01*
X27556345Y-33298839D01*
X27640277Y-33350272D01*
X27644325Y-33352977D01*
X27644335Y-33352984D01*
X27662710Y-33366334D01*
X27682961Y-33376652D01*
X27687179Y-33379014D01*
X27771141Y-33430466D01*
X27771143Y-33430466D01*
X27771145Y-33430468D01*
X27812908Y-33447766D01*
X27862101Y-33468142D01*
X27866515Y-33470178D01*
X27874608Y-33474301D01*
X27886760Y-33480493D01*
X27908380Y-33487517D01*
X27912923Y-33489194D01*
X28003889Y-33526873D01*
X28099627Y-33549857D01*
X28104289Y-33551172D01*
X28125910Y-33558198D01*
X28125911Y-33558198D01*
X28125914Y-33558199D01*
X28134646Y-33559581D01*
X28148367Y-33561754D01*
X28153107Y-33562696D01*
X28248852Y-33585683D01*
X28347024Y-33593409D01*
X28351795Y-33593974D01*
X28374271Y-33597534D01*
X28374275Y-33597534D01*
X28396992Y-33597534D01*
X28401858Y-33597725D01*
X28500000Y-33605449D01*
X28598142Y-33597725D01*
X28603008Y-33597534D01*
X28625725Y-33597534D01*
X28625729Y-33597534D01*
X28648204Y-33593974D01*
X28652975Y-33593409D01*
X28751148Y-33585683D01*
X28846897Y-33562695D01*
X28851627Y-33561755D01*
X28874090Y-33558198D01*
X28895737Y-33551164D01*
X28900351Y-33549862D01*
X28996111Y-33526873D01*
X29087090Y-33489188D01*
X29091599Y-33487524D01*
X29113240Y-33480493D01*
X29133508Y-33470165D01*
X29137863Y-33468157D01*
X29228859Y-33430466D01*
X29312833Y-33379006D01*
X29317018Y-33376662D01*
X29337290Y-33366334D01*
X29355684Y-33352969D01*
X29359707Y-33350281D01*
X29443659Y-33298836D01*
X29518547Y-33234875D01*
X29522314Y-33231906D01*
X29540724Y-33218531D01*
X29556819Y-33202435D01*
X29560347Y-33199174D01*
X29635224Y-33135224D01*
X29699174Y-33060347D01*
X29702435Y-33056819D01*
X29718531Y-33040724D01*
X29731906Y-33022314D01*
X29734875Y-33018547D01*
X29798836Y-32943659D01*
X29850281Y-32859707D01*
X29852969Y-32855684D01*
X29866334Y-32837290D01*
X29876662Y-32817018D01*
X29879006Y-32812833D01*
X29930466Y-32728859D01*
X29968157Y-32637863D01*
X29970165Y-32633508D01*
X29980493Y-32613240D01*
X29987524Y-32591599D01*
X29989188Y-32587090D01*
X30026873Y-32496111D01*
X30049862Y-32400351D01*
X30051164Y-32395737D01*
X30058198Y-32374090D01*
X30061755Y-32351627D01*
X30062695Y-32346897D01*
X30085683Y-32251148D01*
X30093409Y-32152978D01*
X30093974Y-32148201D01*
X30097534Y-32125729D01*
X30098155Y-32094043D01*
X30098334Y-32090401D01*
X30101390Y-32051570D01*
X30105449Y-32000000D01*
X30098333Y-31909593D01*
X30098155Y-31905946D01*
X30098080Y-31902135D01*
X30097534Y-31874271D01*
X30093974Y-31851798D01*
X30093409Y-31847021D01*
X30085683Y-31748852D01*
X30062696Y-31653107D01*
X30061753Y-31648357D01*
X30058198Y-31625913D01*
X30058198Y-31625911D01*
X30058195Y-31625903D01*
X30051172Y-31604289D01*
X30049857Y-31599627D01*
X30026873Y-31503889D01*
X29989194Y-31412923D01*
X29987517Y-31408380D01*
X29980493Y-31386760D01*
X29970178Y-31366515D01*
X29968139Y-31362093D01*
X29930468Y-31271145D01*
X29930466Y-31271141D01*
X29879014Y-31187179D01*
X29876649Y-31182955D01*
X29866337Y-31162716D01*
X29866334Y-31162710D01*
X29858039Y-31151293D01*
X29852977Y-31144325D01*
X29850272Y-31140277D01*
X29798839Y-31056345D01*
X29798838Y-31056344D01*
X29798837Y-31056343D01*
X29798836Y-31056341D01*
X29734891Y-30981471D01*
X29731891Y-30977665D01*
X29718531Y-30959276D01*
X29702453Y-30943198D01*
X29699163Y-30939639D01*
X29635224Y-30864776D01*
X29560355Y-30800832D01*
X29556799Y-30797544D01*
X29540724Y-30781469D01*
X29522332Y-30768107D01*
X29518511Y-30765094D01*
X29517190Y-30763966D01*
X29443659Y-30701164D01*
X29443654Y-30701161D01*
X29443653Y-30701160D01*
X29359714Y-30649722D01*
X29355667Y-30647017D01*
X29337292Y-30633667D01*
X29337290Y-30633666D01*
X29331104Y-30630514D01*
X29317048Y-30623351D01*
X29312803Y-30620973D01*
X29228857Y-30569532D01*
X29137904Y-30531858D01*
X29133484Y-30529821D01*
X29113244Y-30519509D01*
X29113243Y-30519508D01*
X29113240Y-30519507D01*
X29109126Y-30518170D01*
X29091623Y-30512482D01*
X29087057Y-30510797D01*
X28996114Y-30473127D01*
X28900390Y-30450146D01*
X28895705Y-30448824D01*
X28874090Y-30441801D01*
X28851642Y-30438246D01*
X28846867Y-30437296D01*
X28751152Y-30414318D01*
X28751153Y-30414318D01*
X28751151Y-30414317D01*
X28751148Y-30414317D01*
X28703959Y-30410603D01*
X28653002Y-30406592D01*
X28648167Y-30406019D01*
X28625734Y-30402466D01*
X28625729Y-30402466D01*
X28603008Y-30402466D01*
X28598142Y-30402275D01*
X28500000Y-30394551D01*
X28401858Y-30402275D01*
X28396992Y-30402466D01*
X28374271Y-30402466D01*
X28351833Y-30406019D01*
X28346998Y-30406592D01*
X28248851Y-30414317D01*
X28248844Y-30414318D01*
X28153132Y-30437296D01*
X28148357Y-30438246D01*
X28125913Y-30441801D01*
X28125903Y-30441803D01*
X28104299Y-30448823D01*
X28099612Y-30450145D01*
X28003891Y-30473125D01*
X27912938Y-30510799D01*
X27908373Y-30512483D01*
X27886757Y-30519507D01*
X27866515Y-30529820D01*
X27862098Y-30531856D01*
X27771141Y-30569534D01*
X27687201Y-30620970D01*
X27682958Y-30623347D01*
X27662716Y-30633662D01*
X27662708Y-30633667D01*
X27644330Y-30647018D01*
X27640286Y-30649720D01*
X27556339Y-30701165D01*
X27481482Y-30765098D01*
X27477660Y-30768111D01*
X27459276Y-30781469D01*
X27443198Y-30797544D01*
X27439626Y-30800846D01*
X27364775Y-30864775D01*
X27300846Y-30939626D01*
X27297544Y-30943198D01*
X27281469Y-30959276D01*
X27268111Y-30977660D01*
X27265098Y-30981482D01*
X27201165Y-31056339D01*
X27149720Y-31140286D01*
X27147018Y-31144330D01*
X27133667Y-31162708D01*
X27133662Y-31162716D01*
X27123347Y-31182958D01*
X27120970Y-31187201D01*
X27069534Y-31271141D01*
X27031856Y-31362098D01*
X27029820Y-31366515D01*
X27019507Y-31386757D01*
X27012483Y-31408373D01*
X27010799Y-31412938D01*
X26973125Y-31503891D01*
X26950145Y-31599612D01*
X26948823Y-31604299D01*
X26941803Y-31625903D01*
X26941801Y-31625913D01*
X26938246Y-31648357D01*
X26937296Y-31653132D01*
X26914318Y-31748844D01*
X26914317Y-31748851D01*
X26906592Y-31846998D01*
X26906019Y-31851833D01*
X26902466Y-31874270D01*
X26902466Y-31896990D01*
X26902275Y-31901856D01*
X26894551Y-31999999D01*
X20515643Y-31999999D01*
X20520185Y-31984531D01*
X20536819Y-31963889D01*
X27463889Y-25036819D01*
X27525212Y-25003334D01*
X27551570Y-25000500D01*
X69499901Y-25000500D01*
X98499901Y-25000500D01*
X139948430Y-25000500D01*
X140015469Y-25020185D01*
G37*
%TD.AperFunction*%
%TD*%
M02*
