M48
; DRILL file {KiCad 7.0.9} date Sun Dec 24 18:30:09 2023
; FORMAT={-:-/ absolute / inch / decimal}
; #@! TF.CreationDate,2023-12-24T18:30:09+01:00
; #@! TF.GenerationSoftware,Kicad,Pcbnew,7.0.9
; #@! TF.FileFunction,Plated,1,2,PTH
FMAT,2
INCH
; #@! TA.AperFunction,Plated,PTH,ViaDrill
T1C0.0157
; #@! TA.AperFunction,Plated,PTH,ComponentDrill
T2C0.0315
; #@! TA.AperFunction,Plated,PTH,ComponentDrill
T3C0.0394
; #@! TA.AperFunction,Plated,PTH,ComponentDrill
T4C0.0512
; #@! TA.AperFunction,Plated,PTH,ComponentDrill
T5C0.0551
; #@! TA.AperFunction,Plated,PTH,ComponentDrill
T6C0.0591
; #@! TA.AperFunction,Plated,PTH,ViaDrill
T7C0.0669
; #@! TA.AperFunction,Plated,PTH,ComponentDrill
T8C0.0669
; #@! TA.AperFunction,Plated,PTH,ComponentDrill
T9C0.1260
%
G90
G05
T1
X0.9843Y-1.7717
X0.9843Y-1.9685
X0.9843Y-2.1654
X0.9843Y-2.3622
X0.9843Y-2.5591
X0.9843Y-2.7559
X0.9843Y-2.9528
X0.9843Y-3.1496
X0.9843Y-3.3465
X0.9843Y-3.5433
X1.1811Y-1.7717
X1.1811Y-1.9685
X1.1811Y-2.1654
X1.1811Y-2.3622
X1.1811Y-2.5591
X1.1811Y-2.7559
X1.1811Y-2.9528
X1.1811Y-3.1496
X1.1811Y-3.3465
X1.1811Y-3.5433
X1.378Y-1.7717
X1.378Y-1.9685
X1.378Y-2.1654
X1.378Y-2.3622
X1.378Y-2.5591
X1.378Y-2.7559
X1.378Y-2.9528
X1.378Y-3.1496
X1.378Y-3.3465
X1.378Y-3.5433
X1.5748Y-1.7717
X1.5748Y-1.9685
X1.5748Y-2.1654
X1.5748Y-2.3622
X1.5748Y-2.5591
X1.5748Y-2.7559
X1.5748Y-2.9528
X1.5748Y-3.1496
X1.5748Y-3.3465
X1.5748Y-3.5433
X1.7717Y-1.1811
X1.7717Y-1.378
X1.7717Y-1.5748
X1.7717Y-1.7717
X1.7717Y-1.9685
X1.7717Y-2.1654
X1.7717Y-2.3622
X1.7717Y-2.5591
X1.7717Y-2.7559
X1.7717Y-2.9528
X1.7717Y-3.1496
X1.7717Y-3.3465
X1.7717Y-3.5433
X1.7717Y-3.7402
X1.7717Y-3.937
X1.9685Y-1.1811
X1.9685Y-1.378
X1.9685Y-1.5748
X1.9685Y-1.7717
X1.9685Y-1.9685
X1.9685Y-2.1654
X1.9685Y-2.3622
X1.9685Y-2.5591
X1.9685Y-2.7559
X1.9685Y-2.9528
X1.9685Y-3.1496
X1.9685Y-3.3465
X1.9685Y-3.5433
X2.1654Y-1.1811
X2.1654Y-1.378
X2.1654Y-1.5748
X2.1654Y-1.7717
X2.1654Y-1.9685
X2.1654Y-2.1654
X2.1654Y-2.3622
X2.1654Y-2.5591
X2.1654Y-2.7559
X2.1654Y-2.9528
X2.1654Y-3.1496
X2.1654Y-3.3465
X2.1654Y-3.5433
X2.2638Y-4.2323
X2.2638Y-4.4882
X2.2638Y-4.7244
X2.2638Y-4.9213
X2.2638Y-5.1181
X2.2638Y-5.315
X2.3031Y-1.0335
X2.3622Y-1.5748
X2.3622Y-1.7717
X2.3622Y-1.9685
X2.3622Y-2.1654
X2.4705Y-5.1181
X2.4705Y-5.315
X2.5591Y-1.9685
X2.5689Y-1.378
X2.5689Y-1.5748
X2.6181Y-3.9764
X2.6181Y-4.2323
X2.6181Y-4.5669
X2.6378Y-5.5118
X2.6476Y-5.1181
X2.6476Y-5.315
X2.6575Y-3.7402
X2.7461Y-4.2323
X2.7559Y-1.378
X2.7559Y-1.5748
X2.7559Y-1.9685
X2.7559Y-2.3622
X2.7559Y-2.5591
X2.7559Y-2.7559
X2.7559Y-2.9528
X2.7559Y-3.1496
X2.7559Y-4.7244
X2.7657Y-4.4783
X2.815Y-4.9114
X2.815Y-5.5118
X2.8248Y-5.1181
X2.8248Y-5.315
X2.8346Y-1.2598
X2.874Y-1.6831
X2.9528Y-3.1496
X2.9528Y-3.3465
X2.9528Y-3.7402
X2.9528Y-4.2323
X2.9626Y-4.4783
X2.9921Y-4.7244
X2.9921Y-5.5118
X3.002Y-3.9961
X3.002Y-4.9114
X3.002Y-5.1181
X3.002Y-5.315
X3.0709Y-1.0433
X3.1102Y-1.9291
X3.1693Y-5.5118
X3.1791Y-5.1181
X3.1791Y-5.315
X3.189Y-3.5039
X3.189Y-3.7402
X3.2874Y-4.7343
X3.3071Y-1.1811
X3.3071Y-2.2441
X3.3465Y-1.4567
X3.3465Y-3.5039
X3.3465Y-3.7402
X3.3465Y-5.315
X3.3465Y-5.5118
X3.4252Y-5.1181
X3.4449Y-3.9961
X3.4646Y-4.2323
X3.4843Y-1.0335
X3.5138Y-5.5118
X3.5335Y-5.315
X3.622Y-1.5748
X3.6614Y-2.3622
X3.7008Y-5.5118
X3.7106Y-5.1181
X3.7106Y-5.315
X3.7402Y-2.5591
X3.7402Y-2.7559
X3.7402Y-2.9528
X3.7402Y-3.1496
X3.7402Y-3.3465
X3.7402Y-3.5433
X3.7835Y-4.7913
X3.7894Y-3.8976
X3.7913Y-4.5276
X3.7953Y-4.2323
X3.8484Y-1.0335
X3.878Y-5.1181
X3.878Y-5.315
X3.878Y-5.5118
X3.8858Y-4.8071
X3.8976Y-4.2323
X3.8976Y-4.5276
X3.937Y-1.5748
X3.937Y-1.9685
X3.937Y-2.1654
X3.937Y-2.7559
X3.937Y-2.9528
X3.937Y-3.1496
X3.937Y-3.7402
X4.0354Y-3.7402
X4.0354Y-4.8228
X4.0453Y-5.5118
X4.1142Y-4.6654
X4.1339Y-1.1811
X4.1339Y-1.5748
X4.1339Y-1.7717
X4.1339Y-1.9685
X4.1339Y-2.1654
X4.1339Y-2.3622
X4.1339Y-5.2165
X4.1732Y-5.3642
X4.3012Y-1.0335
X4.3307Y-1.1811
X4.3307Y-1.378
X4.3307Y-1.5748
X4.3307Y-1.7717
X4.3307Y-1.9685
X4.3307Y-2.1654
X4.3307Y-2.3622
X4.3307Y-4.2323
X4.3307Y-5.1181
X4.4291Y-2.5591
X4.4291Y-2.7559
X4.4291Y-2.9528
X4.4291Y-3.1496
X4.4291Y-3.3465
X4.4291Y-3.5433
X4.4291Y-3.7402
X4.4291Y-3.937
X4.4291Y-4.1339
X4.4291Y-4.4291
X4.4291Y-4.6654
X4.4291Y-4.9213
X4.4291Y-5.315
X4.5276Y-1.1811
X4.5276Y-1.378
X4.5276Y-1.5748
X4.5276Y-1.7717
X4.5276Y-1.9685
X4.5276Y-2.1654
X4.5276Y-2.3622
X4.5276Y-2.5591
X4.5276Y-2.7559
X4.5276Y-2.9528
X4.5276Y-3.1496
X4.5276Y-3.3465
X4.5276Y-3.5433
X4.5276Y-3.7402
X4.5276Y-3.937
X4.7244Y-1.1811
X4.7244Y-1.378
X4.7244Y-1.5748
X4.7244Y-1.7717
X4.7244Y-1.9685
X4.7244Y-2.1654
X4.7244Y-2.3622
X4.7244Y-2.5591
X4.7244Y-2.7559
X4.7244Y-2.9528
X4.7244Y-3.1496
X4.7244Y-3.3465
X4.7244Y-3.5433
X4.7244Y-3.7402
X4.7244Y-3.937
X4.9213Y-1.7717
X4.9213Y-1.9685
X4.9213Y-2.1654
X4.9213Y-2.3622
X4.9213Y-2.5591
X4.9213Y-2.7559
X4.9213Y-2.9528
X4.9213Y-3.1496
X4.9213Y-3.3465
X4.9213Y-3.5433
X5.1181Y-1.7717
X5.1181Y-1.9685
X5.1181Y-2.1654
X5.1181Y-2.3622
X5.1181Y-2.5591
X5.1181Y-2.7559
X5.1181Y-2.9528
X5.1181Y-3.1496
X5.1181Y-3.3465
X5.1181Y-3.5433
X5.315Y-1.7717
X5.315Y-1.9685
X5.315Y-2.1654
X5.315Y-2.3622
X5.315Y-2.5591
X5.315Y-2.7559
X5.315Y-2.9528
X5.315Y-3.1496
X5.315Y-3.3465
X5.315Y-3.5433
X5.5118Y-1.7717
X5.5118Y-1.9685
X5.5118Y-2.1654
X5.5118Y-2.3622
X5.5118Y-2.5591
X5.5118Y-2.7559
X5.5118Y-2.9528
X5.5118Y-3.1496
X5.5118Y-3.3465
X5.5118Y-3.5433
X5.7087Y-1.7717
X5.7087Y-1.9685
X5.7087Y-2.1654
X5.7087Y-2.3622
X5.7087Y-2.5591
X5.7087Y-2.7559
X5.7087Y-2.9528
X5.7087Y-3.1496
X5.7087Y-3.3465
X5.7087Y-3.5433
T2
X2.874Y-3.6689
X2.874Y-3.9689
T3
X1.9587Y-3.8081
X1.9587Y-3.9081
X2.1555Y-3.8075
X2.1555Y-3.9075
X3.0689Y-3.3484
X3.5413Y-3.3484
X3.9764Y-3.877
X3.9764Y-3.977
T4
X3.0689Y-3.8287
X3.3071Y-3.2717
X3.5433Y-3.8307
T5
X2.4378Y-1.2992
X2.4378Y-4.964
X2.4654Y-4.5045
X2.6378Y-1.2992
X2.6378Y-4.964
X2.6654Y-4.5045
X3.2325Y-4.964
X3.2604Y-4.5045
X3.4325Y-4.964
X3.4604Y-4.5045
X3.9691Y-1.2992
X4.0297Y-4.964
X4.0478Y-4.5045
X4.1691Y-1.2992
X4.2297Y-4.964
X4.2478Y-4.5045
T6
X3.1161Y-1.2992
X3.498Y-1.2992
T7
X2.7181Y-2.1079
T8
X3.1378Y-2.1083
X3.1378Y-2.437
X3.1378Y-2.7638
X3.1378Y-3.0925
X3.4606Y-2.1083
X3.4606Y-2.437
X3.4606Y-2.7638
X3.4606Y-3.0925
T9
X1.122Y-1.2598
X1.122Y-3.7795
X1.563Y-1.4783
X1.563Y-3.7224
X2.3622Y-5.5315
X2.6654Y-1.7539
X2.6654Y-3.4469
X3.9331Y-1.7539
X3.9331Y-3.4469
X4.311Y-5.5315
X5.0354Y-1.4783
X5.0354Y-3.7224
X5.4724Y-1.2598
X5.4724Y-3.7795
T0
M30
